# Blender 4.2.0
# www.blender.org
mtllib GoldCollector2.mtl
o Plane.016
v 0.000000 0.084545 0.000000
v -0.041447 0.564156 0.435178
v -0.041447 0.611016 0.435178
v -0.041447 0.564156 -0.450571
v -0.041447 0.611016 -0.450571
v 0.033125 0.564156 0.435178
v 0.033125 0.611016 0.435178
v 0.033125 0.564156 -0.450571
v 0.033125 0.611016 -0.450571
v -0.012550 0.331397 0.012550
v -0.012550 0.536506 0.012550
v -0.012550 0.331397 -0.012550
v -0.012550 0.536506 -0.012550
v 0.012550 0.331397 0.012550
v 0.012550 0.536506 0.012550
v 0.012550 0.331397 -0.012550
v 0.012550 0.536506 -0.012550
v -0.000284 0.278970 0.080820
v -0.057648 0.278602 0.056777
v -0.080975 0.278365 -0.000216
v -0.056932 0.278394 -0.057581
v 0.000061 0.278672 -0.080910
v 0.057425 0.279039 -0.056867
v 0.080752 0.279276 0.000127
v 0.056709 0.279247 0.057492
v -0.037649 0.331397 -0.091426
v -0.091427 0.331397 -0.037649
v -0.053400 0.331397 -0.053400
v -0.091427 0.331397 0.037649
v -0.037649 0.331397 0.091426
v -0.053400 0.331397 0.053400
v 0.091426 0.331397 -0.037649
v 0.037648 0.331397 -0.091426
v 0.053400 0.331397 -0.053400
v 0.037648 0.331397 0.091426
v 0.091426 0.331397 0.037649
v 0.053399 0.331397 0.053400
v -0.091427 0.278821 -0.037649
v -0.037649 0.278821 -0.091426
v -0.037649 0.278821 0.091426
v -0.091427 0.278821 0.037649
v 0.037648 0.278821 -0.091426
v 0.091426 0.278821 -0.037649
v 0.091426 0.278821 0.037649
v 0.037648 0.278821 0.091426
v 0.000291 0.237857 -0.080834
v -0.056702 0.237580 -0.057506
v 0.080982 0.238461 0.000202
v 0.057654 0.238224 -0.056791
v -0.057418 0.237787 0.056852
v -0.000054 0.238155 0.080896
v -0.080746 0.237550 -0.000141
v 0.056938 0.238432 0.057567
v 0.023759 0.238005 -0.057698
v -0.023760 0.238005 -0.057698
v 0.057697 0.238005 0.023759
v 0.057697 0.238005 -0.023760
v -0.057698 0.238005 0.023759
v -0.023760 0.238005 0.057697
v -0.057698 0.238005 -0.023760
v 0.023759 0.238005 0.057697
v 0.023759 0.196175 -0.057698
v -0.023760 0.196175 -0.057698
v 0.057697 0.196175 0.023759
v 0.057697 0.196175 -0.023760
v -0.057698 0.196175 0.023759
v -0.023760 0.196175 0.057697
v -0.057698 0.196175 -0.023760
v 0.023759 0.196175 0.057697
v -0.000548 0.196552 -0.030722
v -0.022277 0.196262 -0.021479
v 0.030820 0.196428 -0.000076
v 0.021574 0.196622 -0.021805
v -0.021946 0.195723 0.022370
v 0.000176 0.195793 0.031287
v -0.031192 0.195917 0.000641
v 0.021905 0.196083 0.022044
v -0.000290 0.164745 -0.031115
v -0.022019 0.164455 -0.021872
v 0.031078 0.164621 -0.000469
v 0.021832 0.164814 -0.022198
v -0.021688 0.163916 0.021977
v 0.000434 0.163985 0.030894
v -0.030934 0.164110 0.000248
v 0.022163 0.164276 0.021651
v 0.126654 0.305109 -0.000000
v -0.126655 0.305109 -0.000000
v 0.088799 0.305109 0.088799
v 0.094877 0.258875 -0.038836
v -0.000001 0.305109 -0.125946
v 0.088858 0.305109 -0.088858
v -0.000001 0.305109 0.121239
v 0.059488 0.217090 0.059488
v 0.052355 0.180928 0.018587
v -0.000000 0.217090 0.084182
v -0.087682 0.305109 0.087682
v -0.088467 0.305109 -0.088466
v 0.039843 0.258461 -0.095041
v 0.083866 0.217090 -0.000000
v 0.021984 0.180291 0.050235
v -0.038819 0.258019 -0.094872
v 0.059015 0.217090 -0.059016
v -0.021882 0.179936 0.050167
v -0.094477 0.257808 -0.039608
v -0.058701 0.217090 -0.058700
v -0.000000 0.217090 -0.083552
v -0.094936 0.257951 0.038859
v -0.053050 0.180061 0.019589
v -0.053298 0.180598 -0.024000
v -0.039789 0.258365 0.094953
v 0.052177 0.181467 -0.025174
v 0.038873 0.258808 0.094943
v 0.094002 0.259015 0.039391
v -0.084813 0.217090 -0.000000
v -0.059016 0.217090 0.059015
v 0.020836 0.181591 -0.055822
v -0.022894 0.181230 -0.055234
v -0.050000 0.620427 0.050000
v -0.050000 0.647384 0.050000
v -0.050000 0.620427 -0.050000
v -0.050000 0.647384 -0.050000
v 0.048365 0.620448 0.050000
v 0.048429 0.647384 0.050000
v 0.048365 0.620448 -0.050000
v 0.048429 0.647384 -0.050000
v -0.075939 0.620427 -0.050000
v -0.075939 0.620427 0.050000
v -0.050000 0.544964 -0.050000
v -0.050000 0.544964 0.050000
v -0.075939 0.544964 -0.050000
v -0.075939 0.544964 0.050000
v -0.050000 0.521101 -0.050000
v -0.050000 0.521101 0.050000
v 0.048300 0.544964 -0.050000
v 0.048300 0.544964 0.050000
v 0.048300 0.521101 -0.050000
v 0.048300 0.521101 0.050000
v 0.071450 0.544964 -0.050000
v 0.071450 0.544964 0.050000
v 0.071450 0.620470 -0.050000
v 0.071450 0.620470 0.050000
v -0.063552 0.521101 -0.063786
v -0.063552 0.521101 0.063786
v 0.061852 0.521101 -0.063786
v 0.061852 0.521101 0.063786
v -0.063552 0.512157 -0.063786
v -0.063552 0.512157 0.063786
v 0.061852 0.512157 -0.063786
v 0.061852 0.512157 0.063786
v 0.058951 0.485460 0.103663
v 0.101051 0.485460 0.061563
v 0.074418 0.503599 0.076570
v 0.101051 0.485460 -0.061563
v 0.058951 0.485460 -0.103663
v 0.074418 0.503599 -0.076570
v -0.102751 0.485460 0.061563
v -0.060651 0.485460 0.103663
v -0.076118 0.503599 0.076570
v -0.060651 0.485460 -0.103663
v -0.102751 0.485460 -0.061563
v -0.076118 0.503599 -0.076570
v 0.101051 0.357868 0.061563
v 0.058951 0.357868 0.103663
v 0.058951 0.357868 -0.103663
v 0.101051 0.357868 -0.061563
v -0.060651 0.357868 0.103663
v -0.102751 0.357868 0.061563
v -0.102751 0.357868 -0.061563
v -0.060651 0.357868 -0.103663
v -0.519120 -0.024103 0.493792
v -0.519120 0.546160 0.493792
v -0.519120 -0.024103 0.423063
v -0.519120 0.546160 0.423063
v -0.448391 -0.024103 0.493792
v -0.448391 0.546160 0.493792
v -0.448391 -0.024103 0.423063
v -0.448391 0.546160 0.423063
v -0.448391 0.618213 0.423063
v -0.448391 0.618213 0.493792
v 0.522033 -0.024103 0.493792
v 0.522033 0.546160 0.493792
v 0.522033 -0.024103 0.423063
v 0.522033 0.546160 0.423063
v 0.451304 -0.024103 0.493792
v 0.451304 0.546160 0.493792
v 0.451304 -0.024103 0.423063
v 0.451304 0.546160 0.423063
v 0.451304 0.618213 0.423063
v 0.451304 0.618213 0.493792
v -0.519120 -0.024103 -0.493792
v -0.519120 0.546160 -0.493792
v -0.519120 -0.024103 -0.423063
v -0.519120 0.546160 -0.423063
v -0.448391 -0.024103 -0.493792
v -0.448391 0.546160 -0.493792
v -0.448391 -0.024103 -0.423063
v -0.448391 0.546160 -0.423063
v -0.448391 0.618213 -0.423063
v -0.448391 0.618213 -0.493792
v 0.522033 -0.024103 -0.493792
v 0.522033 0.546160 -0.493792
v 0.522033 -0.024103 -0.423063
v 0.522033 0.546160 -0.423063
v 0.451304 -0.024103 -0.493792
v 0.451304 0.546160 -0.493792
v 0.451304 -0.024103 -0.423063
v 0.451304 0.546160 -0.423063
v 0.451304 0.618213 -0.423063
v 0.451304 0.618213 -0.493792
vn -1.0000 -0.0000 -0.0000
vn -0.0000 -0.0000 -1.0000
vn 1.0000 -0.0000 -0.0000
vn -0.0000 -0.0000 1.0000
vn -0.0000 -1.0000 -0.0000
vn -0.0000 1.0000 -0.0000
vn -0.0019 -1.0000 0.0074
vn -0.0000 0.7501 0.6614
vn -0.6758 -0.0000 -0.7371
vn -0.5981 0.8015 -0.0000
vn -0.3364 -0.0036 -0.9417
vn 0.9987 -0.0000 0.0513
vn 0.4294 0.7945 -0.4294
vn -0.9983 -0.0000 -0.0581
vn -0.9972 -0.0000 0.0746
vn 0.5981 -0.8015 -0.0000
vn -0.0223 -0.9997 0.0057
vn -0.0207 -0.9997 -0.0148
vn -0.0002 -0.9999 -0.0133
vn -0.0226 -0.9997 0.0058
vn -0.0002 -0.9999 -0.0132
vn -0.0210 -0.9997 -0.0150
vn 0.0214 -0.9997 0.0132
vn -0.5412 -0.8096 -0.2272
vn 0.3379 0.0002 -0.9412
vn -0.4328 -0.0008 0.9015
vn 0.9482 0.0047 -0.3175
vn -0.9067 -0.0043 0.4218
vn 0.5439 0.8082 -0.2260
vn 0.2286 -0.8041 0.5488
vn -0.7444 -0.0000 0.6678
vn 0.0224 -0.9997 -0.0027
vn 0.0226 -0.9997 -0.0028
vn 0.0211 -0.9997 0.0131
vn 0.0066 -1.0000 -0.0040
vn 0.0053 -0.9999 0.0119
vn 0.0028 -1.0000 -0.0040
vn 0.9993 -0.0000 0.0374
vn -0.9996 -0.0000 0.0287
vn 0.6722 -0.0000 -0.7404
vn -0.6108 -0.7918 -0.0000
vn 0.4378 0.7853 0.4378
vn -0.4447 0.7775 0.4447
vn -0.0000 0.7775 -0.6289
vn -0.0826 -0.0130 0.9965
vn -0.0082 -0.9999 0.0124
vn 0.0054 -0.9999 0.0093
vn 0.0055 -0.9999 0.0096
vn -0.0079 -0.9999 0.0120
vn 0.0027 -1.0000 -0.0041
vn -0.0106 -0.9999 -0.0014
vn -0.0109 -0.9999 -0.0013
vn 0.0081 -0.9999 -0.0123
vn 0.6609 0.0146 -0.7504
vn -1.0000 -0.0081 -0.0023
vn -0.1748 -0.8815 -0.4386
vn 0.2149 -0.8514 0.4784
vn 0.1592 0.9017 -0.4019
vn -0.4344 0.8862 -0.1612
vn 0.7610 -0.0018 0.6487
vn -0.7302 -0.0000 -0.6832
vn 0.4341 0.0008 -0.9009
vn -0.5981 -0.8015 -0.0000
vn 0.7302 -0.0000 0.6832
vn 0.5981 0.8015 -0.0000
vn -0.7302 -0.0000 0.6832
vn 0.7302 -0.0000 -0.6832
vn 0.5530 -0.8028 -0.2230
vn 0.0513 -0.0000 0.9987
vn 0.4300 0.7938 0.4300
vn 0.4300 -0.7938 0.4300
vn -0.0000 -0.7956 -0.6059
vn 0.6758 -0.0000 -0.7371
vn -0.0000 0.7956 -0.6059
vn 0.0501 -0.0000 -0.9987
vn 0.9987 -0.0000 -0.0501
vn 0.4294 -0.7945 -0.4294
vn 0.9411 0.0059 0.3381
vn 0.6208 -0.0000 0.7840
vn -0.0000 -0.7501 0.6614
vn -0.6208 -0.0000 0.7840
vn -0.4428 -0.7797 0.4428
vn -0.4428 0.7797 0.4428
vn -0.0746 -0.0000 0.9972
vn -0.0581 -0.0000 -0.9983
vn -0.4338 0.7897 -0.4338
vn -0.4338 -0.7897 -0.4338
vn 0.7444 -0.0000 0.6678
vn -0.6566 0.0040 -0.7542
vn 0.2301 -0.8118 -0.5367
vn 0.2210 0.8123 -0.5397
vn 0.9074 0.0043 -0.4203
vn 0.4378 -0.7853 0.4378
vn -0.9008 -0.0059 -0.4343
vn -0.2291 0.8031 -0.5501
vn -0.2200 -0.8077 -0.5471
vn -0.5503 0.8026 -0.2302
vn -0.4300 -0.0041 -0.9028
vn -0.9452 -0.0047 0.3264
vn -0.4548 0.8675 0.2013
vn -0.5429 -0.8089 0.2256
vn -0.5520 0.8036 0.2226
vn -0.9407 -0.0059 -0.3392
vn -0.0000 0.7848 0.6198
vn 0.3352 0.0036 0.9422
vn -0.2215 -0.8115 0.5408
vn -0.2306 0.8110 0.5378
vn -0.0501 -0.0000 0.9987
vn 0.2195 0.8086 0.5458
vn -0.3394 -0.0002 0.9407
vn 0.9016 0.0059 0.4326
vn -0.0000 -0.7848 0.6198
vn 0.5570 -0.7972 0.2330
vn 0.5480 0.8042 0.2301
vn 0.4385 0.0041 0.8987
vn 0.6243 0.7812 -0.0000
vn 0.6722 -0.0000 0.7404
vn 0.6243 -0.7812 -0.0000
vn 0.4446 0.7775 -0.4447
vn -0.0374 -0.0000 -0.9993
vn 0.4447 -0.7775 -0.4447
vn -0.7399 -0.0143 0.6726
vn -0.0000 -0.7775 -0.6289
vn 0.7363 -0.0000 -0.6767
vn -0.7363 -0.0000 -0.6767
vn 0.0745 0.0129 -0.9971
vn -0.4493 0.7722 -0.4493
vn -0.4493 -0.7722 -0.4493
vn 0.0287 -0.0000 -0.9996
vn -0.4399 -0.8775 -0.1910
vn -0.6590 -0.0000 0.7521
vn -0.6590 -0.0000 -0.7521
vn -0.6108 0.7918 -0.0000
vn -0.4608 -0.8673 0.1884
vn 0.0374 -0.0000 0.9993
vn -0.9993 -0.0000 -0.0374
vn -0.4447 -0.7775 0.4447
vn 0.6519 -0.0041 0.7583
vn -0.1979 0.8521 0.4844
vn -0.1924 -0.8537 0.4839
vn -0.6617 -0.0146 0.7496
vn 1.0000 0.0081 0.0017
vn 0.1924 0.8564 0.4792
vn 0.4547 0.8686 0.1968
vn 0.1072 -0.0114 0.9942
vn 0.4890 -0.8527 0.1838
vn 0.4219 0.8902 -0.1716
vn 0.4559 -0.8669 -0.2017
vn -0.1038 0.0114 -0.9945
vn 0.1815 -0.8778 -0.4434
vn 0.9996 0.0084 -0.0254
vn -0.7607 0.0019 -0.6492
vn -0.9997 -0.0084 0.0220
vn -0.1810 0.8996 -0.3973
vn 0.7344 0.0143 -0.6785
vn 0.0002 -1.0000 -0.0000
vn -0.7206 0.6934 -0.0000
vn 0.7599 0.6500 -0.0000
vn -1.0000 0.0009 -0.0000
vn -0.6770 -0.7359 -0.0000
vn 0.7177 -0.6963 -0.0000
vn -0.5629 0.8265 -0.0000
vn -0.0000 0.8310 -0.5563
vn 0.5629 0.8265 -0.0000
vn 0.6440 0.4128 0.6440
vn 0.6440 0.4128 -0.6440
vn -0.6440 0.4128 0.6440
vn -0.6440 0.4128 -0.6440
vn -0.7071 -0.0000 -0.7071
vn 0.7071 -0.0000 -0.7071
vn -0.7071 -0.0000 0.7071
vn 0.7071 -0.0000 0.7071
vn -0.0000 0.8310 0.5563
vn -0.7136 0.7005 -0.0000
vn 0.7136 0.7005 -0.0000
vt 0.634000 0.506000
vt 0.625000 0.500000
vt 0.683360 0.496573
vt 0.684543 0.506097
vt 0.684543 0.501335
vt 0.682956 0.464147
vt 0.682956 0.455553
vt 0.682956 0.494985
vt 0.682956 0.438749
vt 0.681773 0.438091
vt 0.686535 0.494985
vt 0.650803 0.850838
vt 0.538000 0.640000
s 0
usemtl Material
f 2/1/1 3/1/1 5/1/1 4/1/1
f 4/1/2 5/1/2 9/1/2 8/1/2
f 8/1/3 9/1/3 7/1/3 6/1/3
f 6/1/4 7/1/4 3/1/4 2/1/4
f 4/1/5 8/1/5 6/1/5 2/1/5
f 9/1/6 5/1/6 3/1/6 7/1/6
f 10/2/1 11/2/1 13/2/1 12/2/1
f 12/2/2 13/2/2 17/2/2 16/2/2
f 16/2/3 17/2/3 15/2/3 14/2/3
f 14/2/4 15/2/4 11/2/4 10/2/4
f 16/2/6 14/2/6 37/2/6 36/2/6 32/2/6 34/2/6
f 17/2/6 13/2/6 11/2/6 15/2/6
f 42/3/7 43/3/7 23/3/7 22/3/7
f 35/4/8 30/4/8 92/4/8
f 39/4/9 26/4/9 90/4/9
f 29/4/10 27/4/10 87/4/10
f 46/5/11 22/5/11 98/5/11
f 10/2/6 12/2/6 28/2/6 27/2/6 29/2/6 31/2/6
f 14/2/6 10/2/6 31/2/6 30/2/6 35/2/6 37/2/6
f 12/2/6 16/2/6 34/2/6 33/2/6 26/2/6 28/2/6
f 26/2/6 27/2/6 28/2/6
f 29/2/6 30/2/6 31/2/6
f 32/2/6 33/2/6 34/2/6
f 35/2/6 36/2/6 37/2/6
f 44/6/12 36/6/12 88/6/12
f 33/6/13 32/6/13 91/6/13
f 38/6/14 27/6/14 97/6/14
f 29/6/15 41/6/15 96/6/15
f 44/4/16 43/4/16 86/4/16
f 43/3/17 44/3/17 24/3/17 23/3/17
f 44/3/18 45/3/18 25/3/18 24/3/18
f 39/3/19 42/3/19 22/3/19 21/3/19
f 41/3/20 38/3/20 20/3/20 19/3/20
f 45/3/21 40/3/21 18/3/21 25/3/21
f 40/3/7 41/3/7 19/3/7 18/3/7
f 38/3/22 39/3/22 21/3/22 20/3/22
f 52/3/23 47/3/23 55/3/23 60/3/23
f 47/5/24 52/5/24 104/5/24
f 22/7/25 46/7/25 101/7/25
f 50/7/26 19/7/26 107/7/26
f 48/5/27 24/5/27 113/5/27
f 19/5/28 50/5/28 110/5/28
f 23/7/29 24/7/29 89/7/29
f 51/7/30 53/7/30 112/7/30
f 59/8/31 67/8/31 95/8/31
f 49/3/32 48/3/32 56/3/32 57/3/32
f 50/3/33 52/3/33 60/3/33 58/3/33
f 48/3/34 53/3/34 61/3/34 56/3/34
f 51/3/35 50/3/35 58/3/35 59/3/35
f 47/3/36 46/3/36 54/3/36 55/3/36
f 53/3/36 51/3/36 59/3/36 61/3/36
f 46/3/35 49/3/35 57/3/35 54/3/35
f 64/3/37 69/3/37 77/3/37 72/3/37
f 57/9/38 65/9/38 102/9/38
f 68/9/39 60/9/39 105/9/39
f 65/8/40 57/8/40 99/8/40
f 68/8/41 66/8/41 114/8/41
f 56/9/42 61/9/42 93/9/42
f 59/9/43 58/9/43 115/9/43
f 55/8/44 54/8/44 106/8/44
f 82/10/45 74/10/45 108/10/45
f 67/3/46 66/3/46 74/3/46 75/3/46
f 63/3/47 62/3/47 70/3/47 71/3/47
f 69/3/48 67/3/48 75/3/48 77/3/48
f 62/3/49 65/3/49 73/3/49 70/3/49
f 68/3/50 63/3/50 71/3/50 76/3/50
f 65/3/51 64/3/51 72/3/51 73/3/51
f 66/3/52 68/3/52 76/3/52 74/3/52
f 84/3/53 79/3/53 78/3/53 81/3/53 80/3/53 85/3/53 83/3/53 82/3/53
f 80/11/54 72/11/54 94/11/54
f 74/11/55 82/11/55 103/11/55
f 78/10/56 79/10/56 117/10/56
f 83/10/57 85/10/57 100/10/57
f 70/11/58 73/11/58 116/11/58
f 76/11/59 71/11/59 109/11/59
f 72/10/60 80/10/60 111/10/60
f 27/4/61 38/4/61 87/4/61
f 49/7/62 23/7/62 89/7/62
f 38/4/63 41/4/63 87/4/63
f 36/4/64 44/4/64 86/4/64
f 32/4/65 36/4/65 86/4/65
f 41/4/66 29/4/66 87/4/66
f 43/4/67 32/4/67 86/4/67
f 48/7/68 49/7/68 89/7/68
f 35/6/69 45/6/69 88/6/69
f 36/6/70 35/6/70 88/6/70
f 45/6/71 44/6/71 88/6/71
f 42/4/72 39/4/72 90/4/72
f 33/4/73 42/4/73 90/4/73
f 26/4/74 33/4/74 90/4/74
f 42/6/75 33/6/75 91/6/75
f 32/6/76 43/6/76 91/6/76
f 43/6/77 42/6/77 91/6/77
f 24/7/78 48/7/78 89/7/78
f 45/4/79 35/4/79 92/4/79
f 40/4/80 45/4/80 92/4/80
f 30/4/81 40/4/81 92/4/81
f 41/6/82 40/6/82 96/6/82
f 30/6/83 29/6/83 96/6/83
f 40/6/84 30/6/84 96/6/84
f 26/6/85 39/6/85 97/6/85
f 27/6/86 26/6/86 97/6/86
f 39/6/87 38/6/87 97/6/87
f 69/8/88 61/8/88 95/8/88
f 76/10/89 84/10/89 108/10/89
f 49/5/90 46/5/90 98/5/90
f 22/5/91 23/5/91 98/5/91
f 23/5/92 49/5/92 98/5/92
f 69/9/93 64/9/93 93/9/93
f 47/7/94 21/7/94 101/7/94
f 21/7/95 22/7/95 101/7/95
f 46/7/96 47/7/96 101/7/96
f 64/9/76 56/9/76 93/9/76
f 20/5/97 21/5/97 104/5/97
f 21/5/98 47/5/98 104/5/98
f 52/5/99 20/5/99 104/5/99
f 74/10/100 76/10/100 108/10/100
f 52/7/101 50/7/101 107/7/101
f 19/7/102 20/7/102 107/7/102
f 20/7/103 52/7/103 107/7/103
f 61/8/104 59/8/104 95/8/104
f 51/5/105 18/5/105 110/5/105
f 50/5/106 51/5/106 110/5/106
f 18/5/107 19/5/107 110/5/107
f 61/9/108 69/9/108 93/9/108
f 25/7/109 18/7/109 112/7/109
f 18/7/110 51/7/110 112/7/110
f 53/7/111 25/7/111 112/7/111
f 67/8/112 69/8/112 95/8/112
f 53/5/113 48/5/113 113/5/113
f 24/5/114 25/5/114 113/5/114
f 25/5/115 53/5/115 113/5/115
f 57/8/116 56/8/116 99/8/116
f 56/8/117 64/8/117 99/8/117
f 64/8/118 65/8/118 99/8/118
f 54/9/119 57/9/119 102/9/119
f 62/9/120 54/9/120 102/9/120
f 65/9/121 62/9/121 102/9/121
f 84/11/122 76/11/122 109/11/122
f 62/8/123 63/8/123 106/8/123
f 54/8/124 62/8/124 106/8/124
f 63/8/125 55/8/125 106/8/125
f 71/11/126 79/11/126 109/11/126
f 60/9/127 55/9/127 105/9/127
f 63/9/128 68/9/128 105/9/128
f 55/9/129 63/9/129 105/9/129
f 79/11/130 84/11/130 109/11/130
f 66/3/131 58/3/131 114/3/131
f 60/8/132 68/8/132 114/8/132
f 58/8/133 60/8/133 114/8/133
f 84/10/134 82/10/134 108/10/134
f 67/9/135 59/9/135 115/9/135
f 58/9/136 66/9/136 115/9/136
f 66/9/137 67/9/137 115/9/137
f 83/11/138 75/11/138 103/11/138
f 75/11/139 74/11/139 103/11/139
f 82/11/140 83/11/140 103/11/140
f 75/10/141 83/10/141 100/10/141
f 85/10/142 77/10/142 100/10/142
f 77/10/143 75/10/143 100/10/143
f 72/11/144 77/11/144 94/11/144
f 77/11/145 85/11/145 94/11/145
f 85/11/146 80/11/146 94/11/146
f 73/10/147 72/10/147 111/10/147
f 80/10/148 81/10/148 111/10/148
f 81/10/149 73/10/149 111/10/149
f 81/11/150 78/11/150 116/11/150
f 73/11/151 81/11/151 116/11/151
f 78/11/152 70/11/152 116/11/152
f 79/10/153 71/10/153 117/10/153
f 71/10/154 70/10/154 117/10/154
f 70/10/155 78/10/155 117/10/155
f 120/12/3 118/12/3 129/12/3 128/12/3
f 120/12/2 121/12/2 125/12/2 124/12/2
f 124/12/2 125/12/2 140/12/2
f 122/12/4 123/12/4 119/12/4 118/12/4
f 120/12/156 124/12/156 122/12/156 118/12/156
f 125/12/6 121/12/6 119/12/6 123/12/6
f 118/12/4 127/12/4 131/12/4 129/12/4
f 127/12/1 126/12/1 130/12/1 131/12/1
f 126/12/2 120/12/2 128/12/2 130/12/2
f 129/12/4 133/12/4 137/12/4 135/12/4
f 128/12/6 129/12/6 135/12/6 134/12/6
f 132/12/2 128/12/2 134/12/2 136/12/2
f 137/12/6 133/12/6 143/12/6 145/12/6
f 139/12/3 138/12/3 140/12/3 141/12/3
f 120/12/2 126/12/2 121/12/2
f 119/12/157 121/12/157 126/12/157 127/12/157
f 123/12/158 141/12/158 140/12/158 125/12/158
f 135/12/4 139/12/4 141/12/4 122/12/4
f 134/12/159 135/12/159 122/12/159 124/12/159
f 138/12/2 134/12/2 124/12/2 140/12/2
f 122/12/4 141/12/4 123/12/4
f 119/12/4 127/12/4 118/12/4
f 131/12/160 130/12/160 132/12/160 133/12/160
f 129/12/4 131/12/4 133/12/4
f 128/12/2 132/12/2 130/12/2
f 137/12/161 136/12/161 138/12/161 139/12/161
f 134/12/2 138/12/2 136/12/2
f 135/12/4 137/12/4 139/12/4
f 153/12/3 151/12/3 162/12/3 165/12/3
f 159/12/2 154/12/2 164/12/2 169/12/2
f 133/12/6 132/12/6 142/12/6 143/12/6
f 143/12/1 142/12/1 146/12/1 147/12/1
f 145/12/4 143/12/4 147/12/4 149/12/4
f 142/12/2 144/12/2 148/12/2 146/12/2
f 144/12/3 145/12/3 149/12/3 148/12/3
f 156/12/1 160/12/1 168/12/1 167/12/1
f 132/12/6 136/12/6 144/12/6 142/12/6
f 150/12/4 157/12/4 166/12/4 163/12/4
f 136/12/6 137/12/6 145/12/6 144/12/6
f 147/12/162 146/12/162 161/12/162 160/12/162 156/12/162 158/12/162
f 164/12/5 165/12/5 162/12/5 163/12/5 166/12/5 167/12/5 168/12/5 169/12/5
f 146/12/163 148/12/163 155/12/163 154/12/163 159/12/163 161/12/163
f 148/12/164 149/12/164 152/12/164 151/12/164 153/12/164 155/12/164
f 150/12/165 151/12/165 152/12/165
f 153/12/166 154/12/166 155/12/166
f 156/12/167 157/12/167 158/12/167
f 159/12/168 160/12/168 161/12/168
f 168/12/169 160/12/169 159/12/169 169/12/169
f 153/12/170 165/12/170 164/12/170 154/12/170
f 166/12/171 157/12/171 156/12/171 167/12/171
f 150/12/172 163/12/172 162/12/172 151/12/172
f 149/12/173 147/12/173 158/12/173 157/12/173 150/12/173 152/12/173
f 170/13/1 171/13/1 173/13/1 172/13/1
f 172/13/2 173/13/2 177/13/2 176/13/2
f 176/13/3 177/13/3 175/13/3 174/13/3
f 174/13/4 175/13/4 171/13/4 170/13/4
f 172/13/5 176/13/5 174/13/5 170/13/5
f 177/13/2 173/13/2 178/13/2
f 175/13/4 179/13/4 171/13/4
f 171/13/174 179/13/174 178/13/174 173/13/174
f 180/13/3 182/13/3 183/13/3 181/13/3
f 182/13/2 186/13/2 187/13/2 183/13/2
f 186/13/1 184/13/1 185/13/1 187/13/1
f 184/13/4 180/13/4 181/13/4 185/13/4
f 182/13/5 180/13/5 184/13/5 186/13/5
f 187/13/2 188/13/2 183/13/2
f 185/13/4 181/13/4 189/13/4
f 181/13/175 183/13/175 188/13/175 189/13/175
f 175/13/4 185/13/4 189/13/4 179/13/4
f 190/13/1 192/13/1 193/13/1 191/13/1
f 192/13/4 196/13/4 197/13/4 193/13/4
f 196/13/3 194/13/3 195/13/3 197/13/3
f 194/13/2 190/13/2 191/13/2 195/13/2
f 192/13/5 190/13/5 194/13/5 196/13/5
f 197/13/4 198/13/4 193/13/4
f 195/13/2 191/13/2 199/13/2
f 191/13/174 193/13/174 198/13/174 199/13/174
f 200/13/3 201/13/3 203/13/3 202/13/3
f 202/13/4 203/13/4 207/13/4 206/13/4
f 206/13/1 207/13/1 205/13/1 204/13/1
f 204/13/2 205/13/2 201/13/2 200/13/2
f 202/13/5 206/13/5 204/13/5 200/13/5
f 207/13/4 203/13/4 208/13/4
f 205/13/2 209/13/2 201/13/2
f 201/13/175 209/13/175 208/13/175 203/13/175
f 195/13/5 205/13/5 207/13/5 197/13/5
f 197/13/4 207/13/4 208/13/4 198/13/4
f 195/13/2 199/13/2 209/13/2 205/13/2
f 199/13/6 198/13/6 208/13/6 209/13/6
f 179/13/6 189/13/6 188/13/6 178/13/6
f 175/13/5 177/13/5 187/13/5 185/13/5
f 177/13/2 178/13/2 188/13/2 187/13/2
