# Blender 4.2.0
# www.blender.org
mtllib GoldCollector22.mtl
o Cube.043
v -0.050000 0.037493 0.050000
v -0.050000 0.064451 0.050000
v -0.050000 0.037493 -0.050000
v -0.050000 0.064451 -0.050000
v 0.048365 0.037515 0.050000
v 0.048429 0.064451 0.050000
v 0.048365 0.037515 -0.050000
v 0.048429 0.064451 -0.050000
v -0.075939 0.037493 -0.050000
v -0.075939 0.037493 0.050000
v -0.050000 -0.037969 -0.050000
v -0.050000 -0.037969 0.050000
v -0.075939 -0.037969 -0.050000
v -0.075939 -0.037969 0.050000
v -0.050000 -0.061832 -0.050000
v -0.050000 -0.061832 0.050000
v 0.048300 -0.037969 -0.050000
v 0.048300 -0.037969 0.050000
v 0.048300 -0.061832 -0.050000
v 0.048300 -0.061832 0.050000
v 0.071450 -0.037969 -0.050000
v 0.071450 -0.037969 0.050000
v 0.071450 0.037537 -0.050000
v 0.071450 0.037537 0.050000
v -0.063552 -0.061832 -0.063786
v -0.063552 -0.061832 0.063786
v 0.061852 -0.061832 -0.063786
v 0.061852 -0.061832 0.063786
v -0.063552 -0.070776 -0.063786
v -0.063552 -0.070776 0.063786
v 0.061852 -0.070776 -0.063786
v 0.061852 -0.070776 0.063786
v 0.058951 -0.097473 0.103663
v 0.101051 -0.097473 0.061563
v 0.074418 -0.079334 0.076570
v 0.101051 -0.097473 -0.061563
v 0.058951 -0.097473 -0.103663
v 0.074418 -0.079334 -0.076570
v -0.102751 -0.097473 0.061563
v -0.060651 -0.097473 0.103663
v -0.076118 -0.079334 0.076570
v -0.060651 -0.097473 -0.103663
v -0.102751 -0.097473 -0.061563
v -0.076118 -0.079334 -0.076570
v 0.101051 -0.225065 0.061563
v 0.058951 -0.225065 0.103663
v 0.058951 -0.225065 -0.103663
v 0.101051 -0.225065 -0.061563
v -0.060651 -0.225065 0.103663
v -0.102751 -0.225065 0.061563
v -0.102751 -0.225065 -0.061563
v -0.060651 -0.225065 -0.103663
vn 1.0000 -0.0000 -0.0000
vn -0.0000 -0.0000 -1.0000
vn -0.0000 -0.0000 1.0000
vn 0.0002 -1.0000 -0.0000
vn -0.0000 1.0000 -0.0000
vn -1.0000 -0.0000 -0.0000
vn -0.7206 0.6934 -0.0000
vn 0.7599 0.6500 -0.0000
vn -1.0000 0.0009 -0.0000
vn -0.6770 -0.7359 -0.0000
vn 0.7177 -0.6963 -0.0000
vn -0.5629 0.8265 -0.0000
vn -0.0000 -1.0000 -0.0000
vn -0.0000 0.8310 -0.5563
vn 0.5629 0.8265 -0.0000
vn 0.6440 0.4128 0.6440
vn 0.6440 0.4128 -0.6440
vn -0.6440 0.4128 0.6440
vn -0.6440 0.4128 -0.6440
vn -0.7071 -0.0000 -0.7071
vn 0.7071 -0.0000 -0.7071
vn -0.7071 -0.0000 0.7071
vn 0.7071 -0.0000 0.7071
vn -0.0000 0.8310 0.5563
vt 0.650803 0.850838
s 0
usemtl Material
f 3/1/1 1/1/1 12/1/1 11/1/1
f 3/1/2 4/1/2 8/1/2 7/1/2
f 7/1/2 8/1/2 23/1/2
f 5/1/3 6/1/3 2/1/3 1/1/3
f 3/1/4 7/1/4 5/1/4 1/1/4
f 8/1/5 4/1/5 2/1/5 6/1/5
f 1/1/3 10/1/3 14/1/3 12/1/3
f 10/1/6 9/1/6 13/1/6 14/1/6
f 9/1/2 3/1/2 11/1/2 13/1/2
f 12/1/3 16/1/3 20/1/3 18/1/3
f 11/1/5 12/1/5 18/1/5 17/1/5
f 15/1/2 11/1/2 17/1/2 19/1/2
f 20/1/5 16/1/5 26/1/5 28/1/5
f 22/1/1 21/1/1 23/1/1 24/1/1
f 3/1/2 9/1/2 4/1/2
f 2/1/7 4/1/7 9/1/7 10/1/7
f 6/1/8 24/1/8 23/1/8 8/1/8
f 18/1/3 22/1/3 24/1/3 5/1/3
f 17/1/9 18/1/9 5/1/9 7/1/9
f 21/1/2 17/1/2 7/1/2 23/1/2
f 5/1/3 24/1/3 6/1/3
f 2/1/3 10/1/3 1/1/3
f 14/1/10 13/1/10 15/1/10 16/1/10
f 12/1/3 14/1/3 16/1/3
f 11/1/2 15/1/2 13/1/2
f 20/1/11 19/1/11 21/1/11 22/1/11
f 17/1/2 21/1/2 19/1/2
f 18/1/3 20/1/3 22/1/3
f 36/1/1 34/1/1 45/1/1 48/1/1
f 42/1/2 37/1/2 47/1/2 52/1/2
f 16/1/5 15/1/5 25/1/5 26/1/5
f 26/1/6 25/1/6 29/1/6 30/1/6
f 28/1/3 26/1/3 30/1/3 32/1/3
f 25/1/2 27/1/2 31/1/2 29/1/2
f 27/1/1 28/1/1 32/1/1 31/1/1
f 39/1/6 43/1/6 51/1/6 50/1/6
f 15/1/5 19/1/5 27/1/5 25/1/5
f 33/1/3 40/1/3 49/1/3 46/1/3
f 19/1/5 20/1/5 28/1/5 27/1/5
f 30/1/12 29/1/12 44/1/12 43/1/12 39/1/12 41/1/12
f 47/1/13 48/1/13 45/1/13 46/1/13 49/1/13 50/1/13 51/1/13 52/1/13
f 29/1/14 31/1/14 38/1/14 37/1/14 42/1/14 44/1/14
f 31/1/15 32/1/15 35/1/15 34/1/15 36/1/15 38/1/15
f 33/1/16 34/1/16 35/1/16
f 36/1/17 37/1/17 38/1/17
f 39/1/18 40/1/18 41/1/18
f 42/1/19 43/1/19 44/1/19
f 51/1/20 43/1/20 42/1/20 52/1/20
f 36/1/21 48/1/21 47/1/21 37/1/21
f 49/1/22 40/1/22 39/1/22 50/1/22
f 33/1/23 46/1/23 45/1/23 34/1/23
f 32/1/24 30/1/24 41/1/24 40/1/24 33/1/24 35/1/24
