# Blender 4.2.0
# www.blender.org
o Plane.007
v 0.122128 -0.004664 0.572625
v 0.122128 0.561651 0.572625
v 0.122128 -0.004664 0.128531
v 0.122128 0.561651 0.128531
v 0.589130 -0.003993 0.572625
v 0.589130 0.561651 0.572625
v 0.589130 -0.003993 0.128531
v 0.589130 0.561651 0.128531
v 0.122128 0.561651 -0.286198
v 0.148284 0.561651 0.546470
v 0.148284 0.561651 0.154687
v 0.562974 0.561651 0.154687
v 0.562974 0.561651 0.546470
v 0.122128 0.585059 0.572625
v 0.122128 0.585059 0.128531
v 0.589130 0.585059 0.128531
v 0.589130 0.585059 0.572625
v 0.148284 0.585059 0.546470
v 0.148284 0.585059 0.154687
v 0.562974 0.585059 0.154687
v 0.562974 0.585059 0.546470
v 0.122128 -0.003993 -0.286198
v 0.589130 -0.003993 -0.286198
v 0.589130 0.561651 -0.286198
v 0.148284 0.561651 -0.260042
v 0.562974 0.561651 -0.260042
v 0.148284 0.585059 -0.260042
v 0.562974 0.585059 -0.260042
v 0.122128 0.585059 -0.286198
v 0.589130 0.585059 -0.286198
v 0.122128 0.129068 0.128531
v 0.122128 0.129068 0.572625
v -0.508468 0.561651 0.572625
v -0.508468 0.561651 0.128531
v -0.482313 0.561651 0.546470
v -0.482313 0.561651 0.154687
v -0.482313 0.585059 0.546470
v -0.482313 0.585059 0.154687
v -0.508468 0.585059 0.572625
v -0.508468 0.585059 0.128531
v 0.122128 0.323689 0.075682
v 0.122128 0.065359 0.075682
v 0.122128 0.323689 -0.233348
v 0.122128 0.065359 -0.233348
v 0.098482 0.323689 0.075682
v 0.098482 0.065359 0.075682
v 0.098482 0.323689 -0.233348
v 0.098482 0.065359 -0.233348
v 0.098482 0.294607 0.047422
v 0.098482 0.094441 0.047422
v 0.098482 0.294607 -0.205088
v 0.098482 0.094441 -0.205088
v 0.124753 0.294607 0.047422
v 0.124753 0.094441 0.047422
v 0.124753 0.294607 -0.205088
v 0.124753 0.094441 -0.205088
v 0.117839 0.119710 -0.098080
v 0.117839 0.095328 -0.098080
v 0.117839 0.119710 -0.204648
v 0.117839 0.095328 -0.204648
v 0.117839 0.095328 -0.063304
v 0.117839 0.119710 -0.063304
v 0.117839 0.095328 0.046911
v 0.117839 0.119710 0.046911
v -0.403539 0.149791 0.044667
v -0.403539 -0.010888 0.044667
v -0.403539 0.149791 0.091934
v -0.403539 -0.010888 0.091934
v -0.450806 0.149791 0.044667
v -0.450806 -0.010888 0.044667
v -0.450806 0.149791 0.091934
v -0.450806 -0.010888 0.091934
v -0.508468 0.129068 0.572625
v -0.508468 0.129068 0.128531
v -0.508468 -0.005335 0.572625
v -0.508468 -0.005335 0.128531
v -0.510799 -0.009536 0.062282
v -0.212895 -0.009536 0.062282
v -0.510799 -0.009536 -0.235622
v -0.212895 -0.009536 -0.235622
v -0.575023 -0.009536 -0.086670
v -0.148671 -0.009536 -0.086670
v -0.361847 -0.009536 0.126506
v -0.361847 -0.009536 -0.299846
v -0.361847 0.020482 -0.086670
v -0.180783 -0.009536 -0.161146
v -0.542911 -0.009536 -0.161146
v -0.361847 0.007302 -0.193258
v -0.542911 -0.009536 -0.012194
v -0.180783 -0.009536 -0.012194
v -0.361847 0.007302 0.019918
v -0.287371 -0.009536 0.094394
v -0.287371 -0.009536 -0.267734
v -0.255259 0.007302 -0.086670
v -0.271315 0.007302 -0.177202
v -0.271315 0.007302 0.003862
v -0.436323 -0.009536 -0.267734
v -0.468435 0.007302 -0.086670
v -0.436323 -0.009536 0.094394
v -0.452379 0.007302 -0.177202
v -0.452379 0.007302 0.003862
v -0.427792 -0.027257 -0.232088
v -0.427792 0.096939 -0.232088
v -0.387578 -0.027257 -0.208871
v -0.387578 0.096939 -0.208871
v -0.387578 -0.027257 -0.162436
v -0.387578 0.096939 -0.162436
v -0.427792 -0.027257 -0.139219
v -0.427792 0.096939 -0.139219
v -0.468005 -0.027257 -0.162436
v -0.468005 0.096939 -0.162436
v -0.468005 -0.027257 -0.208871
v -0.468005 0.096939 -0.208871
v 0.546096 0.030108 -0.397002
v -0.031654 0.030108 -0.397002
v 0.546096 0.070321 -0.373785
v -0.031654 0.070321 -0.373785
v 0.546096 0.070321 -0.327350
v -0.031654 0.070321 -0.327350
v 0.546096 0.030108 -0.304133
v -0.031654 0.030108 -0.304133
v 0.546096 -0.010105 -0.327350
v -0.031654 -0.010105 -0.327350
v 0.546096 -0.010105 -0.373785
v -0.031654 -0.010105 -0.373785
v 0.498242 0.030108 -0.488662
v -0.079508 0.030108 -0.488662
v 0.498242 0.070321 -0.465445
v -0.079508 0.070321 -0.465445
v 0.498242 0.070321 -0.419011
v -0.079508 0.070321 -0.419011
v 0.498242 0.030108 -0.395793
v -0.079508 0.030108 -0.395793
v 0.498242 -0.010105 -0.419011
v -0.079508 -0.010105 -0.419011
v 0.498242 -0.010105 -0.465445
v -0.079508 -0.010105 -0.465445
v 0.563771 0.030108 -0.582314
v -0.013979 0.030108 -0.582314
v 0.563771 0.070321 -0.559097
v -0.013979 0.070321 -0.559097
v 0.563771 0.070321 -0.512662
v -0.013979 0.070321 -0.512662
v 0.563771 0.030108 -0.489445
v -0.013979 0.030108 -0.489445
v 0.563771 -0.010105 -0.512662
v -0.013979 -0.010105 -0.512662
v 0.563771 -0.010105 -0.559097
v -0.013979 -0.010105 -0.559097
v 0.515629 0.111818 -0.538206
v -0.062121 0.111818 -0.538206
v 0.515629 0.152032 -0.514989
v -0.062121 0.152032 -0.514989
v 0.515629 0.152032 -0.468555
v -0.062121 0.152032 -0.468555
v 0.515629 0.111818 -0.445338
v -0.062121 0.111818 -0.445338
v 0.515629 0.071605 -0.468555
v -0.062121 0.071605 -0.468555
v 0.515629 0.071605 -0.514989
v -0.062121 0.071605 -0.514989
v 0.569499 0.114719 -0.445703
v -0.008251 0.114719 -0.445703
v 0.569499 0.154932 -0.422486
v -0.008251 0.154932 -0.422486
v 0.569499 0.154932 -0.376052
v -0.008251 0.154932 -0.376052
v 0.569499 0.114719 -0.352835
v -0.008251 0.114719 -0.352835
v 0.569499 0.074506 -0.376052
v -0.008251 0.074506 -0.376052
v 0.569499 0.074506 -0.422486
v -0.008251 0.074506 -0.422486
v -0.328480 0.035655 -0.368647
v -0.320300 0.035655 -0.244721
v -0.305313 0.075868 -0.370176
v -0.297133 0.075868 -0.246250
v -0.258980 0.075868 -0.373234
v -0.250800 0.075868 -0.249308
v -0.235813 0.035655 -0.374763
v -0.227633 0.035655 -0.250837
v -0.258980 -0.004558 -0.373234
v -0.250800 -0.004558 -0.249308
v -0.305313 -0.004558 -0.370176
v -0.297133 -0.004558 -0.246250
v -0.423599 0.035655 -0.378789
v -0.413943 0.035655 -0.254969
v -0.400452 0.075868 -0.380594
v -0.390796 0.075868 -0.256774
v -0.354159 0.075868 -0.384204
v -0.344503 0.075868 -0.260385
v -0.331012 0.035655 -0.386009
v -0.321356 0.035655 -0.262190
v -0.354159 -0.004558 -0.384204
v -0.344503 -0.004558 -0.260385
v -0.400452 -0.004558 -0.380594
v -0.390796 -0.004558 -0.256774
v -0.366063 0.116090 -0.368825
v -0.374612 0.116090 -0.244923
v -0.342901 0.156303 -0.367227
v -0.351450 0.156303 -0.243325
v -0.296577 0.156303 -0.364031
v -0.305125 0.156303 -0.240130
v -0.273415 0.116090 -0.362433
v -0.281963 0.116090 -0.238532
v -0.296577 0.075877 -0.364031
v -0.305125 0.075877 -0.240130
v -0.342901 0.075877 -0.367227
v -0.351450 0.075877 -0.243325
v -0.522481 0.347197 0.165804
v -0.522481 0.541045 0.165804
v -0.505860 0.347197 0.165804
v -0.505860 0.541045 0.165804
v -0.522481 0.347197 0.539219
v -0.522481 0.541045 0.539219
v -0.505860 0.347197 0.539219
v -0.505860 0.541045 0.539219
v -0.522481 0.358607 0.180537
v -0.522481 0.529635 0.180537
v -0.522481 0.529635 0.524486
v -0.522481 0.358607 0.524486
v -0.509766 0.358607 0.180537
v -0.509766 0.529635 0.180537
v -0.509766 0.529635 0.524486
v -0.509766 0.358607 0.524486
v -0.451623 0.119710 -0.098080
v -0.451623 0.095328 -0.098080
v -0.451623 0.119710 -0.204648
v -0.451623 0.095328 -0.204648
v -0.452342 0.095328 -0.063304
v -0.452342 0.119710 -0.063304
v -0.452342 0.095328 0.046911
v -0.452342 0.119710 0.046911
vn 1.0000 -0.0000 -0.0000
vn -0.0000 -0.0000 1.0000
vn -0.0000 -0.0000 -1.0000
vn -0.0000 1.0000 -0.0000
vn -1.0000 -0.0000 -0.0000
vn -0.0000 -1.0000 -0.0000
vn 0.1088 0.9881 -0.1088
vn 0.1625 0.9835 -0.0791
vn 0.1412 0.9799 -0.1412
vn 0.0791 0.9835 -0.1625
vn 0.1088 0.9881 0.1088
vn 0.1625 0.9835 0.0791
vn 0.1724 0.9850 -0.0000
vn 0.1284 0.9917 -0.0000
vn -0.1088 0.9881 0.1088
vn -0.0000 0.9917 0.1284
vn -0.1284 0.9917 -0.0000
vn -0.1088 0.9881 -0.1088
vn -0.0000 0.9917 -0.1284
vn -0.0000 0.9850 -0.1724
vn -0.0791 0.9835 -0.1625
vn -0.0791 0.9835 0.1625
vn -0.0000 0.9850 0.1724
vn 0.0791 0.9835 0.1625
vn 0.1412 0.9799 0.1412
vn -0.1412 0.9799 0.1412
vn -0.1625 0.9835 0.0791
vn -0.1724 0.9850 -0.0000
vn -0.1625 0.9835 -0.0791
vn -0.1412 0.9799 -0.1412
vn 0.5000 -0.0000 -0.8660
vn 0.5000 -0.0000 0.8660
vn -0.5000 -0.0000 0.8660
vn -0.5000 -0.0000 -0.8660
vn -0.0000 0.5000 -0.8660
vn -0.0000 0.5000 0.8660
vn -0.0000 -0.5000 0.8660
vn -0.0000 -0.5000 -0.8660
vn -0.8641 0.5000 0.0570
vn 0.8641 0.5000 -0.0570
vn 0.8641 -0.5000 -0.0570
vn 0.0659 -0.0000 0.9978
vn -0.8641 -0.5000 0.0570
vn -0.0659 -0.0000 -0.9978
vn -0.8634 0.5000 0.0673
vn 0.8634 0.5000 -0.0673
vn 0.8634 -0.5000 -0.0673
vn 0.0777 -0.0000 0.9970
vn -0.8634 -0.5000 0.0673
vn -0.0777 -0.0000 -0.9970
vn -0.8640 0.5000 -0.0596
vn 0.8640 0.5000 0.0596
vn 0.8640 -0.5000 0.0596
vn -0.0688 -0.0000 0.9976
vn -0.8640 -0.5000 -0.0596
vn 0.0688 -0.0000 -0.9976
vt 0.507582 0.811757
vt 0.926609 0.654097
vt 0.975284 0.779600
vt 0.507619 0.811901
vt 0.765949 0.787635
vt 0.425037 0.486340
vt 0.764335 0.775975
vt 0.636100 0.626649
vt 0.813512 0.471314
vt 0.813512 0.488095
vt 0.813512 0.492012
vt 0.813512 0.477279
vt 0.813512 0.483087
vt 0.814000 0.432000
vt 0.797046 0.508450
vt 0.389757 0.452753
vt 0.250778 0.421424
s 1
f 7/1/1 8/1/1 6/1/1 5/1/1
f 5/1/2 6/1/2 2/1/2 1/1/2
f 18/2/3 10/2/3 35/2/3 37/2/3
f 19/2/1 11/2/1 25/2/1 27/2/1
f 12/2/4 11/2/4 10/2/4 13/2/4
f 6/1/1 8/1/1 16/1/1 17/1/1
f 33/1/5 34/1/5 74/1/5 73/1/5
f 12/2/5 13/2/5 21/2/5 20/2/5
f 17/3/4 16/3/4 20/3/4 21/3/4
f 10/2/4 11/2/4 36/2/4 35/2/4
f 14/3/4 17/3/4 21/3/4 18/3/4
f 13/2/3 10/2/3 18/2/3 21/2/3
f 2/1/2 6/1/2 17/1/2 14/1/2
f 11/2/4 12/2/4 26/2/4 25/2/4
f 22/4/5 3/4/5 42/4/5 44/4/5
f 22/1/3 9/1/3 24/1/3 23/1/3
f 30/3/4 29/3/4 27/3/4 28/3/4
f 25/2/2 26/2/2 28/2/2 27/2/2
f 24/1/3 9/1/3 29/1/3 30/1/3
f 15/3/4 19/3/4 27/3/4 29/3/4
f 20/3/4 16/3/4 30/3/4 28/3/4
f 4/1/5 15/1/5 29/1/5 9/1/5
f 12/2/5 20/2/5 28/2/5 26/2/5
f 16/1/1 8/1/1 24/1/1 30/1/1
f 8/1/1 7/1/1 23/1/1 24/1/1
f 34/1/3 4/1/3 31/1/3 74/1/3
f 34/1/5 33/1/5 39/1/5 40/1/5
f 35/2/1 36/2/1 38/2/1 37/2/1
f 40/3/4 39/3/4 37/3/4 38/3/4
f 14/3/4 18/3/4 37/3/4 39/3/4
f 2/1/2 14/1/2 39/1/2 33/1/2
f 2/1/2 33/1/2 73/1/2 32/1/2
f 11/2/2 19/2/2 38/2/2 36/2/2
f 19/3/4 15/3/4 40/3/4 38/3/4
f 15/1/3 4/1/3 34/1/3 40/1/3
f 43/5/3 44/5/3 48/5/3 47/5/3
f 3/1/5 4/1/5 41/1/5 42/1/5
f 9/1/5 22/1/5 44/1/5 43/1/5
f 4/1/5 9/1/5 43/1/5 41/1/5
f 48/5/5 46/5/5 50/5/5 52/5/5
f 44/5/6 42/5/6 46/5/6 48/5/6
f 42/5/2 41/5/2 45/5/2 46/5/2
f 41/5/4 43/5/4 47/5/4 45/5/4
f 52/5/4 50/5/4 54/5/4 56/5/4
f 46/5/5 45/5/5 49/5/5 50/5/5
f 45/5/5 47/5/5 51/5/5 49/5/5
f 47/5/5 48/5/5 52/5/5 51/5/5
f 54/6/5 53/6/5 55/6/5 56/6/5
f 50/5/3 49/5/3 53/5/3 54/5/3
f 49/5/6 51/5/6 55/5/6 53/5/6
f 51/5/2 52/5/2 56/5/2 55/5/2
f 226/7/5 228/7/5 229/7/5 227/7/5
f 58/7/2 57/7/2 226/7/2 227/7/2
f 59/7/3 60/7/3 229/7/3 228/7/3
f 69/7/5 72/7/5 71/7/5
f 69/7/5 70/7/5 72/7/5
f 60/7/6 58/7/6 227/7/6 229/7/6
f 231/7/5 230/7/5 232/7/5 233/7/5
f 65/7/3 66/7/3 70/7/3
f 67/7/4 65/7/4 69/7/4 71/7/4
f 73/8/5 74/8/5 76/8/5 75/8/5
f 74/8/3 31/8/3 3/8/3 76/8/3
f 32/8/2 73/8/2 75/8/2 1/8/2
f 95/9/7 86/9/8 80/9/9 93/9/10
f 96/9/11 90/9/12 82/9/13 94/9/14
f 101/10/15 91/10/16 85/10/4 98/10/17
f 100/11/18 88/11/19 84/11/20 97/11/21
f 98/9/17 85/9/4 88/9/19 100/9/18
f 94/12/14 82/12/13 86/12/8 95/12/7
f 99/12/22 83/12/23 91/12/16 101/12/15
f 92/12/24 78/12/25 90/12/12 96/12/11
f 83/10/23 92/10/24 96/10/11 91/10/16
f 85/10/4 94/10/14 95/10/7 88/10/19
f 91/13/16 96/13/11 94/13/14 85/13/4
f 88/12/19 95/12/7 93/12/10 84/12/20
f 77/9/26 99/9/22 101/9/15 89/9/27
f 81/12/28 98/12/17 100/12/18 87/12/29
f 87/12/29 100/12/18 97/12/21 79/12/30
f 89/11/27 101/11/15 98/11/17 81/11/28
f 102/14/31 103/14/31 105/14/31 104/14/31
f 104/14/1 105/14/1 107/14/1 106/14/1
f 106/14/32 107/14/32 109/14/32 108/14/32
f 108/14/33 109/14/33 111/14/33 110/14/33
f 105/15/4 103/15/4 113/15/4 111/15/4 109/15/4 107/15/4
f 110/14/5 111/14/5 113/14/5 112/14/5
f 112/14/34 113/14/34 103/14/34 102/14/34
f 114/14/35 115/14/35 117/14/35 116/14/35
f 116/14/4 117/14/4 119/14/4 118/14/4
f 118/14/36 119/14/36 121/14/36 120/14/36
f 120/14/37 121/14/37 123/14/37 122/14/37
f 117/15/5 115/15/5 125/15/5 123/15/5 121/15/5 119/15/5
f 124/14/38 125/14/38 115/14/38 114/14/38
f 114/15/1 116/15/1 118/15/1 120/15/1 122/15/1 124/15/1
f 126/14/35 127/14/35 129/14/35 128/14/35
f 128/14/4 129/14/4 131/14/4 130/14/4
f 130/14/36 131/14/36 133/14/36 132/14/36
f 132/14/37 133/14/37 135/14/37 134/14/37
f 129/15/5 127/15/5 137/15/5 135/15/5 133/15/5 131/15/5
f 136/14/38 137/14/38 127/14/38 126/14/38
f 126/15/1 128/15/1 130/15/1 132/15/1 134/15/1 136/15/1
f 138/14/35 139/14/35 141/14/35 140/14/35
f 140/14/4 141/14/4 143/14/4 142/14/4
f 142/14/36 143/14/36 145/14/36 144/14/36
f 144/14/37 145/14/37 147/14/37 146/14/37
f 141/15/5 139/15/5 149/15/5 147/15/5 145/15/5 143/15/5
f 148/14/38 149/14/38 139/14/38 138/14/38
f 138/15/1 140/15/1 142/15/1 144/15/1 146/15/1 148/15/1
f 150/14/35 151/14/35 153/14/35 152/14/35
f 152/14/4 153/14/4 155/14/4 154/14/4
f 154/14/36 155/14/36 157/14/36 156/14/36
f 156/14/37 157/14/37 159/14/37 158/14/37
f 153/15/5 151/15/5 161/15/5 159/15/5 157/15/5 155/15/5
f 158/14/6 159/14/6 161/14/6 160/14/6
f 160/14/38 161/14/38 151/14/38 150/14/38
f 150/15/1 152/15/1 154/15/1 156/15/1 158/15/1 160/15/1
f 162/14/35 163/14/35 165/14/35 164/14/35
f 164/14/4 165/14/4 167/14/4 166/14/4
f 166/14/36 167/14/36 169/14/36 168/14/36
f 168/14/37 169/14/37 171/14/37 170/14/37
f 165/15/5 163/15/5 173/15/5 171/15/5 169/15/5 167/15/5
f 170/14/6 171/14/6 173/14/6 172/14/6
f 172/14/38 173/14/38 163/14/38 162/14/38
f 162/15/1 164/15/1 166/15/1 168/15/1 170/15/1 172/15/1
f 174/14/39 175/14/39 177/14/39 176/14/39
f 176/14/4 177/14/4 179/14/4 178/14/4
f 178/14/40 179/14/40 181/14/40 180/14/40
f 180/14/41 181/14/41 183/14/41 182/14/41
f 177/15/42 175/15/42 185/15/42 183/15/42 181/15/42 179/15/42
f 184/14/43 185/14/43 175/14/43 174/14/43
f 174/15/44 176/15/44 178/15/44 180/15/44 182/15/44 184/15/44
f 186/14/45 187/14/45 189/14/45 188/14/45
f 188/14/4 189/14/4 191/14/4 190/14/4
f 190/14/46 191/14/46 193/14/46 192/14/46
f 192/14/47 193/14/47 195/14/47 194/14/47
f 189/15/48 187/15/48 197/15/48 195/15/48 193/15/48 191/15/48
f 196/14/49 197/14/49 187/14/49 186/14/49
f 186/15/50 188/15/50 190/15/50 192/15/50 194/15/50 196/15/50
f 198/14/51 199/14/51 201/14/51 200/14/51
f 200/14/4 201/14/4 203/14/4 202/14/4
f 202/14/52 203/14/52 205/14/52 204/14/52
f 204/14/53 205/14/53 207/14/53 206/14/53
f 201/15/54 199/15/54 209/15/54 207/15/54 205/15/54 203/15/54
f 206/14/6 207/14/6 209/14/6 208/14/6
f 208/14/55 209/14/55 199/14/55 198/14/55
f 198/15/56 200/15/56 202/15/56 204/15/56 206/15/56 208/15/56
f 210/16/3 211/16/3 213/16/3 212/16/3
f 218/16/4 221/16/4 225/16/4 222/16/4
f 216/16/2 217/16/2 215/16/2 214/16/2
f 215/16/5 211/16/5 219/16/5 220/16/5
f 212/16/6 216/16/6 214/16/6 210/16/6
f 217/16/4 213/16/4 211/16/4 215/16/4
f 214/16/5 215/16/5 220/16/5 221/16/5
f 211/16/5 210/16/5 218/16/5 219/16/5
f 210/16/5 214/16/5 221/16/5 218/16/5
f 225/17/5 224/17/5 223/17/5 222/17/5
f 219/16/2 218/16/2 222/16/2 223/16/2
f 220/16/6 219/16/6 223/16/6 224/16/6
f 221/16/3 220/16/3 224/16/3 225/16/3
f 57/7/4 59/7/4 228/7/4 226/7/4
f 62/7/3 61/7/3 230/7/3 231/7/3
f 61/7/6 63/7/6 232/7/6 230/7/6
f 63/7/2 64/7/2 233/7/2 232/7/2
f 64/7/4 62/7/4 231/7/4 233/7/4
f 65/7/3 70/7/3 69/7/3
f 65/7/1 68/7/1 66/7/1
f 65/7/1 67/7/1 68/7/1
f 71/7/2 72/7/2 68/7/2
f 71/7/2 68/7/2 67/7/2
