# Blender 4.2.0
# www.blender.org
mtllib sawmill.mtl
o Plane.007
v 0.122128 -0.004664 0.572625
v 0.122128 0.561651 0.572625
v 0.122128 -0.004664 0.128531
v 0.122128 0.561651 0.128531
v 0.589130 -0.003993 0.572625
v 0.589130 0.561651 0.572625
v 0.589130 -0.003993 0.128531
v 0.589130 0.561651 0.128531
v 0.122128 0.561651 -0.286198
v 0.148284 0.561651 0.546470
v 0.148284 0.561651 0.154687
v 0.562974 0.561651 0.154687
v 0.562974 0.561651 0.546470
v 0.122128 0.585059 0.572625
v 0.122128 0.585059 0.128531
v 0.589130 0.585059 0.128531
v 0.589130 0.585059 0.572625
v 0.148284 0.585059 0.546470
v 0.148284 0.585059 0.154687
v 0.562974 0.585059 0.154687
v 0.562974 0.585059 0.546470
v 0.122128 -0.003993 -0.286198
v 0.589130 -0.003993 -0.286198
v 0.589130 0.561651 -0.286198
v 0.148284 0.561651 -0.260042
v 0.562974 0.561651 -0.260042
v 0.148284 0.585059 -0.260042
v 0.562974 0.585059 -0.260042
v 0.122128 0.585059 -0.286198
v 0.589130 0.585059 -0.286198
v 0.122128 0.129068 0.128531
v 0.122128 0.129068 0.572625
v -0.508468 0.561651 0.572625
v -0.508468 0.561651 0.128531
v -0.482313 0.561651 0.546470
v -0.482313 0.561651 0.154687
v -0.482313 0.585059 0.546470
v -0.482313 0.585059 0.154687
v -0.508468 0.585059 0.572625
v -0.508468 0.585059 0.128531
v 0.122128 0.323689 0.075682
v 0.122128 0.065359 0.075682
v 0.122128 0.323689 -0.233348
v 0.122128 0.065359 -0.233348
v 0.098482 0.323689 0.075682
v 0.098482 0.065359 0.075682
v 0.098482 0.323689 -0.233348
v 0.098482 0.065359 -0.233348
v 0.098482 0.294607 0.047422
v 0.098482 0.094441 0.047422
v 0.098482 0.294607 -0.205088
v 0.098482 0.094441 -0.205088
v 0.124753 0.294607 0.047422
v 0.124753 0.094441 0.047422
v 0.124753 0.294607 -0.205088
v 0.124753 0.094441 -0.205088
v 0.117839 0.119710 -0.098080
v 0.117839 0.095328 -0.098080
v 0.117839 0.119710 -0.204648
v 0.117839 0.095328 -0.204648
v 0.117839 0.095328 -0.063304
v 0.117839 0.119710 -0.063304
v 0.117839 0.095328 0.046911
v 0.117839 0.119710 0.046911
v -0.403539 0.149791 0.044667
v -0.403539 -0.010888 0.044667
v -0.403539 0.149791 0.091934
v -0.403539 -0.010888 0.091934
v -0.450806 0.149791 0.044667
v -0.450806 -0.010888 0.044667
v -0.450806 0.149791 0.091934
v -0.450806 -0.010888 0.091934
v -0.203195 0.228781 -0.062418
v -0.203195 0.228781 -0.095614
v -0.267026 0.245884 -0.062418
v -0.267026 0.245884 -0.095614
v -0.269294 0.292641 -0.079016
v -0.330856 0.228781 -0.062418
v -0.330856 0.228781 -0.095614
v -0.356199 0.268139 -0.079016
v -0.377584 0.182053 -0.062418
v -0.377584 0.182053 -0.095614
v -0.419210 0.203467 -0.079016
v -0.394687 0.118222 -0.062418
v -0.394687 0.118222 -0.095614
v -0.441444 0.115954 -0.079016
v -0.377584 0.054392 -0.062418
v -0.377584 0.054392 -0.095614
v -0.416942 0.029049 -0.079016
v -0.330856 0.007664 -0.062418
v -0.330856 0.007664 -0.095614
v -0.352270 -0.033962 -0.079016
v -0.267025 -0.009439 -0.062418
v -0.267025 -0.009439 -0.095614
v -0.264757 -0.056196 -0.079016
v -0.203195 0.007664 -0.062418
v -0.203195 0.007664 -0.095614
v -0.177852 -0.031694 -0.079016
v -0.156467 0.054392 -0.062418
v -0.156467 0.054392 -0.095614
v -0.114841 0.032978 -0.079016
v -0.139364 0.118222 -0.062418
v -0.139364 0.118222 -0.095614
v -0.092607 0.120491 -0.079016
v -0.156467 0.182053 -0.062418
v -0.156467 0.182053 -0.095614
v -0.117109 0.207396 -0.079016
v -0.181781 0.270407 -0.079016
v -0.508468 0.129068 0.572625
v -0.508468 0.129068 0.128531
v -0.508468 -0.005335 0.572625
v -0.508468 -0.005335 0.128531
v -0.510799 -0.009536 0.062282
v -0.212895 -0.009536 0.062282
v -0.510799 -0.009536 -0.235622
v -0.212895 -0.009536 -0.235622
v -0.575023 -0.009536 -0.086670
v -0.148671 -0.009536 -0.086670
v -0.361847 -0.009536 0.126506
v -0.361847 -0.009536 -0.299846
v -0.361847 0.020482 -0.086670
v -0.180783 -0.009536 -0.161146
v -0.542911 -0.009536 -0.161146
v -0.361847 0.007302 -0.193258
v -0.542911 -0.009536 -0.012194
v -0.180783 -0.009536 -0.012194
v -0.361847 0.007302 0.019918
v -0.287371 -0.009536 0.094394
v -0.287371 -0.009536 -0.267734
v -0.255259 0.007302 -0.086670
v -0.271315 0.007302 -0.177202
v -0.271315 0.007302 0.003862
v -0.436323 -0.009536 -0.267734
v -0.468435 0.007302 -0.086670
v -0.436323 -0.009536 0.094394
v -0.452379 0.007302 -0.177202
v -0.452379 0.007302 0.003862
v -0.427792 -0.027257 -0.232088
v -0.427792 0.096939 -0.232088
v -0.387578 -0.027257 -0.208871
v -0.387578 0.096939 -0.208871
v -0.387578 -0.027257 -0.162436
v -0.387578 0.096939 -0.162436
v -0.427792 -0.027257 -0.139219
v -0.427792 0.096939 -0.139219
v -0.468005 -0.027257 -0.162436
v -0.468005 0.096939 -0.162436
v -0.468005 -0.027257 -0.208871
v -0.468005 0.096939 -0.208871
v 0.546096 0.030108 -0.397002
v -0.031654 0.030108 -0.397002
v 0.546096 0.070321 -0.373785
v -0.031654 0.070321 -0.373785
v 0.546096 0.070321 -0.327350
v -0.031654 0.070321 -0.327350
v 0.546096 0.030108 -0.304133
v -0.031654 0.030108 -0.304133
v 0.546096 -0.010105 -0.327350
v -0.031654 -0.010105 -0.327350
v 0.546096 -0.010105 -0.373785
v -0.031654 -0.010105 -0.373785
v 0.498242 0.030108 -0.488662
v -0.079508 0.030108 -0.488662
v 0.498242 0.070321 -0.465445
v -0.079508 0.070321 -0.465445
v 0.498242 0.070321 -0.419011
v -0.079508 0.070321 -0.419011
v 0.498242 0.030108 -0.395793
v -0.079508 0.030108 -0.395793
v 0.498242 -0.010105 -0.419011
v -0.079508 -0.010105 -0.419011
v 0.498242 -0.010105 -0.465445
v -0.079508 -0.010105 -0.465445
v 0.563771 0.030108 -0.582314
v -0.013979 0.030108 -0.582314
v 0.563771 0.070321 -0.559097
v -0.013979 0.070321 -0.559097
v 0.563771 0.070321 -0.512662
v -0.013979 0.070321 -0.512662
v 0.563771 0.030108 -0.489445
v -0.013979 0.030108 -0.489445
v 0.563771 -0.010105 -0.512662
v -0.013979 -0.010105 -0.512662
v 0.563771 -0.010105 -0.559097
v -0.013979 -0.010105 -0.559097
v 0.515629 0.111818 -0.538206
v -0.062121 0.111818 -0.538206
v 0.515629 0.152032 -0.514989
v -0.062121 0.152032 -0.514989
v 0.515629 0.152032 -0.468555
v -0.062121 0.152032 -0.468555
v 0.515629 0.111818 -0.445338
v -0.062121 0.111818 -0.445338
v 0.515629 0.071605 -0.468555
v -0.062121 0.071605 -0.468555
v 0.515629 0.071605 -0.514989
v -0.062121 0.071605 -0.514989
v 0.569499 0.114719 -0.445703
v -0.008251 0.114719 -0.445703
v 0.569499 0.154932 -0.422486
v -0.008251 0.154932 -0.422486
v 0.569499 0.154932 -0.376052
v -0.008251 0.154932 -0.376052
v 0.569499 0.114719 -0.352835
v -0.008251 0.114719 -0.352835
v 0.569499 0.074506 -0.376052
v -0.008251 0.074506 -0.376052
v 0.569499 0.074506 -0.422486
v -0.008251 0.074506 -0.422486
v -0.328480 0.035655 -0.368647
v -0.320300 0.035655 -0.244721
v -0.305313 0.075868 -0.370176
v -0.297133 0.075868 -0.246250
v -0.258980 0.075868 -0.373234
v -0.250800 0.075868 -0.249308
v -0.235813 0.035655 -0.374763
v -0.227633 0.035655 -0.250837
v -0.258980 -0.004558 -0.373234
v -0.250800 -0.004558 -0.249308
v -0.305313 -0.004558 -0.370176
v -0.297133 -0.004558 -0.246250
v -0.423599 0.035655 -0.378789
v -0.413943 0.035655 -0.254969
v -0.400452 0.075868 -0.380594
v -0.390796 0.075868 -0.256774
v -0.354159 0.075868 -0.384204
v -0.344503 0.075868 -0.260385
v -0.331012 0.035655 -0.386009
v -0.321356 0.035655 -0.262190
v -0.354159 -0.004558 -0.384204
v -0.344503 -0.004558 -0.260385
v -0.400452 -0.004558 -0.380594
v -0.390796 -0.004558 -0.256774
v -0.366063 0.116090 -0.368825
v -0.374612 0.116090 -0.244923
v -0.342901 0.156303 -0.367227
v -0.351450 0.156303 -0.243325
v -0.296577 0.156303 -0.364031
v -0.305125 0.156303 -0.240130
v -0.273415 0.116090 -0.362433
v -0.281963 0.116090 -0.238532
v -0.296577 0.075877 -0.364031
v -0.305125 0.075877 -0.240130
v -0.342901 0.075877 -0.367227
v -0.351450 0.075877 -0.243325
v -0.522481 0.347197 0.165804
v -0.522481 0.541045 0.165804
v -0.505860 0.347197 0.165804
v -0.505860 0.541045 0.165804
v -0.522481 0.347197 0.539219
v -0.522481 0.541045 0.539219
v -0.505860 0.347197 0.539219
v -0.505860 0.541045 0.539219
v -0.522481 0.358607 0.180537
v -0.522481 0.529635 0.180537
v -0.522481 0.529635 0.524486
v -0.522481 0.358607 0.524486
v -0.509766 0.358607 0.180537
v -0.509766 0.529635 0.180537
v -0.509766 0.529635 0.524486
v -0.509766 0.358607 0.524486
v -0.451623 0.119710 -0.098080
v -0.451623 0.095328 -0.098080
v -0.451623 0.119710 -0.204648
v -0.451623 0.095328 -0.204648
v -0.452342 0.095328 -0.063304
v -0.452342 0.119710 -0.063304
v -0.452342 0.095328 0.046911
v -0.452342 0.119710 0.046911
vn 1.0000 -0.0000 -0.0000
vn -0.0000 -0.0000 1.0000
vn -0.0000 -0.0000 -1.0000
vn -0.0000 1.0000 -0.0000
vn -1.0000 -0.0000 -0.0000
vn -0.0000 -1.0000 -0.0000
vn 0.0903 0.3371 -0.9371
vn 0.6948 0.7192 -0.0000
vn -0.9988 -0.0485 -0.0000
vn 0.0903 0.3371 0.9371
vn -0.0903 0.3371 -0.9371
vn 0.2421 0.9702 -0.0000
vn -0.8408 -0.5414 -0.0000
vn -0.0903 0.3371 0.9371
vn -0.2467 0.2467 -0.9371
vn -0.2754 0.9613 -0.0000
vn -0.4575 -0.8892 -0.0000
vn -0.2467 0.2467 0.9371
vn -0.3371 0.0903 -0.9371
vn -0.7192 0.6948 -0.0000
vn 0.0485 -0.9988 -0.0000
vn -0.3371 0.0903 0.9371
vn -0.3371 -0.0903 -0.9371
vn -0.9702 0.2421 -0.0000
vn 0.5414 -0.8408 -0.0000
vn -0.3371 -0.0903 0.9371
vn -0.2467 -0.2467 -0.9371
vn -0.9613 -0.2754 -0.0000
vn 0.8892 -0.4575 -0.0000
vn -0.2467 -0.2467 0.9371
vn -0.0903 -0.3371 -0.9371
vn -0.6948 -0.7192 -0.0000
vn 0.9988 0.0485 -0.0000
vn -0.0903 -0.3371 0.9371
vn 0.0903 -0.3371 -0.9371
vn -0.2421 -0.9702 -0.0000
vn 0.8408 0.5414 -0.0000
vn 0.0903 -0.3371 0.9371
vn 0.2467 -0.2467 -0.9371
vn 0.2754 -0.9613 -0.0000
vn 0.4575 0.8892 -0.0000
vn 0.2467 -0.2467 0.9371
vn 0.3371 -0.0903 -0.9371
vn 0.7192 -0.6948 -0.0000
vn -0.0485 0.9988 -0.0000
vn 0.3371 -0.0903 0.9371
vn 0.3371 0.0903 -0.9371
vn 0.9702 -0.2421 -0.0000
vn -0.5414 0.8408 -0.0000
vn 0.3371 0.0903 0.9371
vn 0.2467 0.2467 -0.9371
vn 0.9613 0.2754 -0.0000
vn -0.8892 0.4575 -0.0000
vn 0.2467 0.2467 0.9371
vn 0.1412 0.9799 -0.1412
vn 0.1722 0.9838 0.0503
vn -0.0724 0.9947 0.0724
vn -0.0503 0.9838 -0.1722
vn -0.0724 0.9947 -0.0724
vn 0.1722 0.9838 -0.0503
vn -0.0503 0.9838 0.1722
vn 0.1412 0.9799 0.1412
vn 0.0503 0.9838 0.1722
vn 0.0724 0.9947 -0.0724
vn 0.0724 0.9947 0.0724
vn 0.0503 0.9838 -0.1722
vn -0.1412 0.9799 0.1412
vn -0.1722 0.9838 -0.0503
vn -0.1412 0.9799 -0.1412
vn -0.1722 0.9838 0.0503
vn 0.5000 -0.0000 -0.8660
vn 0.5000 -0.0000 0.8660
vn -0.5000 -0.0000 0.8660
vn -0.5000 -0.0000 -0.8660
vn -0.0000 0.5000 -0.8660
vn -0.0000 0.5000 0.8660
vn -0.0000 -0.5000 0.8660
vn -0.0000 -0.5000 -0.8660
vn -0.8641 0.5000 0.0570
vn 0.8641 0.5000 -0.0570
vn 0.8641 -0.5000 -0.0570
vn 0.0659 -0.0000 0.9978
vn -0.8641 -0.5000 0.0570
vn -0.0659 -0.0000 -0.9978
vn -0.8634 0.5000 0.0673
vn 0.8634 0.5000 -0.0673
vn 0.8634 -0.5000 -0.0673
vn 0.0777 -0.0000 0.9970
vn -0.8634 -0.5000 0.0673
vn -0.0777 -0.0000 -0.9970
vn -0.8640 0.5000 -0.0596
vn 0.8640 0.5000 0.0596
vn 0.8640 -0.5000 0.0596
vn -0.0688 -0.0000 0.9976
vn -0.8640 -0.5000 -0.0596
vn 0.0688 -0.0000 -0.9976
vt 0.507582 0.811757
vt 0.926609 0.654097
vt 0.975284 0.779600
vt 0.507619 0.811901
vt 0.765949 0.787635
vt 0.425037 0.486340
vt 0.764335 0.775975
vt 0.635329 0.504747
vt 0.636100 0.626649
vt 0.813512 0.471314
vt 0.813512 0.488095
vt 0.813512 0.492012
vt 0.813512 0.477279
vt 0.813512 0.483087
vt 0.814000 0.432000
vt 0.797046 0.508450
vt 0.389757 0.452753
vt 0.250778 0.421424
s 0
usemtl Material
f 7/1/1 8/1/1 6/1/1 5/1/1
f 5/1/2 6/1/2 2/1/2 1/1/2
f 18/2/3 10/2/3 35/2/3 37/2/3
f 19/2/1 11/2/1 25/2/1 27/2/1
f 12/2/4 11/2/4 10/2/4 13/2/4
f 6/1/1 8/1/1 16/1/1 17/1/1
f 33/1/5 34/1/5 110/1/5 109/1/5
f 12/2/5 13/2/5 21/2/5 20/2/5
f 17/3/4 16/3/4 20/3/4 21/3/4
f 10/2/4 11/2/4 36/2/4 35/2/4
f 14/3/4 17/3/4 21/3/4 18/3/4
f 13/2/3 10/2/3 18/2/3 21/2/3
f 2/1/2 6/1/2 17/1/2 14/1/2
f 11/2/4 12/2/4 26/2/4 25/2/4
f 22/4/5 3/4/5 42/4/5 44/4/5
f 22/1/3 9/1/3 24/1/3 23/1/3
f 30/3/4 29/3/4 27/3/4 28/3/4
f 25/2/2 26/2/2 28/2/2 27/2/2
f 24/1/3 9/1/3 29/1/3 30/1/3
f 15/3/4 19/3/4 27/3/4 29/3/4
f 20/3/4 16/3/4 30/3/4 28/3/4
f 4/1/5 15/1/5 29/1/5 9/1/5
f 12/2/5 20/2/5 28/2/5 26/2/5
f 16/1/1 8/1/1 24/1/1 30/1/1
f 8/1/1 7/1/1 23/1/1 24/1/1
f 34/1/3 4/1/3 31/1/3 110/1/3
f 34/1/5 33/1/5 39/1/5 40/1/5
f 35/2/1 36/2/1 38/2/1 37/2/1
f 40/3/4 39/3/4 37/3/4 38/3/4
f 14/3/4 18/3/4 37/3/4 39/3/4
f 2/1/2 14/1/2 39/1/2 33/1/2
f 2/1/2 33/1/2 109/1/2 32/1/2
f 11/2/2 19/2/2 38/2/2 36/2/2
f 19/3/4 15/3/4 40/3/4 38/3/4
f 15/1/3 4/1/3 34/1/3 40/1/3
f 43/5/3 44/5/3 48/5/3 47/5/3
f 3/1/5 4/1/5 41/1/5 42/1/5
f 9/1/5 22/1/5 44/1/5 43/1/5
f 4/1/5 9/1/5 43/1/5 41/1/5
f 48/5/5 46/5/5 50/5/5 52/5/5
f 44/5/6 42/5/6 46/5/6 48/5/6
f 42/5/2 41/5/2 45/5/2 46/5/2
f 41/5/4 43/5/4 47/5/4 45/5/4
f 52/5/4 50/5/4 54/5/4 56/5/4
f 46/5/5 45/5/5 49/5/5 50/5/5
f 45/5/5 47/5/5 51/5/5 49/5/5
f 47/5/5 48/5/5 52/5/5 51/5/5
f 54/6/5 53/6/5 55/6/5 56/6/5
f 50/5/3 49/5/3 53/5/3 54/5/3
f 49/5/6 51/5/6 55/5/6 53/5/6
f 51/5/2 52/5/2 56/5/2 55/5/2
f 74/8/7 76/8/7 77/8/7
f 73/8/8 74/8/8 77/8/8
f 76/8/9 75/8/9 77/8/9
f 75/8/10 73/8/10 77/8/10
f 76/8/11 79/8/11 80/8/11
f 75/8/12 76/8/12 80/8/12
f 79/8/13 78/8/13 80/8/13
f 78/8/14 75/8/14 80/8/14
f 79/8/15 82/8/15 83/8/15
f 78/8/16 79/8/16 83/8/16
f 82/8/17 81/8/17 83/8/17
f 81/8/18 78/8/18 83/8/18
f 82/8/19 85/8/19 86/8/19
f 81/8/20 82/8/20 86/8/20
f 85/8/21 84/8/21 86/8/21
f 84/8/22 81/8/22 86/8/22
f 85/8/23 88/8/23 89/8/23
f 84/8/24 85/8/24 89/8/24
f 88/8/25 87/8/25 89/8/25
f 87/8/26 84/8/26 89/8/26
f 88/8/27 91/8/27 92/8/27
f 87/8/28 88/8/28 92/8/28
f 91/8/29 90/8/29 92/8/29
f 90/8/30 87/8/30 92/8/30
f 91/8/31 94/8/31 95/8/31
f 90/8/32 91/8/32 95/8/32
f 94/8/33 93/8/33 95/8/33
f 93/8/34 90/8/34 95/8/34
f 94/8/35 97/8/35 98/8/35
f 93/8/36 94/8/36 98/8/36
f 97/8/37 96/8/37 98/8/37
f 96/8/38 93/8/38 98/8/38
f 97/8/39 100/8/39 101/8/39
f 96/8/40 97/8/40 101/8/40
f 100/8/41 99/8/41 101/8/41
f 99/8/42 96/8/42 101/8/42
f 100/8/43 103/8/43 104/8/43
f 99/8/44 100/8/44 104/8/44
f 103/8/45 102/8/45 104/8/45
f 102/8/46 99/8/46 104/8/46
f 103/8/47 106/8/47 107/8/47
f 102/8/48 103/8/48 107/8/48
f 106/8/49 105/8/49 107/8/49
f 105/8/50 102/8/50 107/8/50
f 106/8/51 74/8/51 108/8/51
f 105/8/52 106/8/52 108/8/52
f 74/8/53 73/8/53 108/8/53
f 73/8/54 105/8/54 108/8/54
f 76/8/3 74/8/3 106/8/3 103/8/3 100/8/3 97/8/3 94/8/3 91/8/3 88/8/3 85/8/3 82/8/3 79/8/3
f 73/8/2 75/8/2 78/8/2 81/8/2 84/8/2 87/8/2 90/8/2 93/8/2 96/8/2 99/8/2 102/8/2 105/8/2
f 109/9/5 110/9/5 112/9/5 111/9/5
f 110/9/3 31/9/3 3/9/3 112/9/3
f 32/9/2 109/9/2 111/9/2 1/9/2
f 131/10/55 122/10/55 116/10/55 129/10/55
f 132/10/56 126/10/56 118/10/56 130/10/56
f 137/11/57 127/11/57 121/11/57 134/11/57
f 136/12/58 124/12/58 120/12/58 133/12/58
f 134/10/59 121/10/59 124/10/59 136/10/59
f 130/13/60 118/13/60 122/13/60 131/13/60
f 135/13/61 119/13/61 127/13/61 137/13/61
f 128/13/62 114/13/62 126/13/62 132/13/62
f 119/11/63 128/11/63 132/11/63 127/11/63
f 121/11/64 130/11/64 131/11/64 124/11/64
f 127/14/65 132/14/65 130/14/65 121/14/65
f 124/13/66 131/13/66 129/13/66 120/13/66
f 113/10/67 135/10/67 137/10/67 125/10/67
f 117/13/68 134/13/68 136/13/68 123/13/68
f 123/13/69 136/13/69 133/13/69 115/13/69
f 125/12/70 137/12/70 134/12/70 117/12/70
f 138/15/71 139/15/71 141/15/71 140/15/71
f 140/15/1 141/15/1 143/15/1 142/15/1
f 142/15/72 143/15/72 145/15/72 144/15/72
f 144/15/73 145/15/73 147/15/73 146/15/73
f 141/16/4 139/16/4 149/16/4 147/16/4 145/16/4 143/16/4
f 146/15/5 147/15/5 149/15/5 148/15/5
f 148/15/74 149/15/74 139/15/74 138/15/74
f 150/15/75 151/15/75 153/15/75 152/15/75
f 152/15/4 153/15/4 155/15/4 154/15/4
f 154/15/76 155/15/76 157/15/76 156/15/76
f 156/15/77 157/15/77 159/15/77 158/15/77
f 153/16/5 151/16/5 161/16/5 159/16/5 157/16/5 155/16/5
f 160/15/78 161/15/78 151/15/78 150/15/78
f 150/16/1 152/16/1 154/16/1 156/16/1 158/16/1 160/16/1
f 162/15/75 163/15/75 165/15/75 164/15/75
f 164/15/4 165/15/4 167/15/4 166/15/4
f 166/15/76 167/15/76 169/15/76 168/15/76
f 168/15/77 169/15/77 171/15/77 170/15/77
f 165/16/5 163/16/5 173/16/5 171/16/5 169/16/5 167/16/5
f 172/15/78 173/15/78 163/15/78 162/15/78
f 162/16/1 164/16/1 166/16/1 168/16/1 170/16/1 172/16/1
f 174/15/75 175/15/75 177/15/75 176/15/75
f 176/15/4 177/15/4 179/15/4 178/15/4
f 178/15/76 179/15/76 181/15/76 180/15/76
f 180/15/77 181/15/77 183/15/77 182/15/77
f 177/16/5 175/16/5 185/16/5 183/16/5 181/16/5 179/16/5
f 184/15/78 185/15/78 175/15/78 174/15/78
f 174/16/1 176/16/1 178/16/1 180/16/1 182/16/1 184/16/1
f 186/15/75 187/15/75 189/15/75 188/15/75
f 188/15/4 189/15/4 191/15/4 190/15/4
f 190/15/76 191/15/76 193/15/76 192/15/76
f 192/15/77 193/15/77 195/15/77 194/15/77
f 189/16/5 187/16/5 197/16/5 195/16/5 193/16/5 191/16/5
f 194/15/6 195/15/6 197/15/6 196/15/6
f 196/15/78 197/15/78 187/15/78 186/15/78
f 186/16/1 188/16/1 190/16/1 192/16/1 194/16/1 196/16/1
f 198/15/75 199/15/75 201/15/75 200/15/75
f 200/15/4 201/15/4 203/15/4 202/15/4
f 202/15/76 203/15/76 205/15/76 204/15/76
f 204/15/77 205/15/77 207/15/77 206/15/77
f 201/16/5 199/16/5 209/16/5 207/16/5 205/16/5 203/16/5
f 206/15/6 207/15/6 209/15/6 208/15/6
f 208/15/78 209/15/78 199/15/78 198/15/78
f 198/16/1 200/16/1 202/16/1 204/16/1 206/16/1 208/16/1
f 210/15/79 211/15/79 213/15/79 212/15/79
f 212/15/4 213/15/4 215/15/4 214/15/4
f 214/15/80 215/15/80 217/15/80 216/15/80
f 216/15/81 217/15/81 219/15/81 218/15/81
f 213/16/82 211/16/82 221/16/82 219/16/82 217/16/82 215/16/82
f 220/15/83 221/15/83 211/15/83 210/15/83
f 210/16/84 212/16/84 214/16/84 216/16/84 218/16/84 220/16/84
f 222/15/85 223/15/85 225/15/85 224/15/85
f 224/15/4 225/15/4 227/15/4 226/15/4
f 226/15/86 227/15/86 229/15/86 228/15/86
f 228/15/87 229/15/87 231/15/87 230/15/87
f 225/16/88 223/16/88 233/16/88 231/16/88 229/16/88 227/16/88
f 232/15/89 233/15/89 223/15/89 222/15/89
f 222/16/90 224/16/90 226/16/90 228/16/90 230/16/90 232/16/90
f 234/15/91 235/15/91 237/15/91 236/15/91
f 236/15/4 237/15/4 239/15/4 238/15/4
f 238/15/92 239/15/92 241/15/92 240/15/92
f 240/15/93 241/15/93 243/15/93 242/15/93
f 237/16/94 235/16/94 245/16/94 243/16/94 241/16/94 239/16/94
f 242/15/6 243/15/6 245/15/6 244/15/6
f 244/15/95 245/15/95 235/15/95 234/15/95
f 234/16/96 236/16/96 238/16/96 240/16/96 242/16/96 244/16/96
usemtl Material
f 262/7/5 264/7/5 265/7/5 263/7/5
f 58/7/2 57/7/2 262/7/2 263/7/2
f 59/7/3 60/7/3 265/7/3 264/7/3
f 69/7/5 72/7/5 71/7/5
f 69/7/5 70/7/5 72/7/5
f 60/7/6 58/7/6 263/7/6 265/7/6
f 267/7/5 266/7/5 268/7/5 269/7/5
f 65/7/3 66/7/3 70/7/3
f 67/7/4 65/7/4 69/7/4 71/7/4
f 57/7/4 59/7/4 264/7/4 262/7/4
f 62/7/3 61/7/3 266/7/3 267/7/3
f 61/7/6 63/7/6 268/7/6 266/7/6
f 63/7/2 64/7/2 269/7/2 268/7/2
f 64/7/4 62/7/4 267/7/4 269/7/4
f 65/7/3 70/7/3 69/7/3
f 65/7/1 68/7/1 66/7/1
f 65/7/1 67/7/1 68/7/1
f 71/7/2 72/7/2 68/7/2
f 71/7/2 68/7/2 67/7/2
usemtl Material
f 246/17/3 247/17/3 249/17/3 248/17/3
f 254/17/4 257/17/4 261/17/4 258/17/4
f 252/17/2 253/17/2 251/17/2 250/17/2
f 251/17/5 247/17/5 255/17/5 256/17/5
f 248/17/6 252/17/6 250/17/6 246/17/6
f 253/17/4 249/17/4 247/17/4 251/17/4
f 250/17/5 251/17/5 256/17/5 257/17/5
f 247/17/5 246/17/5 254/17/5 255/17/5
f 246/17/5 250/17/5 257/17/5 254/17/5
f 261/18/5 260/18/5 259/18/5 258/18/5
f 255/17/2 254/17/2 258/17/2 259/17/2
f 256/17/6 255/17/6 259/17/6 260/17/6
f 257/17/3 256/17/3 260/17/3 261/17/3
