# Blender 4.2.0
# www.blender.org
mtllib ForestS_3.mtl
o Center.001
v -0.061524 -0.022105 0.309471
v -0.061524 0.163763 0.309471
v -0.078928 -0.022105 0.364108
v -0.089717 0.163763 0.368575
v -0.140648 -0.022105 0.342229
v -0.140648 0.163763 0.342229
v -0.123245 -0.022105 0.287592
v -0.112455 0.163763 0.283125
v -0.294157 0.271391 0.241813
v -0.028864 0.703184 0.151482
v -0.171175 0.703184 0.494880
v 0.094815 0.271391 0.404838
v 0.072173 0.703184 0.394132
v -0.077207 0.162780 0.173222
v -0.249903 0.163353 0.300159
v 0.051524 0.164187 0.346856
v -0.123846 0.164765 0.474677
v -0.179273 0.276900 0.131627
v -0.271225 0.703184 0.251822
v -0.162062 0.731628 0.172625
v 0.092028 0.276900 0.243723
v 0.049648 0.733933 0.259611
v -0.020068 0.276900 0.515024
v -0.037863 0.736246 0.472614
v -0.291370 0.276900 0.402928
v -0.250329 0.733933 0.383805
v -0.181183 0.271391 0.517811
v -0.018158 0.271391 0.128840
v -0.099671 0.807529 0.323326
v -0.099671 0.131115 0.323326
v 0.339727 -0.024759 0.371347
v 0.339727 0.183422 0.371347
v 0.320234 -0.024759 0.432543
v 0.308149 0.183422 0.437546
v 0.251104 -0.024759 0.408038
v 0.251104 0.183422 0.408038
v 0.270597 -0.024759 0.346842
v 0.282682 0.183422 0.341839
v 0.079167 0.303971 0.295567
v 0.376308 0.787601 0.194392
v 0.216913 0.787601 0.579015
v 0.514835 0.303971 0.478163
v 0.489475 0.787601 0.466172
v 0.322162 0.182322 0.218742
v 0.128734 0.182963 0.360917
v 0.466347 0.183897 0.413221
v 0.269923 0.184544 0.556387
v 0.207843 0.310142 0.172153
v 0.104851 0.787601 0.306777
v 0.227120 0.819460 0.218073
v 0.511713 0.310142 0.297707
v 0.440866 0.845738 0.327303
v 0.386160 0.310142 0.601577
v 0.356563 0.845738 0.530730
v 0.082289 0.310142 0.476024
v 0.128257 0.822041 0.454605
v 0.205703 0.303971 0.604699
v 0.388299 0.303971 0.169031
v 0.504240 0.680753 0.301066
v 0.382800 0.680753 0.594104
v 0.297001 0.904473 0.386865
v 0.297001 0.146855 0.386865
v 0.403107 -0.022105 -0.379036
v 0.403107 0.163763 -0.379036
v 0.385703 -0.022105 -0.324400
v 0.374914 0.163763 -0.319933
v 0.323983 -0.022105 -0.346278
v 0.323983 0.163763 -0.346278
v 0.341386 -0.022105 -0.400915
v 0.352176 0.163763 -0.405382
v 0.170474 0.271391 -0.446694
v 0.435767 0.703184 -0.537026
v 0.293456 0.703184 -0.193627
v 0.559446 0.271391 -0.283669
v 0.536804 0.703184 -0.294376
v 0.387425 0.162780 -0.515285
v 0.214728 0.163353 -0.388349
v 0.516155 0.164187 -0.341651
v 0.340785 0.164765 -0.213830
v 0.285358 0.276900 -0.556881
v 0.193406 0.703184 -0.436686
v 0.302569 0.731628 -0.515882
v 0.556659 0.276900 -0.444784
v 0.514279 0.733933 -0.428896
v 0.444563 0.276900 -0.173483
v 0.426768 0.736246 -0.215893
v 0.173261 0.276900 -0.285579
v 0.214302 0.733933 -0.304702
v 0.283448 0.271391 -0.170696
v 0.446473 0.271391 -0.559668
v 0.364960 0.807529 -0.365182
v 0.364960 0.131115 -0.365182
v -0.293345 -0.019976 0.079955
v -0.287209 0.147988 0.074850
v -0.349120 -0.019976 0.060184
v -0.349120 0.147988 0.060184
v -0.315694 -0.019976 0.006048
v -0.323643 0.147988 0.006774
v -0.487841 0.245248 -0.030559
v -0.248104 0.635447 -0.112189
v -0.376705 0.635447 0.198130
v -0.136338 0.245248 0.116762
v -0.156799 0.635447 0.107087
v -0.291789 0.147100 -0.092542
v -0.447850 0.147617 0.022166
v -0.175459 0.148371 0.064365
v -0.333937 0.148893 0.179874
v -0.384024 0.250226 -0.130131
v -0.467118 0.635447 -0.021514
v -0.368471 0.661151 -0.093082
v -0.138857 0.250226 -0.028833
v -0.177154 0.663233 -0.014475
v -0.240155 0.250226 0.216334
v -0.256236 0.665324 0.178009
v -0.485322 0.250226 0.115036
v -0.448235 0.663233 0.097755
v -0.385750 0.245248 0.218853
v -0.238429 0.245248 -0.132650
v -0.312090 0.729740 0.043101
v -0.312090 0.118485 0.043101
v 0.476570 -0.020268 -0.010574
v 0.476570 0.150151 -0.010574
v 0.442656 -0.020268 0.044353
v 0.450720 0.150151 0.043617
v 0.419980 -0.020268 -0.030635
v 0.413754 0.150151 -0.025455
v 0.263274 0.248833 -0.072609
v 0.506515 0.644736 -0.155432
v 0.376034 0.644736 0.159424
v 0.619915 0.248833 0.076866
v 0.599155 0.644736 0.067049
v 0.462191 0.149250 -0.135498
v 0.303849 0.149775 -0.019113
v 0.580222 0.150539 0.023703
v 0.419428 0.151069 0.140900
v 0.368609 0.253884 -0.173636
v 0.284299 0.644736 -0.063432
v 0.384389 0.670815 -0.136045
v 0.617359 0.253884 -0.070857
v 0.578502 0.672928 -0.056290
v 0.514580 0.253884 0.177893
v 0.498264 0.675049 0.139009
v 0.265830 0.253884 0.075114
v 0.303459 0.672928 0.057581
v 0.366857 0.248833 0.180449
v 0.516332 0.248833 -0.176192
v 0.441594 0.740408 0.002128
v 0.441594 0.120217 0.002128
v 0.034010 -0.024856 -0.287955
v 0.034010 0.184140 -0.287955
v 0.014441 -0.024856 -0.226520
v 0.002309 0.184140 -0.221497
v -0.054959 -0.024856 -0.251121
v -0.054959 0.184140 -0.251121
v -0.035390 -0.024856 -0.312556
v -0.023258 0.184140 -0.317579
v -0.227569 0.305161 -0.364032
v 0.070734 0.790684 -0.465604
v -0.089284 0.790684 -0.079475
v 0.209804 0.305161 -0.180721
v 0.184344 0.790684 -0.192760
v 0.016377 0.183036 -0.441158
v -0.177809 0.183680 -0.298426
v 0.161126 0.184617 -0.245918
v -0.036067 0.185267 -0.102192
v -0.098390 0.311356 -0.487930
v -0.201785 0.790684 -0.352778
v -0.079038 0.822668 -0.441829
v 0.206670 0.311356 -0.361884
v 0.135546 0.849048 -0.332172
v 0.080625 0.311356 -0.056824
v 0.050912 0.849048 -0.127948
v -0.224435 0.311356 -0.182869
v -0.153311 0.849048 -0.212582
v -0.100538 0.305161 -0.053690
v 0.082773 0.305161 -0.491063
v 0.199167 0.683418 -0.358512
v 0.077252 0.683418 -0.064327
v -0.216932 0.683418 -0.186242
v -0.008883 0.908014 -0.272377
v -0.008883 0.147430 -0.272377
v 0.151719 -0.016454 0.050538
v 0.151719 0.121895 0.050538
v 0.124186 -0.016454 0.095130
v 0.130733 0.121895 0.094532
v 0.105777 -0.016454 0.034253
v 0.100724 0.121895 0.038458
v -0.021439 0.202007 0.000178
v 0.176029 0.523408 -0.067060
v 0.070101 0.523408 0.188546
v 0.268088 0.202007 0.121524
v 0.251235 0.523408 0.113555
v 0.140046 0.121164 -0.050877
v 0.011501 0.121590 0.043607
v 0.235865 0.122211 0.078366
v 0.105330 0.122641 0.173508
v 0.064073 0.206108 -0.081838
v -0.004370 0.523408 0.007628
v 0.076884 0.544580 -0.051321
v 0.266014 0.206108 0.001600
v 0.234469 0.546296 0.013426
v 0.182576 0.206108 0.203540
v 0.169330 0.548018 0.171973
v -0.019365 0.206108 0.120102
v 0.011184 0.546296 0.105868
v 0.062652 0.202007 0.205615
v 0.183998 0.202007 -0.083913
v 0.123325 0.601077 0.060851
v 0.123325 0.097594 0.060851
v -0.386639 -0.012612 0.348856
v -0.374928 0.093433 0.333600
v -0.424506 -0.012612 0.327064
v -0.417148 0.093433 0.344834
v -0.386699 -0.012612 0.305167
v -0.405768 0.093433 0.302653
v -0.503050 0.107773 0.291372
v -0.358076 0.401193 0.227545
v -0.439269 0.401193 0.423467
v -0.287512 0.154839 0.372095
v -0.300430 0.401193 0.365986
v -0.364234 0.107728 0.221031
v -0.432941 0.108470 0.430403
v -0.443890 0.157982 0.216217
v -0.496352 0.401193 0.284793
v -0.434070 0.417422 0.239608
v -0.289102 0.157982 0.280172
v -0.313282 0.418736 0.289237
v -0.353057 0.157982 0.434960
v -0.363210 0.420056 0.410764
v -0.507845 0.157982 0.371005
v -0.484430 0.418736 0.360094
v -0.398474 0.460726 0.325589
v -0.330638 0.078420 0.336246
v -0.326403 -0.012612 -0.213585
v -0.322529 0.093433 -0.216808
v -0.361617 -0.012612 -0.226068
v -0.361617 0.093433 -0.226068
v -0.340513 -0.012612 -0.260247
v -0.345531 0.093433 -0.259789
v -0.442814 0.107773 -0.271070
v -0.297840 0.401193 -0.334897
v -0.379033 0.401193 -0.138975
v -0.227276 0.154839 -0.190347
v -0.240194 0.401193 -0.196456
v -0.303998 0.107728 -0.341411
v -0.372705 0.108470 -0.132038
v -0.383653 0.157982 -0.346225
v -0.436116 0.401193 -0.277649
v -0.373834 0.417422 -0.322833
v -0.228866 0.157982 -0.282269
v -0.253045 0.418736 -0.273205
v -0.292821 0.157982 -0.127482
v -0.302974 0.420056 -0.151678
v -0.447609 0.157982 -0.191437
v -0.424193 0.418736 -0.202347
v -0.338237 0.460726 -0.236853
v -0.270402 0.078420 -0.226196
vn -0.2324 -0.9567 0.1756
vn -0.1706 -0.9587 -0.2278
vn 0.9563 -0.0437 -0.2892
vn -0.9563 -0.0437 0.2892
vn 0.9939 -0.1100 -0.0014
vn -0.4958 -0.1100 0.8615
vn -0.4982 -0.1100 -0.8601
vn -0.1927 -0.9759 0.1021
vn -0.1093 -0.9705 -0.2150
vn -0.3934 -0.0225 0.9191
vn -0.9280 0.0225 -0.3720
vn 0.3934 -0.0225 -0.9191
vn -0.6503 0.0730 -0.7562
vn -0.0726 0.0719 -0.9948
vn 0.7554 0.0733 -0.6511
vn 0.9944 0.0732 -0.0762
vn 0.6484 0.0746 0.7577
vn 0.0750 0.0736 0.9945
vn -0.7585 0.0742 0.6475
vn -0.9948 0.0723 0.0714
vn -0.6195 -0.6075 0.4971
vn -0.9303 -0.3656 0.0286
vn 0.4561 0.8719 0.1779
vn 0.1779 0.8719 -0.4561
vn -0.4483 0.8719 -0.1969
vn -0.1969 0.8719 0.4483
vn 0.6179 -0.6092 -0.4971
vn 0.2354 -0.9575 -0.1668
vn 0.1717 -0.9555 0.2399
vn 0.9321 -0.3610 -0.0285
vn -0.4993 -0.6070 -0.6182
vn -0.0286 -0.3648 -0.9307
vn 0.4950 -0.6095 0.6193
vn 0.0285 -0.3617 0.9319
vn 0.9280 0.0225 0.3720
vn 0.6914 0.0400 -0.7213
vn 0.9990 0.0386 0.0224
vn 0.7582 0.3760 -0.5327
vn 0.9123 0.3762 -0.1619
vn 0.7213 0.0400 0.6914
vn -0.0232 0.0390 0.9990
vn 0.5327 0.3760 0.7582
vn 0.1591 0.3760 0.9129
vn 0.4522 0.8720 0.1874
vn 0.1347 0.8706 -0.4731
vn -0.2344 0.8709 0.4320
vn -0.2808 0.0197 0.9596
vn -0.8769 -0.0197 -0.4803
vn 0.8808 0.0437 -0.4714
vn 0.8769 -0.0197 0.4803
vn 0.2808 0.0197 -0.9596
vn -0.8808 0.0437 0.4714
vn -0.6920 0.0396 0.7208
vn -0.9990 0.0390 -0.0232
vn -0.7597 0.3762 0.5304
vn -0.9129 0.3760 0.1591
vn -0.4298 0.8706 -0.2394
vn -0.1874 0.8720 0.4522
vn -0.7149 0.0426 -0.6979
vn 0.2556 0.1100 0.9605
vn -0.9596 0.1100 -0.2589
vn 0.7040 0.1100 -0.7016
vn -0.0231 0.0547 -0.9982
vn 0.6970 0.0428 -0.7158
vn 0.0272 0.0568 0.9980
vn -0.7020 0.0446 0.7108
vn -0.9982 0.0549 0.0219
vn -0.6945 -0.6268 0.3534
vn 0.4528 -0.6411 0.6196
vn 0.8767 -0.4800 -0.0316
vn 0.6979 -0.6187 -0.3609
vn -0.3527 -0.6257 -0.6957
vt 0.603446 0.519092
vt 0.604509 0.534302
vt 0.600068 0.530571
vt 0.603285 0.518953
vt 0.604417 0.534079
vt 0.599929 0.530496
vt 0.604509 0.534302
vt 0.764279 0.507562
vt 0.764847 0.504438
vt 0.764985 0.504438
vt 0.604417 0.534079
vt 0.765581 0.501280
vt 0.765006 0.504397
vt 0.764866 0.504398
vt 0.604417 0.534079
vt 0.765581 0.501280
vt 0.765006 0.504397
vt 0.604509 0.534302
vt 0.765995 0.508481
vt 0.764847 0.504438
vt 0.764977 0.504513
vt 0.761986 0.503731
vt 0.764951 0.504305
vt 0.766810 0.501055
vt 0.600782 0.527740
vt 0.604097 0.538638
vt 0.603998 0.538447
vt 0.764279 0.507562
vt 0.603998 0.538447
vt 0.764920 0.504281
vt 0.763046 0.507778
vt 0.761991 0.501938
vt 0.764923 0.504558
vt 0.767882 0.506931
vt 0.598231 0.543977
vt 0.603298 0.545758
vt 0.603318 0.588031
vt 0.599609 0.593976
vt 0.603285 0.588077
vt 0.603321 0.545804
vt 0.608388 0.544042
vt 0.606991 0.594037
vt 0.598257 0.543959
vt 0.599596 0.594225
vt 0.603346 0.587560
vt 0.603326 0.545287
vt 0.608391 0.543460
vt 0.607033 0.593721
vt 0.598260 0.543506
vt 0.599692 0.594004
vt 0.603342 0.588169
vt 0.603406 0.545897
vt 0.608474 0.544167
vt 0.606989 0.594650
vt 0.598343 0.544019
vt 0.599649 0.594293
vt 0.608362 0.543931
vt 0.607004 0.594192
vt 0.603356 0.608947
vt 0.603267 0.609464
vt 0.603328 0.609417
vt 0.603310 0.609556
vt 0.604478 0.534105
vt 0.599973 0.530500
vt 0.603344 0.519000
vt 0.604428 0.533638
vt 0.599958 0.530025
vt 0.603314 0.518482
vt 0.763046 0.507778
vt 0.766810 0.501055
vt 0.603298 0.545758
vt 0.599609 0.593977
vt 0.603285 0.588077
vt 0.598257 0.543959
vt 0.598153 0.580755
vt 0.603326 0.545287
vt 0.608482 0.580256
vt 0.599910 0.597153
vt 0.606718 0.596649
vt 0.598260 0.543506
vt 0.598204 0.580303
vt 0.603342 0.588169
vt 0.608492 0.580964
vt 0.599983 0.596679
vt 0.606696 0.597322
vt 0.598343 0.544019
vt 0.599649 0.594293
vt 0.607004 0.594192
vt 0.764847 0.504438
vt 0.765006 0.504397
vt 0.766810 0.501055
vt 0.599596 0.594225
vt 0.603346 0.587560
vt 0.607033 0.593721
vt 0.599692 0.594004
vt 0.606989 0.594650
vt 0.599649 0.594293
vt 0.604478 0.534105
vt 0.603321 0.545804
vt 0.608388 0.544042
vt 0.603406 0.545897
vt 0.608474 0.544167
vt 0.763046 0.507778
vt 0.598231 0.543977
vt 0.603298 0.545758
vt 0.608388 0.544042
vt 0.606991 0.594037
vt 0.603326 0.545287
vt 0.603406 0.545897
vt 0.598343 0.544019
vt 0.603317 0.588031
vt 0.606991 0.594037
vt 0.598260 0.543506
vt 0.598214 0.580814
vt 0.608453 0.580727
vt 0.599960 0.597224
vt 0.606690 0.597119
vt 0.603346 0.587560
vt 0.608391 0.543460
vt 0.599609 0.593977
vt 0.604041 0.538524
vt 0.598257 0.543959
vt 0.599692 0.594004
vt 0.599649 0.594293
vt 0.604160 0.530001
vt 0.604041 0.538524
vt 0.598343 0.544019
vt 0.604160 0.530001
s 0
usemtl Material
f 30/1/1 17/2/1 15/3/1
f 30/4/2 15/5/2 14/6/2
f 62/1/1 47/7/1 45/3/1
f 62/4/2 45/5/2 44/6/2
f 92/1/1 79/2/1 77/3/1
f 92/4/2 77/5/2 76/6/2
f 94/8/3 93/9/3 97/10/3
f 120/1/1 107/7/1 105/3/1
f 120/4/2 105/11/2 104/6/2
f 126/12/4 125/13/4 123/14/4
f 148/1/1 135/7/1 133/3/1
f 148/4/2 133/15/2 132/6/2
f 181/1/1 165/7/1 163/3/1
f 181/4/2 163/5/2 162/6/2
f 187/16/4 186/17/4 184/14/4
f 209/1/1 196/18/1 194/3/1
f 209/4/2 194/5/2 193/6/2
f 211/19/5 210/20/5 214/21/5
f 213/22/6 212/23/6 210/20/6
f 215/24/7 214/21/7 212/23/7
f 233/25/8 222/26/8 216/3/8
f 233/25/9 216/27/9 221/6/9
f 235/28/3 234/9/3 238/10/3
f 257/25/8 246/26/8 240/3/8
f 257/25/9 240/29/9 245/6/9
f 5/30/10 3/9/10 4/31/10 6/32/10
f 7/17/11 5/30/11 6/32/11 8/24/11
f 1/33/12 7/17/12 8/24/12 2/34/12
f 18/35/13 9/36/13 19/37/13 20/38/13
f 10/39/14 28/40/14 18/41/14 20/42/14
f 21/43/15 28/40/15 10/39/15 22/44/15
f 13/45/16 12/46/16 21/47/16 22/48/16
f 23/49/17 12/46/17 13/45/17 24/50/17
f 11/51/18 27/52/18 23/53/18 24/54/18
f 25/55/19 27/52/19 11/51/19 26/56/19
f 19/37/20 9/36/20 25/57/20 26/58/20
f 17/2/21 27/52/21 25/55/21 15/3/21
f 25/57/22 9/36/22 15/5/22
f 29/59/23 24/50/23 13/45/23 22/48/23
f 29/60/24 22/44/24 10/39/24 20/42/24
f 19/37/25 26/58/25 29/61/25 20/38/25
f 11/51/26 24/54/26 29/62/26 26/56/26
f 14/63/27 28/40/27 21/43/27 16/64/27
f 14/63/28 16/64/28 30/65/28
f 16/66/29 17/67/29 30/68/29
f 21/47/30 12/46/30 16/66/30
f 15/5/31 9/36/31 18/35/31 14/6/31
f 18/41/32 28/40/32 14/63/32
f 16/66/33 12/46/33 23/49/33 17/67/33
f 23/53/34 27/52/34 17/2/34
f 33/20/35 31/33/35 32/34/35 34/69/35
f 35/30/10 33/20/10 34/69/10 36/32/10
f 37/13/11 35/30/11 36/32/11 38/70/11
f 31/33/12 37/13/12 38/70/12 32/34/12
f 48/35/13 39/71/13 49/37/13 50/72/13
f 40/73/14 58/40/14 48/41/14 50/42/14
f 51/74/36 58/40/36 40/73/36 59/75/36
f 43/45/37 42/76/37 51/47/37 59/77/37
f 40/73/38 52/78/38 59/75/38
f 59/77/39 52/79/39 43/45/39
f 53/80/40 42/76/40 43/45/40 60/81/40
f 41/82/41 57/52/41 53/53/41 60/83/41
f 43/45/42 54/84/42 60/81/42
f 60/83/43 54/85/43 41/82/43
f 55/86/19 57/52/19 41/82/19 56/87/19
f 49/37/20 39/71/20 55/57/20 56/88/20
f 3/9/35 1/33/35 2/34/35 4/31/35
f 47/7/21 57/52/21 55/86/21 45/3/21
f 55/57/22 39/71/22 45/5/22
f 61/59/44 54/84/44 43/45/44 52/79/44
f 61/60/45 52/78/45 40/73/45 50/42/45
f 49/37/25 56/88/25 61/61/25 50/72/25
f 41/82/46 54/85/46 61/62/46 56/87/46
f 44/63/27 58/40/27 51/74/27 46/64/27
f 44/63/28 46/64/28 62/65/28
f 46/66/29 47/67/29 62/68/29
f 51/47/30 42/76/30 46/66/30
f 45/5/31 39/71/31 48/35/31 44/6/31
f 48/41/32 58/40/32 44/63/32
f 46/66/33 42/76/33 53/80/33 47/67/33
f 53/53/34 57/52/34 47/7/34
f 65/89/35 63/33/35 64/34/35 66/31/35
f 67/30/10 65/89/10 66/31/10 68/32/10
f 69/90/11 67/30/11 68/32/11 70/91/11
f 63/33/12 69/90/12 70/91/12 64/34/12
f 80/35/13 71/36/13 81/37/13 82/38/13
f 72/39/14 90/40/14 80/41/14 82/42/14
f 83/43/15 90/40/15 72/39/15 84/92/15
f 75/93/16 74/76/16 83/47/16 84/94/16
f 85/80/17 74/76/17 75/93/17 86/95/17
f 73/82/18 89/52/18 85/53/18 86/96/18
f 87/55/19 89/52/19 73/82/19 88/97/19
f 81/37/20 71/36/20 87/57/20 88/88/20
f 79/2/21 89/52/21 87/55/21 77/3/21
f 87/57/22 71/36/22 77/5/22
f 91/59/23 86/95/23 75/93/23 84/94/23
f 91/60/24 84/92/24 72/39/24 82/42/24
f 81/37/25 88/88/25 91/61/25 82/38/25
f 73/82/26 86/96/26 91/62/26 88/97/26
f 76/98/27 90/40/27 83/43/27 78/64/27
f 76/98/28 78/64/28 92/65/28
f 78/66/29 79/67/29 92/68/29
f 83/47/30 74/76/30 78/66/30
f 77/5/31 71/36/31 80/35/31 76/6/31
f 80/41/32 90/40/32 76/98/32
f 78/66/33 74/76/33 85/80/33 79/67/33
f 85/53/34 89/52/34 79/2/34
f 95/30/47 93/9/47 94/8/47 96/32/47
f 97/10/48 95/30/48 96/32/48 98/24/48
f 108/35/13 99/36/13 109/37/13 110/72/13
f 98/24/49 94/8/49 97/10/49
f 100/39/14 118/99/14 108/100/14 110/42/14
f 111/43/15 118/99/15 100/39/15 112/92/15
f 103/45/16 102/76/16 111/47/16 112/94/16
f 113/80/17 102/76/17 103/45/17 114/50/17
f 101/82/18 117/101/18 113/102/18 114/96/18
f 115/86/19 117/101/19 101/82/19 116/56/19
f 109/37/20 99/36/20 115/57/20 116/58/20
f 107/7/21 117/101/21 115/86/21 105/3/21
f 115/57/22 99/36/22 105/11/22
f 119/59/23 114/50/23 103/45/23 112/94/23
f 119/60/24 112/92/24 100/39/24 110/42/24
f 109/37/25 116/58/25 119/61/25 110/72/25
f 101/82/26 114/96/26 119/62/26 116/56/26
f 104/63/27 118/99/27 111/43/27 106/64/27
f 104/63/28 106/64/28 120/65/28
f 106/66/29 107/67/29 120/68/29
f 111/47/30 102/76/30 106/66/30
f 105/11/31 99/36/31 108/35/31 104/6/31
f 108/100/32 118/99/32 104/63/32
f 106/66/33 102/76/33 113/80/33 107/67/33
f 113/102/34 117/101/34 107/7/34
f 123/14/50 121/33/50 122/34/50 124/103/50
f 121/33/51 125/13/51 126/12/51 122/34/51
f 124/103/52 126/12/52 123/14/52
f 136/104/13 127/105/13 137/37/13 138/38/13
f 128/39/14 146/40/14 136/106/14 138/107/14
f 139/43/15 146/40/15 128/39/15 140/92/15
f 131/45/16 130/108/16 139/47/16 140/94/16
f 141/80/17 130/108/17 131/45/17 142/50/17
f 129/51/18 145/109/18 141/102/18 142/96/18
f 143/110/19 145/109/19 129/51/19 144/56/19
f 137/37/20 127/105/20 143/57/20 144/58/20
f 135/7/21 145/109/21 143/110/21 133/3/21
f 143/57/22 127/105/22 133/15/22
f 147/59/23 142/50/23 131/45/23 140/94/23
f 147/60/24 140/92/24 128/39/24 138/107/24
f 137/37/25 144/58/25 147/61/25 138/38/25
f 129/51/26 142/96/26 147/62/26 144/56/26
f 132/63/27 146/40/27 139/43/27 134/64/27
f 132/63/28 134/64/28 148/65/28
f 134/66/29 135/67/29 148/68/29
f 139/47/30 130/108/30 134/66/30
f 133/15/31 127/105/31 136/104/31 132/6/31
f 136/106/32 146/40/32 132/63/32
f 134/66/33 130/108/33 141/80/33 135/67/33
f 141/102/34 145/109/34 135/7/34
f 151/20/35 149/33/35 150/34/35 152/69/35
f 153/30/10 151/20/10 152/69/10 154/32/10
f 155/13/11 153/30/11 154/32/11 156/70/11
f 149/33/12 155/13/12 156/70/12 150/34/12
f 166/35/13 157/36/13 167/111/13 168/38/13
f 158/39/14 176/99/14 166/100/14 168/112/14
f 169/43/36 176/99/36 158/39/36 177/75/36
f 161/45/37 160/108/37 169/47/37 177/77/37
f 158/39/38 170/78/38 177/75/38
f 177/77/39 170/79/39 161/45/39
f 171/113/40 160/108/40 161/45/40 178/81/40
f 159/51/41 175/101/41 171/53/41 178/83/41
f 161/45/42 172/84/42 178/81/42
f 178/83/43 172/85/43 159/51/43
f 173/55/53 175/101/53 159/51/53 179/114/53
f 167/111/54 157/36/54 173/57/54 179/115/54
f 159/51/55 174/116/55 179/114/55
f 179/115/56 174/117/56 167/111/56
f 165/7/21 175/101/21 173/55/21 163/3/21
f 173/57/22 157/36/22 163/5/22
f 180/59/44 172/84/44 161/45/44 170/79/44
f 180/60/45 170/78/45 158/39/45 168/112/45
f 167/111/57 174/117/57 180/61/57 168/38/57
f 159/51/58 172/85/58 180/62/58 174/116/58
f 162/63/27 176/99/27 169/43/27 164/64/27
f 162/63/28 164/64/28 181/65/28
f 164/66/29 165/67/29 181/68/29
f 169/47/30 160/108/30 164/66/30
f 163/5/31 157/36/31 166/35/31 162/6/31
f 166/100/32 176/99/32 162/63/32
f 164/66/33 160/108/33 171/113/33 165/67/33
f 171/53/34 175/101/34 165/7/34
f 184/14/50 182/33/50 183/34/50 185/103/50
f 182/33/51 186/17/51 187/16/51 183/34/51
f 185/103/52 187/16/52 184/14/52
f 197/35/13 188/105/13 198/111/13 199/38/13
f 189/39/14 207/40/14 197/41/14 199/42/14
f 200/43/15 207/40/15 189/39/15 201/92/15
f 192/118/16 191/108/16 200/119/16 201/94/16
f 202/80/17 191/108/17 192/118/17 203/50/17
f 190/51/18 206/101/18 202/53/18 203/54/18
f 204/55/19 206/101/19 190/51/19 205/87/19
f 198/111/20 188/105/20 204/57/20 205/88/20
f 196/18/21 206/101/21 204/55/21 194/3/21
f 204/57/22 188/105/22 194/5/22
f 208/59/23 203/50/23 192/118/23 201/94/23
f 208/60/24 201/92/24 189/39/24 199/42/24
f 198/111/25 205/88/25 208/61/25 199/38/25
f 190/51/26 203/54/26 208/62/26 205/87/26
f 193/63/27 207/40/27 200/43/27 195/64/27
f 193/63/28 195/64/28 209/65/28
f 195/66/29 196/67/29 209/68/29
f 200/119/30 191/108/30 195/66/30
f 194/5/31 188/105/31 197/35/31 193/6/31
f 197/41/32 207/40/32 193/63/32
f 195/66/33 191/108/33 202/80/33 196/67/33
f 202/53/34 206/101/34 196/18/34
f 223/35/59 216/27/59 224/111/59 225/120/59
f 211/19/60 213/22/60 210/20/60
f 213/22/61 215/24/61 212/23/61
f 215/24/62 211/19/62 214/21/62
f 217/39/63 221/121/63 223/100/63 225/42/63
f 226/122/64 221/121/64 217/39/64 227/92/64
f 220/45/16 219/76/16 226/47/16 227/48/16
f 228/80/17 219/76/17 220/45/17 229/123/17
f 218/51/65 222/26/65 228/53/65 229/96/65
f 230/86/66 222/26/66 218/51/66 231/124/66
f 224/111/67 216/27/67 230/57/67 231/88/67
f 232/59/23 229/123/23 220/45/23 227/48/23
f 230/86/68 216/3/68 222/26/68
f 232/60/24 227/92/24 217/39/24 225/42/24
f 224/111/25 231/88/25 232/61/25 225/120/25
f 218/51/26 229/96/26 232/62/26 231/124/26
f 233/125/69 219/76/69 228/80/69 222/67/69
f 226/47/70 219/76/70 233/125/70
f 226/122/71 233/25/71 221/121/71
f 223/35/72 221/6/72 216/27/72
f 236/30/47 234/9/47 235/28/47 237/32/47
f 238/10/48 236/30/48 237/32/48 239/24/48
f 247/104/59 240/29/59 248/111/59 249/38/59
f 239/24/49 235/28/49 238/10/49
f 241/39/63 245/126/63 247/100/63 249/42/63
f 250/43/64 245/126/64 241/39/64 251/92/64
f 244/45/16 243/76/16 250/119/16 251/94/16
f 252/80/17 243/76/17 244/45/17 253/123/17
f 242/51/65 246/26/65 252/53/65 253/96/65
f 254/127/66 246/26/66 242/51/66 255/56/66
f 248/111/67 240/29/67 254/57/67 255/58/67
f 256/59/23 253/123/23 244/45/23 251/94/23
f 254/127/68 240/3/68 246/26/68
f 256/60/24 251/92/24 241/39/24 249/42/24
f 248/111/25 255/58/25 256/61/25 249/38/25
f 242/51/26 253/96/26 256/62/26 255/56/26
f 257/128/69 243/76/69 252/80/69 246/67/69
f 250/119/70 243/76/70 257/128/70
f 250/43/71 257/25/71 245/126/71
f 247/104/72 245/6/72 240/29/72
