# Blender 4.2.0
# www.blender.org
mtllib ForestS_1.mtl
o Wood.002
v 0.185122 -0.025925 0.195078
v 0.185122 0.170436 0.195078
v 0.231420 -0.025925 0.234146
v 0.231420 0.170436 0.246483
v 0.185122 -0.025925 0.285550
v 0.185122 0.170436 0.285550
v 0.138823 -0.025925 0.246483
v 0.138823 0.170436 0.234146
v 0.025069 0.284140 0.394811
v 0.044106 0.740312 0.099352
v 0.321790 0.740312 0.377037
v 0.341390 0.284140 0.081014
v 0.321790 0.740312 0.098788
v 0.045791 0.169398 0.155325
v 0.099905 0.170003 0.375193
v 0.267299 0.170884 0.099839
v 0.321196 0.171494 0.322675
v -0.036058 0.289961 0.238144
v 0.044106 0.740312 0.376472
v 0.010916 0.770362 0.237912
v 0.182998 0.289961 0.018624
v 0.181380 0.772796 0.066413
v 0.402518 0.289961 0.237681
v 0.353930 0.775240 0.237912
v 0.183461 0.289961 0.457200
v 0.181380 0.772796 0.409412
v 0.340129 0.284141 0.396073
v 0.026331 0.284140 0.079752
v 0.183230 0.850548 0.237912
v 0.183230 0.135945 0.237912
v -0.271140 -0.031306 0.213150
v -0.305345 -0.031306 0.263514
v -0.282150 0.124411 0.255072
v -0.340726 0.124411 0.238477
v -0.323638 -0.031306 0.191931
v -0.314150 0.124411 0.188477
v -0.469568 0.222483 0.145961
v -0.236990 0.595860 0.077891
v -0.372832 0.595860 0.369205
v -0.139662 0.222483 0.301411
v -0.158820 0.595860 0.291311
v -0.279569 0.128567 0.094857
v -0.433530 0.129062 0.198028
v -0.174883 0.129783 0.249694
v -0.331187 0.130283 0.353530
v -0.366181 0.227247 0.055088
v -0.450134 0.595860 0.155469
v -0.352853 0.620456 0.091153
v -0.136017 0.227247 0.162120
v -0.173226 0.622449 0.174253
v -0.243049 0.227247 0.392284
v -0.256829 0.624449 0.354978
v -0.473213 0.227247 0.285252
v -0.437040 0.622449 0.270274
v -0.382340 0.222483 0.388639
v -0.226890 0.222483 0.058733
v -0.304615 0.686089 0.223686
v -0.304615 0.101185 0.223686
v -0.141634 -0.034025 -0.232812
v -0.141634 0.184519 -0.232812
v -0.164038 -0.034025 -0.171781
v -0.176480 0.184519 -0.167252
v -0.232873 -0.034025 -0.199603
v -0.232873 0.184519 -0.199603
v -0.210469 -0.034025 -0.260635
v -0.198027 0.184519 -0.265163
v -0.401810 0.298740 -0.320909
v -0.096857 0.788308 -0.410162
v -0.274971 0.788308 -0.028195
v 0.030759 0.298741 -0.117086
v 0.005639 0.788308 -0.130328
v -0.152686 0.175598 -0.387917
v -0.354557 0.176247 -0.252640
v -0.015422 0.177193 -0.184896
v -0.220366 0.177848 -0.048748
v -0.266251 0.304987 -0.440062
v -0.376328 0.788308 -0.308443
v -0.239434 0.847158 -0.367111
v 0.035538 0.304987 -0.299722
v -0.037412 0.847158 -0.272906
v -0.104801 0.304987 0.002066
v -0.131617 0.847158 -0.070884
v -0.406590 0.304987 -0.138273
v -0.333639 0.847158 -0.165089
v -0.287437 0.298741 -0.002713
v -0.083614 0.298741 -0.435282
v -0.263182 0.680148 -0.432356
v 0.027832 0.680148 -0.296654
v -0.107870 0.680148 -0.005640
v -0.398884 0.680148 -0.141342
v -0.185526 0.906614 -0.218998
v -0.185526 0.139696 -0.218998
v 0.231823 0.124411 -0.287745
v 0.246996 -0.031306 -0.240539
v 0.241642 0.124411 -0.231978
v 0.192557 -0.031306 -0.224961
v 0.188528 -0.031306 -0.285709
v 0.175439 0.124411 -0.264781
v 0.034067 0.222483 -0.218604
v 0.175510 0.595860 -0.415378
v 0.247692 0.595860 -0.102158
v 0.389772 0.222483 -0.299078
v 0.368456 0.595860 -0.295250
v 0.152387 0.128567 -0.375803
v 0.094514 0.129062 -0.199738
v 0.330186 0.129783 -0.318171
v 0.270874 0.130282 -0.140140
v 0.059643 0.227247 -0.353854
v 0.055236 0.595860 -0.223068
v 0.092341 0.620456 -0.333627
v 0.306933 0.227247 -0.411118
v 0.285069 0.622448 -0.378657
v 0.364196 0.227247 -0.163828
v 0.330378 0.624449 -0.184755
v 0.116906 0.227247 -0.106564
v 0.136203 0.622448 -0.140630
v 0.252157 0.222483 -0.080988
v 0.171682 0.222483 -0.436694
v 0.211920 0.686088 -0.258841
v 0.211920 0.101185 -0.258841
v 0.377086 0.062529 -0.073017
v 0.355017 -0.018834 -0.044349
v 0.350095 0.062529 -0.046250
v 0.341642 -0.018834 -0.070741
v 0.341642 0.062529 -0.070741
v 0.372412 -0.018834 -0.078814
v 0.445966 0.264652 -0.101805
v 0.289344 0.322210 -0.071099
v 0.398589 0.264652 0.020871
v 0.354039 0.321656 0.007679
v 0.275913 0.264652 -0.026506
v 0.404113 0.321656 -0.121982
v 0.287528 0.070097 -0.092507
v 0.340163 0.067169 -0.137626
v 0.296173 0.067169 -0.023721
v 0.401180 0.066588 0.000416
v 0.448021 0.081629 -0.066795
v 0.427736 0.320403 -0.038359
v 0.327726 0.304688 -0.139164
v 0.393536 0.108341 -0.148560
v 0.328343 0.108341 0.020249
v 0.034831 0.057271 -0.423307
v 0.025902 -0.024092 -0.398986
v 0.020944 0.057271 -0.397181
v -0.001529 -0.024092 -0.410073
v 0.016344 -0.024092 -0.436389
v 0.004224 0.057271 -0.431978
v -0.066937 0.259394 -0.457101
v 0.056638 0.259394 -0.502079
v -0.041165 0.316952 -0.375953
v 0.101616 0.259394 -0.378503
v 0.059378 0.316399 -0.359146
v -0.021959 0.259394 -0.333525
v 0.075844 0.316952 -0.459651
v -0.056610 0.064839 -0.390886
v -0.046627 0.061911 -0.459490
v -0.004864 0.061911 -0.344750
v 0.076592 0.076371 -0.353932
v 0.058831 0.061330 -0.481577
v -0.024699 0.316399 -0.476458
v 0.102363 0.103083 -0.448748
v -0.013606 0.103083 -0.502825
v -0.079673 -0.024092 0.419718
v -0.069882 0.057271 0.408050
v -0.107103 -0.024092 0.408630
v -0.103672 0.057271 0.415486
v -0.089231 -0.024092 0.382314
v -0.093217 0.057271 0.382504
v -0.172512 0.259394 0.361603
v -0.048936 0.259394 0.316625
v -0.146891 0.316398 0.442940
v -0.003959 0.259394 0.440200
v -0.046386 0.316952 0.459406
v -0.127534 0.259394 0.485178
v -0.029579 0.316398 0.358863
v -0.152011 0.061330 0.359410
v -0.129924 0.061911 0.464868
v -0.024460 0.061330 0.442393
v -0.046547 0.061911 0.336935
v -0.173259 0.103083 0.431848
v -0.130084 0.316952 0.342397
v -0.003212 0.103083 0.369955
v -0.119181 0.103083 0.315878
v -0.057289 0.103083 0.485925
v -0.384300 0.057271 -0.032524
v -0.393228 -0.024092 -0.008203
v -0.398186 0.057271 -0.006398
v -0.420659 -0.024092 -0.019290
v -0.402787 -0.024092 -0.045606
v -0.414906 0.057271 -0.041195
v -0.486068 0.259394 -0.066318
v -0.362492 0.259394 -0.111296
v -0.460447 0.316399 0.015020
v -0.317514 0.259394 0.012280
v -0.359942 0.316952 0.031485
v -0.441090 0.259394 0.057258
v -0.343135 0.316399 -0.069058
v -0.465566 0.061330 -0.068510
v -0.443479 0.061911 0.036947
v -0.338015 0.061330 0.014473
v -0.360102 0.061911 -0.090985
v -0.486814 0.103083 0.003927
v -0.443640 0.316952 -0.085523
v -0.316767 0.103083 -0.057965
v -0.432737 0.103083 -0.112042
v -0.370845 0.103083 0.058005
vn 0.0733 -0.9567 0.2818
vn -0.2757 -0.9587 0.0705
vn 0.8237 -0.0924 0.5594
vn -0.2398 -0.9567 0.1653
vn -0.1605 -0.9587 -0.2350
vn -0.9935 -0.0924 0.0659
vn -0.0873 -0.9567 0.2779
vn -0.2711 -0.9587 -0.0864
vn -0.6390 0.5587 0.5287
vn 0.4577 0.5239 0.7184
vn 0.4460 -0.7195 -0.5323
vn 0.9715 0.0551 0.2307
vn 0.9937 -0.0888 0.0677
vn -0.8237 -0.0924 -0.5594
vn -0.1337 0.5587 0.8185
vn -0.8176 0.5593 -0.1370
vn 0.1337 0.5587 -0.8185
vn 0.8176 0.5593 0.1370
vn 0.6971 -0.7169 -0.0125
vn 0.2079 0.0029 0.9782
vn -0.1588 -0.6525 -0.7409
vn 0.4744 0.0531 0.8787
vn 0.9578 -0.1504 -0.2448
vn -0.3740 -0.0622 0.9253
vn -0.1370 0.5593 0.8176
vn -0.8185 0.5587 -0.1337
vn 0.1370 0.5593 -0.8176
vn 0.8185 0.5587 0.1337
vn -0.7409 -0.6525 0.1588
vn 0.7409 -0.6525 -0.1588
vn 0.1546 -0.6522 0.7421
vn -0.1546 -0.6522 -0.7421
vn 0.6987 -0.0225 0.7151
vn -0.6987 0.0225 0.7151
vn -0.6987 -0.0225 -0.7151
vn -0.9474 0.0730 0.3115
vn -0.9469 0.0719 -0.3135
vn -0.3126 0.0733 -0.9470
vn 0.3100 0.0732 -0.9479
vn 0.9481 0.0746 -0.3092
vn 0.9475 0.0736 0.3111
vn 0.6987 0.0225 -0.7151
vn 0.3081 0.0742 0.9485
vn -0.3145 0.0723 0.9465
vn 0.2223 -0.6075 0.7626
vn -0.3294 -0.3656 0.8705
vn 0.3389 0.8719 -0.3534
vn -0.3534 0.8719 -0.3389
vn -0.3534 0.8719 0.3389
vn 0.3389 0.8719 0.3534
vn -0.2229 -0.6092 -0.7610
vn -0.0640 -0.9575 -0.2813
vn 0.2873 -0.9555 -0.0669
vn 0.3303 -0.3610 -0.8721
vn -0.7622 -0.6070 0.2249
vn -0.8708 -0.3648 -0.3296
vn 0.7615 -0.6095 -0.2205
vn 0.8719 -0.3617 0.3301
vn -0.9937 -0.0888 -0.0677
vn -0.2714 0.0924 0.9580
vn 0.7177 0.0888 -0.6906
vn -0.6168 0.0730 -0.7837
vn -0.0293 0.0719 -0.9970
vn 0.7830 0.0733 -0.6177
vn 0.9968 0.0732 -0.0329
vn 0.6148 0.0746 0.7851
vn 0.0317 0.0736 0.9968
vn -0.7859 0.0742 0.6139
vn -0.9970 0.0723 0.0281
vn -0.6406 -0.6075 0.4698
vn -0.9307 -0.3656 -0.0118
vn 0.4480 0.8719 0.1976
vn 0.1976 0.8719 -0.4480
vn -0.4393 0.8719 -0.2162
vn -0.2162 0.8719 0.4393
vn 0.6389 -0.6092 -0.4697
vn 0.2424 -0.9575 -0.1564
vn 0.1611 -0.9555 0.2471
vn 0.9325 -0.3610 0.0121
vn -0.4720 -0.6070 -0.6393
vn 0.0119 -0.3648 -0.9310
vn 0.4676 -0.6095 0.6402
vn -0.0120 -0.3617 0.9322
vn 0.9109 0.0217 0.4120
vn -0.4330 -0.0217 0.9011
vn -0.9109 0.0217 -0.4120
vn 0.4330 -0.0217 -0.9011
vn -0.6900 0.0396 -0.7227
vn 0.0658 0.0386 -0.9971
vn -0.4969 0.3762 -0.7821
vn -0.1221 0.3762 -0.9185
vn 0.7221 0.0400 -0.6906
vn 0.9971 0.0386 0.0658
vn 0.7806 0.3760 -0.4993
vn 0.9185 0.3762 -0.1221
vn 0.6906 0.0400 0.7221
vn -0.0666 0.0390 0.9970
vn 0.4993 0.3760 0.7806
vn 0.1193 0.3760 0.9189
vn -0.7227 0.0396 0.6900
vn -0.9970 0.0390 -0.0666
vn -0.7821 0.3762 0.4969
vn -0.9189 0.3760 0.1193
vn 0.4437 0.8720 0.2069
vn 0.2069 0.8720 -0.4437
vn -0.4437 0.8720 -0.2069
vn -0.2069 0.8720 0.4437
vn 0.8250 -0.0888 -0.5581
vn -0.1408 0.0888 0.9860
vn -0.9685 0.0730 -0.2382
vn -0.3756 0.0924 -0.9222
vn -0.6366 0.0719 -0.7678
vn 0.2371 0.0733 -0.9687
vn 0.7655 0.0732 -0.6393
vn 0.9678 0.0746 0.2406
vn 0.6384 0.0736 0.7662
vn -0.2417 0.0742 0.9675
vn -0.7686 0.0723 0.6357
vn -0.2159 -0.6075 0.7645
vn -0.7409 -0.3656 0.5634
vn 0.4747 0.8719 -0.1199
vn -0.1199 0.8719 -0.4747
vn -0.4793 0.8719 0.0999
vn 0.0999 0.8719 0.4793
vn 0.2146 -0.6092 -0.7634
vn 0.0949 -0.9575 -0.2724
vn 0.2790 -0.9555 0.0956
vn 0.7425 -0.3610 -0.5643
vn -0.7655 -0.6070 -0.2135
vn -0.5635 -0.3648 -0.7412
vn 0.7625 -0.6095 0.2169
vn 0.5642 -0.3617 0.7422
vn 0.8096 -0.0128 0.5869
vn -0.9188 -0.0232 0.3941
vn -0.1543 0.0396 -0.9872
vn 0.8217 0.5239 -0.2243
vn -0.1732 -0.6525 0.7377
vn 0.0592 -0.9975 -0.0397
vn -0.5999 0.0378 0.7992
vn 0.0386 -0.0213 0.9990
vn 0.8600 -0.0121 0.5101
vn 0.7140 -0.0302 -0.6995
vn 0.0232 0.0555 -0.9982
vn -0.7785 0.0086 -0.6276
vn -0.9973 -0.0383 -0.0625
vn -0.0243 0.9969 -0.0744
vn -0.7177 0.0888 0.6906
vn 0.2714 0.0924 -0.9580
vn 0.0572 -0.9976 0.0403
vn 1.0000 0.0039 0.0019
vn 0.7653 0.0043 -0.6436
vn -0.0197 0.0136 -0.9997
vn -0.6434 0.0044 -0.7655
vn -0.9937 -0.0150 0.1108
vn -0.7925 -0.0383 0.6087
vn -0.0000 1.0000 -0.0000
vn -0.9022 0.0156 -0.4310
vn 0.2135 0.1135 0.9703
vn -0.0000 -1.0000 -0.0000
vn 0.7378 0.0377 -0.6740
vn 0.0214 0.0144 0.9997
vn 0.6436 0.0043 0.7653
vn 0.9997 0.0136 -0.0197
vn 0.7655 0.0044 -0.6434
vn -0.0214 0.0144 -0.9997
vn -0.6436 0.0043 -0.7653
vn -0.9997 0.0136 0.0197
vn -0.7655 0.0044 0.6434
vt 0.603446 0.519092
vt 0.604509 0.534302
vt 0.600068 0.530571
vt 0.603285 0.518953
vt 0.604417 0.534079
vt 0.599929 0.530496
vt 0.764167 0.507582
vt 0.764741 0.504474
vt 0.764799 0.504637
vt 0.603426 0.518997
vt 0.604464 0.534163
vt 0.600045 0.530386
vt 0.603148 0.518950
vt 0.604276 0.534018
vt 0.599805 0.530448
vt 0.603299 0.518011
vt 0.604380 0.533284
vt 0.599914 0.529570
vt 0.603216 0.518172
vt 0.604352 0.533371
vt 0.599844 0.529767
vt 0.765446 0.501414
vt 0.764862 0.504515
vt 0.764796 0.504355
vt 0.604464 0.534163
vt 0.604276 0.534018
vt 0.605634 0.579208
vt 0.605554 0.579354
vt 0.603255 0.578406
vt 0.608414 0.580058
vt 0.603294 0.577933
vt 0.608275 0.541848
vt 0.605372 0.543276
vt 0.604564 0.543851
vt 0.603318 0.578365
vt 0.764722 0.504515
vt 0.764862 0.504515
vt 0.767706 0.506965
vt 0.762956 0.507793
vt 0.605634 0.579208
vt 0.605554 0.579354
vt 0.605603 0.579343
vt 0.603176 0.578361
vt 0.605642 0.579137
vt 0.608251 0.541415
vt 0.605392 0.543290
vt 0.604681 0.543723
vt 0.604720 0.543941
vt 0.765852 0.508485
vt 0.764722 0.504515
vt 0.761916 0.503819
vt 0.605607 0.579193
vt 0.605580 0.579365
vt 0.605576 0.579332
vt 0.605669 0.579146
vt 0.608133 0.541843
vt 0.604585 0.543840
vt 0.604665 0.543884
vt 0.604686 0.543588
vt 0.604661 0.543736
vt 0.608334 0.542051
vt 0.765446 0.501414
vt 0.605607 0.579193
vt 0.605580 0.579365
vt 0.605576 0.579332
vt 0.604585 0.543840
vt 0.764920 0.504281
vt 0.764847 0.504438
vt 0.763046 0.507778
vt 0.761991 0.501938
vt 0.765006 0.504397
vt 0.766810 0.501055
vt 0.764923 0.504558
vt 0.767882 0.506931
vt 0.598231 0.543977
vt 0.603298 0.545758
vt 0.603317 0.588031
vt 0.599609 0.593976
vt 0.603285 0.588077
vt 0.603321 0.545804
vt 0.608388 0.544042
vt 0.606991 0.594037
vt 0.598257 0.543959
vt 0.599596 0.594225
vt 0.603346 0.587560
vt 0.603326 0.545287
vt 0.608391 0.543460
vt 0.607033 0.593721
vt 0.598260 0.543506
vt 0.599692 0.594004
vt 0.603342 0.588169
vt 0.603406 0.545897
vt 0.608474 0.544167
vt 0.606989 0.594650
vt 0.598343 0.544019
vt 0.599649 0.594293
vt 0.608362 0.543931
vt 0.607004 0.594192
vt 0.603356 0.608947
vt 0.603267 0.609464
vt 0.603328 0.609417
vt 0.603310 0.609556
vt 0.604478 0.534105
vt 0.599973 0.530500
vt 0.603344 0.519000
vt 0.604428 0.533638
vt 0.599958 0.530025
vt 0.603314 0.518482
vt 0.764884 0.504473
vt 0.761922 0.502059
vt 0.766653 0.501193
vt 0.598114 0.543877
vt 0.603161 0.545651
vt 0.603180 0.587762
vt 0.599486 0.593685
vt 0.603323 0.587766
vt 0.603303 0.545656
vt 0.608348 0.543836
vt 0.607022 0.593656
vt 0.598256 0.543882
vt 0.599656 0.593937
vt 0.603298 0.587333
vt 0.603279 0.545223
vt 0.608324 0.543403
vt 0.606971 0.593471
vt 0.598232 0.543449
vt 0.599658 0.593752
vt 0.603227 0.587807
vt 0.603349 0.545698
vt 0.608400 0.544042
vt 0.606852 0.594310
vt 0.598308 0.543760
vt 0.599540 0.593858
vt 0.608206 0.543831
vt 0.606853 0.593899
vt 0.603308 0.608638
vt 0.603333 0.609071
vt 0.603190 0.609066
vt 0.603166 0.609110
vt 0.604440 0.533987
vt 0.599948 0.530453
vt 0.603291 0.518954
vt 0.604376 0.533619
vt 0.599923 0.530020
vt 0.603266 0.518521
vt 0.764814 0.504428
vt 0.764888 0.504546
vt 0.767911 0.506973
vt 0.762971 0.507842
vt 0.764886 0.504275
vt 0.761892 0.501876
vt 0.764970 0.504388
vt 0.766815 0.500972
vt 0.598136 0.543311
vt 0.603227 0.545104
vt 0.603244 0.587577
vt 0.598078 0.580281
vt 0.603369 0.587985
vt 0.603385 0.545512
vt 0.608475 0.543718
vt 0.608535 0.580689
vt 0.599864 0.596736
vt 0.606749 0.597144
vt 0.598296 0.543681
vt 0.598209 0.580651
vt 0.603365 0.588104
vt 0.603313 0.545631
vt 0.608400 0.543759
vt 0.608519 0.580728
vt 0.599982 0.597119
vt 0.606759 0.597211
vt 0.598222 0.543878
vt 0.598193 0.580849
vt 0.603251 0.587415
vt 0.603280 0.544942
vt 0.608371 0.543164
vt 0.608419 0.580135
vt 0.599992 0.597290
vt 0.606628 0.596584
vt 0.598192 0.543095
vt 0.598093 0.580065
vt 0.608315 0.543271
vt 0.608404 0.580242
vt 0.599861 0.596538
vt 0.606631 0.596710
vt 0.603391 0.609591
vt 0.603361 0.609473
vt 0.603252 0.609064
vt 0.603236 0.608902
vt 0.604542 0.533752
vt 0.600014 0.530151
vt 0.603395 0.518581
vt 0.604411 0.533919
vt 0.599918 0.530321
vt 0.603281 0.518700
vt 0.764722 0.504515
vt 0.762956 0.507793
vt 0.598114 0.543877
vt 0.603180 0.587762
vt 0.599486 0.593685
vt 0.603303 0.545656
vt 0.608348 0.543836
vt 0.607022 0.593656
vt 0.608324 0.543403
vt 0.598232 0.543449
vt 0.599658 0.593752
vt 0.603227 0.587807
vt 0.603349 0.545698
vt 0.608400 0.544042
vt 0.604376 0.533619
vt 0.764862 0.504515
vt 0.767074 0.503503
vt 0.605680 0.579345
vt 0.604663 0.543411
vt 0.608133 0.541843
s 0
usemtl Material
f 30/1/1 17/2/1 15/3/1
f 30/4/2 15/5/2 14/6/2
f 33/7/3 32/8/3 31/9/3
f 58/10/4 45/11/4 43/12/4
f 58/13/5 43/14/5 42/15/5
f 92/16/4 75/17/4 73/18/4
f 92/19/5 73/20/5 72/21/5
f 98/22/6 97/23/6 96/24/6
f 120/10/7 107/25/7 105/12/7
f 120/13/8 105/26/8 104/15/8
f 130/27/9 128/28/9 131/29/9
f 138/30/10 130/27/10 129/31/10
f 140/32/11 137/33/11 134/34/11
f 137/33/12 127/35/12 138/30/12
f 143/36/13 146/37/13 142/38/13 144/39/13
f 147/22/14 146/37/14 145/24/14
f 152/40/15 150/41/15 153/29/15
f 150/41/16 160/42/16 148/43/16
f 160/42/17 154/44/17 149/35/17
f 154/44/18 152/40/18 151/31/18
f 161/45/19 158/46/19 159/47/19
f 158/46/20 152/40/20 153/29/20 157/48/20
f 162/32/21 159/47/21 156/34/21
f 158/46/22 151/31/22 152/40/22
f 164/49/23 163/50/23 167/37/23
f 166/51/24 165/24/24 163/50/24
f 173/52/25 171/53/25 174/29/25
f 171/53/26 181/54/26 169/43/26
f 181/54/27 175/55/27 170/35/27
f 175/55/28 173/52/28 172/31/28
f 180/56/29 176/57/29 177/58/29
f 182/45/30 178/59/30 179/60/30
f 184/61/31 177/58/31 178/59/31
f 183/32/32 179/60/32 176/57/32
f 190/62/14 189/23/14 188/24/14
f 195/63/25 193/64/25 196/29/25
f 193/64/26 203/65/26 191/43/26
f 203/65/27 197/55/27 192/35/27
f 197/55/28 195/63/28 194/31/28
f 202/56/29 198/66/29 199/58/29
f 204/45/30 200/59/30 201/60/30
f 206/61/31 199/58/31 200/59/31
f 205/32/32 201/60/32 198/66/32
f 5/67/33 3/68/33 4/69/33 6/70/33
f 7/71/34 5/67/34 6/70/34 8/72/34
f 1/73/35 7/71/35 8/72/35 2/74/35
f 18/75/36 9/76/36 19/77/36 20/78/36
f 10/79/37 28/80/37 18/81/37 20/82/37
f 21/83/38 28/80/38 10/79/38 22/84/38
f 13/85/39 12/86/39 21/87/39 22/88/39
f 23/89/40 12/86/40 13/85/40 24/90/40
f 11/91/41 27/92/41 23/93/41 24/94/41
f 3/68/42 1/73/42 2/74/42 4/69/42
f 25/95/43 27/92/43 11/91/43 26/96/43
f 19/77/44 9/76/44 25/97/44 26/98/44
f 17/2/45 27/92/45 25/95/45 15/3/45
f 25/97/46 9/76/46 15/5/46
f 29/99/47 24/90/47 13/85/47 22/88/47
f 29/100/48 22/84/48 10/79/48 20/82/48
f 19/77/49 26/98/49 29/101/49 20/78/49
f 11/91/50 24/94/50 29/102/50 26/96/50
f 14/103/51 28/80/51 21/83/51 16/104/51
f 14/103/52 16/104/52 30/105/52
f 16/106/53 17/107/53 30/108/53
f 21/87/54 12/86/54 16/106/54
f 15/5/55 9/76/55 18/75/55 14/6/55
f 18/81/56 28/80/56 14/103/56
f 16/106/57 12/86/57 23/89/57 17/107/57
f 23/93/58 27/92/58 17/2/58
f 35/109/59 32/8/59 34/110/59 36/111/59
f 33/7/60 34/110/60 32/8/60
f 31/9/61 35/109/61 36/111/61 33/7/61
f 46/112/62 37/113/62 47/114/62 48/115/62
f 38/116/63 56/117/63 46/118/63 48/119/63
f 49/120/64 56/117/64 38/116/64 50/121/64
f 41/122/65 40/123/65 49/124/65 50/125/65
f 51/126/66 40/123/66 41/122/66 52/127/66
f 39/128/67 55/129/67 51/130/67 52/131/67
f 53/132/68 55/129/68 39/128/68 54/133/68
f 47/114/69 37/113/69 53/134/69 54/135/69
f 45/11/70 55/129/70 53/132/70 43/12/70
f 53/134/71 37/113/71 43/14/71
f 57/136/72 52/127/72 41/122/72 50/125/72
f 57/137/73 50/121/73 38/116/73 48/119/73
f 47/114/74 54/135/74 57/138/74 48/115/74
f 39/128/75 52/131/75 57/139/75 54/133/75
f 42/140/76 56/117/76 49/120/76 44/141/76
f 42/140/77 44/141/77 58/142/77
f 44/143/78 45/144/78 58/145/78
f 49/124/79 40/123/79 44/143/79
f 43/14/80 37/113/80 46/112/80 42/15/80
f 46/118/81 56/117/81 42/140/81
f 44/143/82 40/123/82 51/126/82 45/144/82
f 51/130/83 55/129/83 45/11/83
f 61/146/84 59/147/84 60/148/84 62/149/84
f 63/150/85 61/146/85 62/149/85 64/151/85
f 65/152/86 63/150/86 64/151/86 66/153/86
f 59/147/87 65/152/87 66/153/87 60/148/87
f 76/154/88 67/155/88 77/156/88 87/157/88
f 68/158/89 86/159/89 76/160/89 87/161/89
f 77/156/90 78/162/90 87/157/90
f 87/161/91 78/163/91 68/158/91
f 79/164/92 86/159/92 68/158/92 88/165/92
f 71/166/93 70/167/93 79/168/93 88/169/93
f 68/158/94 80/170/94 88/165/94
f 88/169/95 80/171/95 71/166/95
f 81/172/96 70/167/96 71/166/96 89/173/96
f 69/174/97 85/175/97 81/176/97 89/177/97
f 71/166/98 82/178/98 89/173/98
f 89/177/99 82/179/99 69/174/99
f 83/180/100 85/175/100 69/174/100 90/181/100
f 77/156/101 67/155/101 83/182/101 90/183/101
f 69/174/102 84/184/102 90/181/102
f 90/183/103 84/185/103 77/156/103
f 75/17/70 85/175/70 83/180/70 73/18/70
f 83/182/71 67/155/71 73/20/71
f 91/186/104 82/178/104 71/166/104 80/171/104
f 91/187/105 80/170/105 68/158/105 78/163/105
f 77/156/106 84/185/106 91/188/106 78/162/106
f 69/174/107 82/179/107 91/189/107 84/184/107
f 72/190/76 86/159/76 79/164/76 74/191/76
f 72/190/77 74/191/77 92/192/77
f 74/193/78 75/194/78 92/195/78
f 79/168/79 70/167/79 74/193/79
f 73/20/80 67/155/80 76/154/80 72/21/80
f 76/160/81 86/159/81 72/190/81
f 74/193/82 70/167/82 81/172/82 75/194/82
f 81/176/83 85/175/83 75/17/83
f 94/196/108 97/23/108 93/38/108 95/197/108
f 96/24/109 94/196/109 95/197/109 98/22/109
f 108/198/110 99/113/110 109/199/110 110/200/110
f 98/22/111 93/38/111 97/23/111
f 100/116/112 118/201/112 108/202/112 110/203/112
f 111/120/113 118/201/113 100/116/113 112/121/113
f 103/122/114 102/123/114 111/204/114 112/125/114
f 113/205/115 102/123/115 103/122/115 114/206/115
f 101/207/116 117/208/116 113/209/116 114/131/116
f 115/132/117 117/208/117 101/207/117 116/133/117
f 109/199/118 99/113/118 115/134/118 116/135/118
f 107/25/119 117/208/119 115/132/119 105/12/119
f 115/134/120 99/113/120 105/26/120
f 119/136/121 114/206/121 103/122/121 112/125/121
f 119/137/122 112/121/122 100/116/122 110/203/122
f 109/199/123 116/135/123 119/138/123 110/200/123
f 101/207/124 114/131/124 119/139/124 116/133/124
f 104/140/125 118/201/125 111/120/125 106/141/125
f 104/140/126 106/141/126 120/142/126
f 106/210/127 107/144/127 120/145/127
f 111/204/128 102/123/128 106/210/128
f 105/26/129 99/113/129 108/198/129 104/15/129
f 108/202/130 118/201/130 104/140/130
f 106/210/131 102/123/131 113/205/131 107/144/131
f 113/209/132 117/208/132 107/25/132
f 122/196/133 126/211/133 121/212/133 123/39/133
f 124/24/134 122/196/134 123/39/134 125/110/134
f 126/211/135 124/24/135 125/110/135 121/212/135
f 138/30/136 127/35/136 132/213/136
f 141/61/137 135/48/137 136/214/137
f 133/56/138 134/34/138 137/33/138 136/214/138 135/48/138
f 141/61/139 130/27/139 131/29/139 135/48/139
f 129/31/140 130/27/140 141/61/140 136/214/140
f 137/33/141 138/30/141 129/31/141 136/214/141
f 140/32/142 132/213/142 127/35/142 137/33/142
f 139/43/143 132/213/143 140/32/143 134/34/143
f 133/56/144 128/28/144 139/43/144 134/34/144
f 131/29/145 128/28/145 133/56/145 135/48/145
f 138/30/146 132/213/146 139/43/146 128/28/146 130/27/146
f 145/24/147 143/36/147 144/39/147 147/22/147
f 147/22/148 142/38/148 146/37/148
f 157/48/149 155/215/149 156/34/149 159/47/149 158/46/149
f 161/45/150 154/44/150 151/31/150 158/46/150
f 149/35/151 154/44/151 161/45/151 159/47/151
f 162/32/152 160/42/152 149/35/152 159/47/152
f 148/43/153 160/42/153 162/32/153 156/34/153
f 155/215/154 150/41/154 148/43/154 156/34/154
f 153/29/155 150/41/155 155/215/155 157/48/155
f 150/41/156 152/40/156 154/44/156 160/42/156
f 167/37/157 165/24/157 166/51/157 168/111/157
f 164/49/158 166/51/158 163/50/158
f 176/57/159 179/60/159 178/59/159 177/58/159
f 168/111/160 164/49/160 167/37/160
f 184/61/161 173/52/161 174/29/161 177/58/161
f 172/31/162 173/52/162 184/61/162 178/59/162
f 182/45/163 175/55/163 172/31/163 178/59/163
f 170/35/164 175/55/164 182/45/164 179/60/164
f 183/32/165 181/54/165 170/35/165 179/60/165
f 169/43/166 181/54/166 183/32/166 176/57/166
f 180/56/167 171/53/167 169/43/167 176/57/167
f 174/29/168 171/53/168 180/56/168 177/58/168
f 173/52/156 175/55/156 181/54/156 171/53/156
f 186/50/13 189/23/13 185/38/13 187/39/13
f 188/24/147 186/50/147 187/39/147 190/62/147
f 198/66/159 201/60/159 200/59/159 199/58/159
f 190/62/148 185/38/148 189/23/148
f 206/61/161 195/63/161 196/29/161 199/58/161
f 194/31/162 195/63/162 206/61/162 200/59/162
f 204/45/163 197/55/163 194/31/163 200/59/163
f 192/35/164 197/55/164 204/45/164 201/60/164
f 205/32/165 203/65/165 192/35/165 201/60/165
f 191/43/166 203/65/166 205/32/166 198/66/166
f 202/56/167 193/64/167 191/43/167 198/66/167
f 196/29/168 193/64/168 202/56/168 199/58/168
f 195/63/156 197/55/156 203/65/156 193/64/156
