# Blender 4.2.0
# www.blender.org
mtllib Grass_3.mtl
o Grass.002
v 0.133162 0.171209 0.289315
v 0.051974 -0.012133 0.148694
v 0.039192 0.107221 0.205750
v 0.107777 0.107221 0.166153
v -0.096707 0.171209 0.200968
v 0.055877 -0.012133 0.145432
v 0.001906 0.107221 0.122937
v 0.028993 0.107221 0.197356
v 0.191661 0.171209 0.065143
v 0.051039 -0.012133 0.146331
v 0.108096 0.107221 0.159113
v 0.068498 0.107221 0.090527
v 0.364711 0.103009 0.412308
v 0.322015 0.006590 0.338355
v 0.315293 0.069358 0.368361
v 0.351361 0.069358 0.347537
v 0.243824 0.103009 0.365846
v 0.324067 0.006590 0.336640
v 0.295684 0.069358 0.324810
v 0.309929 0.069358 0.363947
v 0.395475 0.103009 0.294416
v 0.321523 0.006590 0.337113
v 0.351529 0.069358 0.343835
v 0.330704 0.069358 0.307766
v -0.318005 0.119196 0.248355
v -0.241406 -0.015356 0.157069
v -0.283963 0.072237 0.162576
v -0.239440 0.072237 0.199935
v -0.314776 0.119196 0.067656
v -0.238178 -0.015356 0.158942
v -0.236211 0.072237 0.116076
v -0.280734 0.072237 0.153435
v -0.148725 0.119196 0.232429
v -0.240012 -0.015356 0.155831
v -0.234505 0.072237 0.198387
v -0.197146 0.072237 0.153864
v -0.421529 0.107343 -0.391356
v -0.349187 0.000714 -0.330654
v -0.353551 0.070129 -0.364378
v -0.383157 0.070129 -0.329095
v -0.278329 0.107343 -0.388797
v -0.350671 0.000714 -0.328095
v -0.316701 0.070129 -0.326536
v -0.346307 0.070129 -0.361820
v -0.408908 0.107343 -0.257206
v -0.348206 0.000714 -0.329548
v -0.381931 0.070129 -0.325184
v -0.346647 0.070129 -0.295578
v 0.304597 0.104939 -0.329512
v 0.362075 0.003973 -0.398012
v 0.330142 0.069701 -0.393879
v 0.363551 0.069701 -0.365846
v 0.307020 0.104939 -0.465106
v 0.364498 0.003973 -0.396606
v 0.365974 0.069701 -0.428772
v 0.332565 0.069701 -0.400738
v 0.431621 0.104939 -0.341463
v 0.363122 0.003973 -0.398941
v 0.367254 0.069701 -0.367007
v 0.395288 0.069701 -0.400416
v -0.110494 0.130216 -0.212405
v -0.147287 -0.030295 -0.075093
v -0.104053 0.074196 -0.102501
v -0.171024 0.074196 -0.120446
v -0.022885 0.130216 -0.015412
v -0.151722 -0.030295 -0.075490
v -0.132237 0.074196 -0.028154
v -0.102936 0.074196 -0.090991
v -0.285482 0.130216 -0.109844
v -0.148171 -0.030295 -0.073051
v -0.175579 0.074196 -0.116285
v -0.193524 0.074196 -0.049314
v 0.014231 0.131927 -0.183207
v 0.158413 -0.032616 -0.162045
v 0.125372 0.074501 -0.202813
v 0.115051 0.074501 -0.132491
v 0.204412 0.131927 -0.295799
v 0.158535 -0.032616 -0.157482
v 0.204421 0.074501 -0.182942
v 0.136959 0.074501 -0.205317
v 0.139435 0.131927 -0.017206
v 0.160596 -0.032616 -0.161388
v 0.119829 0.074501 -0.128347
v 0.190151 0.074501 -0.118026
v -0.240798 0.005025 0.134357
v -0.218259 0.264357 0.120420
v -0.216483 0.004111 0.156681
v -0.193944 0.263444 0.142744
v -0.247831 0.007366 0.166536
v -0.225292 0.266698 0.152599
v -0.122128 0.275638 0.158831
v -0.240555 0.276551 0.050102
v -0.274810 0.278892 0.206829
v -0.180113 0.320367 0.198090
v -0.174633 0.321037 0.080435
v -0.278828 0.322751 0.134814
vn -0.4704 0.3391 -0.8147
vn -0.2362 0.8813 -0.4092
vn 0.8840 0.3391 -0.3218
vn 0.4440 0.8813 -0.1616
vn -0.8147 0.3391 0.4704
vn -0.4092 0.8813 0.2362
vn 0.6047 0.3391 -0.7207
vn 0.3037 0.8813 -0.3620
vn 0.6047 0.3391 0.7207
vn 0.3037 0.8813 0.3620
vn -0.7207 0.3391 -0.6047
vn -0.3620 0.8813 -0.3037
vn 0.7207 0.3391 0.6047
vn 0.3620 0.8813 0.3037
vn -0.7207 0.3391 0.6047
vn -0.3620 0.8813 0.3037
vn -0.2435 0.3391 0.9087
vn -0.1223 0.8813 0.4564
vn -0.8526 0.3391 -0.3976
vn -0.4282 0.8813 -0.1997
vn 0.9087 0.3391 0.2435
vn 0.4564 0.8813 0.1223
vn 0.9308 0.3391 0.1366
vn 0.4675 0.8813 0.0686
vn -0.2962 0.3391 0.8929
vn -0.1487 0.8813 0.4485
vn 0.1366 0.3391 -0.9308
vn 0.0686 0.8813 -0.4675
vn 0.6711 -0.0978 -0.7349
vn 0.3022 0.0250 0.9529
vn -0.3122 -0.9489 -0.0447
vn -0.9732 0.0729 -0.2180
vn -0.0865 -0.9948 0.0535
vn -0.5148 0.8482 -0.1252
vn 0.0636 -0.9489 0.3090
vn 0.2065 -0.9490 -0.2382
vn 0.0199 0.9998 0.0066
vn 0.1767 0.8450 0.5048
vn 0.3741 0.8365 -0.4005
vn 0.5526 -0.8332 0.0210
vn -0.2693 -0.8291 -0.4899
vn -0.3195 -0.8243 0.4673
vt 0.603270 0.569934
vt 0.603637 0.570037
vt 0.381637 0.837037
vt 0.381637 0.842037
vt 0.325137 0.839037
s 0
usemtl Material
f 2/1/1 3/1/1 4/1/1
f 4/1/2 3/1/2 1/1/2
f 6/1/3 7/1/3 8/1/3
f 8/1/4 7/1/4 5/1/4
f 10/1/5 11/1/5 12/1/5
f 12/1/6 11/1/6 9/1/6
f 14/1/1 15/1/1 16/1/1
f 16/1/2 15/1/2 13/1/2
f 18/1/3 19/1/3 20/1/3
f 20/1/4 19/1/4 17/1/4
f 22/1/5 23/1/5 24/1/5
f 24/1/6 23/1/6 21/1/6
f 26/1/7 27/1/7 28/1/7
f 28/1/8 27/1/8 25/1/8
f 30/1/9 31/1/9 32/1/9
f 32/1/10 31/1/10 29/1/10
f 34/1/11 35/1/11 36/1/11
f 36/1/12 35/1/12 33/1/12
f 38/1/13 39/1/13 40/1/13
f 40/1/14 39/1/14 37/1/14
f 42/1/15 43/1/15 44/1/15
f 44/1/16 43/1/16 41/1/16
f 46/1/7 47/1/7 48/1/7
f 48/1/8 47/1/8 45/1/8
f 50/1/7 51/1/7 52/1/7
f 52/1/8 51/1/8 49/1/8
f 54/1/9 55/1/9 56/1/9
f 56/1/10 55/1/10 53/1/10
f 58/1/11 59/1/11 60/1/11
f 60/1/12 59/1/12 57/1/12
f 62/1/17 63/1/17 64/1/17
f 64/1/18 63/1/18 61/1/18
f 66/1/19 67/1/19 68/1/19
f 68/1/20 67/1/20 65/1/20
f 70/1/21 71/1/21 72/1/21
f 72/1/22 71/1/22 69/1/22
f 74/1/23 75/1/23 76/1/23
f 76/1/24 75/1/24 73/1/24
f 78/1/25 79/1/25 80/1/25
f 80/1/26 79/1/26 77/1/26
f 82/1/27 83/1/27 84/1/27
f 84/1/28 83/1/28 81/1/28
f 85/2/29 86/2/29 88/2/29 87/2/29
f 87/2/30 88/2/30 90/2/30 89/2/30
f 86/3/31 90/3/31 93/3/31 92/3/31
f 89/2/32 90/2/32 86/2/32 85/2/32
f 85/2/33 87/2/33 89/2/33
f 92/4/34 93/4/34 95/4/34
f 90/3/35 88/3/35 91/3/35 93/3/35
f 88/3/36 86/3/36 92/3/36 91/3/36
f 94/5/37 95/5/37 96/5/37
f 93/4/38 91/4/38 96/4/38
f 91/4/39 92/4/39 94/4/39
f 94/4/40 92/4/40 95/4/40
f 95/4/41 93/4/41 96/4/41
f 96/4/42 91/4/42 94/4/42
