# Blender 4.4.0
# www.blender.org
mtllib RockS_7.mtl
o Cube.083
v 0.246449 0.001943 0.526732
v 0.190471 0.001943 0.526732
v 0.246449 0.608371 0.526732
v 0.274506 0.676428 0.498674
v 0.246517 0.744319 0.470686
v 0.190402 0.744319 0.470686
v -0.104270 0.001943 0.231991
v -0.104270 0.001943 0.176014
v -0.083127 0.744319 0.262194
v -0.083127 0.744319 0.206080
v -0.111116 0.676428 0.178091
v -0.139173 0.608371 0.206148
v -0.139173 0.608371 0.262126
v -0.111116 0.676428 0.290183
v 0.541189 0.001943 0.176014
v 0.541189 0.001943 0.231991
v 0.513132 0.676428 0.260049
v 0.541189 0.608371 0.231991
v 0.541189 0.608371 0.176014
v 0.190471 0.001943 -0.118727
v 0.246449 0.001943 -0.118727
v 0.190402 0.744319 -0.062681
v 0.246517 0.744319 -0.062681
v 0.274506 0.676428 -0.090670
v 0.246449 0.608371 -0.118727
v 0.190471 0.608371 -0.118727
v 0.162414 0.676428 -0.090670
v 0.190471 0.428137 0.526732
v 0.074094 0.676428 0.410355
v 0.101131 0.482619 0.437391
v 0.409810 0.744319 0.100612
v 0.404386 0.744319 0.312818
v 0.445192 0.676428 0.080017
v 0.278915 0.744319 0.196514
v 0.446244 0.604455 0.081069
v -0.104270 0.463399 0.176014
v -0.104270 0.265927 0.176014
v -0.104270 0.281958 0.231991
v -0.104270 0.428743 0.231991
v -0.087132 0.350903 0.158876
v -0.061402 0.313744 0.274859
vn 0.7071 -0.0000 0.7071
vn 0.7071 -0.0000 -0.7071
vn -0.0000 1.0000 -0.0000
vn -0.6855 -0.0275 0.7275
vn -0.7059 -0.0025 -0.7083
vn -0.9245 0.3811 -0.0000
vn 0.7603 0.5160 -0.3946
vn -0.0000 0.3811 -0.9245
vn -0.0000 -0.0000 1.0000
vn -0.5359 0.3914 0.7481
vn -0.9781 -0.1989 -0.0616
vn -0.6055 0.5037 -0.6162
vn -0.0000 -0.0000 -1.0000
vn 0.6109 0.5037 -0.6109
vn 1.0000 -0.0000 -0.0000
vn 0.8177 0.4726 -0.3287
vn -0.0000 -1.0000 -0.0000
vn -0.4897 0.1521 0.8585
vn -0.0000 0.3811 0.9245
vn -0.6599 0.1310 0.7398
vn -0.4845 0.0542 0.8731
vn 0.7191 0.6949 -0.0000
vn 0.1992 0.9415 0.2718
vn 0.6109 0.5037 0.6109
vn 0.3510 0.8564 -0.3786
vn -1.0000 -0.0000 -0.0000
vn -0.9719 -0.1725 0.1603
vn -0.8688 -0.4210 -0.2607
vn -0.7569 0.5547 0.3456
vn -0.9809 0.1870 -0.0536
vt 0.676654 0.346375
vt 0.676654 0.235498
vt 0.676654 0.229912
vt 0.684066 0.346375
vt 0.684066 0.235498
vt 0.683422 0.229912
vt 0.679502 0.229912
vt 0.679478 0.235819
vt 0.677297 0.235498
vt 0.677297 0.346375
vt 0.683422 0.224340
vt 0.684066 0.224340
vt 0.684121 0.224340
vt 0.683477 0.224340
vt 0.677942 0.224340
vt 0.677297 0.224340
vt 0.680073 0.224340
vt 0.679672 0.224340
vt 0.677297 0.242000
vt 0.679349 0.237528
vt 0.679970 0.229912
vt 0.683477 0.229912
vt 0.684121 0.235498
vt 0.684066 0.241950
vt 0.683082 0.248313
vt 0.684066 0.250922
vt 0.684709 0.346375
vt 0.684709 0.252238
vt 0.684709 0.245264
vt 0.684709 0.239106
vt 0.684764 0.235498
vt 0.684764 0.229912
vt 0.684709 0.229912
vt 0.684709 0.235498
s 0
usemtl Material
f 16/1/1 18/2/1 17/3/1 4/3/1 3/2/1 1/1/1
f 21/4/2 25/5/2 24/6/2 33/7/2 35/8/2 19/9/2 15/10/2
f 23/11/3 22/12/3 10/13/3 9/14/3 6/15/3 5/16/3 32/16/3 34/17/3 31/18/3
f 2/10/4 28/19/4 30/20/4 29/21/4 14/22/4 13/23/4 39/24/4 41/25/4 38/26/4 7/4/4
f 8/27/5 37/28/5 40/29/5 36/30/5 12/31/5 11/32/5 27/33/5 26/34/5 20/27/5
f 9/14/6 10/13/6 11/32/6 12/31/6 13/23/6 14/22/6
f 33/7/7 31/18/7 19/9/7
f 22/12/8 23/11/8 24/6/8 25/5/8 26/34/8 27/33/8
f 1/1/9 3/2/9 28/19/9 2/10/9
f 6/15/10 9/14/10 14/22/10 29/21/10
f 12/31/11 36/30/11 39/24/11 13/23/11
f 10/13/12 22/12/12 27/33/12 11/32/12
f 25/5/13 21/4/13 20/27/13 26/34/13
f 23/11/14 31/18/14 33/7/14 24/6/14
f 18/2/15 16/1/15 15/10/15 19/9/15
f 18/2/16 31/18/16 17/3/16
f 7/4/17 8/27/17 20/27/17 21/4/17 15/10/17 16/1/17 1/1/17 2/10/17
f 6/15/18 28/19/18 3/2/18
f 4/3/19 6/15/19 3/2/19
f 5/16/19 6/15/19 4/3/19
f 28/19/20 6/15/20 30/20/20
f 29/21/21 30/20/21 6/15/21
f 19/9/2 35/8/2 33/7/2
f 19/9/22 31/18/22 18/2/22
f 17/3/23 31/18/23 34/17/23
f 17/3/24 32/16/24 5/16/24 4/3/24
f 34/17/25 32/16/25 17/3/25
f 38/26/26 37/28/26 8/27/26 7/4/26
f 40/29/27 41/25/27 36/30/27
f 36/30/28 41/25/28 39/24/28
f 41/25/29 40/29/29 38/26/29
f 37/28/30 38/26/30 40/29/30
o Cube.080
v -0.314308 0.001613 0.010188
v -0.344188 0.001613 -0.025422
v -0.314308 0.505209 0.010188
v -0.281483 0.561726 0.013060
v -0.278618 0.618104 -0.019685
v -0.308572 0.618104 -0.055382
v -0.314020 0.001613 -0.370250
v -0.278410 0.001613 -0.400130
v -0.321948 0.618104 -0.340678
v -0.286251 0.618104 -0.370631
v -0.283386 0.561726 -0.403376
v -0.316211 0.505209 -0.406248
v -0.351821 0.505209 -0.376368
v -0.354693 0.561726 -0.343542
v 0.066129 0.001613 0.010476
v 0.030519 0.001613 0.040356
v -0.002306 0.561726 0.037485
v 0.030519 0.505209 0.040356
v 0.066129 0.505209 0.010476
v 0.066418 0.001613 -0.369961
v 0.096298 0.001613 -0.334351
v 0.030727 0.618104 -0.340088
v 0.060681 0.618104 -0.304391
v 0.093426 0.561726 -0.301526
v 0.096298 0.505209 -0.334351
v 0.066418 0.505209 -0.369961
v 0.033592 0.561726 -0.372833
v -0.344188 0.355538 -0.025422
v -0.332277 0.561726 -0.161575
v -0.335044 0.400781 -0.129944
v 0.043967 0.618104 -0.113349
v -0.093923 0.618104 -0.003526
v 0.075955 0.561726 -0.101834
v -0.086912 0.618104 -0.145426
v 0.075847 0.501957 -0.100603
v -0.278410 0.384820 -0.400130
v -0.278410 0.220833 -0.400130
v -0.314020 0.234146 -0.370250
v -0.314020 0.356040 -0.370250
v -0.258360 0.291400 -0.398376
v -0.318408 0.260542 -0.320097
vn -0.0872 -0.0000 0.9962
vn 0.9962 -0.0000 0.0872
vn -0.0000 1.0000 -0.0000
vn -0.9980 -0.0275 -0.0575
vn 0.0888 -0.0025 -0.9960
vn -0.5943 0.3811 -0.7082
vn 0.7910 0.5160 0.3288
vn 0.7082 0.3811 -0.5943
vn -0.7660 -0.0000 0.6428
vn -0.9175 0.3914 0.0703
vn -0.5815 -0.1989 -0.7888
vn 0.0829 0.5037 -0.8599
vn 0.7660 -0.0000 -0.6428
vn 0.8606 0.5037 0.0753
vn 0.6428 -0.0000 0.7660
vn 0.7774 0.4726 0.4151
vn -0.0000 -1.0000 -0.0000
vn -0.9724 0.1521 0.1768
vn -0.7082 0.3811 0.5943
vn -0.9909 0.1310 -0.0300
vn -0.9803 0.0542 0.1900
vn 0.4622 0.6949 0.5509
vn -0.0802 0.9415 0.3273
vn -0.0753 0.5037 0.8606
vn 0.5156 0.8564 0.0255
vn -0.6428 -0.0000 -0.7660
vn -0.7475 -0.1725 -0.6414
vn -0.3588 -0.4210 -0.8331
vn -0.7513 0.5547 -0.3577
vn -0.5895 0.1870 -0.7858
vt 0.676654 0.346375
vt 0.676654 0.235498
vt 0.676654 0.229912
vt 0.684066 0.346375
vt 0.684066 0.235498
vt 0.683422 0.229912
vt 0.679502 0.229912
vt 0.679478 0.235819
vt 0.677297 0.235498
vt 0.677297 0.346375
vt 0.683422 0.224340
vt 0.684066 0.224340
vt 0.684121 0.224340
vt 0.683477 0.224340
vt 0.677942 0.224340
vt 0.677297 0.224340
vt 0.680073 0.224340
vt 0.679672 0.224340
vt 0.677297 0.242000
vt 0.679349 0.237528
vt 0.679970 0.229912
vt 0.683477 0.229912
vt 0.684121 0.235498
vt 0.684066 0.241950
vt 0.683082 0.248313
vt 0.684066 0.250922
vt 0.684709 0.346375
vt 0.684709 0.252238
vt 0.684709 0.245264
vt 0.684709 0.239106
vt 0.684764 0.235498
vt 0.684764 0.229912
vt 0.684709 0.229912
vt 0.684709 0.235498
s 0
usemtl Material
f 57/35/31 59/36/31 58/37/31 45/37/31 44/36/31 42/35/31
f 62/38/32 66/39/32 65/40/32 74/41/32 76/42/32 60/43/32 56/44/32
f 64/45/33 63/46/33 51/47/33 50/48/33 47/49/33 46/50/33 73/50/33 75/51/33 72/52/33
f 43/44/34 69/53/34 71/54/34 70/55/34 55/56/34 54/57/34 80/58/34 82/59/34 79/60/34 48/38/34
f 49/61/35 78/62/35 81/63/35 77/64/35 53/65/35 52/66/35 68/67/35 67/68/35 61/61/35
f 50/48/36 51/47/36 52/66/36 53/65/36 54/57/36 55/56/36
f 74/41/37 72/52/37 60/43/37
f 63/46/38 64/45/38 65/40/38 66/39/38 67/68/38 68/67/38
f 42/35/39 44/36/39 69/53/39 43/44/39
f 47/49/40 50/48/40 55/56/40 70/55/40
f 53/65/41 77/64/41 80/58/41 54/57/41
f 51/47/42 63/46/42 68/67/42 52/66/42
f 66/39/43 62/38/43 61/61/43 67/68/43
f 64/45/44 72/52/44 74/41/44 65/40/44
f 59/36/45 57/35/45 56/44/45 60/43/45
f 59/36/46 72/52/46 58/37/46
f 48/38/47 49/61/47 61/61/47 62/38/47 56/44/47 57/35/47 42/35/47 43/44/47
f 47/49/48 69/53/48 44/36/48
f 45/37/49 47/49/49 44/36/49
f 46/50/49 47/49/49 45/37/49
f 69/53/50 47/49/50 71/54/50
f 70/55/51 71/54/51 47/49/51
f 60/43/32 76/42/32 74/41/32
f 60/43/52 72/52/52 59/36/52
f 58/37/53 72/52/53 75/51/53
f 58/37/54 73/50/54 46/50/54 45/37/54
f 75/51/55 73/50/55 58/37/55
f 79/60/56 78/62/56 49/61/56 48/38/56
f 81/63/57 82/59/57 77/64/57
f 77/64/58 82/59/58 80/58/58
f 82/59/59 81/63/59 79/60/59
f 78/62/60 79/60/60 81/63/60
o Cube.082
v -0.272575 0.001141 0.476291
v -0.304963 0.001141 0.470581
v -0.272575 0.357423 0.476291
v -0.253479 0.397408 0.462920
v -0.266818 0.437294 0.443871
v -0.299285 0.437294 0.438146
v -0.445426 0.001141 0.269979
v -0.439715 0.001141 0.237591
v -0.436274 0.437294 0.289611
v -0.430550 0.437294 0.257144
v -0.443888 0.397408 0.238095
v -0.462984 0.357423 0.251466
v -0.468695 0.357423 0.283854
v -0.455324 0.397408 0.302950
v -0.066263 0.001141 0.303441
v -0.071974 0.001141 0.335829
v -0.091070 0.397408 0.349200
v -0.071974 0.357423 0.335829
v -0.066263 0.357423 0.303441
v -0.239113 0.001141 0.097129
v -0.206726 0.001141 0.102839
v -0.244871 0.437294 0.129549
v -0.212404 0.437294 0.135274
v -0.193355 0.397408 0.121936
v -0.206726 0.357423 0.102839
v -0.239113 0.357423 0.097129
v -0.258209 0.397408 0.110500
v -0.304963 0.251535 0.470581
v -0.360424 0.397408 0.391374
v -0.347539 0.283543 0.409775
v -0.134584 0.437294 0.246411
v -0.159372 0.437294 0.368637
v -0.112012 0.397408 0.238105
v -0.220102 0.437294 0.288545
v -0.111510 0.355123 0.238821
v -0.439715 0.272251 0.237591
v -0.439715 0.156234 0.237591
v -0.445426 0.165653 0.269979
v -0.445426 0.251890 0.269979
v -0.428051 0.206159 0.229424
v -0.424997 0.184328 0.299155
vn 0.5736 -0.0000 0.8192
vn 0.8192 -0.0000 -0.5736
vn -0.0000 1.0000 -0.0000
vn -0.8014 -0.0275 0.5974
vn -0.5722 -0.0025 -0.8201
vn -0.9105 0.3811 -0.1605
vn 0.8173 0.5160 -0.2565
vn 0.1605 0.3811 -0.9105
vn -0.1736 -0.0000 0.9848
vn -0.6577 0.3914 0.6436
vn -0.9525 -0.1989 -0.2305
vn -0.4893 0.5037 -0.7120
vn 0.1736 -0.0000 -0.9848
vn 0.7077 0.5037 -0.4955
vn 0.9848 -0.0000 0.1736
vn 0.8623 0.4726 -0.1817
vn -0.0000 -1.0000 -0.0000
vn -0.6313 0.1521 0.7605
vn -0.1605 0.3811 0.9105
vn -0.7784 0.1310 0.6140
vn -0.6288 0.0542 0.7757
vn 0.7082 0.6949 0.1249
vn 0.1489 0.9415 0.3023
vn 0.4955 0.5037 0.7077
vn 0.4114 0.8564 -0.3119
vn -0.9848 -0.0000 -0.1736
vn -0.9850 -0.1725 -0.0109
vn -0.8103 -0.4210 -0.4076
vn -0.8054 0.5547 0.2089
vn -0.9567 0.1870 -0.2231
vt 0.676654 0.346375
vt 0.676654 0.235498
vt 0.676654 0.229912
vt 0.684066 0.346375
vt 0.684066 0.235498
vt 0.683422 0.229912
vt 0.679502 0.229912
vt 0.679478 0.235819
vt 0.677297 0.235498
vt 0.677297 0.346375
vt 0.683422 0.224340
vt 0.684066 0.224340
vt 0.684121 0.224340
vt 0.683477 0.224340
vt 0.677942 0.224340
vt 0.677297 0.224340
vt 0.680073 0.224340
vt 0.679672 0.224340
vt 0.677297 0.242000
vt 0.679349 0.237528
vt 0.679970 0.229912
vt 0.683477 0.229912
vt 0.684121 0.235498
vt 0.684066 0.241950
vt 0.683082 0.248313
vt 0.684066 0.250922
vt 0.684709 0.346375
vt 0.684709 0.252238
vt 0.684709 0.245264
vt 0.684709 0.239106
vt 0.684764 0.235498
vt 0.684764 0.229912
vt 0.684709 0.229912
vt 0.684709 0.235498
s 0
usemtl Material
f 98/69/61 100/70/61 99/71/61 86/71/61 85/70/61 83/69/61
f 103/72/62 107/73/62 106/74/62 115/75/62 117/76/62 101/77/62 97/78/62
f 105/79/63 104/80/63 92/81/63 91/82/63 88/83/63 87/84/63 114/84/63 116/85/63 113/86/63
f 84/78/64 110/87/64 112/88/64 111/89/64 96/90/64 95/91/64 121/92/64 123/93/64 120/94/64 89/72/64
f 90/95/65 119/96/65 122/97/65 118/98/65 94/99/65 93/100/65 109/101/65 108/102/65 102/95/65
f 91/82/66 92/81/66 93/100/66 94/99/66 95/91/66 96/90/66
f 115/75/67 113/86/67 101/77/67
f 104/80/68 105/79/68 106/74/68 107/73/68 108/102/68 109/101/68
f 83/69/69 85/70/69 110/87/69 84/78/69
f 88/83/70 91/82/70 96/90/70 111/89/70
f 94/99/71 118/98/71 121/92/71 95/91/71
f 92/81/72 104/80/72 109/101/72 93/100/72
f 107/73/73 103/72/73 102/95/73 108/102/73
f 105/79/74 113/86/74 115/75/74 106/74/74
f 100/70/75 98/69/75 97/78/75 101/77/75
f 100/70/76 113/86/76 99/71/76
f 89/72/77 90/95/77 102/95/77 103/72/77 97/78/77 98/69/77 83/69/77 84/78/77
f 88/83/78 110/87/78 85/70/78
f 86/71/79 88/83/79 85/70/79
f 87/84/79 88/83/79 86/71/79
f 110/87/80 88/83/80 112/88/80
f 111/89/81 112/88/81 88/83/81
f 101/77/62 117/76/62 115/75/62
f 101/77/82 113/86/82 100/70/82
f 99/71/83 113/86/83 116/85/83
f 99/71/84 114/84/84 87/84/84 86/71/84
f 116/85/85 114/84/85 99/71/85
f 120/94/86 119/96/86 90/95/86 89/72/86
f 122/97/87 123/93/87 118/98/87
f 118/98/88 123/93/88 121/92/88
f 123/93/89 122/97/89 120/94/89
f 119/96/90 120/94/90 122/97/90
o Cube.085
v 0.112277 0.001661 -0.377172
v 0.135532 0.001661 -0.400427
v 0.112277 0.520056 -0.377172
v 0.112277 0.578234 -0.353860
v 0.135532 0.636269 -0.353860
v 0.158844 0.636269 -0.377172
v 0.380421 0.001661 -0.400427
v 0.403676 0.001661 -0.377172
v 0.359091 0.636269 -0.404191
v 0.382403 0.636269 -0.380879
v 0.405657 0.578234 -0.380879
v 0.405657 0.520056 -0.404191
v 0.382403 0.520056 -0.427446
v 0.359091 0.578234 -0.427446
v 0.135532 0.001661 -0.109028
v 0.112277 0.001661 -0.132283
v 0.112277 0.578234 -0.155595
v 0.112277 0.520056 -0.132283
v 0.135532 0.520056 -0.109028
v 0.403676 0.001661 -0.132283
v 0.380421 0.001661 -0.109028
v 0.380421 0.636269 -0.155595
v 0.357110 0.636269 -0.132283
v 0.357110 0.578234 -0.109028
v 0.380421 0.520056 -0.109028
v 0.403676 0.520056 -0.132283
v 0.403676 0.578234 -0.155595
v 0.135532 0.365986 -0.400427
v 0.232225 0.578234 -0.400427
v 0.209762 0.412559 -0.400427
v 0.221436 0.636269 -0.132283
v 0.135532 0.636269 -0.222693
v 0.215292 0.578234 -0.109028
v 0.235973 0.636269 -0.226502
v 0.214418 0.516708 -0.109028
v 0.403676 0.396129 -0.377172
v 0.403676 0.227323 -0.377172
v 0.380421 0.241027 -0.400427
v 0.380421 0.366504 -0.400427
v 0.403676 0.299964 -0.362933
v 0.344804 0.268199 -0.400427
vn -1.0000 -0.0000 -0.0000
vn -0.0000 -0.0000 1.0000
vn -0.0000 1.0000 -0.0000
vn -0.0297 -0.0189 -0.9994
vn 1.0000 -0.0017 0.0017
vn 0.6803 0.2726 -0.6803
vn -0.2790 0.3825 0.8808
vn 0.6803 0.2726 0.6803
vn -0.7071 -0.0000 -0.7071
vn -0.1564 0.2806 -0.9470
vn 0.7429 -0.1382 -0.6549
vn 0.9282 0.3719 0.0082
vn 0.7071 -0.0000 0.7071
vn -0.0000 0.3720 0.9283
vn -0.7071 -0.0000 0.7071
vn -0.3682 0.3458 0.8630
vn -0.0000 -1.0000 -0.0000
vn -0.2625 0.1052 -0.9592
vn -0.6803 0.2726 -0.6803
vn -0.0567 0.0904 -0.9943
vn -0.2750 0.0373 -0.9607
vn -0.5890 0.5533 0.5890
vn -0.4565 0.8869 -0.0704
vn -0.9283 0.3720 -0.0000
vn 0.0250 0.7518 0.6589
vn 0.7071 -0.0000 -0.7071
vn 0.5784 -0.1195 -0.8070
vn 0.8388 -0.3039 -0.4517
vn 0.3178 0.4165 -0.8518
vn 0.7383 0.1297 -0.6619
vt 0.676654 0.346375
vt 0.676654 0.235498
vt 0.676654 0.229912
vt 0.684066 0.346375
vt 0.684066 0.235498
vt 0.683422 0.229912
vt 0.679502 0.229912
vt 0.679478 0.235819
vt 0.677297 0.235498
vt 0.677297 0.346375
vt 0.683422 0.224340
vt 0.684066 0.224340
vt 0.684121 0.224340
vt 0.683477 0.224340
vt 0.677942 0.224340
vt 0.677297 0.224340
vt 0.680073 0.224340
vt 0.679672 0.224340
vt 0.677297 0.242000
vt 0.679349 0.237528
vt 0.679970 0.229912
vt 0.683477 0.229912
vt 0.684121 0.235498
vt 0.684066 0.241950
vt 0.683082 0.248313
vt 0.684066 0.250922
vt 0.684709 0.346375
vt 0.684709 0.252238
vt 0.684709 0.245264
vt 0.684709 0.239106
vt 0.684764 0.235498
vt 0.684764 0.229912
vt 0.684709 0.229912
vt 0.684709 0.235498
s 0
usemtl Material
f 139/103/91 141/104/91 140/105/91 127/105/91 126/104/91 124/103/91
f 144/106/92 148/107/92 147/108/92 156/109/92 158/110/92 142/111/92 138/112/92
f 146/113/93 145/114/93 133/115/93 132/116/93 129/117/93 128/118/93 155/118/93 157/119/93 154/120/93
f 125/112/94 151/121/94 153/122/94 152/123/94 137/124/94 136/125/94 162/126/94 164/127/94 161/128/94 130/106/94
f 131/129/95 160/130/95 163/131/95 159/132/95 135/133/95 134/134/95 150/135/95 149/136/95 143/129/95
f 132/116/96 133/115/96 134/134/96 135/133/96 136/125/96 137/124/96
f 156/109/97 154/120/97 142/111/97
f 145/114/98 146/113/98 147/108/98 148/107/98 149/136/98 150/135/98
f 124/103/99 126/104/99 151/121/99 125/112/99
f 129/117/100 132/116/100 137/124/100 152/123/100
f 135/133/101 159/132/101 162/126/101 136/125/101
f 133/115/102 145/114/102 150/135/102 134/134/102
f 148/107/103 144/106/103 143/129/103 149/136/103
f 146/113/104 154/120/104 156/109/104 147/108/104
f 141/104/105 139/103/105 138/112/105 142/111/105
f 141/104/106 154/120/106 140/105/106
f 130/106/107 131/129/107 143/129/107 144/106/107 138/112/107 139/103/107 124/103/107 125/112/107
f 129/117/108 151/121/108 126/104/108
f 127/105/109 129/117/109 126/104/109
f 128/118/109 129/117/109 127/105/109
f 151/121/110 129/117/110 153/122/110
f 152/123/111 153/122/111 129/117/111
f 142/111/92 158/110/92 156/109/92
f 142/111/112 154/120/112 141/104/112
f 140/105/113 154/120/113 157/119/113
f 140/105/114 155/118/114 128/118/114 127/105/114
f 157/119/115 155/118/115 140/105/115
f 161/128/116 160/130/116 131/129/116 130/106/116
f 163/131/117 164/127/117 159/132/117
f 159/132/118 164/127/118 162/126/118
f 164/127/119 163/131/119 161/128/119
f 160/130/120 161/128/120 163/131/120
