# Blender 4.1.1
# www.blender.org
mtllib Rock_1.mtl
o Cube.021
v -0.074856 0.270129 0.004490
v -0.246159 0.422207 -0.206358
v -0.349260 0.209341 0.181475
v -0.133962 0.926890 0.197242
v 0.026580 0.877727 0.513033
v -0.219843 0.813024 0.661755
v -0.363141 -0.057716 -0.136773
v -0.403914 0.210557 -0.309277
v -0.527770 -0.035665 -0.081223
v -0.375183 0.461705 -0.170353
v -0.500012 0.305900 0.076447
v -0.416939 -0.048594 0.029926
v -0.144793 0.322293 -0.231891
v -0.486106 0.320144 -0.287725
v -0.069428 0.165874 -0.192253
v -0.132081 -0.005697 -0.159704
v -0.485849 -0.029516 -0.147619
v -0.371472 0.409390 -0.291840
v -0.253274 0.261812 0.038808
v -0.498066 0.403722 -0.194405
v 0.036234 -0.030088 0.478335
v -0.127328 -0.021306 0.488515
v -0.289629 0.035641 0.340658
v 0.082909 0.128887 0.106518
v 0.059750 -0.033014 0.303281
v -0.298505 0.846769 0.193099
v -0.041965 0.776730 0.641186
v -0.346470 0.770592 0.534519
v 0.009038 0.856920 0.302275
v 0.132425 0.079418 0.331556
v -0.303606 0.925177 0.362610
v -0.393569 0.806579 0.340920
v 0.113227 -0.080274 0.349458
v 0.095392 0.388801 0.350620
v 0.185724 -0.087167 0.153594
v 0.442025 -0.056869 0.270122
v 0.357103 -0.073137 0.140652
v 0.422240 0.132515 0.450694
v 0.323146 -0.120881 0.405070
v 0.173006 0.361780 0.493081
v 0.226950 0.531192 0.259743
v 0.164242 0.437192 0.149138
v 0.376654 0.454543 0.159842
v 0.450754 0.436684 0.286790
v 0.367782 0.458202 0.435329
v 0.157762 -0.030870 -0.297038
v 0.169188 0.336893 -0.403594
v 0.114494 0.262383 0.014280
v 0.243258 -0.058501 -0.408193
v 0.366110 -0.039041 -0.239619
v 0.427024 0.269201 -0.370454
v 0.337155 0.412728 -0.181647
v 0.354223 -0.014990 -0.427757
v 0.307307 0.312628 -0.461262
v 0.252024 0.475928 -0.235874
v 0.168582 0.468374 -0.320857
v 0.358117 0.452068 -0.361622
v 0.410539 0.293436 -0.213154
v 0.129221 0.159923 -0.322711
v 0.152235 -0.005147 0.037245
v 0.210952 0.323470 0.055665
v 0.260348 -0.036607 0.039042
vn 0.2240 0.8562 0.4656
vn 0.0664 0.8341 0.5476
vn 0.2833 0.7704 0.5711
vn -0.0515 -0.5457 -0.8364
vn -0.5948 -0.2994 -0.7461
vn -0.3323 0.8625 -0.3816
vn 0.1701 0.9070 -0.3854
vn -0.4991 0.6128 -0.6128
vn -0.9881 0.0278 -0.1515
vn 0.2699 0.0403 -0.9620
vn -0.4545 0.8388 0.2997
vn -0.1056 0.6519 0.7509
vn 0.6951 0.7173 -0.0474
vn -0.8166 -0.2152 -0.5355
vn 0.9031 0.3892 -0.1813
vn 0.4111 0.5938 -0.6917
vn -0.9668 -0.1304 0.2198
vn 0.9836 0.1524 -0.0969
vn -0.0290 0.9333 0.3580
vn 0.0938 0.9899 0.1064
vn -0.7313 0.6104 -0.3043
vn 0.0371 -0.5365 -0.8431
vn 0.3008 -0.1939 -0.9338
vn -0.1178 0.1058 -0.9874
vn -0.9972 0.0723 0.0189
vn -0.6225 -0.6526 0.4320
vn -0.8217 -0.2592 0.5076
vn 0.8198 -0.5600 0.1195
vn 0.7866 -0.4743 -0.3954
vn -0.6774 -0.2281 0.6994
vn 0.7367 0.6057 -0.3006
vn 0.8358 -0.4681 -0.2868
vn -0.1497 0.2545 -0.9554
vn -0.9686 -0.1307 0.2114
vn 0.5094 0.8512 -0.1264
vn -0.8441 0.0769 -0.5306
vn 0.6648 0.2603 -0.7002
vn 0.9723 0.1475 -0.1815
vn 0.8612 -0.0103 0.5082
vn 0.0626 -0.1940 0.9790
vn -0.7045 0.6060 0.3693
vn 0.2217 0.7047 0.6740
vn -0.3940 0.8296 -0.3956
vn -0.8804 -0.0346 0.4731
vn -0.9375 -0.0413 -0.3455
vn -0.0744 -0.0115 -0.9972
vn 0.9911 -0.0220 0.1316
vn 0.7745 -0.3922 0.4962
vn -0.2939 -0.2592 0.9200
vn -0.5154 0.7457 0.4222
vn -0.0308 0.7702 -0.6371
vn 0.3975 0.9117 -0.1038
vn -0.9431 -0.0350 -0.3307
vn 0.8498 -0.0050 -0.5271
vn 0.0475 0.0345 -0.9983
vn 0.0032 -0.1784 0.9839
vn -0.7636 0.6366 -0.1081
vn -0.2435 0.8108 0.5323
vn 0.3797 0.9218 0.0786
vn 0.2437 0.0863 0.9660
vn 0.8708 0.1674 0.4622
vn 0.9237 -0.1514 0.3519
vn -0.1270 -0.1189 -0.9848
vn -0.9886 0.1266 -0.0817
vn -0.3939 -0.0631 -0.9170
vn -0.9705 0.1251 -0.2059
vn 0.9821 -0.1412 0.1247
vn 0.4752 0.8464 0.2404
vn 0.8570 0.4735 0.2033
vn -0.1173 0.6053 -0.7873
vn 0.0546 0.9884 -0.1415
vn 0.9356 0.3504 0.0441
vn 0.6056 0.0053 -0.7958
vn -0.9897 -0.1434 -0.0025
vn 0.8019 0.1473 0.5790
vn -0.2518 0.5146 -0.8196
vn -0.7667 -0.1566 -0.6227
vn -0.5402 0.7632 0.3545
vn 0.9690 -0.2299 -0.0906
vn 0.6424 0.2766 -0.7147
vn -0.0312 -0.0504 0.9982
vn -0.4055 0.0212 0.9138
vn 0.3095 0.8240 0.4745
vt 0.636515 0.449713
vt 0.636515 0.449104
vt 0.636515 0.458009
vt 0.636515 0.433580
vt 0.636515 0.444049
vt 0.636515 0.437030
vt 0.636515 0.496727
vt 0.636515 0.504804
vt 0.636515 0.502556
vt 0.636515 0.499254
vt 0.636515 0.479371
vt 0.636515 0.485748
vt 0.636515 0.485503
vt 0.636515 0.481095
vt 0.636515 0.489121
vt 0.636515 0.486455
vt 0.636515 0.492320
vt 0.636515 0.433749
vt 0.636515 0.423352
vt 0.636515 0.426819
vt 0.636515 0.474677
vt 0.636515 0.463788
vt 0.636515 0.436132
vt 0.636515 0.455943
vt 0.636515 0.444054
vt 0.636515 0.447108
vt 0.636515 0.444853
vt 0.636515 0.453067
vt 0.636515 0.455563
vt 0.636515 0.446283
vt 0.636515 0.450943
vt 0.636515 0.435162
vt 0.636515 0.425358
vt 0.636515 0.491946
vt 0.636515 0.475884
vt 0.636515 0.465075
vt 0.636515 0.450852
vt 0.636515 0.444410
vt 0.636515 0.442644
vt 0.636515 0.457818
vt 0.636515 0.458913
vt 0.636515 0.420708
vt 0.636515 0.429372
vt 0.636515 0.427617
vt 0.636515 0.447139
vt 0.636515 0.447494
vt 0.636515 0.466575
vt 0.636515 0.481046
vt 0.636515 0.490634
vt 0.636515 0.480895
vt 0.636515 0.490972
vt 0.636515 0.497976
vt 0.636515 0.511098
vt 0.636515 0.510588
vt 0.636515 0.430216
vt 0.636515 0.470988
vt 0.636515 0.478813
vt 0.636515 0.469413
vt 0.636515 0.466277
vt 0.636515 0.489926
vt 0.636515 0.491946
vt 0.636515 0.494089
vt 0.636515 0.424163
vt 0.636515 0.422599
vt 0.636515 0.428830
vt 0.636515 0.485150
vt 0.636515 0.489980
vt 0.636515 0.479872
vt 0.636515 0.458756
vt 0.636515 0.443129
vt 0.636515 0.439453
vt 0.636515 0.471464
vt 0.636515 0.455831
vt 0.636515 0.496918
vt 0.636515 0.485379
vt 0.636515 0.486295
vt 0.636515 0.475426
vt 0.636515 0.493476
vt 0.636515 0.441312
vt 0.636515 0.459006
vt 0.636515 0.435769
vt 0.636515 0.428124
vt 0.636515 0.468370
vt 0.636515 0.431876
s 0
usemtl Material
f 19/1/1 11/2/1 3/3/1
f 2/4/2 19/1/2 1/5/2
f 19/1/3 2/4/3 10/6/3 11/2/3
f 17/7/4 8/8/4 7/9/4
f 14/10/5 8/8/5 17/7/5
f 10/11/6 18/12/6 20/13/6
f 2/14/7 18/12/7 10/11/7
f 18/12/8 14/15/8 20/13/8
f 14/10/9 9/16/9 20/17/9
f 13/18/10 8/19/10 18/20/10
f 20/13/11 11/21/11 10/11/11
f 23/22/12 3/3/12 11/21/12
f 13/18/13 2/4/13 1/5/13
f 17/7/14 9/16/14 14/10/14
f 1/5/15 15/23/15 13/18/15
f 18/20/16 2/4/16 13/18/16
f 3/3/17 23/22/17 32/24/17
f 29/25/18 5/26/18 30/27/18
f 31/28/19 6/29/19 5/26/19
f 31/28/20 5/26/20 4/30/20
f 32/24/21 31/28/21 26/31/21
f 16/32/22 7/33/22 8/19/22
f 8/19/23 13/18/23 15/23/23 16/32/23
f 8/34/24 14/15/24 18/12/24
f 11/21/25 20/17/25 9/16/25
f 23/22/26 12/35/26 22/36/26
f 23/22/27 11/21/27 9/16/27 12/35/27
f 30/27/28 21/37/28 25/38/28
f 25/38/29 16/32/29 15/23/29 24/39/29
f 6/29/30 28/40/30 23/22/30 22/41/30
f 15/23/31 1/5/31 24/39/31
f 24/39/32 30/27/32 25/38/32
f 26/31/33 4/30/33 1/5/33 19/1/33
f 23/22/34 28/40/34 32/24/34
f 29/25/35 4/30/35 5/26/35
f 26/31/36 19/1/36 3/3/36 32/24/36
f 29/25/37 24/39/37 1/5/37 4/30/37
f 30/27/38 24/39/38 29/25/38
f 27/31/39 21/37/39 30/27/39 5/26/39
f 6/29/40 22/41/40 21/37/40 27/31/40
f 31/28/41 32/24/41 28/40/41 6/29/41
f 27/31/42 5/26/42 6/29/42
f 26/31/43 31/28/43 4/30/43
f 40/42/44 34/43/44 33/44/44
f 33/44/45 42/45/45 35/46/45
f 35/46/46 42/45/46 37/47/46
f 44/48/47 38/49/47 36/50/47
f 38/49/48 39/51/48 36/50/48
f 39/52/49 40/53/49 33/54/49
f 34/43/50 40/42/50 41/55/50
f 42/56/51 41/57/51 43/58/51
f 43/59/52 41/57/52 44/48/52
f 33/44/53 34/43/53 42/45/53
f 36/50/54 37/47/54 43/59/54 44/48/54
f 42/45/55 43/59/55 37/47/55
f 38/49/56 40/53/56 39/52/56
f 42/45/57 34/43/57 41/55/57
f 45/60/58 41/57/58 40/61/58
f 44/48/59 41/57/59 45/60/59
f 38/49/60 45/62/60 40/53/60
f 38/49/61 44/48/61 45/62/61
f 50/63/62 58/64/62 62/65/62
f 54/66/63 53/67/63 49/68/63
f 59/69/64 48/70/64 56/71/64
f 49/68/65 47/72/65 54/66/65
f 47/72/66 59/69/66 56/73/66
f 50/9/67 51/74/67 58/53/67
f 52/75/68 57/76/68 55/57/68
f 57/76/69 52/75/69 58/61/69
f 56/77/70 57/76/70 54/66/70
f 57/76/71 56/77/71 55/57/71
f 58/53/72 51/74/72 57/78/72
f 54/66/73 51/74/73 53/67/73
f 60/79/74 48/70/74 59/69/74 46/80/74
f 61/81/75 62/65/75 58/64/75 52/82/75
f 54/66/76 47/72/76 56/77/76
f 47/72/77 49/68/77 46/83/77 59/69/77
f 48/70/78 61/81/78 55/84/78 56/71/78
f 53/67/79 51/74/79 50/9/79
f 57/78/80 51/74/80 54/66/80
f 62/65/81 61/81/81 60/79/81
f 48/70/82 60/79/82 61/81/82
f 52/82/83 55/84/83 61/81/83
