# Blender 4.4.0
# www.blender.org
mtllib RockS_5.mtl
o Cube.088
v 0.421463 0.001960 -0.091789
v 0.461497 0.001960 -0.051755
v 0.421463 0.615322 -0.091789
v 0.381330 0.684157 -0.091789
v 0.381330 0.752824 -0.051755
v 0.421463 0.752824 -0.011622
v 0.461497 0.001960 0.369838
v 0.421463 0.001960 0.409872
v 0.467977 0.752824 0.333115
v 0.427844 0.752824 0.373248
v 0.427844 0.684157 0.413283
v 0.467977 0.615322 0.413283
v 0.508012 0.615322 0.373248
v 0.508012 0.684157 0.333116
v -0.040164 0.001960 -0.051755
v -0.000130 0.001960 -0.091789
v 0.040003 0.684157 -0.091789
v -0.000130 0.615322 -0.091789
v -0.040164 0.615322 -0.051755
v -0.000130 0.001960 0.409872
v -0.040164 0.001960 0.369838
v 0.040003 0.752824 0.369838
v -0.000130 0.752824 0.329705
v -0.040164 0.684157 0.329705
v -0.040164 0.615322 0.369838
v -0.000130 0.615322 0.409872
v 0.040003 0.684157 0.409872
v 0.461497 0.433028 -0.051755
v 0.461497 0.684157 0.114709
v 0.461497 0.488132 0.076037
v -0.000130 0.752824 0.096134
v 0.155518 0.752824 -0.051755
v -0.040164 0.684157 0.085558
v 0.162074 0.752824 0.121160
v -0.040164 0.611361 0.084053
v 0.421463 0.468692 0.409872
v 0.421463 0.268962 0.409872
v 0.461497 0.285177 0.369838
v 0.461497 0.433640 0.369838
v 0.396949 0.354910 0.409872
v 0.461497 0.317327 0.308520
v -0.478095 0.001676 -0.216501
v -0.443844 0.001676 -0.250753
v -0.478095 0.526439 -0.216501
v -0.478095 0.585332 -0.182166
v -0.443844 0.644080 -0.182166
v -0.409508 0.644080 -0.216501
v -0.083149 0.001676 -0.250753
v -0.048898 0.001676 -0.216501
v -0.114567 0.644080 -0.256297
v -0.080231 0.644080 -0.221961
v -0.045980 0.585332 -0.221961
v -0.045980 0.526439 -0.256297
v -0.080231 0.526439 -0.290549
v -0.114567 0.585332 -0.290549
v -0.443844 0.001676 0.178445
v -0.478095 0.001676 0.144193
v -0.478095 0.585332 0.109857
v -0.478095 0.526439 0.144193
v -0.443844 0.526439 0.178445
v -0.048898 0.001676 0.144193
v -0.083149 0.001676 0.178445
v -0.083149 0.644080 0.109857
v -0.117485 0.644080 0.144193
v -0.117485 0.585332 0.178445
v -0.083149 0.526439 0.178445
v -0.048898 0.526439 0.144193
v -0.048898 0.585332 0.109857
v -0.443844 0.370477 -0.250753
v -0.301425 0.585332 -0.250753
v -0.334512 0.417622 -0.250753
v -0.317317 0.644080 0.144193
v -0.443844 0.644080 0.011028
v -0.326366 0.585332 0.178445
v -0.295906 0.644080 0.005419
v -0.327653 0.523051 0.178445
v -0.048898 0.400990 -0.216501
v -0.048898 0.230111 -0.216501
v -0.083149 0.243983 -0.250753
v -0.083149 0.371001 -0.250753
v -0.048898 0.303644 -0.195529
v -0.135609 0.271489 -0.250753
v -0.039174 0.000884 0.398748
v -0.057285 0.000884 0.416859
v -0.039174 0.278366 0.398748
v -0.039174 0.309507 0.380592
v -0.057285 0.340572 0.380592
v -0.075441 0.340572 0.398748
v -0.248012 0.000884 0.416859
v -0.266123 0.000884 0.398748
v -0.231399 0.340572 0.419791
v -0.249555 0.340572 0.401635
v -0.267666 0.309507 0.401635
v -0.267666 0.278366 0.419791
v -0.249555 0.278366 0.437902
v -0.231399 0.309507 0.437902
v -0.057285 0.000884 0.189910
v -0.039174 0.000884 0.208021
v -0.039174 0.309507 0.226177
v -0.039174 0.278366 0.208021
v -0.057285 0.278366 0.189910
v -0.266123 0.000884 0.208021
v -0.248011 0.000884 0.189910
v -0.248011 0.340572 0.226177
v -0.229856 0.340572 0.208021
v -0.229856 0.309507 0.189910
v -0.248011 0.278366 0.189910
v -0.266123 0.278366 0.208021
v -0.266123 0.309507 0.226177
v -0.057285 0.195897 0.416859
v -0.132592 0.309507 0.416859
v -0.115097 0.220826 0.416859
v -0.124189 0.340572 0.208021
v -0.057285 0.340572 0.278436
v -0.119404 0.309507 0.189910
v -0.135511 0.340572 0.281402
v -0.118724 0.276574 0.189910
v -0.266123 0.212032 0.398748
v -0.266123 0.121675 0.398748
v -0.248012 0.129010 0.416859
v -0.248012 0.196174 0.416859
v -0.266123 0.160557 0.387658
v -0.220272 0.143555 0.416859
v 0.326256 0.001308 -0.115274
v 0.299507 0.001308 -0.088525
v 0.326256 0.411125 -0.115274
v 0.326256 0.457118 -0.142089
v 0.299507 0.502997 -0.142089
v 0.272693 0.502997 -0.115274
v 0.017821 0.001308 -0.088525
v -0.008928 0.001308 -0.115274
v 0.042357 0.502997 -0.084195
v 0.015542 0.502997 -0.111010
v -0.011207 0.457118 -0.111010
v -0.011207 0.411125 -0.084195
v 0.015542 0.411125 -0.057446
v 0.042357 0.457118 -0.057446
v 0.299507 0.001308 -0.423709
v 0.326256 0.001308 -0.396960
v 0.326256 0.457118 -0.370146
v 0.326256 0.411125 -0.396960
v 0.299507 0.411125 -0.423709
v -0.008928 0.001308 -0.396960
v 0.017821 0.001308 -0.423709
v 0.017821 0.502997 -0.370146
v 0.044636 0.502997 -0.396960
v 0.044636 0.457118 -0.423709
v 0.017821 0.411125 -0.423709
v -0.008928 0.411125 -0.396960
v -0.008928 0.457118 -0.370146
v 0.299507 0.289326 -0.088525
v 0.188285 0.457118 -0.088525
v 0.214124 0.326144 -0.088525
v 0.200696 0.502997 -0.396960
v 0.299507 0.502997 -0.292965
v 0.207762 0.457118 -0.423709
v 0.183975 0.502997 -0.288584
v 0.208768 0.408479 -0.423709
v -0.008928 0.313155 -0.115274
v -0.008928 0.179705 -0.115274
v 0.017821 0.190539 -0.088525
v 0.017821 0.289735 -0.088525
v -0.008928 0.237131 -0.131652
v 0.058790 0.212020 -0.088525
vn -0.0000 -0.0000 -1.0000
vn -1.0000 -0.0000 -0.0000
vn -0.0000 1.0000 -0.0000
vn 0.9992 -0.0275 -0.0297
vn -0.0017 -0.0025 1.0000
vn 0.6537 0.3811 0.6537
vn -0.8166 0.5160 -0.2587
vn -0.6537 0.3811 0.6537
vn 0.7071 -0.0000 -0.7071
vn 0.9079 0.3914 -0.1500
vn 0.6481 -0.1989 0.7351
vn -0.0076 0.5037 0.8639
vn -0.7071 -0.0000 0.7071
vn -0.8639 0.5037 -0.0000
vn -0.7071 -0.0000 -0.7071
vn -0.8106 0.4726 -0.3458
vn -0.0000 -1.0000 -0.0000
vn 0.9533 0.1521 -0.2608
vn 0.6537 0.3811 -0.6537
vn 0.9898 0.1310 -0.0565
vn 0.9600 0.0542 -0.2748
vn -0.5085 0.6949 -0.5085
vn 0.0514 0.9415 -0.3331
vn -0.0000 0.5037 -0.8639
vn -0.5159 0.8564 0.0196
vn 0.7071 -0.0000 0.7071
vn 0.8006 -0.1725 0.5738
vn 0.4300 -0.4210 0.7986
vn 0.7796 0.5547 0.2908
vn 0.6557 0.1870 0.7315
vn -0.0000 -0.0000 1.0000
vn -0.0297 -0.0275 -0.9992
vn 1.0000 -0.0025 0.0017
vn -0.2587 0.5160 0.8166
vn -0.1500 0.3914 -0.9079
vn 0.7351 -0.1989 -0.6481
vn 0.8639 0.5037 0.0076
vn -0.0000 0.5037 0.8639
vn -0.3458 0.4726 0.8106
vn -0.2608 0.1521 -0.9533
vn -0.6537 0.3811 -0.6537
vn -0.0565 0.1310 -0.9898
vn -0.2748 0.0542 -0.9600
vn -0.5085 0.6949 0.5085
vn -0.3331 0.9415 -0.0514
vn 0.0196 0.8564 0.5159
vn 0.5738 -0.1725 -0.8006
vn 0.7986 -0.4210 -0.4300
vn 0.2908 0.5547 -0.7796
vn 0.7315 0.1870 -0.6557
vn 1.0000 -0.0000 -0.0000
vn 0.0297 -0.0275 0.9992
vn -1.0000 -0.0025 -0.0017
vn 0.2587 0.5160 -0.8166
vn 0.1500 0.3914 0.9079
vn -0.7351 -0.1989 0.6481
vn -0.8639 0.5037 -0.0076
vn 0.3458 0.4726 -0.8106
vn 0.2608 0.1521 0.9533
vn 0.0565 0.1310 0.9898
vn 0.2748 0.0542 0.9600
vn 0.5085 0.6949 -0.5085
vn 0.3331 0.9415 0.0514
vn 0.8639 0.5037 -0.0000
vn -0.0196 0.8564 -0.5159
vn -0.5738 -0.1725 0.8006
vn -0.7986 -0.4210 0.4300
vn -0.2908 0.5547 0.7796
vn -0.7315 0.1870 0.6557
vt 0.676654 0.346375
vt 0.676654 0.235498
vt 0.676654 0.229912
vt 0.684066 0.346375
vt 0.684066 0.235498
vt 0.683422 0.229912
vt 0.679502 0.229912
vt 0.679478 0.235819
vt 0.677297 0.235498
vt 0.677297 0.346375
vt 0.683422 0.224340
vt 0.684066 0.224340
vt 0.684121 0.224340
vt 0.683477 0.224340
vt 0.677942 0.224340
vt 0.677297 0.224340
vt 0.680073 0.224340
vt 0.679672 0.224340
vt 0.677297 0.242000
vt 0.679349 0.237528
vt 0.679970 0.229912
vt 0.683477 0.229912
vt 0.684121 0.235498
vt 0.684066 0.241950
vt 0.683082 0.248313
vt 0.684066 0.250922
vt 0.684709 0.346375
vt 0.684709 0.252238
vt 0.684709 0.245264
vt 0.684709 0.239106
vt 0.684764 0.235498
vt 0.684764 0.229912
vt 0.684709 0.229912
vt 0.684709 0.235498
s 0
usemtl Material
f 16/1/1 18/2/1 17/3/1 4/3/1 3/2/1 1/1/1
f 21/4/2 25/5/2 24/6/2 33/7/2 35/8/2 19/9/2 15/10/2
f 23/11/3 22/12/3 10/13/3 9/14/3 6/15/3 5/16/3 32/16/3 34/17/3 31/18/3
f 2/10/4 28/19/4 30/20/4 29/21/4 14/22/4 13/23/4 39/24/4 41/25/4 38/26/4 7/4/4
f 8/27/5 37/28/5 40/29/5 36/30/5 12/31/5 11/32/5 27/33/5 26/34/5 20/27/5
f 9/14/6 10/13/6 11/32/6 12/31/6 13/23/6 14/22/6
f 33/7/7 31/18/7 19/9/7
f 22/12/8 23/11/8 24/6/8 25/5/8 26/34/8 27/33/8
f 1/1/9 3/2/9 28/19/9 2/10/9
f 6/15/10 9/14/10 14/22/10 29/21/10
f 12/31/11 36/30/11 39/24/11 13/23/11
f 10/13/12 22/12/12 27/33/12 11/32/12
f 25/5/13 21/4/13 20/27/13 26/34/13
f 23/11/14 31/18/14 33/7/14 24/6/14
f 18/2/15 16/1/15 15/10/15 19/9/15
f 18/2/16 31/18/16 17/3/16
f 7/4/17 8/27/17 20/27/17 21/4/17 15/10/17 16/1/17 1/1/17 2/10/17
f 6/15/18 28/19/18 3/2/18
f 4/3/19 6/15/19 3/2/19
f 5/16/19 6/15/19 4/3/19
f 28/19/20 6/15/20 30/20/20
f 29/21/21 30/20/21 6/15/21
f 19/9/2 35/8/2 33/7/2
f 19/9/22 31/18/22 18/2/22
f 17/3/23 31/18/23 34/17/23
f 17/3/24 32/16/24 5/16/24 4/3/24
f 34/17/25 32/16/25 17/3/25
f 38/26/26 37/28/26 8/27/26 7/4/26
f 40/29/27 41/25/27 36/30/27
f 36/30/28 41/25/28 39/24/28
f 41/25/29 40/29/29 38/26/29
f 37/28/30 38/26/30 40/29/30
f 57/1/2 59/2/2 58/3/2 45/3/2 44/2/2 42/1/2
f 62/4/31 66/5/31 65/6/31 74/7/31 76/8/31 60/9/31 56/10/31
f 64/11/3 63/12/3 51/13/3 50/14/3 47/15/3 46/16/3 73/16/3 75/17/3 72/18/3
f 43/10/32 69/19/32 71/20/32 70/21/32 55/22/32 54/23/32 80/24/32 82/25/32 79/26/32 48/4/32
f 49/27/33 78/28/33 81/29/33 77/30/33 53/31/33 52/32/33 68/33/33 67/34/33 61/27/33
f 50/14/19 51/13/19 52/32/19 53/31/19 54/23/19 55/22/19
f 74/7/34 72/18/34 60/9/34
f 63/12/6 64/11/6 65/6/6 66/5/6 67/34/6 68/33/6
f 42/1/15 44/2/15 69/19/15 43/10/15
f 47/15/35 50/14/35 55/22/35 70/21/35
f 53/31/36 77/30/36 80/24/36 54/23/36
f 51/13/37 63/12/37 68/33/37 52/32/37
f 66/5/26 62/4/26 61/27/26 67/34/26
f 64/11/38 72/18/38 74/7/38 65/6/38
f 59/2/13 57/1/13 56/10/13 60/9/13
f 59/2/39 72/18/39 58/3/39
f 48/4/17 49/27/17 61/27/17 62/4/17 56/10/17 57/1/17 42/1/17 43/10/17
f 47/15/40 69/19/40 44/2/40
f 45/3/41 47/15/41 44/2/41
f 46/16/41 47/15/41 45/3/41
f 69/19/42 47/15/42 71/20/42
f 70/21/43 71/20/43 47/15/43
f 60/9/31 76/8/31 74/7/31
f 60/9/44 72/18/44 59/2/44
f 58/3/45 72/18/45 75/17/45
f 58/3/14 73/16/14 46/16/14 45/3/14
f 75/17/46 73/16/46 58/3/46
f 79/26/9 78/28/9 49/27/9 48/4/9
f 81/29/47 82/25/47 77/30/47
f 77/30/48 82/25/48 80/24/48
f 82/25/49 81/29/49 79/26/49
f 78/28/50 79/26/50 81/29/50
f 98/1/51 100/2/51 99/3/51 86/3/51 85/2/51 83/1/51
f 103/4/1 107/5/1 106/6/1 115/7/1 117/8/1 101/9/1 97/10/1
f 105/11/3 104/12/3 92/13/3 91/14/3 88/15/3 87/16/3 114/16/3 116/17/3 113/18/3
f 84/10/52 110/19/52 112/20/52 111/21/52 96/22/52 95/23/52 121/24/52 123/25/52 120/26/52 89/4/52
f 90/27/53 119/28/53 122/29/53 118/30/53 94/31/53 93/32/53 109/33/53 108/34/53 102/27/53
f 91/14/8 92/13/8 93/32/8 94/31/8 95/23/8 96/22/8
f 115/7/54 113/18/54 101/9/54
f 104/12/41 105/11/41 106/6/41 107/5/41 108/34/41 109/33/41
f 83/1/26 85/2/26 110/19/26 84/10/26
f 88/15/55 91/14/55 96/22/55 111/21/55
f 94/31/56 118/30/56 121/24/56 95/23/56
f 92/13/57 104/12/57 109/33/57 93/32/57
f 107/5/15 103/4/15 102/27/15 108/34/15
f 105/11/24 113/18/24 115/7/24 106/6/24
f 100/2/9 98/1/9 97/10/9 101/9/9
f 100/2/58 113/18/58 99/3/58
f 89/4/17 90/27/17 102/27/17 103/4/17 97/10/17 98/1/17 83/1/17 84/10/17
f 88/15/59 110/19/59 85/2/59
f 86/3/6 88/15/6 85/2/6
f 87/16/6 88/15/6 86/3/6
f 110/19/60 88/15/60 112/20/60
f 111/21/61 112/20/61 88/15/61
f 101/9/1 117/8/1 115/7/1
f 101/9/62 113/18/62 100/2/62
f 99/3/63 113/18/63 116/17/63
f 99/3/64 114/16/64 87/16/64 86/3/64
f 116/17/65 114/16/65 99/3/65
f 120/26/13 119/28/13 90/27/13 89/4/13
f 122/29/66 123/25/66 118/30/66
f 118/30/67 123/25/67 121/24/67
f 123/25/68 122/29/68 120/26/68
f 119/28/69 120/26/69 122/29/69
f 139/1/51 141/2/51 140/3/51 127/3/51 126/2/51 124/1/51
f 144/4/1 148/5/1 147/6/1 156/7/1 158/8/1 142/9/1 138/10/1
f 146/11/3 145/12/3 133/13/3 132/14/3 129/15/3 128/16/3 155/16/3 157/17/3 154/18/3
f 125/10/52 151/19/52 153/20/52 152/21/52 137/22/52 136/23/52 162/24/52 164/25/52 161/26/52 130/4/52
f 131/27/53 160/28/53 163/29/53 159/30/53 135/31/53 134/32/53 150/33/53 149/34/53 143/27/53
f 132/14/8 133/13/8 134/32/8 135/31/8 136/23/8 137/22/8
f 156/7/54 154/18/54 142/9/54
f 145/12/41 146/11/41 147/6/41 148/5/41 149/34/41 150/33/41
f 124/1/26 126/2/26 151/19/26 125/10/26
f 129/15/55 132/14/55 137/22/55 152/21/55
f 135/31/56 159/30/56 162/24/56 136/23/56
f 133/13/57 145/12/57 150/33/57 134/32/57
f 148/5/15 144/4/15 143/27/15 149/34/15
f 146/11/24 154/18/24 156/7/24 147/6/24
f 141/2/9 139/1/9 138/10/9 142/9/9
f 141/2/58 154/18/58 140/3/58
f 130/4/17 131/27/17 143/27/17 144/4/17 138/10/17 139/1/17 124/1/17 125/10/17
f 129/15/59 151/19/59 126/2/59
f 127/3/6 129/15/6 126/2/6
f 128/16/6 129/15/6 127/3/6
f 151/19/60 129/15/60 153/20/60
f 152/21/61 153/20/61 129/15/61
f 142/9/1 158/8/1 156/7/1
f 142/9/62 154/18/62 141/2/62
f 140/3/63 154/18/63 157/17/63
f 140/3/64 155/16/64 128/16/64 127/3/64
f 157/17/65 155/16/65 140/3/65
f 161/26/13 160/28/13 131/27/13 130/4/13
f 163/29/66 164/25/66 159/30/66
f 159/30/67 164/25/67 162/24/67
f 164/25/68 163/29/68 161/26/68
f 160/28/69 161/26/69 163/29/69
