# Blender 4.1.1
# www.blender.org
mtllib Rock_3.mtl
o Plane.001
v 0.383922 1.334771 0.130813
v 0.698938 1.334771 0.423956
v 0.090779 1.334771 0.445828
v 0.405795 1.334771 0.738971
v 0.006782 1.127266 0.448849
v 0.380901 1.127266 0.046815
v 0.408816 1.127266 0.822969
v 0.782935 1.127266 0.420935
v 0.202835 1.374594 0.256201
v 0.573549 1.374594 0.242869
v 0.586882 1.374594 0.613583
v 0.216168 1.374594 0.626915
v 0.671470 -0.030479 0.692297
v 0.652264 -0.030479 0.158281
v 0.137454 -0.030479 0.711503
v 0.118248 -0.030479 0.177487
v 0.118248 1.131192 0.177487
v 0.137454 1.131192 0.711503
v 0.652264 1.131192 0.158281
v 0.394859 1.458164 0.434892
v 0.671470 1.131192 0.692297
v 0.782935 -0.034406 0.420935
v 0.408816 -0.034406 0.822969
v 0.380901 -0.034406 0.046815
v 0.006782 -0.034406 0.448849
v -0.386842 0.770655 0.312220
v -0.141497 0.770655 0.312220
v -0.386842 0.770655 0.557564
v -0.141497 0.770655 0.557564
v -0.420728 0.652345 0.591450
v -0.420728 0.652345 0.278334
v -0.107611 0.652345 0.591450
v -0.107611 0.652345 0.278334
v -0.413723 0.793360 0.434892
v -0.264170 0.793360 0.285338
v -0.114616 0.793360 0.434892
v -0.264170 0.793360 0.584446
v -0.048736 -0.029136 0.434892
v -0.264170 -0.029136 0.219459
v -0.264170 -0.029136 0.650325
v -0.479603 -0.029136 0.434892
v -0.479603 0.654583 0.434892
v -0.264170 0.654583 0.650325
v -0.264170 0.654583 0.219459
v -0.264170 0.841008 0.434892
v -0.048736 0.654583 0.434892
v -0.107611 -0.031375 0.278334
v -0.107611 -0.031375 0.591450
v -0.420728 -0.031375 0.278334
v -0.420728 -0.031375 0.591450
v -0.060168 1.713161 -0.456724
v -0.046131 1.713161 0.090462
v -0.607354 1.713161 -0.442686
v -0.593317 1.713161 0.104499
v -0.684868 1.449209 -0.516323
v 0.013469 1.449209 -0.534238
v -0.666954 1.449209 0.182014
v 0.031383 1.449209 0.164099
v -0.335299 1.763816 -0.509659
v 0.006804 1.763816 -0.184669
v -0.318186 1.763816 0.157434
v -0.660289 1.763816 -0.167556
v -0.314417 -0.018969 0.304364
v 0.153734 -0.018969 -0.188438
v -0.807219 -0.018969 -0.163786
v -0.339068 -0.018969 -0.656588
v -0.339068 1.454203 -0.656588
v -0.807219 1.454203 -0.163786
v 0.153734 1.454203 -0.188438
v -0.326742 1.870120 -0.176112
v -0.314417 1.454203 0.304364
v 0.031383 -0.023963 0.164099
v -0.666954 -0.023963 0.182014
v 0.013469 -0.023963 -0.534238
v -0.684868 -0.023963 -0.516323
v 0.201607 1.042261 -0.305017
v 0.469966 1.042261 -0.520399
v 0.416989 1.042261 -0.036658
v 0.685348 1.042261 -0.252040
v 0.409672 0.876328 0.030156
v 0.134794 0.876328 -0.312334
v 0.752161 0.876328 -0.244723
v 0.477283 0.876328 -0.587212
v 0.279894 1.074106 -0.147238
v 0.312187 1.074106 -0.442111
v 0.607060 1.074106 -0.409818
v 0.574767 1.074106 -0.114945
v 0.679120 -0.011434 -0.467652
v 0.254353 -0.011434 -0.514171
v 0.632601 -0.011434 -0.042886
v 0.207835 -0.011434 -0.089404
v 0.207835 0.879467 -0.089404
v 0.632601 0.879467 -0.042886
v 0.254353 0.879467 -0.514171
v 0.443477 1.140934 -0.278528
v 0.679120 0.879467 -0.467652
v 0.477283 -0.014573 -0.587212
v 0.752161 -0.014573 -0.244723
v 0.134794 -0.014573 -0.312334
v 0.409672 -0.014573 0.030156
v 0.049264 0.392299 -0.642693
v 0.155176 0.392299 -0.727697
v 0.134268 0.392299 -0.536780
v 0.240180 0.392299 -0.621785
v 0.131380 0.326810 -0.510412
v 0.022895 0.326810 -0.645581
v 0.266549 0.326810 -0.618897
v 0.158064 0.326810 -0.754066
v 0.080161 0.404867 -0.580423
v 0.092906 0.404867 -0.696800
v 0.209283 0.404867 -0.684055
v 0.196538 0.404867 -0.567678
v 0.272000 -0.022065 -0.618300
v 0.158661 -0.022065 -0.759517
v 0.017444 -0.022065 -0.646178
v 0.130783 -0.022065 -0.504961
v 0.051722 0.328049 -0.557598
v 0.219363 0.328049 -0.539239
v 0.070081 0.328049 -0.725239
v 0.144722 0.431241 -0.632239
v 0.237722 0.328049 -0.706880
v 0.222643 -0.022065 -0.535152
v 0.241808 -0.022065 -0.710159
v 0.066801 -0.022065 -0.729325
v 0.047636 -0.022065 -0.554318
v -0.714423 0.392298 0.339058
v -0.608510 0.392298 0.254054
v -0.629418 0.392298 0.444971
v -0.523506 0.392298 0.359966
v -0.693605 -0.023133 0.256512
v -0.544323 -0.023133 0.442513
v -0.711965 -0.023133 0.424153
v -0.605622 -0.024372 0.227685
v -0.632306 0.326810 0.471340
v -0.740792 0.326810 0.336170
v -0.497137 0.326810 0.362854
v -0.605622 0.326810 0.227685
v -0.683525 0.404866 0.401328
v -0.670780 0.404866 0.284951
v -0.554403 0.404866 0.297696
v -0.567148 0.404866 0.414073
v -0.497137 -0.024372 0.362854
v -0.740792 -0.024372 0.336170
v -0.632306 -0.024372 0.471340
v -0.525964 -0.023133 0.274871
v -0.711965 0.328049 0.424153
v -0.544323 0.328049 0.442513
v -0.693605 0.328049 0.256512
v -0.618964 0.431241 0.349512
v -0.525964 0.328049 0.274871
v -0.121047 0.392298 0.681657
v -0.015135 0.392298 0.596652
v -0.036043 0.392298 0.787569
v 0.069870 0.392298 0.702565
v -0.038931 0.326810 0.813938
v -0.147416 0.326810 0.678769
v 0.096239 0.326810 0.705453
v -0.012247 0.326810 0.570284
v -0.090150 0.404866 0.743927
v -0.077405 0.404866 0.627550
v 0.038972 0.404866 0.640295
v 0.026227 0.404866 0.756672
v 0.067412 -0.011614 0.617470
v -0.100230 -0.011614 0.599111
v 0.049052 -0.011614 0.785111
v -0.118589 -0.011614 0.766752
v -0.118589 0.328049 0.766752
v 0.049052 0.328049 0.785111
v -0.100230 0.328049 0.599111
v -0.025589 0.431241 0.692111
v 0.067412 0.328049 0.617470
v -0.012247 -0.012853 0.570284
v 0.096239 -0.012853 0.705453
v -0.147416 -0.012853 0.678769
v -0.038931 -0.012853 0.813938
v 0.618973 0.392299 0.014518
v 0.724885 0.392299 -0.070486
v 0.703977 0.392299 0.120430
v 0.809889 0.392299 0.035426
v 0.701089 0.326810 0.146799
v 0.592604 0.326810 0.011630
v 0.836258 0.326810 0.038314
v 0.727773 0.326810 -0.096855
v 0.649870 0.404867 0.076788
v 0.662615 0.404867 -0.039589
v 0.778992 0.404867 -0.026844
v 0.766247 0.404867 0.089533
v 0.807431 -0.013969 -0.049669
v 0.639790 -0.013969 -0.068028
v 0.789072 -0.013969 0.117972
v 0.621431 -0.013969 0.099613
v 0.621431 0.328049 0.099613
v 0.789072 0.328049 0.117972
v 0.639790 0.328049 -0.068028
v 0.714431 0.431241 0.024972
v 0.807431 0.328049 -0.049669
v 0.727773 -0.015208 -0.096855
v 0.836258 -0.015208 0.038314
v 0.592604 -0.015208 0.011630
v 0.701089 -0.015208 0.146799
vn -0.8462 0.3792 -0.3743
vn -0.4341 0.3792 -0.8171
vn -0.3743 0.3792 0.8462
vn -0.8171 0.3792 0.4341
vn 0.3743 0.3792 -0.8462
vn 0.8171 0.3792 -0.4341
vn 0.3756 0.9267 -0.0135
vn -0.0135 0.9267 -0.3756
vn -0.3756 0.9267 0.0135
vn 0.0135 0.9267 0.3756
vn 0.8462 0.3792 0.3743
vn 0.4341 0.3792 0.8171
vn 0.4454 -0.0000 0.8953
vn -0.9250 -0.0000 -0.3800
vn -0.4454 -0.0000 -0.8953
vn -0.3800 -0.0000 0.9250
vn -0.8953 -0.0000 0.4454
vn 0.3800 -0.0000 -0.9250
vn 0.8953 -0.0000 -0.4454
vn 0.9250 -0.0000 0.3800
vn -0.8745 0.3792 0.3024
vn -0.8745 0.3792 -0.3024
vn 0.3024 0.3792 0.8745
vn -0.3024 0.3792 0.8745
vn -0.3024 0.3792 -0.8745
vn 0.3024 0.3792 -0.8745
vn 0.2657 0.9267 -0.2657
vn -0.2657 0.9267 -0.2657
vn -0.2657 0.9267 0.2657
vn 0.2657 0.9267 0.2657
vn 0.8745 0.3792 -0.3024
vn 0.8745 0.3792 0.3024
vn -0.9360 -0.0000 0.3520
vn -0.9360 -0.0000 -0.3520
vn 0.3520 -0.0000 0.9360
vn -0.3520 -0.0000 0.9360
vn -0.3520 -0.0000 -0.9360
vn 0.3520 -0.0000 -0.9360
vn 0.9360 -0.0000 -0.3520
vn 0.9360 -0.0000 0.3520
vn -0.3248 0.3792 -0.8664
vn 0.2799 0.3792 -0.8820
vn -0.8664 0.3792 0.3248
vn -0.8820 0.3792 -0.2799
vn 0.8664 0.3792 -0.3248
vn 0.8820 0.3792 0.2799
vn 0.2725 0.9267 0.2588
vn 0.2588 0.9267 -0.2725
vn -0.2725 0.9267 -0.2588
vn -0.2588 0.9267 0.2725
vn 0.3248 0.3792 0.8664
vn -0.2799 0.3792 0.8820
vn 0.9447 -0.0000 0.3279
vn 0.3759 -0.0000 0.9267
vn -0.3279 -0.0000 0.9447
vn -0.3759 -0.0000 -0.9267
vn 0.3279 -0.0000 -0.9447
vn -0.9267 -0.0000 0.3759
vn -0.9447 -0.0000 -0.3279
vn 0.9267 -0.0000 -0.3759
vn -0.4927 0.3792 0.7832
vn -0.8713 0.3792 0.3115
vn 0.7832 0.3792 0.4927
vn 0.3115 0.3792 0.8713
vn -0.7832 0.3792 -0.4927
vn -0.3115 0.3792 -0.8713
vn 0.0409 0.9267 -0.3736
vn -0.3736 0.9267 -0.0409
vn -0.0409 0.9267 0.3736
vn 0.3736 0.9267 0.0409
vn 0.4927 0.3792 -0.7832
vn 0.8713 0.3792 -0.3115
vn 0.5097 -0.0000 -0.8604
vn 0.9503 -0.0000 -0.3114
vn -0.5097 -0.0000 0.8604
vn -0.9503 -0.0000 0.3114
vn 0.8604 -0.0000 0.5097
vn 0.3114 -0.0000 0.9503
vn -0.8604 -0.0000 -0.5097
vn -0.3114 -0.0000 -0.9503
vn -0.9501 0.0142 0.3117
vn -0.3117 0.0142 -0.9501
vn 0.5099 0.0142 -0.8601
vn -0.8601 0.0142 -0.5099
vn 0.3117 0.0142 0.9501
vn -0.5099 0.0142 0.8601
vn 0.8601 0.0142 0.5099
vn 0.9501 0.0142 -0.3117
vt 0.678771 0.168233
vt 0.667107 0.226303
vt 0.695558 0.226289
vt 0.695558 0.349470
vt 0.667107 0.349501
vt 0.694964 0.226289
vt 0.666484 0.226303
vt 0.666484 0.349501
vt 0.694964 0.349470
vt 0.694691 0.226289
vt 0.694691 0.349470
vt 0.666683 0.226303
vt 0.666683 0.349501
vt 0.666667 0.226303
vt 0.666667 0.349501
vt 0.666674 0.226303
vt 0.695248 0.226289
vt 0.695248 0.349470
vt 0.666674 0.349501
vt 0.694731 0.226260
vt 0.666676 0.226270
vt 0.666676 0.349532
vt 0.694731 0.349528
vt 0.666579 0.226270
vt 0.695337 0.226260
vt 0.695337 0.349528
vt 0.666579 0.349532
vt 0.695045 0.226260
vt 0.666520 0.226270
vt 0.666520 0.349532
vt 0.695045 0.349528
vt 0.667140 0.226270
vt 0.667140 0.349532
vt 0.695589 0.226260
vt 0.695589 0.349528
vt 0.666752 0.226270
vt 0.666752 0.349532
vt 0.667063 0.226580
vt 0.695358 0.226548
vt 0.695358 0.349401
vt 0.667063 0.349414
vt 0.666519 0.226580
vt 0.666519 0.349414
vt 0.694966 0.226548
vt 0.694966 0.349401
vt 0.695445 0.226548
vt 0.667382 0.226580
vt 0.667382 0.349414
vt 0.695445 0.349401
vt 0.695592 0.226548
vt 0.695592 0.349401
vt 0.666776 0.226580
vt 0.666776 0.349414
vt 0.695504 0.226548
vt 0.695504 0.349401
vt 0.667387 0.226251
vt 0.695596 0.226282
vt 0.695596 0.349446
vt 0.667387 0.349432
vt 0.667063 0.226251
vt 0.667063 0.349432
vt 0.666517 0.226251
vt 0.694963 0.226282
vt 0.694963 0.349446
vt 0.666517 0.349432
vt 0.666778 0.226251
vt 0.666778 0.349432
vt 0.695358 0.226282
vt 0.695358 0.349446
vt 0.695477 0.226282
vt 0.695477 0.349446
vt 0.695460 0.226282
vt 0.695460 0.349446
vt 0.694948 0.226268
vt 0.666786 0.226268
vt 0.666706 0.349515
vt 0.695041 0.349513
vt 0.695424 0.226268
vt 0.667370 0.226268
vt 0.667234 0.349515
vt 0.695016 0.349518
vt 0.695578 0.226268
vt 0.695477 0.349513
vt 0.695411 0.226268
vt 0.696231 0.349518
vt 0.695358 0.226268
vt 0.666501 0.226268
vt 0.666551 0.349512
vt 0.695358 0.349512
vt 0.667091 0.349512
vt 0.667070 0.226268
vt 0.694765 0.226367
vt 0.666652 0.226381
vt 0.666652 0.349501
vt 0.694765 0.349470
vt 0.666564 0.226381
vt 0.695425 0.226367
vt 0.695425 0.349470
vt 0.666564 0.349501
vt 0.695137 0.226367
vt 0.666553 0.226381
vt 0.666553 0.349501
vt 0.695137 0.349470
vt 0.667189 0.226381
vt 0.667189 0.349501
vt 0.695632 0.226367
vt 0.695632 0.349470
vt 0.666828 0.226381
vt 0.666828 0.349501
vt 0.695252 0.226220
vt 0.667119 0.226220
vt 0.667119 0.349506
vt 0.695252 0.349506
vt 0.695567 0.226220
vt 0.695567 0.349506
vt 0.666691 0.226220
vt 0.666691 0.349506
vt 0.694974 0.226220
vt 0.694974 0.349506
vt 0.694687 0.226220
vt 0.666642 0.226220
vt 0.666642 0.349506
vt 0.694687 0.349506
vt 0.666730 0.226220
vt 0.666730 0.349506
vt 0.666483 0.226220
vt 0.666483 0.349506
vt 0.666541 0.226249
vt 0.694983 0.226254
vt 0.694983 0.349558
vt 0.666541 0.349549
vt 0.666767 0.226249
vt 0.666767 0.349549
vt 0.695556 0.226254
vt 0.695556 0.349558
vt 0.695520 0.226254
vt 0.667413 0.226249
vt 0.667413 0.349549
vt 0.695520 0.349512
vt 0.667052 0.226249
vt 0.695357 0.226254
vt 0.695357 0.349558
vt 0.667052 0.349549
vt 0.695623 0.226254
vt 0.695623 0.349558
s 0
usemtl Material
f 17/1/1 5/1/1 3/1/1 9/1/1
f 6/1/2 17/1/2 9/1/2 1/1/2
f 18/1/3 7/1/3 4/1/3 12/1/3
f 5/1/4 18/1/4 12/1/4 3/1/4
f 19/1/5 6/1/5 1/1/5 10/1/5
f 8/1/6 19/1/6 10/1/6 2/1/6
f 2/1/7 10/1/7 20/1/7 11/1/7
f 10/1/8 1/1/8 9/1/8 20/1/8
f 20/1/9 9/1/9 3/1/9 12/1/9
f 11/1/10 20/1/10 12/1/10 4/1/10
f 21/1/11 8/1/11 2/1/11 11/1/11
f 7/1/12 21/1/12 11/1/12 4/1/12
f 21/2/13 7/3/13 23/4/13 13/5/13
f 5/6/14 17/7/14 16/8/14 25/9/14
f 17/7/15 6/10/15 24/11/15 16/8/15
f 7/3/16 18/12/16 15/13/16 23/4/16
f 18/12/17 5/6/17 25/9/17 15/13/17
f 6/10/18 19/14/18 14/15/18 24/11/18
f 19/16/19 8/17/19 22/18/19 14/19/19
f 8/17/20 21/2/20 13/5/20 22/18/20
f 42/1/21 30/1/21 28/1/21 34/1/21
f 31/1/22 42/1/22 34/1/22 26/1/22
f 43/1/23 32/1/23 29/1/23 37/1/23
f 30/1/24 43/1/24 37/1/24 28/1/24
f 44/1/25 31/1/25 26/1/25 35/1/25
f 33/1/26 44/1/26 35/1/26 27/1/26
f 27/1/27 35/1/27 45/1/27 36/1/27
f 35/1/28 26/1/28 34/1/28 45/1/28
f 45/1/29 34/1/29 28/1/29 37/1/29
f 36/1/30 45/1/30 37/1/30 29/1/30
f 46/1/31 33/1/31 27/1/31 36/1/31
f 32/1/32 46/1/32 36/1/32 29/1/32
f 30/20/33 42/21/33 41/22/33 50/23/33
f 42/24/34 31/25/34 49/26/34 41/27/34
f 32/28/35 43/29/35 40/30/35 48/31/35
f 43/29/36 30/20/36 50/23/36 40/30/36
f 31/25/37 44/32/37 39/33/37 49/26/37
f 44/32/38 33/34/38 47/35/38 39/33/38
f 33/34/39 46/36/39 38/37/39 47/35/39
f 46/36/40 32/28/40 48/31/40 38/37/40
f 67/1/41 55/1/41 53/1/41 59/1/41
f 56/1/42 67/1/42 59/1/42 51/1/42
f 68/1/43 57/1/43 54/1/43 62/1/43
f 55/1/44 68/1/44 62/1/44 53/1/44
f 69/1/45 56/1/45 51/1/45 60/1/45
f 58/1/46 69/1/46 60/1/46 52/1/46
f 52/1/47 60/1/47 70/1/47 61/1/47
f 60/1/48 51/1/48 59/1/48 70/1/48
f 70/1/49 59/1/49 53/1/49 62/1/49
f 61/1/50 70/1/50 62/1/50 54/1/50
f 71/1/51 58/1/51 52/1/51 61/1/51
f 57/1/52 71/1/52 61/1/52 54/1/52
f 69/38/53 58/39/53 72/40/53 64/41/53
f 58/39/54 71/42/54 63/43/54 72/40/54
f 71/42/55 57/44/55 73/45/55 63/43/55
f 55/46/56 67/47/56 66/48/56 75/49/56
f 67/47/57 56/50/57 74/51/57 66/48/57
f 57/44/58 68/52/58 65/53/58 73/45/58
f 68/52/59 55/54/59 75/55/59 65/53/59
f 56/50/60 69/38/60 64/41/60 74/51/60
f 92/1/61 80/1/61 78/1/61 84/1/61
f 81/1/62 92/1/62 84/1/62 76/1/62
f 93/1/63 82/1/63 79/1/63 87/1/63
f 80/1/64 93/1/64 87/1/64 78/1/64
f 94/1/65 81/1/65 76/1/65 85/1/65
f 83/1/66 94/1/66 85/1/66 77/1/66
f 77/1/67 85/1/67 95/1/67 86/1/67
f 85/1/68 76/1/68 84/1/68 95/1/68
f 95/1/69 84/1/69 78/1/69 87/1/69
f 86/1/70 95/1/70 87/1/70 79/1/70
f 96/1/71 83/1/71 77/1/71 86/1/71
f 82/1/72 96/1/72 86/1/72 79/1/72
f 83/56/73 96/57/73 88/58/73 97/59/73
f 96/57/74 82/60/74 98/61/74 88/58/74
f 80/62/75 92/63/75 91/64/75 100/65/75
f 92/63/76 81/66/76 99/67/76 91/64/76
f 82/60/77 93/68/77 90/69/77 98/61/77
f 93/68/78 80/62/78 100/65/78 90/69/78
f 81/66/79 94/70/79 89/71/79 99/67/79
f 94/72/80 83/56/80 97/59/80 89/73/80
f 117/1/61 105/1/61 103/1/61 109/1/61
f 106/1/62 117/1/62 109/1/62 101/1/62
f 118/1/63 107/1/63 104/1/63 112/1/63
f 105/1/64 118/1/64 112/1/64 103/1/64
f 119/1/65 106/1/65 101/1/65 110/1/65
f 108/1/66 119/1/66 110/1/66 102/1/66
f 102/1/67 110/1/67 120/1/67 111/1/67
f 110/1/68 101/1/68 109/1/68 120/1/68
f 120/1/69 109/1/69 103/1/69 112/1/69
f 111/1/70 120/1/70 112/1/70 104/1/70
f 121/1/71 108/1/71 102/1/71 111/1/71
f 107/1/72 121/1/72 111/1/72 104/1/72
f 117/74/81 106/75/81 115/76/81 125/77/81
f 119/78/82 108/79/82 114/80/82 124/81/82
f 121/82/83 123/83/83 114/80/83 108/79/83
f 119/84/84 124/85/84 115/76/84 106/75/84
f 118/86/85 105/87/85 116/88/85 122/89/85
f 117/74/86 125/77/86 116/88/86 105/87/86
f 118/86/87 122/89/87 113/90/87 107/91/87
f 121/82/88 107/91/88 113/90/88 123/83/88
f 134/92/75 146/93/75 132/94/75 144/95/75
f 146/96/76 135/97/76 143/98/76 132/99/76
f 146/1/61 134/1/61 128/1/61 138/1/61
f 135/1/62 146/1/62 138/1/62 126/1/62
f 136/100/77 147/101/77 131/102/77 142/103/77
f 147/101/78 134/92/78 144/95/78 131/102/78
f 147/1/63 136/1/63 129/1/63 141/1/63
f 134/1/64 147/1/64 141/1/64 128/1/64
f 135/97/79 148/104/79 130/105/79 143/98/79
f 148/104/80 137/106/80 133/107/80 130/105/80
f 148/1/65 135/1/65 126/1/65 139/1/65
f 137/1/66 148/1/66 139/1/66 127/1/66
f 127/1/67 139/1/67 149/1/67 140/1/67
f 139/1/68 126/1/68 138/1/68 149/1/68
f 149/1/69 138/1/69 128/1/69 141/1/69
f 140/1/70 149/1/70 141/1/70 129/1/70
f 137/106/73 150/108/73 145/109/73 133/107/73
f 150/108/74 136/100/74 142/103/74 145/109/74
f 150/1/71 137/1/71 127/1/71 140/1/71
f 136/1/72 150/1/72 140/1/72 129/1/72
f 167/1/61 155/1/61 153/1/61 159/1/61
f 156/1/62 167/1/62 159/1/62 151/1/62
f 168/1/63 157/1/63 154/1/63 162/1/63
f 155/1/64 168/1/64 162/1/64 153/1/64
f 169/1/65 156/1/65 151/1/65 160/1/65
f 158/1/66 169/1/66 160/1/66 152/1/66
f 152/1/67 160/1/67 170/1/67 161/1/67
f 160/1/68 151/1/68 159/1/68 170/1/68
f 170/1/69 159/1/69 153/1/69 162/1/69
f 161/1/70 170/1/70 162/1/70 154/1/70
f 171/1/71 158/1/71 152/1/71 161/1/71
f 157/1/72 171/1/72 161/1/72 154/1/72
f 156/110/79 169/111/79 164/112/79 174/113/79
f 169/111/80 158/114/80 172/115/80 164/112/80
f 158/114/73 171/116/73 163/117/73 172/115/73
f 171/116/74 157/118/74 173/119/74 163/117/74
f 155/120/75 167/121/75 166/122/75 175/123/75
f 167/124/76 156/110/76 174/113/76 166/125/76
f 157/118/77 168/126/77 165/127/77 173/119/77
f 168/126/78 155/120/78 175/123/78 165/127/78
f 192/1/61 180/1/61 178/1/61 184/1/61
f 181/1/62 192/1/62 184/1/62 176/1/62
f 193/1/63 182/1/63 179/1/63 187/1/63
f 180/1/64 193/1/64 187/1/64 178/1/64
f 194/1/65 181/1/65 176/1/65 185/1/65
f 183/1/66 194/1/66 185/1/66 177/1/66
f 177/1/67 185/1/67 195/1/67 186/1/67
f 185/1/68 176/1/68 184/1/68 195/1/68
f 195/1/69 184/1/69 178/1/69 187/1/69
f 186/1/70 195/1/70 187/1/70 179/1/70
f 196/1/71 183/1/71 177/1/71 186/1/71
f 182/1/72 196/1/72 186/1/72 179/1/72
f 181/128/79 194/129/79 189/130/79 199/131/79
f 194/129/80 183/132/80 197/133/80 189/130/80
f 183/132/73 196/134/73 188/135/73 197/133/73
f 196/136/74 182/137/74 198/138/74 188/139/74
f 180/140/75 192/141/75 191/142/75 200/143/75
f 192/141/76 181/128/76 199/131/76 191/142/76
f 182/137/77 193/144/77 190/145/77 198/138/77
f 193/144/78 180/140/78 200/143/78 190/145/78
