# Blender 4.2.0
# www.blender.org
mtllib Bank.mtl
o Plane.005
v -0.160870 -0.003993 0.538460
v -0.160870 0.783372 0.538460
v -0.160870 -0.003993 -0.571075
v -0.160870 0.783372 -0.571075
v 0.589130 -0.003993 0.538460
v 0.589130 0.783372 0.538460
v 0.589130 -0.003993 -0.571075
v 0.589130 0.783372 -0.571075
v -0.134715 0.783372 0.512305
v -0.134715 0.783372 -0.544920
v 0.562974 0.783372 -0.544920
v 0.562974 0.783372 0.512305
v -0.160870 0.841212 0.538460
v -0.160870 0.841212 -0.571075
v 0.589130 0.841212 -0.571075
v 0.589130 0.841212 0.538460
v -0.134715 0.841212 0.512305
v -0.134715 0.841212 -0.544920
v 0.562974 0.841212 -0.544920
v 0.562974 0.841212 0.512305
v 0.345911 0.775544 -0.288998
v 0.345911 1.010087 -0.288998
v 0.345911 0.775544 -0.504747
v 0.345911 1.010087 -0.504747
v 0.536453 0.775544 -0.288998
v 0.536453 1.010087 -0.288998
v 0.536453 0.775544 -0.504747
v 0.536453 1.010087 -0.504747
v 0.354949 1.010087 -0.299232
v 0.354949 1.010087 -0.494513
v 0.527415 1.010087 -0.494513
v 0.527415 1.010087 -0.299232
v 0.345911 1.030259 -0.288998
v 0.345911 1.030259 -0.504747
v 0.536453 1.030259 -0.504747
v 0.536453 1.030259 -0.288998
v 0.354949 1.030259 -0.299232
v 0.354949 1.030259 -0.494513
v 0.527415 1.030259 -0.494513
v 0.527415 1.030259 -0.299232
v 0.345911 0.771101 -0.453034
v 0.345911 0.771101 -0.340710
v 0.345911 0.939388 -0.340710
v 0.345911 0.939388 -0.453034
v 0.341295 0.778612 -0.448021
v 0.341295 0.778612 -0.345723
v 0.341295 0.931877 -0.345723
v 0.341295 0.931877 -0.448021
v 0.333542 0.771101 -0.340710
v 0.333542 0.939388 -0.340710
v 0.333542 0.939388 -0.453034
v 0.333542 0.771101 -0.453034
v 0.333542 0.778612 -0.345723
v 0.333542 0.931877 -0.345723
v 0.333542 0.931877 -0.448021
v 0.333542 0.778612 -0.448021
v 0.334238 0.852567 -0.361723
v 0.334238 0.873372 -0.361723
v 0.334238 0.852567 -0.369718
v 0.334238 0.873372 -0.369718
v 0.342583 0.852567 -0.361723
v 0.342583 0.873372 -0.361723
v 0.342583 0.852567 -0.369718
v 0.342583 0.873372 -0.369718
v -0.160870 -0.009421 -0.210047
v -0.160870 -0.009421 0.182784
v -0.160870 0.291068 0.182784
v -0.160870 0.291068 -0.210047
v -0.163690 0.280100 -0.013740
v -0.183814 0.291068 0.182784
v -0.183814 0.280100 -0.195708
v -0.163690 0.280100 -0.195708
v -0.183814 -0.009421 0.182784
v -0.183814 0.291068 -0.210047
v -0.163690 0.001547 0.168446
v -0.163690 0.280100 0.168446
v -0.183814 -0.009421 -0.210047
v -0.183814 0.001547 0.168446
v -0.183814 0.001547 -0.195708
v -0.163690 0.001547 -0.195708
v -0.163690 0.280100 -0.009735
v -0.163690 0.001547 -0.009735
v -0.163690 0.001547 -0.013740
v -0.183814 0.280100 0.168446
v -0.105314 0.029632 0.552161
v -0.105314 0.295906 0.552161
v -0.105314 0.029632 0.535540
v -0.105314 0.295906 0.535540
v 0.532609 0.029632 0.552161
v 0.532609 0.295906 0.552161
v 0.532609 0.029632 0.535540
v 0.532609 0.295906 0.535540
v -0.090581 0.041042 0.552161
v -0.090581 0.284496 0.552161
v 0.517877 0.284496 0.552161
v 0.517877 0.041042 0.552161
v -0.090581 0.041042 0.539446
v -0.090581 0.284496 0.539446
v 0.517877 0.284496 0.539446
v 0.517877 0.041042 0.539446
v -0.176192 0.023502 0.232887
v -0.176192 0.289776 0.232887
v -0.159571 0.023502 0.232887
v -0.159571 0.289776 0.232887
v -0.176192 0.023502 0.487297
v -0.176192 0.289776 0.487297
v -0.159571 0.023502 0.487297
v -0.159571 0.289776 0.487297
v -0.176192 0.034912 0.247619
v -0.176192 0.278366 0.247619
v -0.176192 0.278366 0.472564
v -0.176192 0.034912 0.472564
v -0.163477 0.034912 0.247619
v -0.163477 0.278366 0.247619
v -0.163477 0.278366 0.472564
v -0.163477 0.034912 0.472564
v -0.176192 0.023502 -0.508313
v -0.176192 0.289776 -0.508313
v -0.159571 0.023502 -0.508313
v -0.159571 0.289776 -0.508313
v -0.176192 0.023502 -0.253903
v -0.176192 0.289776 -0.253903
v -0.159571 0.023502 -0.253903
v -0.159571 0.289776 -0.253903
v -0.176192 0.034912 -0.493580
v -0.176192 0.278366 -0.493580
v -0.176192 0.278366 -0.268636
v -0.176192 0.034912 -0.268636
v -0.163477 0.034912 -0.493580
v -0.163477 0.278366 -0.493580
v -0.163477 0.278366 -0.268636
v -0.163477 0.034912 -0.268636
v -0.221805 0.520270 0.229417
v -0.221805 0.737829 0.229417
v -0.221805 0.737829 0.296644
v -0.221805 0.655614 0.296644
v -0.221805 0.737829 0.367136
v -0.221805 0.737829 0.456475
v -0.221805 0.655762 0.377227
v -0.221805 0.520270 0.460036
v -0.221805 0.520270 0.377227
v -0.221805 0.609757 0.331370
v -0.221805 0.573398 0.296644
v -0.221805 0.520270 0.296644
v -0.221806 0.520270 -0.023611
v -0.221805 0.737829 -0.023611
v -0.221805 0.737829 0.039164
v -0.221805 0.617474 0.121083
v -0.221805 0.737829 0.121083
v -0.221805 0.737829 0.184451
v -0.221805 0.520270 0.184451
v -0.221805 0.520270 0.121083
v -0.221805 0.639735 0.039609
v -0.221806 0.520270 0.039609
v -0.221806 0.520270 -0.115918
v -0.221806 0.556184 -0.126603
v -0.221806 0.556184 -0.203179
v -0.221806 0.520270 -0.213716
v -0.221806 0.520270 -0.282426
v -0.221806 0.737829 -0.200656
v -0.221805 0.737829 -0.127345
v -0.221806 0.520270 -0.045574
v -0.221806 0.603227 -0.188635
v -0.221806 0.603227 -0.140701
v -0.221806 0.681436 -0.164742
v -0.221899 0.519884 -0.496962
v -0.221806 0.737829 -0.496721
v -0.221899 0.737798 -0.371360
v -0.221899 0.694178 -0.428926
v -0.221946 0.652323 -0.429083
v -0.221899 0.611159 -0.429032
v -0.221946 0.567177 -0.428725
v -0.162655 0.520270 0.229417
v -0.162655 0.737829 0.229417
v -0.162655 0.737829 0.296644
v -0.162655 0.655614 0.296644
v -0.162655 0.737829 0.367136
v -0.162655 0.737829 0.456475
v -0.162655 0.655762 0.377227
v -0.162655 0.520270 0.460036
v -0.162655 0.520270 0.377227
v -0.162655 0.609757 0.331370
v -0.162655 0.573398 0.296644
v -0.162655 0.520270 0.296644
v -0.162655 0.520270 -0.023611
v -0.162655 0.737829 -0.023611
v -0.162655 0.737829 0.039164
v -0.162655 0.617474 0.121083
v -0.162655 0.737829 0.121083
v -0.162655 0.737829 0.184451
v -0.162655 0.520270 0.184451
v -0.162655 0.520270 0.121083
v -0.162655 0.639735 0.039609
v -0.162655 0.520270 0.039609
v -0.162655 0.520270 -0.115918
v -0.162655 0.556184 -0.126603
v -0.162655 0.556184 -0.203179
v -0.162655 0.520270 -0.213716
v -0.162655 0.520270 -0.282426
v -0.162655 0.737829 -0.200656
v -0.162655 0.737829 -0.127345
v -0.162655 0.520270 -0.045574
v -0.162655 0.603227 -0.188635
v -0.162655 0.603227 -0.140701
v -0.162655 0.681436 -0.164742
v -0.162612 0.519692 -0.497082
v -0.162655 0.737829 -0.496721
v -0.162626 0.737798 -0.371360
v -0.162626 0.694178 -0.428926
v -0.162612 0.652323 -0.429083
v -0.162626 0.611159 -0.429032
v -0.162612 0.567177 -0.428725
v -0.162655 0.737829 -0.496721
v -0.221806 0.737829 -0.496721
v -0.162655 0.520270 -0.115918
v -0.221806 0.520270 -0.115918
v -0.162655 0.556184 -0.126603
v -0.221806 0.556184 -0.126603
v -0.162655 0.556184 -0.203179
v -0.221806 0.556184 -0.203179
v -0.162655 0.520270 -0.213716
v -0.221806 0.520270 -0.213716
v -0.162655 0.520270 -0.282426
v -0.221806 0.520270 -0.282426
v -0.162655 0.737829 -0.200656
v -0.221806 0.737829 -0.200656
v -0.162655 0.737829 -0.127345
v -0.221805 0.737829 -0.127345
v -0.162655 0.520270 -0.045574
v -0.221806 0.520270 -0.045574
v -0.162655 0.603227 -0.188635
v -0.221806 0.603227 -0.188635
v -0.162655 0.603227 -0.140701
v -0.221806 0.603227 -0.140701
v -0.162655 0.681436 -0.164742
v -0.221806 0.681436 -0.164742
v -0.162655 0.520270 -0.023611
v -0.221806 0.520270 -0.023611
v -0.162655 0.737829 -0.023611
v -0.221805 0.737829 -0.023611
v -0.162655 0.737829 0.039164
v -0.221805 0.737829 0.039164
v -0.162655 0.617474 0.121083
v -0.221805 0.617474 0.121083
v -0.162655 0.737829 0.121083
v -0.221805 0.737829 0.121083
v -0.162655 0.737829 0.184451
v -0.221805 0.737829 0.184451
v -0.162655 0.520270 0.184451
v -0.221805 0.520270 0.184451
v -0.162655 0.520270 0.121083
v -0.221805 0.520270 0.121083
v -0.162655 0.639735 0.039609
v -0.221805 0.639735 0.039609
v -0.162655 0.520270 0.039609
v -0.221806 0.520270 0.039609
v -0.162655 0.520270 0.229417
v -0.221805 0.520270 0.229417
v -0.162655 0.737829 0.229417
v -0.221805 0.737829 0.229417
v -0.162655 0.737829 0.296644
v -0.221805 0.737829 0.296644
v -0.162655 0.655614 0.296644
v -0.221805 0.655614 0.296644
v -0.162655 0.737829 0.367136
v -0.221805 0.737829 0.367136
v -0.162655 0.737829 0.456475
v -0.221805 0.737829 0.456475
v -0.162655 0.655762 0.377227
v -0.221805 0.655762 0.377227
v -0.162655 0.520270 0.460036
v -0.221805 0.520270 0.460036
v -0.162655 0.520270 0.377227
v -0.221805 0.520270 0.377227
v -0.162655 0.609757 0.331370
v -0.221805 0.609757 0.331370
v -0.162655 0.573398 0.296644
v -0.221805 0.573398 0.296644
v -0.162655 0.520270 0.296644
v -0.221805 0.520270 0.296644
v -0.162568 0.579241 -0.292515
v -0.222087 0.579241 -0.292515
v -0.162568 0.542080 -0.304589
v -0.222087 0.542080 -0.304589
v -0.162568 0.519114 -0.336200
v -0.222087 0.519114 -0.336200
v -0.162568 0.575207 -0.366363
v -0.222087 0.575207 -0.366363
v -0.162568 0.601137 -0.364877
v -0.222087 0.601137 -0.364877
v -0.162568 0.639369 -0.336200
v -0.222087 0.639369 -0.336200
v -0.162568 0.616402 -0.304589
v -0.222087 0.616402 -0.304589
v -0.162568 0.686661 -0.302035
v -0.222087 0.686661 -0.302035
v -0.162568 0.655096 -0.312291
v -0.222087 0.655096 -0.312291
v -0.162568 0.691460 -0.380386
v -0.222087 0.691460 -0.380386
v -0.162568 0.737734 -0.339142
v -0.222087 0.737734 -0.339142
v -0.162568 0.718226 -0.312291
v -0.222087 0.718226 -0.312291
v -0.162568 0.658763 -0.374849
v -0.222087 0.658763 -0.374849
vn -1.0000 -0.0000 -0.0000
vn 1.0000 -0.0000 -0.0000
vn -0.0000 1.0000 -0.0000
vn -0.0000 -0.0000 -1.0000
vn -0.0000 -0.0000 1.0000
vn -0.0000 -1.0000 -0.0000
vn -0.6664 -0.3321 -0.6675
vn -0.9401 -0.1567 0.3026
vn -1.0000 0.0005 -0.0010
vn -0.8938 0.4485 -0.0006
vn -0.9445 0.1544 0.2901
vn -0.9440 0.1582 0.2897
vn -0.9461 -0.1526 0.2856
vn 0.6656 -0.3324 -0.6682
vn 1.0000 0.0002 -0.0003
vn 0.9298 -0.1692 0.3268
vn 1.0000 0.0003 -0.0002
vn 0.9412 0.1577 0.2986
vn 0.9462 -0.1522 0.2855
vn 0.9437 0.1577 0.2908
vn -0.0009 0.4482 -0.8939
vn -0.0000 1.0000 0.0011
vn -0.0000 -0.6604 -0.7510
vn -0.0000 -0.6577 0.7533
vn -0.0000 -0.2422 -0.9702
vn -0.0000 0.7076 -0.7066
vn -0.0000 0.7076 0.7066
vn -0.0000 -0.2422 0.9702
vn -0.0000 0.2700 0.9629
vn -0.0000 0.2692 -0.9631
vn -0.0000 -1.0000 0.0028
vn -0.0000 -0.4472 -0.8944
vn -0.0000 0.4472 -0.8944
vn -0.0000 0.8363 0.5483
vn -0.0000 0.7027 -0.7115
vn -0.0000 0.4472 0.8944
vn -0.0000 -0.4472 0.8944
vn -0.0000 -0.8367 -0.5477
vn -0.0000 -0.7023 0.7119
vn -0.0000 0.6565 0.7543
vn -0.0000 0.8797 -0.4755
vn -0.0000 0.1209 0.9927
vn -0.0000 -0.0521 0.9986
vn -0.0000 -0.1757 0.9844
vn -0.0000 -0.7755 -0.6313
vn -0.0000 -0.9597 -0.2811
vn -0.0000 -0.2896 0.9571
vn 0.6027 -0.0000 0.7980
vn -0.6029 -0.0000 0.7978
vn -0.7520 -0.3514 0.5577
vn 0.7517 -0.3512 0.5581
vn -0.8660 -0.4723 0.1644
vn 0.8657 -0.4726 0.1651
vn -0.6816 0.3399 -0.6480
vn 0.6817 0.3402 -0.6477
vn -0.6444 -0.2906 -0.7073
vn 0.6446 -0.2911 -0.7070
vn -0.7520 0.3514 0.5577
vn -0.9839 -0.0009 0.1788
vn 0.9413 -0.0025 0.3375
vn 0.7517 0.3513 0.5581
vn -0.6030 0.0005 0.7978
vn -0.7533 -0.3582 0.5516
vn -0.0000 -0.5446 0.8387
vn -0.0000 0.3188 -0.9478
vn -0.6154 0.2511 -0.7471
vn -0.7211 -0.3871 -0.5746
vn -0.0000 -0.5604 -0.8282
vn -0.8659 0.4720 0.1656
vn -0.0000 0.9429 0.3331
vn -0.7519 0.3520 0.5575
vn -0.0000 0.5325 0.8464
vt 0.373946 0.426500
vt 0.388321 0.453508
vt 0.386702 0.454269
vt 0.384935 0.453882
vt 0.325485 0.370616
vt 0.391098 0.395090
vt 0.250923 0.423325
vt 0.369581 0.451502
vt 0.389757 0.452753
vt 0.250778 0.421424
vt 0.813168 0.713506
s 0
usemtl Material
f 1/1/1 2/1/1 67/1/1 66/1/1
f 7/1/2 8/1/2 6/1/2 5/1/2
f 4/1/1 2/1/1 13/1/1 14/1/1
f 11/1/3 10/1/3 9/1/3 12/1/3
f 6/1/2 8/1/2 15/1/2 16/1/2
f 9/1/2 10/1/2 18/1/2 17/1/2
f 11/1/1 12/1/1 20/1/1 19/1/1
f 16/2/3 15/2/3 19/2/3 20/2/3
f 14/2/3 13/2/3 17/2/3 18/2/3
f 13/2/3 16/2/3 20/2/3 17/2/3
f 15/2/3 14/2/3 18/2/3 19/2/3
f 12/1/4 9/1/4 17/1/4 20/1/4
f 2/1/5 6/1/5 16/1/5 13/1/5
f 10/1/5 11/1/5 19/1/5 18/1/5
f 8/1/4 4/1/4 14/1/4 15/1/4
f 22/1/1 24/1/1 44/1/1 43/1/1
f 23/1/4 24/1/4 28/1/4 27/1/4
f 27/1/2 28/1/2 26/1/2 25/1/2
f 25/1/5 26/1/5 22/1/5 21/1/5
f 31/1/3 30/1/3 29/1/3 32/1/3
f 22/1/5 26/1/5 36/1/5 33/1/5
f 24/1/1 22/1/1 33/1/1 34/1/1
f 30/1/5 31/1/5 39/1/5 38/1/5
f 32/1/4 29/1/4 37/1/4 40/1/4
f 34/3/3 33/3/3 37/3/3 38/3/3
f 33/3/3 36/3/3 40/3/3 37/3/3
f 35/3/3 34/3/3 38/3/3 39/3/3
f 36/3/3 35/3/3 39/3/3 40/3/3
f 28/1/4 24/1/4 34/1/4 35/1/4
f 31/1/1 32/1/1 40/1/1 39/1/1
f 29/1/2 30/1/2 38/1/2 37/1/2
f 26/1/2 28/1/2 35/1/2 36/1/2
f 42/4/5 43/4/5 50/4/5 49/4/5
f 24/1/1 23/1/1 41/1/1 44/1/1
f 21/1/1 22/1/1 43/1/1 42/1/1
f 46/5/1 47/5/1 48/5/1 45/5/1
f 44/4/4 41/4/4 52/4/4 51/4/4
f 51/4/1 52/4/1 56/4/1 55/4/1
f 49/4/1 50/4/1 54/4/1 53/4/1
f 50/4/1 51/4/1 55/4/1 54/4/1
f 48/4/6 47/4/6 54/4/6 55/4/6
f 43/4/3 44/4/3 51/4/3 50/4/3
f 45/4/5 48/4/5 55/4/5 56/4/5
f 47/4/4 46/4/4 53/4/4 54/4/4
f 57/6/1 58/6/1 60/6/1 59/6/1
f 59/6/4 60/6/4 64/6/4 63/6/4
f 61/6/5 62/6/5 58/6/5 57/6/5
f 59/6/6 63/6/6 61/6/6 57/6/6
f 64/6/3 60/6/3 58/6/3 62/6/3
f 72/7/1 80/7/1 83/7/1 69/7/1
f 2/1/1 4/1/1 68/1/1 67/1/1
f 4/1/1 3/1/1 65/1/1 68/1/1
f 71/8/5 79/8/5 80/8/5 72/8/5
f 84/8/6 71/8/6 72/8/6 76/8/6
f 74/8/1 77/8/1 79/8/1 71/8/1
f 78/8/4 84/8/4 76/8/4 75/8/4
f 73/8/1 70/8/1 84/8/1 78/8/1
f 66/8/5 67/8/5 70/8/5 73/8/5
f 68/8/4 65/8/4 77/8/4 74/8/4
f 75/7/1 76/7/1 81/7/1 82/7/1
f 67/8/3 68/8/3 74/8/3 70/8/3
f 70/8/1 74/8/1 71/8/1 84/8/1
f 69/1/1 83/1/1 82/1/1 81/1/1
f 3/1/4 4/1/4 8/1/4 7/1/4
f 1/1/5 5/1/5 6/1/5 2/1/5
f 85/9/1 86/9/1 88/9/1 87/9/1
f 93/9/3 96/9/3 100/9/3 97/9/3
f 91/9/2 92/9/2 90/9/2 89/9/2
f 90/9/5 86/9/5 94/9/5 95/9/5
f 87/9/6 91/9/6 89/9/6 85/9/6
f 92/9/3 88/9/3 86/9/3 90/9/3
f 89/9/5 90/9/5 95/9/5 96/9/5
f 86/9/5 85/9/5 93/9/5 94/9/5
f 85/9/5 89/9/5 96/9/5 93/9/5
f 100/10/5 99/10/5 98/10/5 97/10/5
f 94/9/2 93/9/2 97/9/2 98/9/2
f 95/9/6 94/9/6 98/9/6 99/9/6
f 96/9/1 95/9/1 99/9/1 100/9/1
f 101/9/4 102/9/4 104/9/4 103/9/4
f 109/9/3 112/9/3 116/9/3 113/9/3
f 107/9/5 108/9/5 106/9/5 105/9/5
f 106/9/1 102/9/1 110/9/1 111/9/1
f 103/9/6 107/9/6 105/9/6 101/9/6
f 108/9/3 104/9/3 102/9/3 106/9/3
f 105/9/1 106/9/1 111/9/1 112/9/1
f 102/9/1 101/9/1 109/9/1 110/9/1
f 101/9/1 105/9/1 112/9/1 109/9/1
f 116/10/1 115/10/1 114/10/1 113/10/1
f 110/9/5 109/9/5 113/9/5 114/9/5
f 111/9/6 110/9/6 114/9/6 115/9/6
f 112/9/4 111/9/4 115/9/4 116/9/4
f 117/9/4 118/9/4 120/9/4 119/9/4
f 125/9/3 128/9/3 132/9/3 129/9/3
f 123/9/5 124/9/5 122/9/5 121/9/5
f 122/9/1 118/9/1 126/9/1 127/9/1
f 119/9/6 123/9/6 121/9/6 117/9/6
f 124/9/3 120/9/3 118/9/3 122/9/3
f 121/9/1 122/9/1 127/9/1 128/9/1
f 118/9/1 117/9/1 125/9/1 126/9/1
f 117/9/1 121/9/1 128/9/1 125/9/1
f 132/10/1 131/10/1 130/10/1 129/10/1
f 126/9/5 125/9/5 129/9/5 130/9/5
f 127/9/6 126/9/6 130/9/6 131/9/6
f 128/9/4 127/9/4 131/9/4 132/9/4
s 1
f 133/11/1 135/11/1 134/11/1
f 133/11/1 136/11/1 135/11/1
f 136/11/1 138/11/1 137/11/1
f 136/11/1 139/11/1 138/11/1
f 136/11/1 140/11/1 139/11/1
f 133/11/1 142/11/1 136/11/1
f 142/11/1 140/11/1 136/11/1
f 133/11/1 143/11/1 142/11/1
f 141/11/1 140/11/1 142/11/1
f 133/11/1 144/11/1 143/11/1
f 145/11/1 147/11/1 146/11/1
f 145/11/1 153/11/1 147/11/1
f 153/11/1 148/11/1 147/11/1
f 148/11/1 150/11/1 149/11/1
f 148/11/1 151/11/1 150/11/1
f 145/11/1 154/11/1 153/11/1
f 152/11/1 148/11/1 153/11/1
f 152/11/1 151/11/1 148/11/1
f 159/11/1 161/11/1 160/11/1
f 159/11/1 165/11/1 161/11/1
f 165/11/1 162/11/1 161/11/1
f 159/11/1 163/11/1 165/11/1
f 164/11/1 162/11/1 165/11/1
f 159/11/1 164/11/1 163/11/1
f 159/11/1 157/11/1 164/11/1
f 157/11/1 156/11/1 164/11/1
f 156/11/1 162/11/1 164/11/1
f 159/11/1 158/11/1 157/11/1
f 155/11/1 162/11/1 156/11/1
f 166/11/7 169/11/8 167/11/9
f 169/11/8 168/11/10 167/11/9
f 166/11/7 170/11/11 169/11/8
f 166/11/7 172/11/12 171/11/13
f 173/11/2 174/11/2 175/11/2
f 173/11/2 175/11/2 176/11/2
f 176/11/2 177/11/2 178/11/2
f 176/11/2 178/11/2 179/11/2
f 176/11/2 179/11/2 180/11/2
f 173/11/2 176/11/2 182/11/2
f 182/11/2 176/11/2 180/11/2
f 173/11/2 182/11/2 183/11/2
f 181/11/2 182/11/2 180/11/2
f 173/11/2 183/11/2 184/11/2
f 185/11/2 186/11/2 187/11/2
f 185/11/2 187/11/2 193/11/2
f 193/11/2 187/11/2 188/11/2
f 188/11/2 189/11/2 190/11/2
f 188/11/2 190/11/2 191/11/2
f 185/11/2 193/11/2 194/11/2
f 192/11/2 193/11/2 188/11/2
f 192/11/2 188/11/2 191/11/2
f 199/11/2 200/11/2 201/11/2
f 199/11/2 201/11/2 205/11/2
f 205/11/2 201/11/2 202/11/2
f 199/11/2 205/11/2 203/11/2
f 204/11/2 205/11/2 202/11/2
f 199/11/2 203/11/2 204/11/2
f 199/11/2 204/11/2 197/11/2
f 197/11/2 204/11/2 196/11/2
f 196/11/2 204/11/2 202/11/2
f 199/11/2 197/11/2 198/11/2
f 195/11/2 196/11/2 202/11/2
f 206/11/14 207/11/15 209/11/16
f 209/11/16 207/11/15 208/11/17
f 206/11/14 209/11/16 210/11/18
f 206/11/14 211/11/19 212/11/20
f 166/11/7 214/11/21 213/11/21 206/11/14
f 214/11/21 168/11/10 208/11/22 213/11/21
f 169/11/8 170/11/11 210/11/18 209/11/16
f 171/11/13 172/11/12 212/11/20 211/11/19
f 216/11/23 218/11/23 217/11/23 215/11/23
f 218/11/23 220/11/24 219/11/24 217/11/23
f 220/11/24 222/11/24 221/11/24 219/11/24
f 222/11/24 224/11/25 223/11/25 221/11/24
f 224/11/25 226/11/26 225/11/26 223/11/25
f 226/11/26 228/11/27 227/11/27 225/11/26
f 228/11/27 230/11/28 229/11/28 227/11/27
f 230/11/28 216/11/23 215/11/23 229/11/28
f 232/11/29 234/11/30 233/11/30 231/11/29
f 234/11/30 236/11/31 235/11/31 233/11/30
f 236/11/31 232/11/29 231/11/29 235/11/31
f 238/11/32 240/11/33 239/11/33 237/11/32
f 240/11/33 242/11/34 241/11/34 239/11/33
f 242/11/34 244/11/35 243/11/35 241/11/34
f 244/11/35 246/11/33 245/11/33 243/11/35
f 246/11/33 248/11/36 247/11/36 245/11/33
f 248/11/36 250/11/37 249/11/37 247/11/36
f 250/11/37 252/11/38 251/11/38 249/11/37
f 252/11/38 254/11/39 253/11/39 251/11/38
f 254/11/39 256/11/37 255/11/37 253/11/39
f 256/11/37 238/11/32 237/11/32 255/11/37
f 258/11/32 260/11/33 259/11/33 257/11/32
f 260/11/33 262/11/36 261/11/36 259/11/33
f 262/11/36 264/11/40 263/11/40 261/11/36
f 264/11/40 266/11/41 265/11/41 263/11/40
f 266/11/41 268/11/42 267/11/42 265/11/41
f 268/11/42 270/11/43 269/11/43 267/11/42
f 270/11/43 272/11/44 271/11/44 269/11/43
f 272/11/44 274/11/45 273/11/45 271/11/44
f 274/11/45 276/11/46 275/11/46 273/11/45
f 276/11/46 278/11/47 277/11/47 275/11/46
f 278/11/47 280/11/37 279/11/37 277/11/47
f 280/11/37 258/11/32 257/11/32 279/11/37
f 281/11/48 282/11/49 284/11/50 283/11/51
f 283/11/51 284/11/50 286/11/52 285/11/53
f 285/11/53 286/11/52 166/11/7 206/11/14
f 212/11/20 172/11/12 288/11/54 287/11/55
f 287/11/55 288/11/54 290/11/56 289/11/57
f 289/11/57 290/11/56 171/11/13 211/11/19
f 284/11/50 282/11/49 294/11/58 292/11/59 170/11/11 171/11/13 290/11/56 288/11/54 172/11/12 166/11/7 286/11/52
f 291/11/60 292/11/59 294/11/58 293/11/61
f 293/11/61 294/11/58 282/11/49 281/11/48
f 281/11/48 283/11/51 285/11/53 206/11/14 212/11/20 287/11/55 289/11/57 211/11/19 210/11/18 291/11/60 293/11/61
f 295/11/5 296/11/62 298/11/63 297/11/64
f 297/11/64 298/11/63 292/11/59 291/11/60
f 305/11/65 306/11/66 300/11/67 299/11/68
f 299/11/68 300/11/67 169/11/8 209/11/16
f 208/11/22 168/11/10 302/11/69 301/11/70
f 301/11/70 302/11/69 304/11/71 303/11/72
f 303/11/72 304/11/71 296/11/62 295/11/5
f 210/11/18 170/11/11 306/11/66 305/11/65
f 170/11/11 166/11/7 171/11/13
f 210/11/18 211/11/19 206/11/14
f 168/11/10 169/11/8 300/11/67 306/11/66 170/11/11 292/11/59 298/11/63 296/11/62 304/11/71 302/11/69
