# Blender 4.2.0
# www.blender.org
mtllib GoldIsland.mtl
o Plane.011
v 0.297789 0.003096 -0.278085
v -0.250883 0.039955 -0.290498
v 0.250883 0.020934 0.250883
v -0.250883 0.027248 0.250883
v 0.000000 -0.006533 -0.352190
v 0.000000 0.003096 0.349404
v 0.349404 0.033814 0.000000
v -0.392165 0.031135 0.000000
v 0.000000 0.084545 0.000000
v 0.154693 0.020934 0.309387
v 0.154693 0.039564 -0.312173
v -0.283056 0.013192 0.000000
v -0.154693 0.020494 -0.349001
v -0.154693 0.027248 0.309387
v 0.283056 0.040308 0.000000
v -0.352148 0.003096 0.154693
v 0.309387 0.020934 0.154693
v 0.000000 0.009905 0.283056
v 0.000000 0.040086 -0.283056
v -0.203244 0.028133 0.203244
v 0.356292 0.003096 -0.181895
v 0.203244 -0.001601 0.203244
v -0.309387 0.031135 -0.154693
v -0.175341 0.009720 -0.206654
v 0.203244 0.008085 -0.203244
v 0.125319 -0.001601 0.250638
v 0.125319 0.008085 -0.250638
v -0.125319 0.013058 -0.250638
v -0.125319 0.012017 0.250638
v -0.250638 0.029308 0.125319
v 0.250638 -0.001601 0.125319
v 0.250638 0.040308 -0.125319
v -0.250638 0.025435 -0.125319
v -0.221526 0.022905 0.000845
v 0.223332 0.022905 0.000845
v 0.000903 0.006636 0.223274
v 0.000903 0.022905 -0.221584
v -0.158808 0.039021 0.160556
v 0.160614 0.022905 0.160556
v -0.130905 0.034226 -0.162276
v 0.160122 0.042758 -0.158968
v 0.099380 0.022905 0.197799
v 0.098888 0.040281 -0.196211
v -0.097574 0.022905 -0.196109
v -0.097574 0.022905 0.197799
v -0.196051 0.039021 0.099322
v 0.197858 0.022905 0.099322
v 0.197858 0.022905 -0.097632
v -0.196051 0.049941 -0.097632
v -0.091495 0.042240 0.000871
v 0.092753 0.021170 0.000804
v 0.000501 0.021170 0.093056
v -0.001241 0.034334 -0.091919
v -0.065739 0.021170 0.067044
v 0.066739 0.040395 0.067042
v -0.063173 0.039962 -0.066341
v 0.066740 0.029430 -0.065435
v 0.041343 0.040395 0.082489
v 0.039602 0.040116 -0.081354
v -0.040342 0.021170 -0.080882
v -0.040342 0.021170 0.082491
v -0.081186 0.021170 0.041648
v 0.082187 0.021170 0.041648
v 0.082187 0.021170 -0.040039
v -0.080929 0.042240 -0.039972
v 0.344717 0.016276 -0.344717
v -0.344717 0.053135 -0.344717
v 0.344717 -0.023536 0.344717
v -0.344717 0.037114 0.399414
v 0.000000 -0.013236 -0.480086
v 0.000000 -0.039211 0.480086
v 0.480086 -0.009585 -0.000000
v -0.480086 -0.028834 -0.000000
v 0.212551 0.016276 0.425102
v 0.165837 0.052745 -0.425102
v -0.212551 -0.013236 -0.425102
v -0.212551 0.016276 0.479799
v -0.425102 0.037114 0.212551
v 0.425102 -0.023536 0.212551
v 0.378388 0.016276 -0.212551
v -0.425102 -0.028834 -0.212551
v 0.403933 -0.016644 -0.403933
v -0.403933 -0.016644 -0.403933
v 0.403933 -0.016644 0.403933
v -0.403933 -0.016644 0.403933
v 0.000000 -0.016644 -0.562556
v 0.000000 -0.016644 0.562556
v 0.562556 -0.016644 -0.000000
v -0.562556 -0.016644 -0.000000
v 0.249063 -0.016644 0.498127
v 0.249063 -0.016644 -0.498127
v -0.249063 -0.016644 -0.498127
v -0.249063 -0.016644 0.498127
v -0.498127 -0.016644 0.249063
v 0.498127 -0.016644 0.249063
v 0.498127 -0.016644 -0.249063
v -0.498127 -0.016644 -0.249063
v -0.239038 -0.167547 0.291066
v -0.202628 0.193757 0.240750
v -0.243889 -0.173297 0.259414
v -0.212236 0.182368 0.178063
v -0.215209 -0.180893 0.246065
v -0.155435 0.167325 0.151625
v -0.192632 -0.179836 0.269466
v -0.110722 0.169417 0.197972
v -0.207360 -0.171588 0.297278
v -0.139889 0.185753 0.253054
v -0.157869 0.217301 0.196511
v -0.236484 -0.123046 0.240549
v -0.127964 0.219351 0.307226
v -0.206242 -0.135040 0.240669
v -0.068070 0.195597 0.307463
v -0.199941 -0.146122 0.270601
v -0.055589 0.173648 0.366743
v -0.226288 -0.140977 0.288980
v -0.107770 0.183838 0.403143
v -0.248873 -0.126715 0.270407
v -0.152500 0.212084 0.366359
v -0.088571 0.231852 0.360204
v -0.181512 -0.153771 0.176791
v -0.261634 0.165631 0.331318
v -0.150161 -0.151390 0.185150
v -0.199542 0.170346 0.347873
v -0.145912 -0.167688 0.212985
v -0.191128 0.138069 0.403000
v -0.174637 -0.180141 0.221829
v -0.248018 0.113406 0.420516
v -0.196639 -0.171540 0.199460
v -0.291593 0.130440 0.376213
v -0.246217 0.175925 0.395902
v -0.286849 -0.152953 -0.237684
v -0.339601 0.180213 -0.216319
v -0.298478 -0.158223 -0.210743
v -0.362632 0.169777 -0.162963
v -0.327245 -0.165183 -0.214327
v -0.419605 0.155992 -0.170060
v -0.333395 -0.164215 -0.243483
v -0.431785 0.157909 -0.227804
v -0.308429 -0.156657 -0.257918
v -0.382339 0.172879 -0.256393
v -0.395881 0.201788 -0.203735
v -0.303311 -0.156768 -0.176201
v -0.371996 0.253601 -0.314739
v -0.334349 -0.171330 -0.195814
v -0.433467 0.224762 -0.353582
v -0.321543 -0.184784 -0.230671
v -0.408105 0.198116 -0.422617
v -0.282590 -0.178538 -0.232602
v -0.330959 0.210486 -0.426441
v -0.271322 -0.161223 -0.198937
v -0.308642 0.244778 -0.359769
v -0.378385 0.268778 -0.394635
v -0.397728 -0.166477 -0.165461
v -0.234677 0.178704 -0.261628
v -0.421797 -0.163888 -0.191264
v -0.282347 0.183832 -0.312730
v -0.409644 -0.181612 -0.219371
v -0.258278 0.148731 -0.368396
v -0.378064 -0.195155 -0.210939
v -0.195733 0.121909 -0.351697
v -0.370699 -0.185801 -0.177621
v -0.181147 0.140433 -0.285711
v -0.211603 0.189900 -0.330052
v -0.087338 -0.197786 -0.134227
v 0.024118 0.210919 0.063337
v -0.055870 -0.194683 -0.162469
v 0.086442 0.217064 0.007403
v -0.022475 -0.215921 -0.147261
v 0.152579 0.175001 0.037523
v -0.033305 -0.232150 -0.109620
v 0.131130 0.142861 0.112072
v -0.073393 -0.220942 -0.101565
v 0.051737 0.165059 0.128026
v 0.105564 0.224334 0.092560
v -0.081623 -0.190249 -0.014765
v 0.082689 0.287606 -0.092326
v -0.057880 -0.207359 -0.050786
v 0.129713 0.253719 -0.163667
v -0.017218 -0.223169 -0.034953
v 0.210244 0.222408 -0.132310
v -0.015830 -0.215830 0.010853
v 0.212992 0.236943 -0.041590
v -0.055635 -0.195484 0.023330
v 0.134159 0.277238 -0.016879
v 0.176698 0.305440 -0.098026
v 0.021597 -0.333715 0.071959
v -0.021748 0.347969 -0.041276
v -0.035310 -0.344941 0.046085
v -0.134451 0.325734 -0.092519
v -0.026497 -0.359769 -0.015040
v -0.116998 0.296368 -0.213578
v 0.035856 -0.357707 -0.026944
v 0.006493 0.300453 -0.237154
v 0.065580 -0.341604 0.026825
v 0.065360 0.332344 -0.130665
v -0.046244 0.393931 -0.161667
v 0.175508 -0.167547 -0.256910
v 0.211917 0.193757 -0.307225
v 0.170657 -0.173297 -0.288561
v 0.202310 0.182368 -0.369912
v 0.199337 -0.180893 -0.301911
v 0.259111 0.167325 -0.396350
v 0.221913 -0.179836 -0.278509
v 0.303823 0.169417 -0.350004
v 0.207186 -0.171588 -0.250697
v 0.274656 0.185753 -0.294921
v 0.256677 0.217301 -0.351465
v 0.167270 -0.144377 -0.316925
v 0.290483 0.241016 -0.241221
v 0.201606 -0.157995 -0.316789
v 0.358487 0.214045 -0.240952
v 0.208761 -0.170577 -0.282805
v 0.372657 0.189125 -0.173646
v 0.178847 -0.164736 -0.261937
v 0.313411 0.200694 -0.132317
v 0.153204 -0.148543 -0.283025
v 0.262625 0.232764 -0.174081
v 0.335210 0.255209 -0.181069
v 0.100815 -0.144377 0.337623
v 0.155395 0.241016 0.203706
v 0.095345 -0.157995 0.303725
v 0.144562 0.214045 0.136570
v 0.127706 -0.170577 0.291119
v 0.208653 0.189125 0.111605
v 0.153177 -0.164736 0.317227
v 0.259097 0.200694 0.163312
v 0.136557 -0.148543 0.345968
v 0.226181 0.232764 0.220233
v 0.207440 0.255209 0.149762
v 0.158682 -0.167547 0.319700
v 0.103098 0.193757 0.291991
v 0.128246 -0.173297 0.329652
v 0.042821 0.182368 0.311701
v 0.110395 -0.180893 0.303535
v 0.007466 0.167325 0.259976
v 0.129798 -0.179836 0.277442
v 0.045894 0.169417 0.208299
v 0.159641 -0.171588 0.287433
v 0.104998 0.185753 0.228085
v 0.052147 0.217301 0.255052
v 0.105916 -0.191773 0.254901
v 0.224000 0.204732 0.440082
v 0.134864 -0.188769 0.225951
v 0.281331 0.210682 0.382747
v 0.167945 -0.209332 0.238909
v 0.346847 0.169956 0.408410
v 0.159442 -0.225045 0.275867
v 0.330008 0.138837 0.481605
v 0.121106 -0.214193 0.285751
v 0.254084 0.160330 0.501180
v 0.304270 0.217721 0.464077
vn 0.0239 0.9990 -0.0365
vn 0.1205 0.9917 0.0453
vn 0.0893 0.9943 0.0587
vn -0.0322 0.9971 0.0690
vn 0.0444 0.9986 -0.0291
vn -0.1205 0.9918 0.0413
vn -0.0168 0.9998 -0.0104
vn 0.0171 0.9941 -0.1074
vn -0.2032 0.9778 -0.0514
vn -0.0698 0.9967 -0.0409
vn -0.1322 0.9910 0.0187
vn -0.0787 0.9960 0.0421
vn 0.0798 0.9938 -0.0780
vn -0.0037 0.9970 0.0772
vn 0.1120 0.9876 -0.1102
vn 0.0348 0.9936 -0.1074
vn -0.0355 0.9993 -0.0107
vn 0.0478 0.9985 -0.0271
vn -0.0147 0.9998 -0.0146
vn -0.0053 0.9999 0.0140
vn -0.0217 0.9945 0.1020
vn -0.1020 0.9863 -0.1299
vn -0.0153 0.9945 -0.1039
vn 0.0969 0.9903 -0.0992
vn 0.0259 0.9953 0.0938
vn 0.0336 0.9994 0.0101
vn 0.0619 0.9947 0.0819
vn 0.1562 0.9872 0.0325
vn -0.0423 0.9970 0.0655
vn -0.0353 0.9954 0.0885
vn 0.0831 0.9807 -0.1769
vn 0.0009 0.9983 -0.0590
vn 0.0940 0.9887 0.1170
vn 0.0388 0.9945 0.0968
vn 0.0744 0.9860 -0.1494
vn 0.1302 0.9866 -0.0983
vn 0.0349 0.9777 0.2071
vn 0.0020 0.9916 0.1297
vn 0.1331 0.9878 0.0803
vn 0.2069 0.9657 0.1570
vn -0.1620 0.9859 0.0414
vn -0.1455 0.9864 -0.0769
vn -0.0391 0.9981 0.0470
vn 0.0339 0.9699 -0.2411
vn -0.0236 0.9951 -0.0964
vn -0.0527 0.9982 -0.0275
vn -0.0615 0.9980 -0.0109
vn -0.0822 0.9936 0.0772
vn -0.0570 0.9983 -0.0127
vn -0.0167 0.9997 0.0176
vn -0.0245 0.9948 0.0988
vn -0.0176 0.9958 0.0899
vn -0.0107 0.9970 0.0762
vn 0.0176 0.9992 0.0369
vn 0.0819 0.9965 0.0151
vn 0.0550 0.9983 -0.0166
vn 0.1330 0.9884 -0.0731
vn 0.0796 0.9956 -0.0493
vn 0.0970 0.9953 0.0035
vn 0.0478 0.9988 0.0079
vn 0.0572 0.9917 0.1153
vn 0.0411 0.9955 0.0851
vn 0.0067 0.9998 0.0162
vn 0.0873 0.9951 0.0458
vn -0.2427 0.9701 0.0104
vn -0.2881 0.8692 0.4017
vn 0.0012 0.9613 0.2755
vn -0.1930 0.9700 -0.1477
vn -0.2531 0.9674 0.0119
vn -0.0171 0.9827 -0.1845
vn -0.0694 0.9789 -0.1922
vn 0.0152 0.9872 0.1589
vn 0.0409 0.9932 0.1087
vn 0.1952 0.9744 -0.1112
vn 0.1161 0.9907 0.0715
vn 0.1590 0.9869 0.0258
vn -0.1834 0.9812 -0.0609
vn 0.0272 0.9644 -0.2632
vn 0.1376 0.9887 0.0595
vn 0.0604 0.9981 -0.0097
vn 0.2888 0.9233 -0.2534
vn 0.1849 0.8993 -0.3963
vn 0.0469 0.9959 0.0774
vn 0.0532 0.9985 0.0113
vn -0.0153 0.9683 -0.2492
vn -0.0413 0.9627 -0.2673
vn -0.4399 0.8885 0.1306
vn -0.5129 0.7500 0.4177
vn -0.2939 0.7331 0.6134
vn -0.0669 0.9976 -0.0154
vn 0.0017 0.9935 0.1135
vn -0.0405 0.9991 -0.0092
vn 0.0941 0.9955 0.0073
vn 0.2349 0.9697 -0.0667
vn -0.1571 0.9872 0.0256
vn -0.2451 0.9423 -0.2282
vn -0.9846 0.1173 0.1296
vn -0.4512 -0.1606 -0.8779
vn 0.6939 -0.2970 -0.6560
vn -0.1700 0.6539 -0.7373
vn 0.8661 -0.1030 0.4892
vn -0.1714 0.1528 0.9733
vn 0.0169 0.8754 0.4830
vn -0.5210 0.8503 -0.0746
vn 0.5847 0.5577 -0.5892
vn 0.7003 0.6946 0.1648
vn 0.0709 0.1690 -0.9831
vn 0.8989 -0.3140 -0.3055
vn 0.4550 -0.4384 0.7751
vn 0.8701 0.4929 -0.0007
vn -0.6468 -0.0318 0.7620
vn -0.8819 0.3426 -0.3238
vn -0.2959 0.9552 -0.0054
vn 0.3320 0.8326 -0.4433
vn 0.5749 0.4056 0.7106
vn -0.1456 0.6912 0.7078
vn 0.1947 0.4663 -0.8629
vn 0.9834 0.1750 -0.0476
vn 0.4306 -0.4296 0.7937
vn 0.4888 0.7833 0.3840
vn -0.7029 -0.5108 0.4950
vn -0.8466 0.0442 -0.5303
vn -0.7198 0.6914 0.0616
vn -0.0353 0.9882 -0.1491
vn 0.1284 0.3601 0.9240
vn -0.6185 0.3032 0.7249
vn 0.9034 0.1166 0.4127
vn -0.0839 -0.1597 0.9836
vn -0.9368 -0.2953 0.1878
vn -0.2473 0.6539 0.7150
vn -0.4745 -0.1024 -0.8743
vn 0.6621 0.1519 -0.7339
vn 0.2421 0.8754 -0.4184
vn 0.4019 0.8503 0.3398
vn -0.8083 0.5577 0.1890
vn -0.5060 0.6946 -0.5114
vn -0.5824 0.1708 0.7948
vn -0.9232 -0.3173 -0.2167
vn 0.0267 -0.4432 -0.8960
vn -0.7377 0.4929 -0.4613
vn 0.9527 -0.0322 -0.3023
vn 0.5750 0.3465 0.7412
vn 0.2479 0.9552 0.1616
vn -0.5167 0.8326 0.1995
vn -0.1100 0.4056 -0.9074
vn 0.4991 0.6912 -0.5226
vn -0.6220 0.4686 0.6273
vn -0.8583 0.1759 -0.4820
vn 0.0553 -0.4315 -0.9004
vn -0.2104 0.7833 -0.5849
vn 0.8571 -0.5131 -0.0454
vn 0.4361 0.0444 0.8988
vn 0.6427 0.6914 0.3299
vn -0.0492 0.9882 0.1451
vn 0.3817 0.3601 -0.8513
vn 0.9090 0.3032 -0.2860
vn -0.6139 0.4729 -0.6321
vn 0.4991 0.1774 -0.8482
vn 0.8975 -0.4353 0.0706
vn 0.5889 0.7833 -0.1991
vn 0.0272 -0.5175 0.8552
vn -0.9069 0.0448 0.4190
vn -0.3422 0.6914 0.6363
vn -0.1441 0.9882 -0.0520
vn 0.8438 0.3601 0.3980
vn 0.2685 0.3032 0.9143
vn -0.7829 0.1722 -0.5978
vn 0.2333 -0.3197 -0.9183
vn 0.8937 -0.4465 0.0445
vn 0.4754 0.4929 -0.7287
vn 0.2838 -0.0324 0.9583
vn -0.7510 0.3492 0.5603
vn -0.1664 0.9552 0.2448
vn -0.1895 0.8326 -0.5204
vn 0.9094 0.4056 -0.0925
vn 0.5129 0.6912 0.5091
vn -0.4306 0.1212 0.8944
vn -0.9809 -0.1659 -0.1012
vn -0.1687 -0.3067 -0.9367
vn -0.7101 0.6539 -0.2610
vn 0.8834 -0.1064 -0.4565
vn 0.7209 0.1579 0.6749
vn 0.4136 0.8754 0.2501
vn -0.3475 0.8503 0.3953
vn -0.1734 0.5577 -0.8117
vn 0.5211 0.6946 -0.4961
vn 0.0714 0.1702 -0.9828
vn 0.8979 -0.3162 -0.3061
vn 0.4537 -0.4416 0.7740
vn -0.6468 -0.0321 0.7619
vn -0.8811 0.3452 -0.3232
vn -0.9813 0.1702 0.0900
vn -0.4486 -0.3162 -0.8359
vn 0.6896 -0.4416 -0.5740
vn -0.1427 0.4929 -0.8583
vn 0.8573 -0.0321 0.5138
vn -0.1750 0.3452 0.9221
vn 0.0430 0.9552 0.2928
vn -0.4916 0.8326 -0.2552
vn 0.6073 0.4056 -0.6832
vn 0.7221 0.6912 0.0281
vn 0.2886 0.1173 0.9503
vn -0.7925 -0.1606 0.5884
vn -0.7604 -0.2970 -0.5775
vn -0.6996 0.6539 0.2880
vn 0.3412 -0.1030 -0.9343
vn 0.9882 0.1528 0.0102
vn 0.4738 0.8754 -0.0956
vn 0.0114 0.8503 0.5262
vn -0.6767 0.5577 -0.4806
vn 0.0483 0.6946 -0.7178
vn -0.6473 0.4722 -0.5983
vn 0.4525 0.1772 -0.8740
vn 0.9003 -0.4346 0.0223
vn 0.5773 0.7833 -0.2306
vn 0.0736 -0.5168 0.8530
vn -0.8830 0.0447 0.4673
vn -0.3073 0.6914 0.6538
vn -0.1467 0.9882 -0.0442
vn 0.8640 0.3601 0.3519
vn 0.3175 0.3032 0.8985
vt 0.879268 0.278168
vt 0.883424 0.282205
vt 0.880884 0.284455
vt 0.877490 0.281175
vt 0.854382 0.284718
vt 0.858411 0.280541
vt 0.860653 0.283104
vt 0.857573 0.287943
vt 0.865574 0.276558
vt 0.873755 0.276508
vt 0.873064 0.279846
vt 0.866443 0.279861
vt 0.866346 0.311301
vt 0.860798 0.309624
vt 0.862565 0.306606
vt 0.867094 0.307871
vt 0.887345 0.297476
vt 0.885669 0.303050
vt 0.882657 0.301289
vt 0.883959 0.296841
vt 0.856651 0.305605
vt 0.852678 0.298430
vt 0.856071 0.297544
vt 0.859215 0.303372
vt 0.887458 0.289292
vt 0.884035 0.290290
vt 0.881635 0.307229
vt 0.874522 0.311326
vt 0.873650 0.307950
vt 0.879400 0.304621
vt 0.852672 0.290259
vt 0.856022 0.291068
vt 0.878454 0.286510
vt 0.875889 0.283937
vt 0.861533 0.301356
vt 0.864143 0.303873
vt 0.880978 0.296232
vt 0.881159 0.291006
vt 0.877403 0.302283
vt 0.879943 0.299695
vt 0.867246 0.282943
vt 0.862675 0.285417
vt 0.867904 0.304634
vt 0.860385 0.289499
vt 0.859239 0.291596
vt 0.859289 0.296585
vt 0.872409 0.282899
vt 0.872909 0.304713
vt 0.865562 0.295038
vt 0.866600 0.296909
vt 0.874623 0.294832
vt 0.874624 0.292686
vt 0.868910 0.289332
vt 0.867041 0.290378
vt 0.874186 0.296271
vt 0.873136 0.297348
vt 0.865996 0.291463
vt 0.865566 0.292905
vt 0.872494 0.289755
vt 0.871051 0.289323
vt 0.867669 0.297973
vt 0.869138 0.298387
vt 0.871275 0.298382
vt 0.873581 0.290804
vt 0.875117 0.270031
vt 0.882706 0.272305
vt 0.888399 0.277816
vt 0.848499 0.281249
vt 0.854037 0.275543
vt 0.851651 0.309965
vt 0.846189 0.300110
vt 0.893920 0.287619
vt 0.893862 0.298892
vt 0.857341 0.315497
vt 0.886055 0.312234
vt 0.876230 0.317800
vt 0.863877 0.270074
vt 0.846189 0.288856
vt 0.891576 0.306508
vt 0.864949 0.317799
vt 0.846880 0.306333
vt 0.848621 0.306333
vt 0.848642 0.318162
vt 0.846902 0.318162
vt 0.171408 0.948579
s 1
usemtl Material
f 4/1/1 14/2/2 29/3/3 20/4/4
f 2/5/5 23/6/6 33/7/7 24/8/8
f 8/9/9 16/10/10 30/11/11 12/12/12
f 21/13/13 1/14/14 25/15/15 32/16/16
f 10/17/17 3/18/18 22/19/19 26/20/20
f 11/21/21 5/22/22 19/23/23 27/24/24
f 23/6/6 8/9/9 12/12/12 33/7/7
f 16/10/10 4/1/1 20/4/4 30/11/11
f 6/25/25 10/17/17 26/20/20 18/26/26
f 1/14/14 11/21/21 27/24/24 25/15/15
f 14/2/2 6/25/25 18/26/26 29/3/3
f 17/27/27 7/28/28 15/29/29 31/30/30
f 3/18/18 17/27/27 31/30/30 22/19/19
f 5/22/22 13/31/31 28/32/32 19/23/23
f 13/31/31 2/5/5 24/8/8 28/32/32
f 7/28/28 21/13/13 32/16/16 15/29/29
f 20/4/4 29/3/3 45/33/33 38/34/34
f 25/15/15 27/24/24 43/35/35 41/36/36
f 18/26/26 26/20/20 42/37/37 36/38/38
f 22/19/19 31/30/30 47/39/39 39/40/40
f 33/7/7 12/12/12 34/41/41 49/42/42
f 32/16/16 25/15/15 41/36/36 48/43/43
f 28/32/32 24/8/8 40/44/44 44/45/45
f 19/23/23 28/32/32 44/45/45 37/46/46
f 29/3/3 18/26/26 36/38/38 45/33/33
f 12/12/12 30/11/11 46/47/47 34/41/41
f 27/24/24 19/23/23 37/46/46 43/35/35
f 30/11/11 20/4/4 38/34/34 46/47/47
f 24/8/8 33/7/7 49/42/42 40/44/44
f 15/29/29 32/16/16 48/43/43 35/48/48
f 26/20/20 22/19/19 39/40/40 42/37/37
f 31/30/30 15/29/29 35/48/48 47/39/39
f 43/35/35 37/46/46 53/49/49 59/50/50
f 36/38/38 42/37/37 58/51/51 52/52/52
f 49/42/42 34/41/41 50/53/53 65/54/54
f 42/37/37 39/40/40 55/55/55 58/51/51
f 39/40/40 47/39/39 63/56/56 55/55/55
f 40/44/44 49/42/42 65/54/54 56/57/57
f 37/46/46 44/45/45 60/58/58 53/49/49
f 46/47/47 38/34/34 54/59/59 62/60/60
f 34/41/41 46/47/47 62/60/60 50/53/53
f 48/43/43 41/36/36 57/61/61 64/62/62
f 47/39/39 35/48/48 51/63/63 63/56/56
f 35/48/48 48/43/43 64/62/62 51/63/63
f 44/45/45 40/44/44 56/57/57 60/58/58
f 38/34/34 45/33/33 61/64/64 54/59/59
f 45/33/33 36/38/38 52/52/52 61/64/64
f 41/36/36 43/35/35 59/50/50 57/61/61
f 65/54/54 50/53/53 62/60/60 54/59/59 61/64/64 52/52/52 58/51/51 55/55/55 63/56/56 51/63/63 64/62/62 57/61/61 59/50/50 53/49/49 60/58/58 56/57/57
f 4/1/1 16/10/10 78/65/65 69/66/66
f 14/2/2 4/1/1 69/66/66 77/67/67
f 23/6/6 2/5/5 67/68/68 81/69/69
f 5/22/22 11/21/21 75/70/70 70/71/71
f 10/17/17 6/25/25 71/72/72 74/73/73
f 6/25/25 14/2/2 77/67/67 71/72/72
f 11/21/21 1/14/14 66/74/74 75/70/70
f 7/28/28 17/27/27 79/75/75 72/76/76
f 16/10/10 8/9/9 73/77/77 78/65/65
f 2/5/5 13/31/31 76/78/78 67/68/68
f 8/9/9 23/6/6 81/69/69 73/77/77
f 17/27/27 3/18/18 68/79/79 79/75/75
f 1/14/14 21/13/13 80/80/80 66/74/74
f 21/13/13 7/28/28 72/76/76 80/80/80
f 3/18/18 10/17/17 74/73/73 68/79/79
f 13/31/31 5/22/22 70/71/71 76/78/78
f 75/81/70 66/82/74 82/83/81 91/84/82
f 68/81/79 74/82/73 90/83/83 84/84/84
f 76/81/78 70/82/71 86/83/85 92/84/86
f 69/81/66 78/82/65 94/83/87 85/84/88
f 77/81/67 69/82/66 85/83/88 93/84/89
f 70/81/71 75/82/70 91/83/82 86/84/85
f 78/81/65 73/82/77 89/83/90 94/84/87
f 71/81/72 77/82/67 93/83/89 87/84/91
f 79/81/75 68/82/79 84/83/84 95/84/92
f 72/81/76 79/82/75 95/83/92 88/84/93
f 80/81/80 72/82/76 88/83/93 96/84/94
f 73/81/77 81/82/69 97/83/95 89/84/90
f 67/81/68 76/82/78 92/83/86 83/84/96
f 81/81/69 67/82/68 83/83/96 97/84/95
f 74/81/73 71/82/72 87/83/91 90/84/83
f 66/81/74 80/82/80 96/83/94 82/84/81
s 0
f 98/85/97 99/85/97 101/85/97 100/85/97
f 100/85/98 101/85/98 103/85/98 102/85/98
f 102/85/99 103/85/99 105/85/99 104/85/99
f 103/85/100 101/85/100 108/85/100
f 104/85/101 105/85/101 107/85/101 106/85/101
f 106/85/102 107/85/102 99/85/102 98/85/102
f 99/85/103 107/85/103 108/85/103
f 101/85/104 99/85/104 108/85/104
f 105/85/105 103/85/105 108/85/105
f 107/85/106 105/85/106 108/85/106
f 109/85/107 110/85/107 112/85/107 111/85/107
f 111/85/108 112/85/108 114/85/108 113/85/108
f 113/85/109 114/85/109 116/85/109 115/85/109
f 114/85/110 112/85/110 119/85/110
f 115/85/111 116/85/111 118/85/111 117/85/111
f 117/85/112 118/85/112 110/85/112 109/85/112
f 110/85/113 118/85/113 119/85/113
f 112/85/114 110/85/114 119/85/114
f 116/85/115 114/85/115 119/85/115
f 118/85/116 116/85/116 119/85/116
f 120/85/117 121/85/117 123/85/117 122/85/117
f 122/85/118 123/85/118 125/85/118 124/85/118
f 124/85/119 125/85/119 127/85/119 126/85/119
f 125/85/120 123/85/120 130/85/120
f 126/85/121 127/85/121 129/85/121 128/85/121
f 128/85/122 129/85/122 121/85/122 120/85/122
f 121/85/123 129/85/123 130/85/123
f 123/85/124 121/85/124 130/85/124
f 127/85/125 125/85/125 130/85/125
f 129/85/126 127/85/126 130/85/126
f 131/85/127 132/85/127 134/85/127 133/85/127
f 133/85/128 134/85/128 136/85/128 135/85/128
f 135/85/129 136/85/129 138/85/129 137/85/129
f 136/85/130 134/85/130 141/85/130
f 137/85/131 138/85/131 140/85/131 139/85/131
f 139/85/132 140/85/132 132/85/132 131/85/132
f 132/85/133 140/85/133 141/85/133
f 134/85/134 132/85/134 141/85/134
f 138/85/135 136/85/135 141/85/135
f 140/85/136 138/85/136 141/85/136
f 142/85/137 143/85/137 145/85/137 144/85/137
f 144/85/138 145/85/138 147/85/138 146/85/138
f 146/85/139 147/85/139 149/85/139 148/85/139
f 147/85/140 145/85/140 152/85/140
f 148/85/141 149/85/141 151/85/141 150/85/141
f 150/85/142 151/85/142 143/85/142 142/85/142
f 143/85/143 151/85/143 152/85/143
f 145/85/144 143/85/144 152/85/144
f 149/85/145 147/85/145 152/85/145
f 151/85/146 149/85/146 152/85/146
f 153/85/147 154/85/147 156/85/147 155/85/147
f 155/85/148 156/85/148 158/85/148 157/85/148
f 157/85/149 158/85/149 160/85/149 159/85/149
f 158/85/150 156/85/150 163/85/150
f 159/85/151 160/85/151 162/85/151 161/85/151
f 161/85/152 162/85/152 154/85/152 153/85/152
f 154/85/153 162/85/153 163/85/153
f 156/85/154 154/85/154 163/85/154
f 160/85/155 158/85/155 163/85/155
f 162/85/156 160/85/156 163/85/156
f 164/85/157 165/85/157 167/85/157 166/85/157
f 166/85/158 167/85/158 169/85/158 168/85/158
f 168/85/159 169/85/159 171/85/159 170/85/159
f 169/85/160 167/85/160 174/85/160
f 170/85/161 171/85/161 173/85/161 172/85/161
f 172/85/162 173/85/162 165/85/162 164/85/162
f 165/85/163 173/85/163 174/85/163
f 167/85/164 165/85/164 174/85/164
f 171/85/165 169/85/165 174/85/165
f 173/85/166 171/85/166 174/85/166
f 175/85/167 176/85/167 178/85/167 177/85/167
f 177/85/168 178/85/168 180/85/168 179/85/168
f 179/85/169 180/85/169 182/85/169 181/85/169
f 180/85/170 178/85/170 185/85/170
f 181/85/171 182/85/171 184/85/171 183/85/171
f 183/85/172 184/85/172 176/85/172 175/85/172
f 176/85/173 184/85/173 185/85/173
f 178/85/174 176/85/174 185/85/174
f 182/85/175 180/85/175 185/85/175
f 184/85/176 182/85/176 185/85/176
f 186/85/177 187/85/177 189/85/177 188/85/177
f 188/85/178 189/85/178 191/85/178 190/85/178
f 190/85/179 191/85/179 193/85/179 192/85/179
f 191/85/180 189/85/180 196/85/180
f 192/85/181 193/85/181 195/85/181 194/85/181
f 194/85/182 195/85/182 187/85/182 186/85/182
f 187/85/183 195/85/183 196/85/183
f 189/85/184 187/85/184 196/85/184
f 193/85/185 191/85/185 196/85/185
f 195/85/186 193/85/186 196/85/186
f 197/85/97 198/85/97 200/85/97 199/85/97
f 199/85/98 200/85/98 202/85/98 201/85/98
f 201/85/99 202/85/99 204/85/99 203/85/99
f 202/85/100 200/85/100 207/85/100
f 203/85/101 204/85/101 206/85/101 205/85/101
f 205/85/102 206/85/102 198/85/102 197/85/102
f 198/85/103 206/85/103 207/85/103
f 200/85/104 198/85/104 207/85/104
f 204/85/105 202/85/105 207/85/105
f 206/85/106 204/85/106 207/85/106
f 208/85/187 209/85/187 211/85/187 210/85/187
f 210/85/188 211/85/188 213/85/188 212/85/188
f 212/85/189 213/85/189 215/85/189 214/85/189
f 213/85/110 211/85/110 218/85/110
f 214/85/190 215/85/190 217/85/190 216/85/190
f 216/85/191 217/85/191 209/85/191 208/85/191
f 209/85/113 217/85/113 218/85/113
f 211/85/114 209/85/114 218/85/114
f 215/85/115 213/85/115 218/85/115
f 217/85/116 215/85/116 218/85/116
f 219/85/192 220/85/192 222/85/192 221/85/192
f 221/85/193 222/85/193 224/85/193 223/85/193
f 223/85/194 224/85/194 226/85/194 225/85/194
f 224/85/195 222/85/195 229/85/195
f 225/85/196 226/85/196 228/85/196 227/85/196
f 227/85/197 228/85/197 220/85/197 219/85/197
f 220/85/198 228/85/198 229/85/198
f 222/85/199 220/85/199 229/85/199
f 226/85/200 224/85/200 229/85/200
f 228/85/201 226/85/201 229/85/201
f 230/85/202 231/85/202 233/85/202 232/85/202
f 232/85/203 233/85/203 235/85/203 234/85/203
f 234/85/204 235/85/204 237/85/204 236/85/204
f 235/85/205 233/85/205 240/85/205
f 236/85/206 237/85/206 239/85/206 238/85/206
f 238/85/207 239/85/207 231/85/207 230/85/207
f 231/85/208 239/85/208 240/85/208
f 233/85/209 231/85/209 240/85/209
f 237/85/210 235/85/210 240/85/210
f 239/85/211 237/85/211 240/85/211
f 241/85/212 242/85/212 244/85/212 243/85/212
f 243/85/213 244/85/213 246/85/213 245/85/213
f 245/85/214 246/85/214 248/85/214 247/85/214
f 246/85/215 244/85/215 251/85/215
f 247/85/216 248/85/216 250/85/216 249/85/216
f 249/85/217 250/85/217 242/85/217 241/85/217
f 242/85/218 250/85/218 251/85/218
f 244/85/219 242/85/219 251/85/219
f 248/85/220 246/85/220 251/85/220
f 250/85/221 248/85/221 251/85/221
