# Blender 4.2.0
# www.blender.org
mtllib goldCollectorEmpty.mtl
o Plane.013
v 0.000000 0.084545 0.000000
v -0.620172 0.177924 0.280238
v -0.620172 0.492831 0.280238
v -0.620172 0.177924 -0.437319
v -0.620172 0.492831 -0.437319
v -0.318066 0.173332 0.280238
v -0.318066 0.492831 0.280238
v -0.318066 0.177924 -0.437319
v -0.318066 0.492831 -0.437319
v -0.134948 0.164302 -0.437319
v -0.318066 0.164302 -0.437319
v -0.134948 0.164302 -0.125296
v -0.318066 0.177924 -0.125296
v -0.318066 0.164302 -0.125296
v -0.134948 0.177924 -0.437319
v -0.134948 0.177924 -0.125296
v -0.318066 0.373631 -0.380591
v -0.318066 0.178301 -0.380591
v -0.318066 0.178301 -0.239250
v -0.318066 0.373631 -0.239250
v -0.323935 0.366084 -0.374004
v -0.323935 0.178118 -0.374004
v -0.323935 0.178118 -0.245837
v -0.323935 0.366084 -0.245837
v -0.309583 0.373631 -0.380591
v -0.309583 0.178301 -0.380591
v -0.309583 0.373631 -0.239250
v -0.309583 0.178301 -0.239250
v -0.309583 0.366084 -0.374004
v -0.309583 0.178815 -0.374004
v -0.309583 0.366084 -0.245837
v -0.309583 0.178815 -0.245837
v -0.318066 -0.005485 0.146068
v -0.318066 -0.019107 0.146068
v -0.134948 -0.005485 0.146068
v -0.134948 -0.019107 0.146068
v -0.626285 -0.004650 -0.413738
v -0.626285 0.175137 -0.413738
v -0.626285 -0.004650 -0.443738
v -0.626285 0.175137 -0.443738
v -0.596285 -0.004650 -0.413738
v -0.596285 0.175137 -0.413738
v -0.596285 -0.004650 -0.443738
v -0.596285 0.175137 -0.443738
v -0.348472 -0.004650 -0.413738
v -0.348472 0.175137 -0.413738
v -0.348472 -0.004650 -0.443738
v -0.348472 0.175137 -0.443738
v -0.318472 -0.004650 -0.413738
v -0.318472 0.175137 -0.413738
v -0.318472 -0.004650 -0.443738
v -0.318472 0.175137 -0.443738
v -0.160309 -0.004650 -0.413738
v -0.160309 0.256247 -0.413738
v -0.160309 -0.004650 -0.443738
v -0.160309 0.256247 -0.443738
v -0.130309 -0.004650 -0.413738
v -0.130309 0.256247 -0.413738
v -0.130309 -0.004650 -0.443738
v -0.130309 0.256247 -0.443738
v -0.626285 -0.004650 0.287108
v -0.626285 0.177953 0.287108
v -0.626285 -0.004650 0.257108
v -0.626285 0.177953 0.257108
v -0.596285 -0.004650 0.287108
v -0.596285 0.177953 0.287108
v -0.596285 -0.004650 0.257108
v -0.596285 0.177953 0.257108
v -0.626285 -0.004650 -0.047431
v -0.626285 0.177953 -0.047431
v -0.626285 -0.004650 -0.077431
v -0.626285 0.177953 -0.077431
v -0.596285 -0.004650 -0.047431
v -0.596285 0.177953 -0.047431
v -0.596285 -0.004650 -0.077431
v -0.596285 0.177953 -0.077431
v -0.160309 -0.004650 -0.126069
v -0.160309 0.256247 -0.126069
v -0.160309 -0.004650 -0.156069
v -0.160309 0.256247 -0.156069
v -0.130309 -0.004650 -0.126069
v -0.130309 0.256247 -0.126069
v -0.130309 -0.004650 -0.156069
v -0.130309 0.256247 -0.156069
v -0.152216 0.236595 -0.155106
v -0.152216 0.236595 -0.416003
v -0.152216 0.222781 -0.155106
v -0.152216 0.222781 -0.416003
v -0.138402 0.236595 -0.155106
v -0.138402 0.236595 -0.416003
v -0.138402 0.222781 -0.155106
v -0.138402 0.222781 -0.416003
v -0.146831 0.236595 -0.421184
v -0.332231 0.236595 -0.421184
v -0.146831 0.222781 -0.421184
v -0.332231 0.222781 -0.421184
v -0.146831 0.236595 -0.434998
v -0.332231 0.236595 -0.434998
v -0.146831 0.222781 -0.434998
v -0.332231 0.222781 -0.434998
v -0.152216 0.058609 0.116986
v -0.152216 0.232443 -0.131274
v -0.152216 0.047294 0.109063
v -0.152216 0.221127 -0.139197
v -0.138402 0.058609 0.116986
v -0.138402 0.232443 -0.131274
v -0.138402 0.047294 0.109063
v -0.138402 0.221127 -0.139197
v -0.160309 -0.004650 0.131292
v -0.160309 0.091552 0.131292
v -0.160309 -0.004650 0.101292
v -0.160309 0.091552 0.101292
v -0.130309 -0.004650 0.131292
v -0.130309 0.091552 0.131292
v -0.130309 -0.004650 0.101292
v -0.130309 0.091552 0.101292
v -0.341401 -0.004650 0.287108
v -0.341401 0.182945 0.287108
v -0.341401 -0.004650 0.257108
v -0.341401 0.182945 0.257108
v -0.311401 -0.004650 0.287108
v -0.311401 0.182945 0.287108
v -0.311401 -0.004650 0.257108
v -0.311401 0.182945 0.257108
v -0.620172 0.534037 0.280238
v -0.620172 0.534037 -0.437319
v -0.318066 0.534037 -0.437319
v -0.318066 0.534037 0.280238
v -0.595219 0.534037 0.250463
v -0.595219 0.534037 -0.407544
v -0.343019 0.534037 -0.407544
v -0.343019 0.534037 0.250463
v -0.595219 0.501067 0.250463
v -0.595219 0.501067 -0.407544
v -0.343019 0.501067 -0.407544
v -0.343019 0.501067 0.250463
v -0.326771 0.262109 -0.262513
v -0.326771 0.287204 -0.262513
v -0.326771 0.262109 -0.272512
v -0.326771 0.287204 -0.272512
v -0.316771 0.262109 -0.262513
v -0.316771 0.287204 -0.262513
v -0.316771 0.262109 -0.272512
v -0.316771 0.287204 -0.272512
v -0.299644 0.287641 0.228823
v -0.299644 0.438115 0.228823
v -0.316265 0.287641 0.228823
v -0.316265 0.438115 0.228823
v -0.299644 0.287641 -0.146129
v -0.299644 0.438115 -0.146129
v -0.316265 0.287641 -0.146129
v -0.316265 0.438115 -0.146129
v -0.299644 0.299051 0.214091
v -0.299644 0.426704 0.214091
v -0.299644 0.426704 -0.131397
v -0.299644 0.299051 -0.131397
v -0.309776 0.299051 0.214091
v -0.309776 0.426704 0.214091
v -0.309776 0.426704 -0.131397
v -0.309776 0.299051 -0.131397
v 0.427500 0.000765 0.029731
v 0.333531 0.034967 0.029731
v 0.427500 0.000765 0.019731
v 0.333531 0.034967 0.019731
v 0.430920 0.010162 0.029731
v 0.336951 0.044364 0.029731
v 0.430920 0.010162 0.019731
v 0.336951 0.044364 0.019731
v 0.324557 0.038233 0.029731
v 0.324557 0.038233 0.019731
v 0.327978 0.047630 0.019731
v 0.327978 0.047630 0.029731
v 0.340435 0.029575 -0.017421
v 0.343856 0.038972 -0.017421
v 0.331462 0.032841 -0.007780
v 0.334883 0.042238 -0.007780
v 0.343856 0.038972 0.067438
v 0.340435 0.029575 0.067438
v 0.334883 0.042238 0.057797
v 0.331462 0.032841 0.057797
vn -1.0000 -0.0000 -0.0000
vn -0.0000 -0.0000 -1.0000
vn 1.0000 -0.0000 -0.0000
vn -0.0000 -0.0000 1.0000
vn -0.0000 1.0000 -0.0000
vn -0.0000 -1.0000 -0.0000
vn -0.0000 0.8285 0.5600
vn 1.0000 0.0002 -0.0000
vn 0.0305 -0.9988 -0.0387
vn 0.0305 -0.9988 0.0387
vn -0.0000 -0.8285 -0.5600
vn -0.0000 -0.8192 -0.5736
vn -0.0000 0.8192 0.5736
vn -0.0000 -0.5736 0.8192
vn -0.0000 0.5736 -0.8192
vn 0.6666 -0.3333 0.6667
vn 0.6666 0.3333 0.6667
vn -0.0000 0.4472 0.8944
vn -0.0000 -0.4472 0.8944
vn 0.9370 0.1562 -0.3123
vn 0.9370 0.1562 0.3123
vn 0.6667 0.3333 0.6667
vn 0.6667 0.3333 -0.6667
vn -0.0000 -0.4472 -0.8944
vn -0.0000 0.4472 -0.8944
vn 0.6666 0.3333 -0.6667
vn 0.6666 -0.3333 -0.6667
vn 0.9370 -0.1562 -0.3123
vn 0.9370 -0.1562 0.3123
vn 0.6667 -0.3333 0.6667
vn 0.6667 -0.3333 -0.6667
vn -0.3420 -0.9397 -0.0000
vn 0.3420 0.9397 -0.0000
vn 0.9397 -0.3420 -0.0000
vn -0.9397 0.3420 -0.0000
vn -0.9008 0.3279 0.2846
vn 0.2947 0.9508 -0.0957
vn -0.6676 0.2430 -0.7037
vn -0.2947 -0.9508 0.0957
vn -0.8993 0.3273 -0.2899
vn 0.9169 -0.3337 0.2189
vn -0.6676 0.2430 0.7037
vn 0.9176 -0.3340 -0.2158
vn 0.2956 0.9507 0.0938
vn -0.2956 -0.9507 -0.0938
vt 0.506300 0.811200
vt 0.506000 0.810000
vt 0.635925 0.619055
vt 0.712000 0.584000
vt 0.000000 0.000000
vt 0.508819 0.895883
vt 0.636607 0.620590
vt 0.625000 0.500000
vt 0.875000 0.500000
vt 0.875000 0.750000
vt 0.625000 0.750000
vt 0.974228 0.785732
vt 0.926606 0.696838
vt 0.926201 0.663098
vt 0.555000 0.504000
vt 0.389757 0.452753
vt 0.246998 0.424573
vt 0.813720 0.433224
vt 0.802381 0.584415
s 0
usemtl Material.032
f 2/1/1 3/1/1 5/1/1 4/1/1
f 4/1/2 5/1/2 9/1/2 8/1/2
f 7/1/3 6/1/3 19/1/3 20/1/3
f 6/1/4 7/1/4 3/1/4 2/1/4
f 3/2/4 7/2/4 128/2/4 125/2/4
f 8/3/5 13/3/5 16/3/5 15/3/5
f 12/3/3 10/3/3 15/3/3 16/3/3
f 14/3/6 11/3/6 10/3/6 12/3/6
f 11/3/2 8/3/2 15/3/2 10/3/2
f 16/3/7 13/3/7 33/3/7 35/3/7
f 21/4/4 22/4/4 30/4/4 29/4/4
f 6/5/8 8/5/8 18/5/8 19/5/8
f 9/1/3 7/1/3 20/1/3 17/1/3
f 8/1/3 9/1/3 17/1/3 18/1/3
f 22/6/3 21/6/3 24/6/3 23/6/3
f 24/4/6 21/4/6 29/4/6 31/4/6
f 19/5/9 23/5/9 32/5/9 28/5/9
f 27/4/3 28/4/3 32/4/3 31/4/3
f 25/4/3 27/4/3 31/4/3 29/4/3
f 26/4/3 25/4/3 29/4/3 30/4/3
f 17/4/5 20/4/5 27/4/5 25/4/5
f 23/4/2 24/4/2 31/4/2 32/4/2
f 18/4/2 17/4/2 25/4/2 26/4/2
f 22/5/10 18/5/10 26/5/10 30/5/10
f 20/4/4 19/4/4 28/4/4 27/4/4
f 33/3/4 34/3/4 36/3/4 35/3/4
f 13/3/1 14/3/1 34/3/1 33/3/1
f 14/3/11 12/3/11 36/3/11 34/3/11
f 12/3/3 16/3/3 35/3/3 36/3/3
f 37/3/1 38/3/1 40/3/1 39/3/1
f 39/3/2 40/3/2 44/3/2 43/3/2
f 43/3/3 44/3/3 42/3/3 41/3/3
f 41/3/4 42/3/4 38/3/4 37/3/4
f 44/7/5 40/7/5 38/7/5 42/7/5
f 45/3/1 46/3/1 48/3/1 47/3/1
f 47/3/2 48/3/2 52/3/2 51/3/2
f 51/3/3 52/3/3 50/3/3 49/3/3
f 49/3/4 50/3/4 46/3/4 45/3/4
f 52/7/5 48/7/5 46/7/5 50/7/5
f 53/3/1 54/3/1 56/3/1 55/3/1
f 55/3/2 56/3/2 60/3/2 59/3/2
f 59/3/3 60/3/3 58/3/3 57/3/3
f 57/3/4 58/3/4 54/3/4 53/3/4
f 60/3/5 56/3/5 54/3/5 58/3/5
f 61/3/1 62/3/1 64/3/1 63/3/1
f 63/3/2 64/3/2 68/3/2 67/3/2
f 67/3/3 68/3/3 66/3/3 65/3/3
f 65/3/4 66/3/4 62/3/4 61/3/4
f 68/7/5 64/7/5 62/7/5 66/7/5
f 69/3/1 70/3/1 72/3/1 71/3/1
f 71/3/2 72/3/2 76/3/2 75/3/2
f 75/3/3 76/3/3 74/3/3 73/3/3
f 73/3/4 74/3/4 70/3/4 69/3/4
f 76/7/5 72/7/5 70/7/5 74/7/5
f 77/3/1 78/3/1 80/3/1 79/3/1
f 79/3/2 80/3/2 84/3/2 83/3/2
f 83/3/3 84/3/3 82/3/3 81/3/3
f 81/3/4 82/3/4 78/3/4 77/3/4
f 84/3/5 80/3/5 78/3/5 82/3/5
f 85/3/1 86/3/1 88/3/1 87/3/1
f 87/3/6 88/3/6 92/3/6 91/3/6
f 91/3/3 92/3/3 90/3/3 89/3/3
f 89/3/5 90/3/5 86/3/5 85/3/5
f 87/3/4 91/3/4 89/3/4 85/3/4
f 92/3/2 88/3/2 86/3/2 90/3/2
f 93/3/4 94/3/4 96/3/4 95/3/4
f 95/3/6 96/3/6 100/3/6 99/3/6
f 99/3/2 100/3/2 98/3/2 97/3/2
f 97/3/5 98/3/5 94/3/5 93/3/5
f 95/3/3 99/3/3 97/3/3 93/3/3
f 100/8/1 96/9/1 94/10/1 98/11/1
f 101/3/1 102/3/1 104/3/1 103/3/1
f 103/3/12 104/3/12 108/3/12 107/3/12
f 107/3/3 108/3/3 106/3/3 105/3/3
f 105/3/13 106/3/13 102/3/13 101/3/13
f 103/3/14 107/3/14 105/3/14 101/3/14
f 108/3/15 104/3/15 102/3/15 106/3/15
f 109/3/1 110/3/1 112/3/1 111/3/1
f 111/3/2 112/3/2 116/3/2 115/3/2
f 115/3/3 116/3/3 114/3/3 113/3/3
f 113/3/4 114/3/4 110/3/4 109/3/4
f 116/3/5 112/3/5 110/3/5 114/3/5
f 117/3/1 118/3/1 120/3/1 119/3/1
f 119/3/2 120/3/2 124/3/2 123/3/2
f 123/3/3 124/3/3 122/3/3 121/3/3
f 121/3/4 122/3/4 118/3/4 117/3/4
f 124/7/5 120/7/5 118/7/5 122/7/5
f 128/12/5 127/12/5 131/12/5 132/12/5
f 9/2/2 5/2/2 126/2/2 127/2/2
f 7/2/3 9/2/3 127/2/3 128/2/3
f 5/2/1 3/2/1 125/2/1 126/2/1
f 129/13/2 132/13/2 136/13/2 133/13/2
f 126/12/5 125/12/5 129/12/5 130/12/5
f 125/12/5 128/12/5 132/12/5 129/12/5
f 127/12/5 126/12/5 130/12/5 131/12/5
f 135/14/5 134/14/5 133/14/5 136/14/5
f 131/13/4 130/13/4 134/13/4 135/13/4
f 132/13/1 131/13/1 135/13/1 136/13/1
f 130/13/3 129/13/3 133/13/3 134/13/3
f 137/15/1 138/15/1 140/15/1 139/15/1
f 139/15/2 140/15/2 144/15/2 143/15/2
f 143/15/3 144/15/3 142/15/3 141/15/3
f 141/15/4 142/15/4 138/15/4 137/15/4
f 139/15/6 143/15/6 141/15/6 137/15/6
f 144/15/5 140/15/5 138/15/5 142/15/5
s 1
f 145/16/16 146/16/17 148/16/18 147/16/19
f 153/16/20 156/16/21 160/16/22 157/16/23
f 151/16/24 152/16/25 150/16/26 149/16/27
f 150/16/26 146/16/17 154/16/28 155/16/29
f 147/16/19 151/16/24 149/16/27 145/16/16
f 152/16/25 148/16/18 146/16/17 150/16/26
f 149/16/27 150/16/26 155/16/29 156/16/21
f 146/16/17 145/16/16 153/16/20 154/16/28
f 145/16/16 149/16/27 156/16/21 153/16/20
f 160/17/22 159/17/30 158/17/31 157/17/23
f 154/16/28 153/16/20 157/16/23 158/16/31
f 155/16/29 154/16/28 158/16/31 159/16/30
f 156/16/21 155/16/29 159/16/30 160/16/22
s 0
f 161/18/32 162/18/32 164/18/32 163/18/32
f 163/18/2 164/18/2 168/18/2 167/18/2
f 167/18/33 168/18/33 166/18/33 165/18/33
f 165/18/4 166/18/4 162/18/4 161/18/4
f 163/18/34 167/18/34 165/18/34 161/18/34
f 164/19/32 162/19/32 169/19/32 170/19/32
f 171/19/35 170/19/35 169/19/35 172/19/35
f 172/19/36 169/19/36 180/19/36 179/19/36
f 171/19/37 168/19/37 174/19/37 176/19/37
f 166/19/33 168/19/33 171/19/33 172/19/33
f 174/19/38 173/19/38 175/19/38 176/19/38
f 164/19/39 170/19/39 175/19/39 173/19/39
f 170/19/40 171/19/40 176/19/40 175/19/40
f 168/19/41 164/19/41 173/19/41 174/19/41
f 178/19/42 177/19/42 179/19/42 180/19/42
f 162/19/43 166/19/43 177/19/43 178/19/43
f 166/19/44 172/19/44 179/19/44 177/19/44
f 169/19/45 162/19/45 178/19/45 180/19/45
