# Blender 4.4.0
# www.blender.org
mtllib Hummer2.mtl
o Cube.090
v -0.018292 -0.018292 0.143985
v -0.018292 0.018292 0.143985
v -0.018292 -0.018292 -0.143985
v -0.018292 0.018292 -0.143985
v 0.018292 -0.018292 0.143985
v 0.018292 0.018292 0.143985
v 0.018292 -0.018292 -0.143985
v 0.018292 0.018292 -0.143985
v -0.022558 -0.080376 0.143985
v -0.022558 0.101044 0.143985
v 0.025405 0.101044 0.143985
v 0.025405 -0.080376 0.143985
v -0.022558 -0.079062 0.185196
v -0.022558 0.065175 0.185196
v 0.025405 0.065175 0.185196
v 0.025405 -0.079062 0.185196
vn -1.0000 -0.0000 -0.0000
vn -0.0000 -0.0000 -1.0000
vn 1.0000 -0.0000 -0.0000
vn -0.0000 -1.0000 -0.0000
vn -0.0000 1.0000 -0.0000
vn -0.0000 -0.9995 0.0319
vn -0.0000 -0.0000 1.0000
vn -0.0000 0.7543 0.6565
vt 0.723006 0.230109
vt 0.634812 0.492440
s 0
usemtl Material
f 1/1/1 2/1/1 4/1/1 3/1/1
f 3/1/2 4/1/2 8/1/2 7/1/2
f 7/1/3 8/1/3 6/1/3 5/1/3
f 6/2/2 2/2/2 10/2/2 11/2/2
f 3/1/4 7/1/4 5/1/4 1/1/4
f 8/1/5 4/1/5 2/1/5 6/1/5
f 9/2/6 12/2/6 16/2/6 13/2/6
f 5/2/2 6/2/2 11/2/2 12/2/2
f 2/2/2 1/2/2 9/2/2 10/2/2
f 1/2/2 5/2/2 12/2/2 9/2/2
f 16/2/7 15/2/7 14/2/7 13/2/7
f 10/2/1 9/2/1 13/2/1 14/2/1
f 11/2/8 10/2/8 14/2/8 15/2/8
f 12/2/3 11/2/3 15/2/3 16/2/3
