# Blender 4.2.0
# www.blender.org
o Plane.001
v 0.297789 0.024586 -0.278085
v -0.250883 0.061445 -0.290498
v 0.250883 0.042424 0.250883
v -0.250883 0.048738 0.250883
v 0.000000 0.014957 -0.352190
v 0.000000 0.024586 0.349404
v 0.349404 0.055305 0.000000
v -0.392165 0.052625 0.000000
v 0.000000 0.084545 0.000000
v 0.154693 0.042424 0.309387
v 0.154693 0.061055 -0.312173
v -0.283056 0.034682 0.000000
v -0.154693 0.041984 -0.349001
v -0.154693 0.048738 0.309387
v 0.283056 0.061798 0.000000
v -0.352148 0.024586 0.154693
v 0.309387 0.042424 0.154693
v 0.000000 0.031396 0.283056
v 0.000000 0.061576 -0.283056
v -0.203244 0.049623 0.203244
v 0.356292 0.024586 -0.181895
v 0.203244 0.019890 0.203244
v -0.309387 0.052625 -0.154693
v -0.175341 0.031210 -0.206654
v 0.203244 0.029576 -0.203244
v 0.125319 0.019890 0.250638
v 0.125319 0.029576 -0.250638
v -0.125319 0.034549 -0.250638
v -0.125319 0.033507 0.250638
v -0.250638 0.050798 0.125319
v 0.250638 0.019890 0.125319
v 0.250638 0.061798 -0.125319
v -0.250638 0.046925 -0.125319
v -0.222429 0.006157 0.000000
v 0.222429 0.006157 0.000000
v 0.000000 -0.010112 0.222429
v 0.000000 0.006157 -0.222429
v -0.159711 0.022273 0.159711
v 0.159711 0.006157 0.159711
v -0.131808 0.017478 -0.163121
v 0.159711 0.012309 -0.159711
v 0.098477 0.006157 0.196954
v 0.098477 0.009832 -0.196954
v -0.098477 0.006157 -0.196954
v -0.098477 0.006157 0.196954
v -0.196954 0.022273 0.098477
v 0.196954 0.006157 0.098477
v 0.196954 0.006157 -0.098477
v -0.196954 0.033192 -0.098477
v -0.092252 -0.004414 0.000000
v 0.092252 -0.004414 0.000000
v 0.000000 -0.004414 0.092252
v 0.000000 -0.004414 -0.092252
v -0.066240 -0.004414 0.066240
v 0.066240 -0.004414 0.066240
v -0.066240 -0.004414 -0.066240
v 0.066240 0.003846 -0.066240
v 0.040843 -0.004414 0.081686
v 0.040843 0.001368 -0.081686
v -0.040843 -0.004414 -0.081686
v -0.040843 -0.004414 0.081686
v -0.081686 -0.004414 0.040843
v 0.081686 -0.004414 0.040843
v 0.081686 -0.004414 -0.040843
v -0.081686 -0.004414 -0.040843
v 0.344717 0.023748 -0.344717
v -0.344717 0.060606 -0.344717
v 0.344717 -0.016065 0.344717
v -0.344717 0.044586 0.399414
v 0.000000 -0.005765 -0.480086
v 0.000000 -0.031740 0.480086
v 0.480086 -0.002113 -0.000000
v -0.480086 -0.021362 -0.000000
v 0.212551 0.023748 0.425102
v 0.165837 0.060216 -0.425102
v -0.212551 -0.005765 -0.425102
v -0.212551 0.023748 0.479799
v -0.425102 0.044586 0.212551
v 0.425102 -0.016065 0.212551
v 0.378388 0.023748 -0.212551
v -0.425102 -0.021362 -0.212551
v 0.437036 -0.016644 -0.437036
v -0.437036 -0.016644 -0.437036
v 0.437036 -0.016644 0.437036
v -0.437036 -0.016644 0.437036
v 0.000000 -0.016644 -0.608657
v 0.000000 -0.016644 0.608657
v 0.608657 -0.016644 -0.000000
v -0.608657 -0.016644 -0.000000
v 0.269474 -0.016644 0.538948
v 0.269474 -0.016644 -0.538948
v -0.269474 -0.016644 -0.538948
v -0.269474 -0.016644 0.538948
v -0.538948 -0.016644 0.269474
v 0.538948 -0.016644 0.269474
v 0.538948 -0.016644 -0.269474
v -0.538948 -0.016644 -0.269474
v -0.228258 0.020726 0.237056
v 0.225805 0.020726 0.237056
v -0.228258 0.020726 -0.217007
v 0.225805 0.020726 -0.217007
v -0.315696 0.020726 0.010032
v 0.313243 0.020726 0.010032
v -0.274741 0.020726 0.146788
v 0.272288 0.020726 0.146788
v 0.272288 0.020726 -0.126945
v -0.274741 0.020726 -0.126945
v -0.001226 0.020726 0.324502
v -0.001226 0.020726 -0.304437
v 0.135531 0.020726 0.283545
v 0.135531 0.020726 -0.263484
v -0.137984 0.020726 -0.263484
v -0.137984 0.020726 0.283545
vn 0.0931 0.9957 0.0013
vn -0.0083 0.9965 -0.0836
vn 0.0891 0.9959 0.0148
vn -0.0130 0.9999 -0.0024
vn -0.0970 0.9762 -0.1938
vn 0.0309 0.9883 0.1495
vn 0.2245 0.9740 0.0297
vn -0.2786 0.9590 -0.0519
vn -0.0130 0.9990 0.0433
vn -0.0001 0.9993 0.0381
vn 0.1799 0.9828 0.0417
vn 0.0578 0.9674 -0.2465
vn 0.1059 0.9905 0.0876
vn -0.2801 0.9580 0.0611
vn -0.1437 0.9896 -0.0117
vn 0.1138 0.9881 0.1031
vn 0.0323 0.9691 -0.2446
vn -0.0093 0.9847 0.1740
vn 0.1495 0.9822 -0.1136
vn 0.1948 0.9744 -0.1121
vn -0.1950 0.9612 -0.1950
vn -0.1715 0.9850 0.0181
vn 0.2244 0.9688 0.1054
vn -0.1247 0.9861 0.1102
vn -0.1153 0.9630 -0.2436
vn -0.0357 0.9729 0.2284
vn 0.1244 0.9780 0.1674
vn 0.1959 0.9605 -0.1977
vn 0.1266 0.9878 -0.0912
vn -0.2895 0.9569 -0.0254
vn -0.2418 0.9703 -0.0029
vn 0.2060 0.9722 0.1113
vn 0.2598 0.9655 0.0173
vn -0.4184 0.9058 0.0659
vn 0.0228 0.9626 -0.2699
vn -0.0063 0.9236 0.3834
vn 0.2929 0.9417 -0.1657
vn -0.1132 0.9871 -0.1132
vn 0.2501 0.9647 0.0822
vn -0.2247 0.9614 0.1589
vn -0.1028 0.9767 -0.1886
vn -0.0896 0.9628 0.2550
vn 0.1483 0.9510 0.2714
vn 0.2279 0.9488 -0.2185
vn 0.2798 0.9429 -0.1810
vn -0.2473 0.9682 -0.0375
vn -0.3807 0.9139 0.1411
vn 0.2405 0.9605 0.1398
vn 0.0709 0.9970 0.0300
vn -0.0510 0.9987 0.0058
vn -0.0040 0.9999 0.0100
vn -0.0219 0.9987 0.0462
vn 0.1051 0.9939 -0.0336
vn -0.0365 0.9990 -0.0266
vn 0.1360 0.9901 0.0342
vn -0.0195 0.9981 0.0583
vn -0.0480 0.9988 -0.0102
vn -0.0472 0.9984 0.0300
vn 0.0581 0.9976 0.0365
vn 0.0817 0.9967 0.0004
vn 0.0752 0.9952 -0.0630
vn -0.0457 0.9989 -0.0109
vn -0.0220 0.9984 0.0527
vn 0.1058 0.9905 0.0884
vn 0.2083 0.9709 -0.1184
vn -0.2023 0.9676 -0.1510
vn 0.1869 0.9769 0.1035
vn -0.1999 0.9445 0.2606
vn -0.0758 0.9716 -0.2242
vn 0.0198 0.9762 0.2161
vn 0.2228 0.9744 0.0281
vn -0.2575 0.9638 -0.0694
vn 0.0628 0.9846 0.1632
vn -0.0095 0.9809 -0.1943
vn 0.0120 0.9527 -0.3037
vn 0.0137 0.9651 0.2615
vn -0.2414 0.9703 0.0112
vn 0.1930 0.9756 0.1045
vn 0.1670 0.9848 -0.0481
vn -0.3105 0.9505 -0.0105
vn 0.2472 0.9478 -0.2016
vn -0.1972 0.9643 -0.1766
vn 0.0894 0.9953 0.0366
vn -0.3620 0.8738 0.3246
vn -0.0313 0.9738 -0.2251
vn 0.0041 0.9899 0.1417
vn 0.1189 0.9928 0.0147
vn -0.1055 0.9939 -0.0310
vn 0.0518 0.9940 0.0958
vn 0.1399 0.9379 -0.3175
vn -0.0237 0.9694 -0.2443
vn -0.1317 0.9110 0.3908
vn -0.3447 0.9347 0.0863
vn 0.0270 0.9994 0.0215
vn 0.2130 0.9752 -0.0598
vn -0.1771 0.9839 0.0256
vn -0.0000 1.0000 -0.0000
vt 0.879268 0.278168
vt 0.883424 0.282205
vt 0.880884 0.284455
vt 0.877490 0.281175
vt 0.854382 0.284718
vt 0.858411 0.280541
vt 0.860653 0.283104
vt 0.857573 0.287943
vt 0.865574 0.276558
vt 0.873755 0.276508
vt 0.873064 0.279846
vt 0.866443 0.279861
vt 0.866346 0.311301
vt 0.860798 0.309624
vt 0.862565 0.306606
vt 0.867094 0.307871
vt 0.887345 0.297476
vt 0.885669 0.303050
vt 0.882657 0.301289
vt 0.883959 0.296841
vt 0.856651 0.305605
vt 0.852678 0.298430
vt 0.856071 0.297544
vt 0.859215 0.303372
vt 0.887458 0.289292
vt 0.884035 0.290290
vt 0.881635 0.307229
vt 0.874522 0.311326
vt 0.873650 0.307950
vt 0.879400 0.304621
vt 0.852672 0.290259
vt 0.856022 0.291068
vt 0.878454 0.286510
vt 0.875889 0.283937
vt 0.861533 0.301356
vt 0.864143 0.303873
vt 0.880978 0.296232
vt 0.881159 0.291006
vt 0.877403 0.302283
vt 0.879943 0.299695
vt 0.867246 0.282943
vt 0.862675 0.285417
vt 0.867904 0.304634
vt 0.860385 0.289499
vt 0.859239 0.291596
vt 0.859289 0.296585
vt 0.872409 0.282899
vt 0.872909 0.304713
vt 0.865562 0.295038
vt 0.866600 0.296909
vt 0.874623 0.294832
vt 0.874624 0.292686
vt 0.868910 0.289332
vt 0.867041 0.290378
vt 0.874186 0.296271
vt 0.873136 0.297348
vt 0.865996 0.291463
vt 0.865566 0.292905
vt 0.872494 0.289755
vt 0.871051 0.289323
vt 0.867669 0.297973
vt 0.869138 0.298387
vt 0.871275 0.298382
vt 0.873581 0.290804
vt 0.875117 0.270031
vt 0.882706 0.272305
vt 0.888399 0.277816
vt 0.848499 0.281249
vt 0.854037 0.275543
vt 0.851651 0.309965
vt 0.846189 0.300110
vt 0.893920 0.287619
vt 0.893862 0.298892
vt 0.857341 0.315497
vt 0.886055 0.312234
vt 0.876230 0.317800
vt 0.863877 0.270074
vt 0.846189 0.288856
vt 0.891576 0.306508
vt 0.864949 0.317799
vt 0.846880 0.306333
vt 0.848621 0.306333
vt 0.848642 0.318162
vt 0.846902 0.318162
vt 0.521064 0.512334
s 1
f 4/1/4 14/2/13 29/3/28 20/4/19
f 2/5/2 23/6/22 33/7/32 24/8/23
f 8/9/8 16/10/15 30/11/29 12/12/11
f 21/13/20 1/14/1 25/15/24 32/16/31
f 10/17/9 3/18/3 22/19/21 26/20/25
f 11/21/10 5/22/5 19/23/18 27/24/26
f 23/6/22 8/9/8 12/12/11 33/7/32
f 16/10/15 4/1/4 20/4/19 30/11/29
f 6/25/6 10/17/9 26/20/25 18/26/17
f 1/14/1 11/21/10 27/24/26 25/15/24
f 14/2/13 6/25/6 18/26/17 29/3/28
f 17/27/16 7/28/7 15/29/14 31/30/30
f 3/18/3 17/27/16 31/30/30 22/19/21
f 5/22/5 13/31/12 28/32/27 19/23/18
f 13/31/12 2/5/2 24/8/23 28/32/27
f 7/28/7 21/13/20 32/16/31 15/29/14
f 20/4/19 29/3/28 45/33/44 38/34/37
f 25/15/24 27/24/26 43/35/42 41/36/40
f 18/26/17 26/20/25 42/37/41 36/38/35
f 22/19/21 31/30/30 47/39/46 39/40/38
f 33/7/32 12/12/11 34/41/33 49/42/48
f 32/16/31 25/15/24 41/36/40 48/43/47
f 28/32/27 24/8/23 40/44/39 44/45/43
f 19/23/18 28/32/27 44/45/43 37/46/36
f 29/3/28 18/26/17 36/38/35 45/33/44
f 12/12/11 30/11/29 46/47/45 34/41/33
f 27/24/26 19/23/18 37/46/36 43/35/42
f 30/11/29 20/4/19 38/34/37 46/47/45
f 24/8/23 33/7/32 49/42/48 40/44/39
f 15/29/14 32/16/31 48/43/47 35/48/34
f 26/20/25 22/19/21 39/40/38 42/37/41
f 31/30/30 15/29/14 35/48/34 47/39/46
f 43/35/42 37/46/36 53/49/52 59/50/58
f 36/38/35 42/37/41 58/51/57 52/52/51
f 49/42/48 34/41/33 50/53/49 65/54/64
f 42/37/41 39/40/38 55/55/54 58/51/57
f 39/40/38 47/39/46 63/56/62 55/55/54
f 40/44/39 49/42/48 65/54/64 56/57/55
f 37/46/36 44/45/43 60/58/59 53/49/52
f 46/47/45 38/34/37 54/59/53 62/60/61
f 34/41/33 46/47/45 62/60/61 50/53/49
f 48/43/47 41/36/40 57/61/56 64/62/63
f 47/39/46 35/48/34 51/63/50 63/56/62
f 35/48/34 48/43/47 64/62/63 51/63/50
f 44/45/43 40/44/39 56/57/55 60/58/59
f 38/34/37 45/33/44 61/64/60 54/59/53
f 45/33/44 36/38/35 52/52/51 61/64/60
f 41/36/40 43/35/42 59/50/58 57/61/56
f 65/54/64 50/53/49 62/60/61 54/59/53 61/64/60 52/52/51 58/51/57 55/55/54 63/56/62 51/63/50 64/62/63 57/61/56 59/50/58 53/49/52 60/58/59 56/57/55
f 4/1/4 16/10/15 78/65/77 69/66/68
f 14/2/13 4/1/4 69/66/68 77/67/76
f 23/6/22 2/5/2 67/68/66 81/69/80
f 5/22/5 11/21/10 75/70/74 70/71/69
f 10/17/9 6/25/6 71/72/70 74/73/73
f 6/25/6 14/2/13 77/67/76 71/72/70
f 11/21/10 1/14/1 66/74/65 75/70/74
f 7/28/7 17/27/16 79/75/78 72/76/71
f 16/10/15 8/9/8 73/77/72 78/65/77
f 2/5/2 13/31/12 76/78/75 67/68/66
f 8/9/8 23/6/22 81/69/80 73/77/72
f 17/27/16 3/18/3 68/79/67 79/75/78
f 1/14/1 21/13/20 80/80/79 66/74/65
f 21/13/20 7/28/7 72/76/71 80/80/79
f 3/18/3 10/17/9 74/73/73 68/79/67
f 13/31/12 5/22/5 70/71/69 76/78/75
f 75/81/74 66/82/65 82/83/81 91/84/90
f 68/81/67 74/82/73 90/83/89 84/84/83
f 76/81/75 70/82/69 86/83/85 92/84/91
f 69/81/68 78/82/77 94/83/93 85/84/84
f 77/81/76 69/82/68 85/83/84 93/84/92
f 70/81/69 75/82/74 91/83/90 86/84/85
f 78/81/77 73/82/72 89/83/88 94/84/93
f 71/81/70 77/82/76 93/83/92 87/84/86
f 79/81/78 68/82/67 84/83/83 95/84/94
f 72/81/71 79/82/78 95/83/94 88/84/87
f 80/81/79 72/82/71 88/83/87 96/84/95
f 73/81/72 81/82/80 97/83/96 89/84/88
f 67/81/66 76/82/75 92/83/91 83/84/82
f 81/81/80 67/82/66 83/83/82 97/84/96
f 74/81/73 71/82/70 87/83/86 90/84/89
f 66/81/65 80/82/79 96/83/95 82/84/81
f 104/85/97 98/85/97 113/85/97 108/85/97 110/85/97 99/85/97 105/85/97 103/85/97 106/85/97 101/85/97 111/85/97 109/85/97 112/85/97 100/85/97 107/85/97 102/85/97
