# Blender 4.1.1
# www.blender.org
mtllib StoneFactory.mtl
o Plane.003
v -0.160870 -0.003993 0.538460
v -0.160870 0.783372 0.538460
v -0.160870 -0.003993 -0.211540
v -0.160870 0.783372 -0.211540
v 0.589130 -0.003993 0.538460
v 0.589130 0.783372 0.538460
v 0.589130 -0.003993 -0.211540
v 0.589130 0.783372 -0.211540
v -0.107081 0.401285 -0.211540
v -0.107081 -0.003942 -0.211540
v 0.430014 -0.003942 -0.211540
v 0.430014 0.401285 -0.211540
v -0.107081 0.401285 -0.559905
v -0.107081 -0.003942 -0.559905
v 0.430014 -0.003942 -0.559905
v 0.430014 0.401285 -0.559905
v -0.071844 0.401285 -0.215886
v 0.394776 0.401285 -0.215886
v -0.071844 0.401285 -0.518540
v 0.394776 0.401285 -0.518540
v -0.107081 0.462484 -0.559905
v 0.430014 0.462484 -0.559905
v 0.430014 0.462484 -0.211540
v -0.107081 0.462484 -0.211540
v -0.071844 0.462484 -0.518540
v 0.394776 0.462484 -0.518540
v 0.394776 0.462484 -0.215886
v -0.071844 0.462484 -0.215886
v -0.134715 0.783372 0.512305
v -0.134715 0.783372 -0.185384
v 0.562974 0.783372 -0.185384
v 0.562974 0.783372 0.512305
v -0.160870 0.841212 0.538460
v -0.160870 0.841212 -0.211540
v 0.589130 0.841212 -0.211540
v 0.589130 0.841212 0.538460
v -0.134715 0.841212 0.512305
v -0.134715 0.841212 -0.185384
v 0.562974 0.841212 -0.185384
v 0.562974 0.841212 0.512305
v 0.400679 0.762552 0.480800
v 0.400679 1.166752 0.480800
v 0.400679 0.762552 0.351092
v 0.400679 1.166752 0.351092
v 0.530387 0.762552 0.480800
v 0.530387 1.166752 0.480800
v 0.530387 0.762552 0.351092
v 0.530387 1.166752 0.351092
v 0.400679 0.762552 0.313007
v 0.400679 1.166752 0.313007
v 0.400679 0.762552 0.183299
v 0.400679 1.166752 0.183299
v 0.530387 0.762552 0.313007
v 0.530387 1.166752 0.313007
v 0.530387 0.762552 0.183299
v 0.530387 1.166752 0.183299
v 0.388847 1.166752 0.492632
v 0.388847 1.166752 0.339260
v 0.542219 1.166752 0.339260
v 0.542219 1.166752 0.492632
v 0.390382 1.166752 0.323304
v 0.390382 1.166752 0.173002
v 0.540684 1.166752 0.173002
v 0.540684 1.166752 0.323304
v 0.527567 1.174272 0.310187
v 0.527567 1.174272 0.186119
v 0.403500 1.174272 0.186119
v 0.403500 1.174272 0.310187
v 0.403500 1.208150 0.186119
v 0.527567 1.208150 0.186119
v 0.403500 1.208150 0.310187
v 0.527567 1.208150 0.310187
v 0.540684 1.208150 0.323304
v 0.540684 1.208150 0.173002
v 0.390382 1.208150 0.173002
v 0.390382 1.208150 0.323304
v 0.542219 1.208150 0.492632
v 0.542219 1.208150 0.339260
v 0.388847 1.208150 0.339260
v 0.388847 1.208150 0.492632
v 0.345911 0.775544 0.072555
v 0.345911 1.010087 0.072555
v 0.345911 0.775544 -0.143194
v 0.345911 1.010087 -0.143194
v 0.536453 0.775544 0.072555
v 0.536453 1.010087 0.072555
v 0.536453 0.775544 -0.143194
v 0.536453 1.010087 -0.143194
v 0.354949 1.010087 0.062322
v 0.354949 1.010087 -0.132960
v 0.527415 1.010087 -0.132960
v 0.527415 1.010087 0.062322
v 0.345911 1.030259 0.072555
v 0.345911 1.030259 -0.143194
v 0.536453 1.030259 -0.143194
v 0.536453 1.030259 0.072555
v 0.354949 1.030259 0.062322
v 0.354949 1.030259 -0.132960
v 0.527415 1.030259 -0.132960
v 0.527415 1.030259 0.062322
v 0.345911 0.771101 -0.091481
v 0.345911 0.771101 0.020843
v 0.345911 0.939388 0.020843
v 0.345911 0.939388 -0.091481
v 0.341295 0.778612 -0.086468
v 0.341295 0.778612 0.015830
v 0.341295 0.931877 0.015830
v 0.341295 0.931877 -0.086468
v 0.333542 0.771101 0.020843
v 0.333542 0.939388 0.020843
v 0.333542 0.939388 -0.091481
v 0.333542 0.771101 -0.091481
v 0.333542 0.778612 0.015830
v 0.333542 0.931877 0.015830
v 0.333542 0.931877 -0.086468
v 0.333542 0.778612 -0.086468
v 0.334238 0.852567 -0.000170
v 0.334238 0.873372 -0.000170
v 0.334238 0.852567 -0.008165
v 0.334238 0.873372 -0.008165
v 0.342583 0.852567 -0.000170
v 0.342583 0.873372 -0.000170
v 0.342583 0.852567 -0.008165
v 0.342583 0.873372 -0.008165
v -0.160870 -0.009421 -0.050243
v -0.160870 -0.009421 0.377164
v -0.160870 0.439280 0.377164
v -0.160870 0.439280 -0.050243
v -0.173620 0.360081 -0.040976
v -0.173620 0.360081 0.367896
v -0.173620 0.429551 0.367896
v -0.173620 0.429551 -0.040976
v -0.188650 -0.009421 0.377164
v -0.188650 0.439280 0.377164
v -0.188650 0.439280 -0.050243
v -0.188650 -0.009421 -0.050243
v -0.188650 0.000309 0.367896
v -0.188650 0.429551 0.367896
v -0.188650 0.429551 -0.040976
v -0.188650 0.000309 -0.040976
v -0.107081 0.257748 -0.293232
v -0.107081 -0.002536 -0.293232
v -0.107081 0.257748 -0.478212
v -0.107081 -0.002536 -0.478212
v -0.110868 0.240101 -0.298121
v -0.110868 -0.007175 -0.298121
v -0.110868 0.240101 -0.461574
v -0.110868 -0.007175 -0.461574
v -0.124274 0.245088 -0.299120
v -0.124274 -0.002188 -0.299120
v -0.124274 0.256346 -0.288357
v -0.124274 -0.003938 -0.288357
v -0.124274 0.256346 -0.473337
v -0.124274 -0.003938 -0.473337
v -0.124274 0.245088 -0.462574
v -0.124274 -0.002188 -0.462574
v -0.127438 0.108442 -0.318947
v -0.127438 0.151260 -0.318947
v -0.127438 0.108442 -0.338288
v -0.127438 0.151260 -0.338288
v -0.108097 0.108442 -0.318947
v -0.108097 0.151260 -0.318947
v -0.108097 0.108442 -0.338288
v -0.108097 0.151260 -0.338288
v 0.529378 1.208150 0.479791
v 0.401688 1.208150 0.479791
v 0.529378 1.208150 0.352101
v 0.401688 1.208150 0.352101
v 0.401688 1.170168 0.479791
v 0.401688 1.170168 0.352101
v 0.529378 1.170168 0.352101
v 0.529378 1.170168 0.479791
v -0.173620 0.287585 -0.040976
v -0.173620 0.287585 0.367896
v -0.173620 0.213079 -0.040976
v -0.173620 0.213079 0.367896
v -0.173620 0.143799 -0.040976
v -0.173620 0.143799 0.367896
v -0.173620 0.079930 -0.040976
v -0.173620 0.079930 0.367896
v -0.173620 -0.004074 -0.040976
v -0.173620 -0.004074 0.367896
v 0.124216 0.401337 -0.355606
v -0.009554 0.401337 -0.355606
v 0.124216 0.465994 -0.334598
v -0.009554 0.465994 -0.334598
v 0.124216 0.505953 -0.279598
v -0.009554 0.505953 -0.279598
v 0.124216 0.505953 -0.211614
v -0.009554 0.505953 -0.211614
v -0.009554 0.398049 -0.211614
v 0.124216 0.398049 -0.211614
vn -1.0000 -0.0000 -0.0000
vn -0.0000 -0.0000 -1.0000
vn 1.0000 -0.0000 -0.0000
vn -0.0000 -0.0000 1.0000
vn -0.0000 -1.0000 -0.0000
vn -0.1224 -0.0000 0.9925
vn -0.0000 1.0000 -0.0000
vn 0.1224 -0.0000 0.9925
vn 0.3048 -0.0363 0.9517
vn 0.3048 -0.0363 -0.9517
vn -0.0813 0.9967 -0.0000
vn 0.2728 -0.0000 0.9621
vn -0.0888 -0.9754 0.2016
vn -0.1307 -0.9839 -0.1218
vn 0.0744 -0.0000 -0.9972
vn -0.2728 -0.0000 -0.9621
vn -0.3486 -0.9373 -0.0000
vn -0.0744 -0.0000 0.9972
vn -0.0000 0.3090 -0.9511
vn -0.0000 0.8090 -0.5878
vt 0.712435 0.814882
vt 0.898161 0.433112
vt 0.652114 0.674397
vt 0.425803 0.444150
vt 0.651959 0.676291
vt 0.848935 0.421882
vt 0.894985 0.438116
vt 0.848507 0.428086
vt 0.846001 0.424269
vt 0.664815 0.496633
vt 0.671488 0.444465
vt 0.682000 0.488500
s 0
usemtl Material
f 1/1/1 2/1/1 127/1/1 126/1/1
f 8/1/2 7/1/2 11/1/2 12/1/2
f 7/1/3 8/1/3 6/1/3 5/1/3
f 5/1/4 6/1/4 2/1/4 1/1/4
f 3/1/5 7/1/5 5/1/5 1/1/5
f 4/1/1 2/1/1 33/1/1 34/1/1
f 12/1/3 11/1/3 15/1/3 16/1/3
f 7/1/2 3/1/2 10/1/2 11/1/2
f 4/1/2 8/1/2 12/1/2 9/1/2
f 3/1/2 4/1/2 9/1/2 10/1/2
f 14/1/2 13/1/2 16/1/2 15/1/2
f 146/2/1 145/2/1 147/2/1 148/2/1
f 18/1/6 12/1/6 23/1/6 27/1/6
f 9/1/1 13/1/1 143/1/1 141/1/1
f 17/1/7 18/1/7 20/1/7 19/1/7
f 20/1/1 18/1/1 27/1/1 26/1/1
f 9/1/7 12/1/7 18/1/7 17/1/7
f 9/1/8 17/1/8 28/1/8 24/1/8
f 22/3/7 21/3/7 25/3/7 26/3/7
f 21/3/7 24/3/7 28/3/7 25/3/7
f 23/3/7 22/3/7 26/3/7 27/3/7
f 16/1/2 13/1/2 21/1/2 22/1/2
f 17/1/3 19/1/3 25/1/3 28/1/3
f 19/1/4 20/1/4 26/1/4 25/1/4
f 13/1/1 9/1/1 24/1/1 21/1/1
f 12/1/3 16/1/3 22/1/3 23/1/3
f 31/1/7 30/1/7 29/1/7 32/1/7
f 6/1/3 8/1/3 35/1/3 36/1/3
f 29/1/3 30/1/3 38/1/3 37/1/3
f 31/1/1 32/1/1 40/1/1 39/1/1
f 36/3/7 35/3/7 39/3/7 40/3/7
f 34/3/7 33/3/7 37/3/7 38/3/7
f 33/3/7 36/3/7 40/3/7 37/3/7
f 35/3/7 34/3/7 38/3/7 39/3/7
f 32/1/2 29/1/2 37/1/2 40/1/2
f 2/1/4 6/1/4 36/1/4 33/1/4
f 30/1/4 31/1/4 39/1/4 38/1/4
f 8/1/2 4/1/2 34/1/2 35/1/2
f 41/1/1 42/1/1 44/1/1 43/1/1
f 43/1/2 44/1/2 48/1/2 47/1/2
f 47/1/3 48/1/3 46/1/3 45/1/3
f 45/1/4 46/1/4 42/1/4 41/1/4
f 167/1/4 168/1/4 170/1/4 171/1/4
f 49/1/1 50/1/1 52/1/1 51/1/1
f 51/1/2 52/1/2 56/1/2 55/1/2
f 55/1/3 56/1/3 54/1/3 53/1/3
f 53/1/4 54/1/4 50/1/4 49/1/4
f 166/1/2 165/1/2 172/1/2 169/1/2
f 59/1/5 60/1/5 57/1/5 58/1/5
f 63/1/5 64/1/5 61/1/5 62/1/5
f 168/1/3 166/1/3 169/1/3 170/1/3
f 171/4/7 170/4/7 169/4/7 172/4/7
f 80/1/7 77/1/7 165/1/7 166/1/7
f 78/1/7 79/1/7 168/1/7 167/1/7
f 79/1/7 80/1/7 166/1/7 168/1/7
f 165/1/1 167/1/1 171/1/1 172/1/1
f 69/1/3 71/1/3 68/1/3 67/1/3
f 72/1/1 70/1/1 66/1/1 65/1/1
f 70/1/4 69/1/4 67/1/4 66/1/4
f 66/4/7 67/4/7 68/4/7 65/4/7
f 73/1/7 74/1/7 70/1/7 72/1/7
f 75/1/7 76/1/7 71/1/7 69/1/7
f 76/1/7 73/1/7 72/1/7 71/1/7
f 71/1/2 72/1/2 65/1/2 68/1/2
f 59/1/2 58/1/2 79/1/2 78/1/2
f 57/1/4 60/1/4 77/1/4 80/1/4
f 63/1/2 62/1/2 75/1/2 74/1/2
f 61/1/4 64/1/4 73/1/4 76/1/4
f 58/1/1 57/1/1 80/1/1 79/1/1
f 60/1/3 59/1/3 78/1/3 77/1/3
f 62/1/1 61/1/1 76/1/1 75/1/1
f 64/1/3 63/1/3 74/1/3 73/1/3
f 82/1/1 84/1/1 104/1/1 103/1/1
f 83/1/2 84/1/2 88/1/2 87/1/2
f 87/1/3 88/1/3 86/1/3 85/1/3
f 85/1/4 86/1/4 82/1/4 81/1/4
f 91/1/7 90/1/7 89/1/7 92/1/7
f 82/1/4 86/1/4 96/1/4 93/1/4
f 84/1/1 82/1/1 93/1/1 94/1/1
f 90/1/4 91/1/4 99/1/4 98/1/4
f 92/1/2 89/1/2 97/1/2 100/1/2
f 94/5/7 93/5/7 97/5/7 98/5/7
f 93/5/7 96/5/7 100/5/7 97/5/7
f 95/5/7 94/5/7 98/5/7 99/5/7
f 96/5/7 95/5/7 99/5/7 100/5/7
f 88/1/2 84/1/2 94/1/2 95/1/2
f 91/1/1 92/1/1 100/1/1 99/1/1
f 89/1/3 90/1/3 98/1/3 97/1/3
f 86/1/3 88/1/3 95/1/3 96/1/3
f 102/6/4 103/6/4 110/6/4 109/6/4
f 84/1/1 83/1/1 101/1/1 104/1/1
f 81/1/1 82/1/1 103/1/1 102/1/1
f 106/7/1 107/7/1 108/7/1 105/7/1
f 104/6/2 101/6/2 112/6/2 111/6/2
f 111/6/1 112/6/1 116/6/1 115/6/1
f 109/6/1 110/6/1 114/6/1 113/6/1
f 110/6/1 111/6/1 115/6/1 114/6/1
f 108/6/5 107/6/5 114/6/5 115/6/5
f 103/6/7 104/6/7 111/6/7 110/6/7
f 105/6/4 108/6/4 115/6/4 116/6/4
f 107/6/2 106/6/2 113/6/2 114/6/2
f 117/8/1 118/8/1 120/8/1 119/8/1
f 119/8/2 120/8/2 124/8/2 123/8/2
f 121/8/4 122/8/4 118/8/4 117/8/4
f 119/8/5 123/8/5 121/8/5 117/8/5
f 124/8/7 120/8/7 118/8/7 122/8/7
f 139/9/4 140/9/4 181/9/4 132/9/4
f 2/1/1 4/1/1 128/1/1 127/1/1
f 130/10/1 131/10/1 132/10/1 129/10/1
f 4/1/1 3/1/1 125/1/1 128/1/1
f 127/9/7 128/9/7 135/9/7 134/9/7
f 125/1/9 129/1/9 140/1/9 136/1/9
f 134/9/1 135/9/1 139/9/1 138/9/1
f 135/9/1 136/9/1 140/9/1 139/9/1
f 133/9/1 134/9/1 138/9/1 137/9/1
f 138/9/2 131/9/2 182/9/2 137/9/2
f 130/1/10 126/1/10 133/1/10 137/1/10
f 128/9/2 125/9/2 136/9/2 135/9/2
f 126/9/4 127/9/4 134/9/4 133/9/4
f 132/9/5 131/9/5 138/9/5 139/9/5
f 152/9/1 151/9/1 149/9/1 150/9/1
f 10/1/1 9/1/1 141/1/1 142/1/1
f 141/9/11 143/9/11 153/9/11 151/9/11
f 13/1/1 14/1/1 144/1/1 143/1/1
f 142/9/12 141/9/12 151/9/12 152/9/12
f 146/1/13 142/1/13 152/1/13 150/1/13
f 151/9/1 153/9/1 155/9/1 149/9/1
f 153/9/1 154/9/1 156/9/1 155/9/1
f 144/1/14 148/1/14 156/1/14 154/1/14
f 145/9/15 146/9/15 150/9/15 149/9/15
f 143/9/16 144/9/16 154/9/16 153/9/16
f 147/9/17 145/9/17 149/9/17 155/9/17
f 148/9/18 147/9/18 155/9/18 156/9/18
f 157/9/1 158/9/1 160/9/1 159/9/1
f 159/9/2 160/9/2 164/9/2 163/9/2
f 161/9/4 162/9/4 158/9/4 157/9/4
f 159/9/5 163/9/5 161/9/5 157/9/5
f 164/9/7 160/9/7 158/9/7 162/9/7
f 74/1/7 75/1/7 69/1/7 70/1/7
f 77/1/7 78/1/7 167/1/7 165/1/7
f 130/11/1 129/11/1 173/11/1 174/11/1
f 174/10/1 173/10/1 175/10/1 176/10/1
f 176/11/1 175/11/1 177/11/1 178/11/1
f 178/10/1 177/10/1 179/10/1 180/10/1
f 180/11/1 179/11/1 181/11/1 182/11/1
f 183/12/19 184/12/19 186/12/19 185/12/19
f 185/12/20 186/12/20 188/12/20 187/12/20
f 187/12/7 188/12/7 190/12/7 189/12/7
f 189/12/4 190/12/4 191/12/4 192/12/4
f 184/12/1 191/12/1 186/12/1
f 186/12/1 191/12/1 188/12/1
f 188/12/1 191/12/1 190/12/1
f 189/12/3 192/12/3 187/12/3
f 187/12/3 192/12/3 185/12/3
f 185/12/3 192/12/3 183/12/3
