# Blender 4.2.0
# www.blender.org
o Cube.046
v 0.031280 0.023497 -0.031280
v 0.031280 -0.000186 -0.031280
v 0.031280 0.023497 0.031280
v 0.031280 -0.000186 0.031280
v -0.031280 0.023497 -0.031280
v -0.031280 -0.000186 -0.031280
v -0.031280 0.023497 0.031280
v -0.031280 -0.000186 0.031280
v 0.000000 0.023497 0.042620
v 0.000000 0.023497 -0.042620
v 0.000000 -0.000186 0.042620
v 0.000000 -0.000186 -0.042620
v 0.042620 -0.000186 0.000000
v 0.042620 0.023497 0.000000
v -0.042620 -0.000186 0.000000
v -0.042620 0.023497 0.000000
v 0.018255 0.040072 -0.018255
v 0.000000 -0.000186 0.000000
v 0.018255 0.027651 -0.018255
v 0.018255 0.027651 0.018255
v -0.018255 0.027651 -0.018255
v -0.018255 0.027651 0.018255
v 0.000000 0.027651 0.024873
v 0.000000 0.027651 -0.024873
v 0.024873 0.027651 0.000000
v -0.024873 0.027651 0.000000
v 0.007821 0.047113 -0.007821
v 0.018255 0.040072 0.018255
v -0.018255 0.040072 -0.018255
v -0.018255 0.040072 0.018255
v 0.000000 0.040072 0.024873
v 0.000000 0.040072 -0.024873
v 0.024873 0.040072 0.000000
v -0.024873 0.040072 0.000000
v 0.007821 0.059779 -0.007821
v 0.007821 0.047113 0.007821
v -0.007821 0.047113 -0.007821
v -0.007821 0.047113 0.007821
v 0.000000 0.047113 0.010657
v 0.000000 0.047113 -0.010657
v 0.010657 0.047113 0.000000
v -0.010657 0.047113 0.000000
v 0.010330 0.059779 -0.010330
v 0.007821 0.059779 0.007821
v -0.007821 0.059779 -0.007821
v -0.007821 0.059779 0.007821
v 0.000000 0.059779 0.010657
v 0.000000 0.059779 -0.010657
v 0.010657 0.059779 0.000000
v -0.010657 0.059779 0.000000
v 0.010330 0.065518 -0.010330
v 0.010330 0.059779 0.010330
v -0.010330 0.059779 -0.010330
v -0.010330 0.059779 0.010330
v 0.000000 0.059779 0.014075
v 0.000000 0.059779 -0.014075
v 0.014076 0.059779 0.000000
v -0.014075 0.059779 0.000000
v 0.010330 0.065518 0.010330
v -0.010330 0.065518 -0.010330
v -0.010330 0.065518 0.010330
v 0.000000 0.065518 0.014075
v 0.000000 0.065518 -0.014075
v 0.014076 0.065518 0.000000
v -0.014075 0.065518 0.000000
v 0.007745 0.137233 -0.007745
v 0.007745 0.065518 -0.007745
v 0.007745 0.065518 0.007745
v -0.007745 0.065518 -0.007745
v -0.007745 0.065518 0.007745
v 0.000000 0.065518 0.010553
v 0.000000 0.065518 -0.010553
v 0.010553 0.065518 0.000000
v -0.010553 0.065518 0.000000
v 0.002118 0.143528 -0.002119
v 0.007745 0.137233 0.007745
v -0.007745 0.137233 -0.007745
v -0.007745 0.137233 0.007745
v 0.000000 0.137233 0.010553
v 0.000000 0.137233 -0.010553
v 0.010553 0.137233 0.000000
v -0.010553 0.137233 0.000000
v 0.002118 0.143528 0.002119
v -0.002119 0.143528 -0.002119
v -0.002119 0.143528 0.002119
v -0.000000 0.143528 0.002887
v -0.000000 0.143528 -0.002887
v 0.002886 0.143528 0.000000
v -0.002887 0.143528 0.000000
v 0.503899 0.495638 -0.052819
v 0.717770 -0.048439 -0.259403
v 0.501729 0.494214 0.005757
v 0.717770 -0.064631 -0.198974
v 0.445916 0.495737 -0.056963
v 0.657341 -0.064079 -0.263593
v 0.442440 0.494762 0.002937
v 0.657341 -0.080271 -0.203165
v 0.241778 -0.064631 -0.270787
v 0.237588 -0.080271 -0.210359
v 0.387933 0.495638 -0.056916
v 0.181350 -0.048439 -0.270787
v 0.383151 0.494214 0.000116
v 0.177159 -0.064079 -0.210359
v 0.706143 -0.064079 0.217775
v 0.495369 0.495638 0.064333
v 0.701952 -0.048439 0.278204
v 0.645714 -0.080271 0.217775
v 0.438964 0.495587 0.062836
v 0.641524 -0.064631 0.278204
v 0.229116 -0.080271 0.207495
v 0.229116 -0.064079 0.267924
v 0.168688 -0.064631 0.203304
v 0.382559 0.495638 0.057149
v 0.168688 -0.048439 0.263733
v 0.319989 0.170860 -0.132499
v 0.319989 0.198052 -0.122602
v 0.319989 0.180757 -0.159691
v 0.319989 0.207949 -0.149794
v 0.589222 0.170860 -0.132499
v 0.589222 0.198052 -0.122602
v 0.589222 0.180757 -0.159691
v 0.589222 0.207949 -0.149794
v 0.319989 0.180757 0.170310
v 0.319989 0.207949 0.160413
v 0.319989 0.170860 0.143118
v 0.319989 0.198052 0.133222
v 0.589222 0.180757 0.170310
v 0.589222 0.207949 0.160413
v 0.589222 0.170860 0.143118
v 0.589222 0.198052 0.133222
v 0.601796 0.180757 0.152692
v 0.591899 0.207949 0.152692
v 0.574604 0.170860 0.152692
v 0.564708 0.198052 0.152692
v 0.601796 0.180757 -0.116541
v 0.591899 0.207949 -0.116541
v 0.574605 0.170860 -0.116541
v 0.564708 0.198052 -0.116541
v 0.303097 0.166866 0.126594
v 0.312956 0.194058 0.127457
v 0.275892 0.176726 0.126746
v 0.285751 0.203917 0.127608
v 0.304507 0.174892 -0.142515
v 0.314366 0.202083 -0.141652
v 0.277302 0.184751 -0.142363
v 0.287161 0.211943 -0.141501
v 0.504502 0.498339 -0.060035
v 0.504502 0.488827 -0.060035
v 0.504502 0.498339 0.066625
v 0.504502 0.488827 0.066625
v 0.379219 0.498339 -0.060035
v 0.379219 0.488827 -0.060035
v 0.379219 0.498339 0.066625
v 0.379219 0.488827 0.066625
v 0.466190 0.520163 0.027892
v 0.417531 0.520163 0.027892
v 0.417531 0.520163 -0.021302
v 0.466190 0.520163 -0.021302
v 0.466190 0.566751 0.027892
v 0.417531 0.566751 0.027892
v 0.417531 0.566751 -0.021302
v 0.466190 0.566751 -0.021302
vn -0.0000 -1.0000 -0.0000
vn 0.9401 -0.0000 0.3408
vn 0.2271 0.9704 -0.0823
vn -0.9401 -0.0000 -0.3408
vn -0.3408 -0.0000 0.9401
vn 0.3408 -0.0000 -0.9401
vn -0.3408 -0.0000 -0.9401
vn 0.3408 -0.0000 0.9401
vn 0.0823 0.9704 -0.2271
vn 0.0823 0.9704 0.2271
vn -0.9401 -0.0000 0.3408
vn -0.2271 0.9704 0.0823
vn 0.9401 -0.0000 -0.3408
vn -0.2271 0.9704 -0.0823
vn 0.2271 0.9704 0.0823
vn -0.0823 0.9704 -0.2271
vn -0.0823 0.9704 0.2271
vn -0.4382 0.8847 0.1589
vn 0.1589 0.8847 -0.4382
vn -0.4382 0.8847 -0.1589
vn -0.1589 0.8847 -0.4382
vn 0.1589 0.8847 0.4382
vn 0.4382 0.8847 0.1589
vn -0.1589 0.8847 0.4382
vn 0.4382 0.8847 -0.1589
vn -0.0000 1.0000 -0.0000
vn 0.6184 0.7532 -0.2242
vn -0.2242 0.7532 0.6185
vn 0.6184 0.7532 0.2242
vn 0.2242 0.7532 0.6184
vn -0.2242 0.7532 -0.6185
vn -0.6185 0.7531 -0.2242
vn 0.2242 0.7532 -0.6184
vn -0.6185 0.7531 0.2242
vn 0.9379 0.3404 0.0675
vn -0.9421 -0.3271 -0.0739
vn -0.0115 -0.3445 0.9387
vn 0.0189 0.3569 -0.9340
vn 0.9392 -0.3430 0.0125
vn -0.9339 0.3570 -0.0195
vn -0.0651 -0.3287 0.9422
vn 0.0466 0.3456 -0.9372
vn 0.9325 0.3597 0.0311
vn -0.9400 -0.3410 -0.0132
vn -0.0596 0.3424 0.9377
vn 0.0654 -0.3310 -0.9414
vn 0.9428 -0.3252 0.0732
vn -0.9376 0.3432 -0.0562
vn -0.0306 0.3596 0.9326
vn 0.0119 -0.3423 -0.9395
vn -0.0000 0.3420 -0.9397
vn -0.0000 -0.3420 0.9397
vn -0.0000 -0.9397 -0.3420
vn -0.0000 0.9397 0.3420
vn -0.0000 -0.3420 -0.9397
vn -0.0000 0.3420 0.9397
vn -0.0000 -0.9397 0.3420
vn -0.0000 0.9397 -0.3420
vn -0.9397 -0.3420 -0.0000
vn 0.9397 0.3420 -0.0000
vn 0.3420 -0.9397 -0.0000
vn -0.3420 0.9397 -0.0000
vn -0.9402 0.3407 0.0052
vn 0.9402 -0.3407 -0.0052
vn -0.3407 -0.9397 -0.0298
vn 0.3407 0.9397 0.0298
vn 1.0000 -0.0000 -0.0000
vn 0.4950 0.8689 -0.0000
vn -1.0000 -0.0000 -0.0000
vn -0.0000 -0.0000 1.0000
vn -0.0000 -0.0000 -1.0000
vn -0.0000 0.8712 0.4909
vn -0.0000 0.8712 -0.4909
vn -0.4950 0.8689 -0.0000
vt 0.653080 0.634182
vt 0.656574 0.613133
vt 0.656851 0.706676
vt 0.646149 0.706526
vt 0.646149 0.613138
vt 0.658126 0.664628
vt 0.653698 0.702546
s 0
f 18/1/1 13/1/1 4/1/1 11/1/1
f 13/1/2 14/1/2 3/1/2 4/1/2
f 14/1/3 1/1/3 19/1/3 25/1/3
f 15/1/4 16/1/4 5/1/4 6/1/4
f 11/1/5 9/1/5 7/1/5 8/1/5
f 12/1/6 10/1/6 1/1/6 2/1/6
f 6/1/7 5/1/7 10/1/7 12/1/7
f 4/1/8 3/1/8 9/1/8 11/1/8
f 1/1/9 10/1/9 24/1/9 19/1/9
f 15/1/1 18/1/1 11/1/1 8/1/1
f 6/1/1 12/1/1 18/1/1 15/1/1
f 9/1/10 3/1/10 20/1/10 23/1/10
f 8/1/11 7/1/11 16/1/11 15/1/11
f 16/1/12 7/1/12 22/1/12 26/1/12
f 2/1/13 1/1/13 14/1/13 13/1/13
f 12/1/1 2/1/1 13/1/1 18/1/1
f 22/1/5 23/1/5 31/1/5 30/1/5
f 20/1/2 25/1/2 33/1/2 28/1/2
f 23/1/8 20/1/8 28/1/8 31/1/8
f 26/1/11 22/1/11 30/1/11 34/1/11
f 5/1/14 16/1/14 26/1/14 21/1/14
f 3/1/15 14/1/15 25/1/15 20/1/15
f 10/1/16 5/1/16 21/1/16 24/1/16
f 7/1/17 9/1/17 23/1/17 22/1/17
f 34/1/18 30/1/18 38/1/18 42/1/18
f 17/1/19 32/1/19 40/1/19 27/1/19
f 29/1/20 34/1/20 42/1/20 37/1/20
f 32/1/21 29/1/21 37/1/21 40/1/21
f 25/1/13 19/1/13 17/1/13 33/1/13
f 24/1/7 21/1/7 29/1/7 32/1/7
f 21/1/4 26/1/4 34/1/4 29/1/4
f 19/1/6 24/1/6 32/1/6 17/1/6
f 37/1/4 42/1/4 50/1/4 45/1/4
f 40/1/7 37/1/7 45/1/7 48/1/7
f 41/1/13 27/1/13 35/1/13 49/1/13
f 38/1/5 39/1/5 47/1/5 46/1/5
f 31/1/22 28/1/22 36/1/22 39/1/22
f 28/1/23 33/1/23 41/1/23 36/1/23
f 30/1/24 31/1/24 39/1/24 38/1/24
f 33/1/25 17/1/25 27/1/25 41/1/25
f 49/1/1 35/1/1 43/1/1 57/1/1
f 46/1/1 47/1/1 55/1/1 54/1/1
f 44/1/1 49/1/1 57/1/1 52/1/1
f 47/1/1 44/1/1 52/1/1 55/1/1
f 27/1/6 40/1/6 48/1/6 35/1/6
f 42/1/11 38/1/11 46/1/11 50/1/11
f 39/1/8 36/1/8 44/1/8 47/1/8
f 36/1/2 41/1/2 49/1/2 44/1/2
f 52/1/2 57/1/2 64/1/2 59/1/2
f 55/1/8 52/1/8 59/1/8 62/1/8
f 58/1/11 54/1/11 61/1/11 65/1/11
f 43/1/6 56/1/6 63/1/6 51/1/6
f 48/1/1 45/1/1 53/1/1 56/1/1
f 45/1/1 50/1/1 58/1/1 53/1/1
f 35/1/1 48/1/1 56/1/1 43/1/1
f 50/1/1 46/1/1 54/1/1 58/1/1
f 62/1/26 59/1/26 68/1/26 71/1/26
f 65/1/26 61/1/26 70/1/26 74/1/26
f 51/1/26 63/1/26 72/1/26 67/1/26
f 60/1/26 65/1/26 74/1/26 69/1/26
f 54/1/5 55/1/5 62/1/5 61/1/5
f 57/1/13 43/1/13 51/1/13 64/1/13
f 56/1/7 53/1/7 60/1/7 63/1/7
f 53/1/4 58/1/4 65/1/4 60/1/4
f 67/1/6 72/1/6 80/1/6 66/1/6
f 69/1/4 74/1/4 82/1/4 77/1/4
f 72/1/7 69/1/7 77/1/7 80/1/7
f 73/1/13 67/1/13 66/1/13 81/1/13
f 59/1/26 64/1/26 73/1/26 68/1/26
f 61/1/26 62/1/26 71/1/26 70/1/26
f 64/1/26 51/1/26 67/1/26 73/1/26
f 63/1/26 60/1/26 69/1/26 72/1/26
f 81/1/27 66/1/27 75/1/27 88/1/27
f 78/1/28 79/1/28 86/1/28 85/1/28
f 76/1/29 81/1/29 88/1/29 83/1/29
f 79/1/30 76/1/30 83/1/30 86/1/30
f 74/1/11 70/1/11 78/1/11 82/1/11
f 71/1/8 68/1/8 76/1/8 79/1/8
f 68/1/2 73/1/2 81/1/2 76/1/2
f 70/1/5 71/1/5 79/1/5 78/1/5
f 80/1/31 77/1/31 84/1/31 87/1/31
f 77/1/32 82/1/32 89/1/32 84/1/32
f 66/1/33 80/1/33 87/1/33 75/1/33
f 82/1/34 78/1/34 85/1/34 89/1/34
f 91/2/35 90/3/35 92/4/35 93/5/35
f 97/2/36 96/3/36 94/4/36 95/5/36
f 93/2/37 92/3/37 96/4/37 97/5/37
f 95/2/38 94/3/38 90/4/38 91/5/38
f 98/2/39 94/3/39 96/4/39 99/5/39
f 103/2/40 102/3/40 100/4/40 101/5/40
f 99/2/41 96/3/41 102/4/41 103/5/41
f 101/2/42 100/3/42 94/4/42 98/5/42
f 104/2/43 92/3/43 105/4/43 106/5/43
f 109/2/44 108/3/44 96/4/44 107/5/44
f 106/2/45 105/3/45 108/4/45 109/5/45
f 107/2/46 96/3/46 92/4/46 104/5/46
f 110/2/47 96/3/47 108/4/47 111/5/47
f 114/2/48 113/3/48 102/4/48 112/5/48
f 111/2/49 108/3/49 113/4/49 114/5/49
f 112/2/50 102/3/50 96/4/50 110/5/50
f 117/6/51 118/6/51 122/6/51 121/6/51
f 119/6/52 120/6/52 116/6/52 115/6/52
f 117/6/53 121/6/53 119/6/53 115/6/53
f 122/6/54 118/6/54 116/6/54 120/6/54
f 125/6/55 126/6/55 130/6/55 129/6/55
f 127/6/56 128/6/56 124/6/56 123/6/56
f 125/6/57 129/6/57 127/6/57 123/6/57
f 130/6/58 126/6/58 124/6/58 128/6/58
f 133/6/59 134/6/59 138/6/59 137/6/59
f 135/6/60 136/6/60 132/6/60 131/6/60
f 133/6/61 137/6/61 135/6/61 131/6/61
f 138/6/62 134/6/62 132/6/62 136/6/62
f 141/6/63 142/6/63 146/6/63 145/6/63
f 143/6/64 144/6/64 140/6/64 139/6/64
f 141/6/65 145/6/65 143/6/65 139/6/65
f 146/6/66 142/6/66 140/6/66 144/6/66
f 152/7/1 148/7/1 150/7/1 154/7/1
f 148/7/67 147/7/67 149/7/67 150/7/67
f 149/7/68 147/7/68 158/7/68 155/7/68
f 154/7/69 153/7/69 151/7/69 152/7/69
f 150/7/70 149/7/70 153/7/70 154/7/70
f 152/7/71 151/7/71 147/7/71 148/7/71
f 157/7/69 156/7/69 160/7/69 161/7/69
f 153/7/72 149/7/72 155/7/72 156/7/72
f 147/7/73 151/7/73 157/7/73 158/7/73
f 151/7/74 153/7/74 156/7/74 157/7/74
f 162/7/26 161/7/26 160/7/26 159/7/26
f 158/7/71 157/7/71 161/7/71 162/7/71
f 155/7/67 158/7/67 162/7/67 159/7/67
f 156/7/70 155/7/70 159/7/70 160/7/70
