# Blender 4.2.0
# www.blender.org
o Cube.045
v -0.243998 0.210439 -0.050800
v 0.203774 -0.058539 -0.038179
v -0.243998 0.210439 0.050800
v 0.203774 -0.058539 0.038179
v -0.306963 0.097945 -0.050800
v 0.156451 -0.143086 -0.038179
v -0.306963 0.097945 0.050800
v 0.156451 -0.143086 0.038179
v -0.185328 0.315259 0.050800
v -0.365633 -0.006875 0.050800
v -0.365633 -0.006875 -0.050800
v -0.185328 0.315259 -0.050800
v -0.237566 0.344498 0.050800
v -0.417871 0.022363 0.050800
v -0.417871 0.022363 -0.050800
v -0.237566 0.344498 -0.050800
v -0.339299 0.281515 0.050800
v -0.417380 0.142014 0.050800
v -0.417380 0.142014 -0.050800
v -0.339299 0.281515 -0.050800
v -0.299141 0.111919 0.038180
v -0.299141 0.111919 -0.038179
v -0.251819 0.196465 0.038180
v -0.251819 0.196465 -0.038179
v -0.368110 0.230041 0.050800
v -0.388570 0.193487 0.050800
v -0.388570 0.193487 -0.050800
v -0.368110 0.230041 -0.050800
v -0.379912 0.236647 0.050800
v -0.400372 0.200093 0.050800
v -0.400372 0.200093 -0.050800
v -0.379912 0.236647 -0.050800
v -0.253344 0.334730 -0.035043
v -0.253344 0.334730 0.035043
v -0.323521 0.291283 -0.035043
v -0.323521 0.291283 0.035043
v -0.247203 0.324812 -0.035043
v -0.247203 0.324812 0.035043
v -0.317381 0.281365 -0.035043
v -0.317381 0.281365 0.035043
v -0.417798 0.040153 0.035694
v -0.417798 0.040153 -0.035694
v -0.417453 0.124224 0.035694
v -0.417453 0.124224 -0.035694
v -0.400965 0.040084 0.035694
v -0.400965 0.040084 -0.035694
v -0.400621 0.124155 0.035694
v -0.400621 0.124155 -0.035694
v -0.236114 0.224523 -0.037149
v -0.236114 0.224523 0.037149
v -0.193211 0.301175 -0.037149
v -0.193211 0.301175 0.037149
v -0.257276 0.236368 -0.037149
v -0.257276 0.236368 0.037149
v -0.214372 0.313019 -0.037149
v -0.214372 0.313019 0.037149
v -0.316158 0.081516 0.034876
v -0.316158 0.081516 -0.034876
v -0.356438 0.009553 0.034876
v -0.356438 0.009553 -0.034876
v -0.340866 0.095346 0.034876
v -0.340866 0.095346 -0.034876
v -0.381145 0.023383 0.034876
v -0.381145 0.023383 -0.034876
v 0.237292 -0.117613 -0.038179
v 0.237292 -0.117613 0.038179
v 0.224332 -0.140768 -0.038179
v 0.224332 -0.140768 0.038179
vn 0.0341 -0.9994 -0.0000
vn -0.0000 -0.0000 1.0000
vn 0.8726 -0.4884 -0.0000
vn -0.0000 -0.0000 -1.0000
vn -0.4884 -0.8726 -0.0000
vn -0.8726 0.4884 -0.0000
vn -0.5264 0.8502 -0.0000
vn 0.4884 0.8726 -0.0000
vn -1.0000 0.0041 -0.0000
vn -0.8502 -0.5264 -0.0000
vn 0.8502 0.5264 -0.0000
vn -0.0041 -1.0000 -0.0000
vn 0.0041 1.0000 -0.0000
vn 0.8697 0.4935 -0.0000
vt 0.568953 0.518519
vt 0.568953 0.606620
vt 0.570143 0.608604
s 0
f 8/1/1 6/1/1 67/1/1 68/1/1
f 8/1/2 4/1/2 23/1/2 21/1/2
f 9/1/3 3/1/3 50/1/3 52/1/3
f 6/1/4 22/1/4 24/1/4 2/1/4
f 7/1/3 21/1/3 23/1/3 3/1/3
f 5/1/3 1/1/3 24/1/3 22/1/3
f 11/1/5 10/1/5 14/1/5 15/1/5
f 7/1/6 3/1/6 9/1/6 10/1/6
f 1/1/6 5/1/6 11/1/6 12/1/6
f 5/1/3 7/1/3 57/1/3 58/1/3
f 13/1/7 16/1/7 33/1/7 34/1/7
f 12/1/4 11/1/4 15/1/4 16/1/4
f 9/1/8 12/1/8 16/1/8 13/1/8
f 10/1/2 9/1/2 13/1/2 14/1/2
f 18/1/3 17/1/3 25/1/3 26/1/3
f 14/1/2 13/1/2 17/1/2 18/1/2
f 19/1/9 15/1/9 42/1/9 44/1/9
f 16/1/4 15/1/4 19/1/4 20/1/4
f 21/1/5 22/1/5 6/1/5 8/1/5
f 24/1/8 23/1/8 4/1/8 2/1/8
f 1/1/3 3/1/3 23/1/3 24/1/3
f 7/1/3 5/1/3 22/1/3 21/1/3
f 25/2/8 28/2/8 32/2/8 29/2/8
f 19/1/6 18/1/6 26/1/6 27/1/6
f 20/1/3 19/1/3 27/1/3 28/1/3
f 17/1/6 20/1/6 28/1/6 25/1/6
f 32/2/6 31/2/6 30/2/6 29/2/6
f 26/2/2 25/2/2 29/2/2 30/2/2
f 27/2/5 26/2/5 30/2/5 31/2/5
f 28/2/4 27/2/4 31/2/4 32/2/4
f 33/1/2 35/1/2 39/1/2 37/1/2
f 17/1/7 13/1/7 34/1/7 36/1/7
f 16/1/7 20/1/7 35/1/7 33/1/7
f 20/1/7 17/1/7 36/1/7 35/1/7
f 38/3/7 37/3/7 39/3/7 40/3/7
f 34/1/10 33/1/10 37/1/10 38/1/10
f 36/1/4 34/1/4 38/1/4 40/1/4
f 35/1/11 36/1/11 40/1/11 39/1/11
f 44/1/2 42/1/2 46/1/2 48/1/2
f 18/1/9 19/1/9 44/1/9 43/1/9
f 15/1/9 14/1/9 41/1/9 42/1/9
f 14/1/9 18/1/9 43/1/9 41/1/9
f 46/3/9 45/3/9 47/3/9 48/3/9
f 43/1/12 44/1/12 48/1/12 47/1/12
f 41/1/4 43/1/4 47/1/4 45/1/4
f 42/1/13 41/1/13 45/1/13 46/1/13
f 49/1/2 51/1/2 55/1/2 53/1/2
f 3/1/3 1/1/3 49/1/3 50/1/3
f 1/1/3 12/1/3 51/1/3 49/1/3
f 12/1/3 9/1/3 52/1/3 51/1/3
f 54/3/3 53/3/3 55/3/3 56/3/3
f 50/1/8 49/1/8 53/1/8 54/1/8
f 52/1/4 50/1/4 54/1/4 56/1/4
f 51/1/5 52/1/5 56/1/5 55/1/5
f 60/1/2 58/1/2 62/1/2 64/1/2
f 11/1/3 5/1/3 58/1/3 60/1/3
f 10/1/3 11/1/3 60/1/3 59/1/3
f 7/1/3 10/1/3 59/1/3 57/1/3
f 62/3/3 61/3/3 63/3/3 64/3/3
f 59/1/8 60/1/8 64/1/8 63/1/8
f 57/1/4 59/1/4 63/1/4 61/1/4
f 58/1/5 57/1/5 61/1/5 62/1/5
f 66/1/3 68/1/3 67/1/3 65/1/3
f 4/1/2 8/1/2 68/1/2 66/1/2
f 6/1/4 2/1/4 65/1/4 67/1/4
f 2/1/14 4/1/14 66/1/14 65/1/14
