# Blender 4.2.0
# www.blender.org
o Cube.047
v -0.002887 -0.369394 0.000000
v 0.002886 -0.369394 0.000000
v -0.000000 -0.369394 -0.002887
v -0.000000 -0.369394 0.002887
v -0.002119 -0.369394 0.002119
v -0.002119 -0.369394 -0.002119
v 0.003924 0.318738 -0.006001
v 0.002118 0.318026 -0.002119
v 0.002118 0.318026 0.002119
v -0.002119 0.318026 -0.002119
v -0.002119 0.318026 0.002119
v -0.000000 0.318026 0.002887
v -0.000000 0.318026 -0.002887
v 0.002886 0.318026 0.000000
v -0.002887 0.318026 0.000000
v 0.003924 0.318738 0.006001
v -0.003924 0.318738 -0.006001
v -0.003924 0.318738 0.006001
v 0.002118 -0.369394 0.002119
v 0.002118 -0.369394 -0.002119
v 0.003924 0.323609 -0.006001
v 0.003924 0.323609 0.006001
v -0.003924 0.323609 -0.006001
v -0.003924 0.323609 0.006001
v 0.004702 0.323609 -0.020158
v 0.004702 0.323609 0.020158
v -0.004702 0.323609 -0.020158
v -0.004702 0.323609 0.020158
v 0.004702 0.358217 -0.020158
v 0.004702 0.358217 0.020158
v -0.004702 0.358217 -0.020158
v -0.004702 0.358217 0.020158
v -0.000447 0.332651 0.013907
v -0.000447 0.592551 0.013907
v 0.001954 0.332651 0.018065
v 0.001954 0.592551 0.018065
v -0.002848 0.332651 0.018065
v -0.002848 0.592551 0.018065
v -0.000447 0.332651 -0.017082
v -0.000447 0.592551 -0.017082
v 0.001954 0.332651 -0.012924
v 0.001954 0.592551 -0.012924
v -0.002848 0.332651 -0.012924
v -0.002848 0.592551 -0.012924
vn -0.3408 -0.0000 0.9401
vn 0.9401 -0.0000 0.3408
vn 0.2157 -0.9733 0.0782
vn 0.3408 -0.0000 0.9401
vn 0.9401 -0.0000 -0.3408
vn 0.3408 -0.0000 -0.9401
vn -0.0561 -0.9863 -0.1548
vn 0.0561 -0.9863 0.1548
vn -0.2157 -0.9733 -0.0782
vn -0.0000 -0.9748 0.2229
vn -0.0561 -0.9863 0.1548
vn 0.5658 -0.8246 -0.0000
vn 0.2157 -0.9733 -0.0782
vn -0.0000 -0.9748 -0.2229
vn 0.0561 -0.9863 -0.1548
vn -0.5660 -0.8244 -0.0000
vn -0.2157 -0.9733 0.0782
vn -1.0000 -0.0000 -0.0000
vn 1.0000 -0.0000 -0.0000
vn -0.0000 -0.0000 1.0000
vn -0.0000 -0.0000 -1.0000
vn -0.0000 -1.0000 -0.0000
vn -0.0000 1.0000 -0.0000
vn -0.9401 -0.0000 -0.3408
vn -0.3408 -0.0000 -0.9401
vn -0.9401 -0.0000 0.3408
vn 0.8660 -0.0000 -0.5000
vn -0.8660 -0.0000 -0.5000
vn -0.8660 -0.0000 0.5000
vt 0.651191 0.635556
s 0
f 12/1/1 11/1/1 5/1/1 4/1/1
f 14/1/2 9/1/2 19/1/2 2/1/2
f 9/1/3 14/1/3 16/1/3
f 9/1/4 12/1/4 4/1/4 19/1/4
f 8/1/5 14/1/5 2/1/5 20/1/5
f 13/1/6 8/1/6 20/1/6 3/1/6
f 13/1/7 10/1/7 17/1/7
f 12/1/8 9/1/8 16/1/8
f 10/1/9 15/1/9 17/1/9
f 16/1/10 18/1/10 12/1/10
f 18/1/11 11/1/11 12/1/11
f 16/1/12 14/1/12 7/1/12
f 7/1/13 14/1/13 8/1/13
f 17/1/14 7/1/14 13/1/14
f 7/1/15 8/1/15 13/1/15
f 17/1/16 15/1/16 18/1/16
f 18/1/17 15/1/17 11/1/17
f 17/1/18 18/1/18 24/1/18 23/1/18
f 16/1/19 7/1/19 21/1/19 22/1/19
f 18/1/20 16/1/20 22/1/20 24/1/20
f 7/1/21 17/1/21 23/1/21 21/1/21
f 24/1/22 22/1/22 26/1/22 28/1/22
f 22/1/22 21/1/22 25/1/22 26/1/22
f 23/1/22 24/1/22 28/1/22 27/1/22
f 21/1/22 23/1/22 27/1/22 25/1/22
f 26/1/19 25/1/19 29/1/19 30/1/19
f 27/1/18 28/1/18 32/1/18 31/1/18
f 25/1/21 27/1/21 31/1/21 29/1/21
f 28/1/20 26/1/20 30/1/20 32/1/20
f 29/1/23 31/1/23 32/1/23 30/1/23
f 15/1/24 10/1/24 6/1/24 1/1/24
f 10/1/25 13/1/25 3/1/25 6/1/25
f 11/1/26 15/1/26 1/1/26 5/1/26
f 33/1/27 34/1/27 36/1/27 35/1/27
f 35/1/20 36/1/20 38/1/20 37/1/20
f 36/1/23 34/1/23 38/1/23
f 37/1/28 38/1/28 34/1/28 33/1/28
f 33/1/22 35/1/22 37/1/22
f 34/1/29 33/1/29 37/1/29 35/1/29 36/1/29 38/1/29
f 39/1/27 40/1/27 42/1/27 41/1/27
f 41/1/20 42/1/20 44/1/20 43/1/20
f 42/1/23 40/1/23 44/1/23
f 43/1/28 44/1/28 40/1/28 39/1/28
f 39/1/22 41/1/22 43/1/22
f 40/1/29 39/1/29 43/1/29 41/1/29 42/1/29 44/1/29
